<?xml version="1.0" encoding="utf-8"?>
<!-- Generator: Adobe Illustrator 24.0.1, SVG Export Plug-In . SVG Version: 6.00 Build 0)  -->
<svg version="1.1" id="Layer_1" xmlns="http://www.w3.org/2000/svg" xmlns:xlink="http://www.w3.org/1999/xlink" x="0px" y="0px"
	 viewBox="0 0 511.26 837.21" style="enable-background:new 0 0 511.26 837.21;" xml:space="preserve">
<path d="M484.08,253.23c-0.17-2.55-1.16-3.84-2.92-4.45c-0.01-0.47,0-0.95-0.01-1.42c-1.1-55.91-29.6-208.28-223.63-210.48
	c-0.17,0-0.33,0-0.5,0c0,0-0.01,0-0.01,0c-0.28,0-0.56,0-0.84,0c0,0,0,0,0,0c-0.1-0.01-0.19,0-0.28,0
	c-1.79-0.02-3.57-0.01-5.32,0.03C62.71,38.26,29.51,181.34,30.6,250.65c0.02,1.11,0.07,2.22,0.11,3.33
	c-1.03,0.05-3.89,0.34-6.05,2.17c-4.56,3.87-4.97,10.37,5.33,10.92l-0.49,0.29l2.6,4.4c7.28,58.1,40.78,110.37,95.13,160.82
	l51.22,86.59c-0.49,0.56-0.81,1.29-0.81,2.3c0,2.45,0.89,4.02,3.33,4.96l22.43,66.29c-2.69,0.73-5.12,2.05-5.12,4.44
	c0,4.15,0.95,6.92,7.44,8.13l3.11,45.6l-31.44,87.24c-1.56,0.68-2.81,2.05-2.25,4.79c0.46,2.26,1.31,7.22,2.79,13.39
	c1.31-0.1,2.98-0.19,5.23-0.26c3.12-0.1,23.47,0.23,42.21,0c16.97-0.21,11.64,1.15,6.9,1.38c-4.73,0.23-20.71,0-30.77,0.92
	c-10.06,0.92-19.53,1.84-20.51,4.15c-0.31,0.72-0.73,0.95-1.2,0.91c2.73,9.55,6.85,20.46,13.01,28.84
	c12.2,16.58,19.03,18.85,36.18,18.85c13.96,0,57.16-0.28,63.05-1.11c5.89-0.83,11.82,1.74,27.81-14.43
	c15.98-16.16,22.72-34.82,22.72-44.35c0-9.51,2.09-13.66-4.16-14.5l1.7-0.71l-37.76-89.97l5.13-42.03c1.95-0.63,3.96-2.2,3.96-6.08
	c0-2.37-0.76-4.21-2.15-5.55l13.66-65.2c3.55-0.8,6.06-2.34,6.06-5.32c0-2.54-0.73-4.08-1.97-5.03l35.74-61.15
	c5.47-5.43,11.28-10.92,17.52-16.47c73.22-65.08,98.31-126.39,100.68-179.55C483.05,258.91,484.34,257.1,484.08,253.23z
	 M363.95,439.63c-18.29,18.66-32.62,36.76-43.85,53.29l32.42-68.58c26.07-36.98,41.68-72.6,50.13-106.05L430,260.45
	c7.88-0.18,15.16-0.35,21.43-0.48c-0.57,15.93-2.92,32.6-7.66,49.89l-69.38,118.7C371.04,432.24,367.58,435.93,363.95,439.63z
	 M192.85,517.48l-10.7-23.59c5.29,8.14,9.79,16.05,13.6,23.54C194.73,517.45,193.76,517.47,192.85,517.48z M74.78,266.06
	l81.53,179.7c-1.24-1.32-2.47-2.63-3.75-3.94C98.58,386.98,66,330.25,60.89,266.38C65.15,266.28,69.78,266.17,74.78,266.06z
	 M78.73,265.97c6.98-0.16,14.56-0.33,22.57-0.5c4.06,64.05,29.88,120.94,72.66,175.93c4.1,5.27,7.89,10.65,11.41,16.07l20.51,56.34
	h-3.96c-8.5-18.38-20.58-39.05-37.51-58.98L78.73,265.97z M266.03,513.81c2.47-21.64,6.09-47.54,11.36-74.61
	c0.22-1.15,0.42-2.29,0.64-3.43l-7.45,78.04H266.03z M209.78,513.81l-14.41-39.59c7.44,13.63,13.28,27.14,17.82,39.59H209.78z
	 M238.11,573.64l-3.16,10.47l-3.1-10.47H238.11z M278.05,573.64l-3.27,13.53l-4.11-13.53H278.05z M306.21,513.81h-8.89l2.92-8.35
	c9.61-19.74,22.89-42.43,41.12-66.01L306.21,513.81z M410.84,260.89c5.18-0.12,10.24-0.23,15.1-0.34l-19.73,41.72
	C408.93,288.01,410.37,274.2,410.84,260.89z M311.28,439.63c-5.27,10.49-9.9,20.81-13.97,30.77l43.01-208.34
	c4.96-0.02,10.25-0.07,15.77-0.14C354.88,314.61,343.63,375.27,311.28,439.63z M289.14,491.95c-2.68,7.65-5.03,14.97-7.06,21.86
	h-7.85l13.22-138.46c2.13-17.41,3.71-34.41,4.86-50.9l5.96-62.48c9.84-0.07,17.62-0.07,22.54,0.01c4.54,0.08,9.88,0.11,15.78,0.09
	L289.14,491.95z M235.32,441.39c4.66,23.87,7.78,49.87,9.84,72.41h-8.17l-25.18-250.59c1.75-0.03,3.49-0.06,5.23-0.09
	C217.94,328.13,224.45,385.73,235.32,441.39z M208.16,263.29l25.17,250.52h-5.1c-5.03-21.19-12.48-45.41-23.38-68.04l-36.01-181.73
	C181.96,263.78,195.21,263.52,208.16,263.29z M165.13,264.12l33.47,168.92c-25.37-52.72-40.56-107.42-42.78-168.73
	C158.92,264.24,162.02,264.18,165.13,264.12z M215.58,573.64h12.48l5.15,17.39c-19.02,0.03-22.7,0.76-22.7,0.76s-0.42,0-1.09,0.03
	l3.46-29.11L215.58,573.64z M241.92,573.64h24.96l5.19,17.09c-11.84,0.19-25.21,0.29-35.39,0.3L241.92,573.64z M281.8,573.64h3.99
	l9.61-24.88l8.68,41.25c-1.65-0.27-3.54-0.33-5.65-0.13c-3.28,0.31-11.17,0.56-20.73,0.75L281.8,573.64z M451.55,248.4
	c0,0.18,0,0.37,0,0.55c-9.5,0.09-23.8,0.24-40.55,0.41c0-0.67,0-1.34-0.01-2c-0.68-50.53-16.79-179.86-118.54-205.89
	C429.37,62.81,450.67,196.81,451.55,248.4z M155.55,251.38c-0.43-67.96,13.88-206.39,93.54-212.58
	c-27.28,17.28-32.32,146.57-32.16,211.57C200.03,250.56,178.24,250.94,155.55,251.38z M262.08,38.97
	c81.46,8.34,93.64,154.9,94.12,209.43c0,0.5,0,1,0,1.5c-21.34,0.2-42.85,0.37-61.39,0.47c0-1,0.01-2.02,0-3.01
	C294.64,194.92,290.29,57.63,262.08,38.97z M217.19,41.14c-98.6,24.39-117.12,146.98-116.45,209.51c0.01,0.62,0.03,1.24,0.04,1.86
	c-15.15,0.33-29.12,0.63-40.55,0.88c-0.01-0.57-0.04-1.14-0.05-1.71C59.32,187.71,83.97,60.66,217.19,41.14z M29.63,262.12
	c-4.72-1.69-1.9-3.6,1.18-4.81c1.47-0.58,2.99-1,3.79-1.16c1.03-0.21,12.38-0.5,25.69-0.77c15.09-0.31,32.66-0.59,40.54-0.69
	c2.02-0.03,3.42-0.04,3.95-0.04c1.66,0,23.29-0.34,50.81-0.77c19.18-0.3,41.21-0.64,61.35-0.94c29.08-0.43,54.2-0.78,61.05-0.78
	c2.78,0,8.72-0.01,16.8-0.03c15.07-0.04,37.64-0.11,61.39-0.21c18.57-0.07,37.84-0.16,54.81-0.26c16.75-0.09,31.24-0.2,40.55-0.3
	c5.66-0.06,9.43-0.13,10.61-0.2c5.88-0.33-2.56,0.77-10.6,1.71c-4.2,0.49-8.3,0.93-10.18,1.1c-1.89,0.17-14.07,0.26-30.4,0.32
	c-16.2,0.06-36.46,0.09-54.79,0.15c-16.84,0.06-32.05,0.14-40.96,0.3c-3.65,0.06-10.79,0.17-20.44,0.3
	c-18.7,0.26-46.89,0.63-77.83,1.03c-19.92,0.26-40.95,0.54-61.31,0.81c-19.4,0.26-38.17,0.51-54.75,0.74
	c-16.03,0.22-30.01,0.43-40.54,0.6c-11.46,0.18-18.85,0.33-20.29,0.41c-4.98,0.28-7.64,1.32-9.04,2.19
	C29.93,261.53,29.63,262.12,29.63,262.12z M136.29,440.82c0.22,0.19,0.42,0.38,0.64,0.58c13.45,11.91,24.66,24.35,34.02,36.63
	l17.94,39.53c-3.03,0.05-4.75,0.09-4.75,0.09s-1.1-0.12-2.39,0.04L136.29,440.82z M185.06,527.3c1.73,0.19,3.82,0.28,6.34,0.28
	c1.52,0,4.78,0.01,9.26,0.02c4.11,9.03,7.2,17.18,9.46,24.01l0.27,1.1l-4.35,36.65L185.06,527.3z M205.33,599.64
	c-0.76,0.63-1.12,1.27-1.12,1.27c0.14,0.43-2.83,0.57-3.12-1.13c-0.31-1.85,0.67-2.93,3.42-3.77c0.23-0.07,0.51-0.14,0.76-0.21
	c0.73-0.19,1.53-0.38,2.48-0.56c0.08-0.01,0.18-0.02,0.26-0.04c0.3-0.05,0.63-0.1,1.01-0.14c5.23-0.57,17.51-0.32,25.28-0.32
	c0.43,0,0.83,0,1.23,0c1.61-0.01,2.99-0.02,3.96-0.07c3.61-0.17,20.01-0.24,33.65-0.33c1.24-0.01,2.46-0.02,3.65-0.03
	c7.24-0.05,13.19-0.12,15.15-0.21c5.64-0.28-4.35,1.85-15.57,1.97c-0.34,0-0.67,0.01-1.01,0.01c-0.48,0-1.06,0.01-1.68,0.01
	c-13.5,0.15-57.8,1.92-64.79,2.34c-0.4,0.02-0.71,0.05-0.85,0.06C206.83,598.63,205.95,599.13,205.33,599.64z M232.96,646.59
	l-1.94-40.77c7.88-0.15,16.86-0.37,25.03-0.55l-1.03,41.02L232.96,646.59z M259.69,605.19c7.34-0.15,13.68-0.24,17.46-0.18
	l1.97,40.95l-20.46,0.28L259.69,605.19z M212.8,605.94c3.12,0.09,8.36,0.05,14.58-0.05l1.97,40.75l-17.15,0.23l-2.81-41.12
	C210.44,605.83,211.55,605.9,212.8,605.94z M181.86,737.52c0,0-0.14-0.01-0.38-0.02l30.9-85.74l0.13-0.36l-0.06-0.88l16.96-0.23
	l-12.26,86.92C198.23,737.38,184.11,737.52,181.86,737.52z M220.83,737.16l12.23-86.93l21.88-0.3l-1.11,86.92
	C242.32,736.95,230.99,737.06,220.83,737.16z M190.02,765.26c5.13-1.38,28.8-1.38,36.49-1.15s9.86,2.08-0.39,1.84
	s-25.84,0-32.35,0.46C187.26,766.87,187.09,766.05,190.02,765.26z M220.4,788.55c-4.93,0.23-14.2,0-16.57,0.46
	c-2.37,0.46-8.28-1.15-1.97-1.38c6.55-0.24,16.17-0.92,18.93-0.69C223.55,787.17,225.33,788.32,220.4,788.55z M233.02,788.55
	c-1.78,0.46-3.16,0.46-4.34,0c-1.18-0.46-1.78-1.38,0.59-1.38C233.42,787.17,234.79,788.09,233.02,788.55z M241.11,780.71
	c-9.86,0.23-31.95,0.92-38.66,1.15c-6.71,0.23-11.05-1.38-1.18-1.84c4.34-0.2,29.78-0.46,37.08-0.69
	C245.64,779.1,250.97,780.48,241.11,780.71z M257.48,736.82l1.11-86.94l20.79-0.28l18.02,86.93
	C285.12,736.6,271.25,736.71,257.48,736.82z M336.39,736.59c-5.02-0.15-18.38-0.15-35.28-0.07l-18.05-86.97l16.71-0.23
	L336.39,736.59z M298.71,645.7l-15.96,0.22l-1.94-40.7c4.89,0.6,19.13-0.57,22.94-0.77L298.71,645.7z M306.93,585.88l-9.11-43.25
	c2.25-4.49,4.87-9.39,7.95-14.67c0.43,0,0.78,0,1.05,0c3.75,0,8.33,0.13,12.36-0.24L306.93,585.88z M323.55,515.56
	c-1.85-0.26-4.04-0.22-6.39-0.22c-0.51,0-1.75,0.01-3.6,0.04c9.52-14.6,22.12-31.22,38.67-48.88L323.55,515.56z M387.16,413.94
	l51.76-88.56C429.02,353.57,412.59,383.25,387.16,413.94z"/>
</svg>
