<svg xmlns="http://www.w3.org/2000/svg" viewBox="0 0 212.57 174.53"><defs><style>.cls-1,.cls-2{fill:#2f2918;}.cls-1{stroke:#312c1b;stroke-miterlimit:10;stroke-width:0.25px;}.cls-3{fill:#eee9c9;}</style></defs><g id="Layer_2" data-name="Layer 2"><g id="Layer_1-2" data-name="Layer 1"><path class="cls-1" d="M35.51,78c-.11.13-.22.28-.33.42,24.58,21.25,50.06,41.35,75.67,61.34V139C85.35,119.1,60,99.1,35.51,78Z"/><path class="cls-1" d="M36.6,72.72c0,.23,0,.48,0,.73,24.14,20.79,49.12,40.48,74.23,60.07v-.7C85.73,113.21,60.74,93.51,36.6,72.72Z"/><path class="cls-1" d="M121.72,122.78l-.46.35c6.92,5.42,10.37,8.15,17.28,13.68.2-.07.42-.13.65-.19C132.2,131,128.71,128.26,121.72,122.78Z"/><path class="cls-1" d="M29.44,76.37h.15a3.46,3.46,0,0,0,.52-.11c-6.5-5.79-9.75-8.76-16.25-14.9l-.12.35c0,.07,0,.13-.05.2C20,67.86,23.14,70.74,29.44,76.37Z"/><path class="cls-1" d="M16.55,48.44l-.37.36c30.25,27.82,62.29,53.27,94.67,78.54v-.71C78.61,101.47,46.69,76.12,16.55,48.44Z"/><path class="cls-1" d="M18.2,46.89l-.37.35c29.76,27.23,61.24,52.2,93,77v-.71C79.2,98.84,47.86,74,18.2,46.89Z"/><path class="cls-1" d="M34.23,71.35l0,0,.4-.29c-7.21-6.31-14.33-12.78-21.29-19.39L13,52Q23.42,61.89,34.23,71.35Z"/><path class="cls-1" d="M15,50l-.37.36Q25.2,60.43,36.25,70l.1-.06s0,.11,0,.16c24.21,20.87,49.28,40.64,74.48,60.3v-.7C78,104.1,45.56,78.29,15,50Z"/><path class="cls-1" d="M39.77,103.29V104C61.71,122.73,84.3,140.61,107,158.37l.27-.49C84.48,140.05,61.8,122.1,39.77,103.29Z"/><path class="cls-1" d="M28.26,90.07a3,3,0,0,0-.13.58c25.86,22.84,52.82,44.26,80,65.48.08-.17.17-.34.24-.52C81.15,134.36,54.16,112.93,28.26,90.07Z"/><path class="cls-1" d="M29.25,87.86c-.08.17-.15.34-.23.5,25.89,22.8,52.86,44.19,80.05,65.41.06-.19.13-.36.2-.55C82.1,132,55.14,110.64,29.25,87.86Z"/><path class="cls-1" d="M30.32,85.73l-.25.48c25.81,22.65,52.68,43.93,79.75,65.05,0-.19.11-.38.15-.58C83,129.58,56.11,108.34,30.32,85.73Z"/><path class="cls-1" d="M110.85,118.07v-.71C80.43,93.61,50.28,69.71,21.61,43.85l-.32.27a.27.27,0,0,0-.08.07C50,70.19,80.28,94.21,110.85,118.07Z"/><path class="cls-1" d="M32,74.86Q21.26,65.38,10.88,55.45a3.17,3.17,0,0,0,.12.81q10.14,9.72,20.68,19A3.39,3.39,0,0,0,32,74.86Z"/><path class="cls-1" d="M31.45,83.65l-.26.47c25.65,22.43,52.32,43.52,79.17,64.48,0-.21.08-.41.11-.62C83.68,127.06,57.06,106,31.45,83.65Z"/><path class="cls-1" d="M32.72,81.67l-.31.44c25.39,22.12,51.76,43,78.29,63.66l.06-.66C84.31,124.47,58,103.71,32.72,81.67Z"/><path class="cls-1" d="M32.82,73.2c.09-.17.18-.32.27-.47-7.21-6.34-14.32-12.84-21.26-19.47l-.11.11c-.08.09-.14.19-.22.28Q22,63.64,32.82,73.2Z"/><path class="cls-1" d="M118.91,108.91a3.66,3.66,0,0,0,.18-.46l0-.08C89.27,85,59.46,61.78,30.94,36.82l-.11.07-.34.24C59.08,62.18,89,85.51,118.91,108.91Z"/><path class="cls-1" d="M117.25,110.71a3.82,3.82,0,0,0,.49-.33C87.66,86.88,57.65,63.41,29,38.17l-.44.31C57.19,63.73,87.18,87.21,117.25,110.71Z"/><path class="cls-1" d="M145.75,136.43l1.07.17c-8.39-6.82-12.58-10.15-21-16.76l-.52.3C133.5,126.57,137.58,129.81,145.75,136.43Z"/><path class="cls-1" d="M110.85,121.16v-.71c-31-24.22-61.8-48.61-91-75.09l-.39.34C48.77,72.33,79.67,96.82,110.85,121.16Z"/><path class="cls-1" d="M119.68,124.27a3.83,3.83,0,0,0-.44.36c6.73,5.28,10.1,7.92,16.83,13.29l.54-.27C129.84,132.24,126.45,129.58,119.68,124.27Z"/><path class="cls-1" d="M110.85,115v-.71C81.06,91,51.52,67.62,23.38,42.38l-.4.34C51.24,68.1,80.92,91.61,110.85,115Z"/><path class="cls-1" d="M128.23,118.63l-.56.26q11.82,9.31,23.46,18.84c.54.19,1.09.41,1.65.65Q140.63,128.38,128.23,118.63Z"/><path class="cls-1" d="M110.85,111.89v-.71C81.71,88.44,52.81,65.56,25.21,41l-.42.33C52.51,66,81.56,89,110.85,111.89Z"/><path class="cls-1" d="M129.23,98.49l.59-.24c-28.12-22.15-56.49-43.94-83.91-67-.28,0-.56,0-.84,0C72.55,54.4,101,76.28,129.23,98.49Z"/><path class="cls-1" d="M119.85,106.56c.08-.17.16-.34.25-.51C90.65,83,61.2,60.08,33,35.54l-.48.28C60.78,60.46,90.31,83.46,119.85,106.56Z"/><path class="cls-1" d="M126.81,99.67l.53-.29C98.89,77,70.24,55,42.62,31.56c-.21.05-.41.07-.62.13h0C69.61,55.15,98.3,77.27,126.81,99.67Z"/><path class="cls-1" d="M131.89,97.51l.65-.2c-27-21.3-54.25-42.24-80.75-64.16l0,0a12.16,12.16,0,0,0-2.1-1.06C76.6,54.48,104.39,75.8,131.89,97.51Z"/><path class="cls-1" d="M124.64,101.05l.47-.34C96.44,78.22,67.63,56,39.9,32.31l-.59.2C67.07,56.23,95.92,78.53,124.64,101.05Z"/><path class="cls-1" d="M121.13,104.48l.29-.4,0,0C92.32,81.22,63.13,58.55,35.13,34.34c-.17.08-.34.18-.5.27C62.68,58.89,91.92,81.62,121.13,104.48Z"/><path class="cls-1" d="M122.75,102.66c.13-.13.26-.27.4-.4-28.89-22.63-57.87-45.08-85.72-69l-.54.24C64.78,57.48,93.8,80,122.75,102.66Z"/><path class="cls-1" d="M36.64,75.85a3,3,0,0,0,.1.79h0c24.1,20.75,49,40.41,74.11,60v-.71C85.75,116.32,60.77,96.63,36.64,75.85Z"/><path class="cls-1" d="M7,147.54c-.06.19-.11.37-.17.55,6.79,6.58,10.18,9.76,17,15.94a3.39,3.39,0,0,0,.42-.33C17.34,157.44,13.9,154.22,7,147.54Z"/><path class="cls-1" d="M7.81,145.23c-.07.17-.13.34-.2.52,7,6.8,10.55,10.07,17.58,16.45.06-.19.13-.36.2-.53C18.36,155.3,14.84,152,7.81,145.23Z"/><path class="cls-1" d="M6.37,150a3,3,0,0,0,0,.67c5.62,5.46,8.43,8.12,14.05,13.3a2.77,2.77,0,0,0,1.15.53l.22,0C15.61,158.9,12.53,156,6.37,150Z"/><path class="cls-1" d="M8.66,133.68a3.59,3.59,0,0,0-.2.51c7.4,7.17,15,14.19,22.72,21l.15-.09.34-.18Q19.94,144.58,8.66,133.68Z"/><path class="cls-1" d="M9.87,141l-.27.45c7.17,6.87,10.75,10.19,17.91,16.63.12-.13.25-.25.38-.37C20.68,151.27,17.08,147.94,9.87,141Z"/><path class="cls-1" d="M11.1,139.11l-.29.43c7.36,7,11,10.42,18.4,17l.43-.32C22.23,149.6,18.52,146.19,11.1,139.11Z"/><path class="cls-1" d="M11.78,130.49l-.1.1a3.19,3.19,0,0,0-.26.26c8.06,7.56,16.19,15,24.47,22.32l.44-.14.15,0Q24,141.89,11.78,130.49Z"/><path class="cls-1" d="M8.77,143.06c-.08.16-.15.33-.23.49,7,6.79,10.56,10.06,17.61,16.42.08-.16.19-.3.28-.45C19.37,153.14,15.84,149.87,8.77,143.06Z"/><path class="cls-1" d="M35,114.59a3,3,0,0,0-.06.66c20.84,18.05,42.31,35.27,64,52.27l.19-.13.27-.22C77.58,150.07,56,132.75,35,114.59Z"/><path class="cls-1" d="M123.7,121.24l-.32.24-.14.11c7.38,5.8,11.07,8.72,18.45,14.65h.2c.2,0,.43,0,.64,0C135,130.14,131.23,127.17,123.7,121.24Z"/><path class="cls-1" d="M154.36,142.77a.43.43,0,0,0,0,.11,2.25,2.25,0,0,0,0,.58c5.68,4.69,8.52,7.07,14.2,11.93a2.52,2.52,0,0,0,1.2.36h0C163.62,150.45,160.53,147.87,154.36,142.77Z"/><path class="cls-1" d="M175.92,6.51a4.48,4.48,0,0,0-.4.36q15,13,29.24,26.85v-.44l.09-.18Q190.74,19.43,175.92,6.51Z"/><path class="cls-1" d="M34.07,79.77c-.11.15-.23.28-.33.42,25,21.72,51,42.21,77.09,62.6,0-.15,0-.29,0-.44v-.26C84.85,121.79,59,101.39,34.07,79.77Z"/><path class="cls-1" d="M118.15,126.17a3.62,3.62,0,0,0-.17.56c6.26,4.91,9.39,7.37,15.66,12.35l.25,0a4.29,4.29,0,0,0,.44-.13C127.86,133.77,124.62,131.23,118.15,126.17Z"/><path class="cls-1" d="M10.17,132.05l-.38.34c7.78,7.34,15.58,14.64,23.62,21.7l.54-.23C25.85,146.76,18,139.43,10.17,132.05Z"/><path class="cls-1" d="M14.79,127.15l-.17.21c0,.07-.11.13-.16.19Q27.71,140,41.52,151.88l.45-.08.25,0Q28.24,139.77,14.79,127.15Z"/><path class="cls-1" d="M16.16,125.35c-.1.14-.19.29-.3.43Q30,139,44.79,151.59h.82Q30.58,138.82,16.16,125.35Z"/><path class="cls-1" d="M26.8,116.58l-.69.08c21.36,19,43.45,37,65.91,54.7l.6-.24C70.2,153.48,48.14,135.52,26.8,116.58Z"/><path class="cls-1" d="M23.9,117l-.6.16c21.37,19.19,43.5,37.35,66,55.15l.63-.22C67.42,154.35,45.28,136.21,23.9,117Z"/><path class="cls-1" d="M29.94,116.3l-.73,0C50.4,135,72.3,152.77,94.51,170.22l.53-.29C72.91,152.55,51.08,134.89,29.94,116.3Z"/><path class="cls-1" d="M36.22,112.57a4.59,4.59,0,0,0-.39.37c21.21,18.31,43,35.77,65.1,53l.42-.38C79.28,148.33,57.44,130.87,36.22,112.57Z"/><path class="cls-1" d="M39.44,109.19c-.07.17-.14.34-.23.51,21.24,18.16,43.09,35.52,65.11,52.73.12-.14.23-.29.35-.44C82.61,144.76,60.72,127.38,39.44,109.19Z"/><path class="cls-1" d="M33.29,116.18H32.5C53.41,134.43,75,151.8,96.8,168.92l.51-.31C75.58,151.58,54.12,134.31,33.29,116.18Z"/><path class="cls-1" d="M21.43,117.87l-.21.08-.32.14C42.08,137.27,64,155.42,86.44,173.16l.69-.16C64.68,155.23,42.67,137.07,21.43,117.87Z"/><path class="cls-1" d="M59.81,154.88c.38.18.75.37,1.11.56.54.29,1,.59,1.52.89-14.64-12.09-29-24.45-43-37.24-.12.13-.24.26-.34.39Q39,137.69,59.81,154.88Z"/><path class="cls-1" d="M53.35,152.62c.42.1.83.22,1.24.33Q36,137.53,18.24,121.11a0,0,0,0,0,0,0,2.25,2.25,0,0,0-.05.22c0,.11-.05.22-.08.33Q35.31,137.62,53.35,152.62Z"/><path class="cls-1" d="M39.77,106.39v.7c21.53,18.39,43.68,35.95,66,53.38.11-.16.22-.31.32-.47C83.66,142.5,61.4,124.85,39.77,106.39Z"/><path class="cls-1" d="M13.32,128.86c-.12.12-.23.25-.35.38,8.45,7.87,17,15.58,25.63,23.2l.64-.15C30.47,144.59,21.86,136.8,13.32,128.86Z"/><path class="cls-1" d="M65.2,158.58l-.41.09-.29,0c7.53,6.13,11.3,9.13,18.83,15.08l.73-.13C76.51,167.7,72.74,164.71,65.2,158.58Z"/><path class="cls-1" d="M62.29,159.3a3.55,3.55,0,0,0-.47.32c7.25,5.93,10.88,8.84,18.13,14.59l.81-.07C73.37,168.29,69.68,165.34,62.29,159.3Z"/><path class="cls-1" d="M60.7,161.09a3.58,3.58,0,0,0-.19.55c6.32,5.18,9.48,7.73,15.8,12.76l.85,0C70.58,169.13,67.29,166.49,60.7,161.09Z"/><path class="cls-1" d="M48.66,151.78l1,.14q-16.39-14-32.26-28.5c-.08.15-.16.3-.26.46C27.48,133.38,37.92,142.73,48.66,151.78Z"/><path class="cls-1" d="M38.13,111.15c-.12.12-.26.24-.4.36,21.19,18.19,43,35.56,65,52.76.13-.14.25-.28.38-.41C81.11,146.67,59.31,129.32,38.13,111.15Z"/><path class="cls-1" d="M142.66,12.68a11.2,11.2,0,0,0-1.18-.24c21.8,17.68,43,35.93,63.28,55.29V67C184.8,48,164.05,30.06,142.66,12.68Z"/><path class="cls-1" d="M126.1,18c-.16.11-.31.23-.46.35C152.94,40,179.5,62.27,204.76,86.27v-.7C179.65,61.7,153.24,39.55,126.1,18Z"/><path class="cls-1" d="M130.44,15.28l-.52.3c25.82,20.56,50.92,41.76,74.84,64.51v-.71C181,56.78,156.08,35.72,130.44,15.28Z"/><path class="cls-1" d="M124.11,19.56l-.45.35c28,22.12,55.25,44.86,81.1,69.45v-.7C179.05,64.19,151.94,41.56,124.11,19.56Z"/><path class="cls-1" d="M128.21,16.61l-.5.31C154.3,38,180.15,59.79,204.76,83.18v-.71C180.31,59.22,154.62,37.6,128.21,16.61Z"/><path class="cls-1" d="M138.45,12.38c-.25,0-.5.07-.74.12,23.11,18.63,45.54,37.85,67,58.32v-.71C183.48,49.86,161.3,30.83,138.45,12.38Z"/><path class="cls-1" d="M132.85,14.1l-.57.26c25,20,49.3,40.58,72.48,62.64v-.71C181.75,54.39,157.65,33.93,132.85,14.1Z"/><path class="cls-1" d="M135.45,13.08l-.61.22C159,32.65,182.35,52.61,204.76,73.91V73.2C182.54,52.08,159.35,32.28,135.45,13.08Z"/><path class="cls-1" d="M122.16,21.12l-.43.37c28.65,22.6,56.58,45.8,83,71v-.7C178.44,66.71,150.67,43.61,122.16,21.12Z"/><path class="cls-1" d="M111.49,31.31l0,0,0,0a1,1,0,0,1-.13-.09l-.13-.09L111,31,110.9,31l-.12-.09-.13-.09-.13-.09a1,1,0,0,0-.13-.09,1,1,0,0,0-.13-.09,3434035612477.36,3434035612477.36,0,0,1-.26-.18.6.6,0,0,0-.13-.09.94.94,0,0,0-.12-.09l-.13-.09-.13-.09-.13-.1-.13-.09-.13-.09-.13-.09-.13-.09-.12-.09-.13-.09-.13-.09a1,1,0,0,0-.13-.09,8585089031125.71,8585089031125.71,0,0,1-.39-.27.94.94,0,0,0-.12-.09l-.13-.09-.13-.09-.13-.09a1,1,0,0,0-.13-.09.6.6,0,0,0-.13-.09l-.13-.1-.13-.09-.12-.09a.6.6,0,0,1-.13-.09l-.13-.09-.13-.09-.13-.09-.13-.09a3434035612435.67,3434035612435.67,0,0,0-.26-.18l-.12-.09-.13-.09-.13-.09a1,1,0,0,0-.13-.09,3434035612476.66,3434035612476.66,0,0,1-.26-.18,3434035612435.59,3434035612435.59,0,0,0-.26-.18l-.12-.1a3434035612476.52,3434035612476.52,0,0,1-.26-.18,2.33,2.33,0,0,0-.39-.19C138.74,53.29,172.87,80.68,204.76,111v-.71C175.14,82.14,143.65,56.48,111.49,31.31Z"/><path class="cls-1" d="M101.45,26.57a3.72,3.72,0,0,0-.47.34c35.7,27.86,70.93,56,103.78,87.18v-.7C172.05,82.3,137,54.31,101.45,26.57Z"/><path class="cls-1" d="M113.15,29.52l-.38.41c31.73,24.84,62.77,50.2,92,78v-.71C175.66,79.53,144.75,54.27,113.15,29.52Z"/><path class="cls-1" d="M116.62,26.05l-.41.39c30.55,24,60.38,48.53,88.55,75.29V101C176.71,74.38,147,49.93,116.62,26.05Z"/><path class="cls-1" d="M118.42,24.37l-.41.38c29.93,23.53,59.14,47.64,86.75,73.89v-.71C177.28,71.81,148.21,47.8,118.42,24.37Z"/><path class="cls-1" d="M120.27,22.73l-.43.36c29.3,23.08,57.88,46.75,84.92,72.46v-.71C177.85,69.25,149.43,45.69,120.27,22.73Z"/><path class="cls-1" d="M114.86,27.76l-.39.4c31.15,24.42,61.6,49.37,90.29,76.66v-.71C176.19,76.93,145.87,52.08,114.86,27.76Z"/><path class="cls-1" d="M171.66,12.08l-.32.43q17,14.91,33.42,30.49v-.71Q188.52,26.83,171.66,12.08Z"/><path class="cls-1" d="M178.85,6a2.73,2.73,0,0,0-1-.17q14.26,12.57,27.92,25.8l.31-.41Q192.8,18.27,178.85,6Z"/><path class="cls-1" d="M184.7,8.12l-1.12-.36-.11,0c8.08,7.2,15.9,14.66,23.69,22.16l.33-.39Q196.36,18.56,184.7,8.12Z"/><path class="cls-1" d="M174.43,8.3l-.32.43c10.47,9.1,20.62,18.52,30.65,28.08v-.7C194.83,26.63,184.78,17.31,174.43,8.3Z"/><path class="cls-1" d="M169,31.41v.7c12.23,10.51,24.24,21.29,35.79,32.52v-.7C193.21,52.69,181.2,41.91,169,31.41Z"/><path class="cls-1" d="M189.32,9.22c-.27,0-.54-.08-.81-.14l-.15,0c8.08,7.36,12.12,11.17,20.21,19.11l.32-.39C201.06,20.07,197.15,16.37,189.32,9.22Z"/><path class="cls-1" d="M193,9.47h-.76c7.12,6.58,10.69,10,17.82,17l.34-.37C203.4,19.24,199.92,15.92,193,9.47Z"/><path class="cls-1" d="M205.69,15.37l-.1-.09-.13-.12c-.05,0-.08-.08-.13-.11l-.13-.12a1.5,1.5,0,0,0-.13-.11l-.13-.12a1.5,1.5,0,0,0-.13-.11l-.12-.12a1.5,1.5,0,0,1-.13-.11l-.13-.12c-.05,0-.08-.08-.13-.11l-.13-.12a1.5,1.5,0,0,0-.13-.11.69.69,0,0,0-.13-.11.74.74,0,0,0-.13-.12l-.12-.11-.13-.12a1.5,1.5,0,0,1-.13-.11l-.13-.12a1.5,1.5,0,0,0-.13-.11A.69.69,0,0,0,203,13l-.13-.12-.12-.11-.13-.11-.13-.12c-.05,0-.08-.08-.13-.11l-.13-.12a1436023117689.76,1436023117689.76,0,0,0-.26-.22l-.13-.12-.12-.11a1.5,1.5,0,0,1-.13-.11l-.13-.12c-.05,0-.08-.08-.13-.11a1.5,1.5,0,0,0-.13-.11.69.69,0,0,0-.13-.11.74.74,0,0,0-.13-.12,1.5,1.5,0,0,0-.13-.11L200.7,11l-.13-.12a1.5,1.5,0,0,1-.13-.11c-.05,0-.08-.08-.13-.11a.69.69,0,0,0-.13-.11l-.13-.12a1795028897119.17,1795028897119.17,0,0,1-.26-.22l-.12-.11-.13-.12a1.5,1.5,0,0,1-.13-.11s-.08-.08-.13-.11a.69.69,0,0,0-.13-.11L199,9.48l-.13-.11-.12-.11a1.5,1.5,0,0,1-.13-.11L198.51,9a1.27,1.27,0,0,0-.13-.11,3.46,3.46,0,0,0-.47-.31c5.81,5.49,8.71,8.3,14.52,14.1a3.06,3.06,0,0,0-.13-.84C209.66,19.24,208.34,17.94,205.69,15.37Z"/><path class="cls-1" d="M195.35,8.6a4.53,4.53,0,0,0-.48.27c6.68,6.22,10,9.42,16.68,16.06a3,3,0,0,0,.33-.38C205.27,18,202,14.78,195.35,8.6Z"/><path class="cls-1" d="M173.05,10.2l-.31.43q16.32,14.32,32,29.28V39.2Q189.19,24.35,173.05,10.2Z"/><path class="cls-1" d="M164.06,21.05a3.52,3.52,0,0,0-.3.45c14,12,27.65,24.25,41,37v-.7C191.51,45.13,178,33,164.06,21.05Z"/><path class="cls-1" d="M163.32,23.51a2.57,2.57,0,0,0,.29.95l3.79,3.22,0,0,.13.1.13.1.13.1.13.1.12.1.13.1.13.1.13.1.13.1.13.1.13.1.13.1h0V29c12.23,10.51,24.24,21.28,35.79,32.52v-.7C191.27,48,177.48,35.61,163.32,23.51Z"/><path class="cls-1" d="M165.8,19.43l-.38.39C178.85,31.35,192,43.15,204.76,55.36v-.71Q185.73,36.52,165.8,19.43Z"/><path class="cls-1" d="M168.8,15.81l-.33.42c12.4,10.64,24.58,21.56,36.29,33v-.71C193.15,37.18,181.09,26.36,168.8,15.81Z"/><path class="cls-1" d="M167.34,17.64c-.09.12-.19.23-.28.34l-.06.08c12.93,11.05,25.46,22.48,37.76,34.21v-.71C192.56,39.93,180.15,28.6,167.34,17.64Z"/><path class="cls-1" d="M170.24,14l-.33.43c11.9,10.25,23.59,20.76,34.85,31.71v-.71C193.6,34.53,182,24.11,170.24,14Z"/><path class="cls-1" d="M130.47,52.4c0,.25,0,.49.05.75,25.61,20.41,50.51,41.46,74.24,64v-.7C181,93.88,156.1,72.82,130.47,52.4Z"/><path class="cls-1" d="M123.13,62.06l-.7.16c28.33,22.36,55.92,45.32,82.09,70.19,0-.22,0-.43.07-.65C178.62,107.07,151.24,84.26,123.13,62.06Z"/><path class="cls-1" d="M61.24,34.79l-.41.37c45.88,37.25,93.46,72.19,136.88,112.38.12-.12.23-.26.35-.38C154.67,107,107.12,72,61.24,34.79Z"/><path class="cls-1" d="M111.08,71.18s0,.08-.07.13l-.16.27V71c-16-12.51-32-25-47.83-37.84l-.4.38C108.5,70.65,156,105.6,199.21,145.86c.11-.13.21-.27.31-.41C171.28,119.15,141.46,95,111.08,71.18Z"/><path class="cls-1" d="M110.85,62.43v-.71C96.54,50.55,82.26,39.36,68.1,28a4.25,4.25,0,0,0-.39.25l-.09.07C81.94,39.81,96.38,51.13,110.85,62.43Z"/><path class="cls-1" d="M59.42,36.39l-.43.36C104.83,74.08,152.48,109,196,149.06l.39-.34C152.91,108.62,105.26,73.71,59.42,36.39Z"/><path class="cls-1" d="M133.68,98.22v.71c20.71,16.59,40.92,33.58,60.5,51.49l.45-.29C174.91,132.07,154.55,114.94,133.68,98.22Z"/><path class="cls-1" d="M127.52,53.87a3.82,3.82,0,0,1,.37-.42c-10.52-8.3-21.09-16.52-31.65-24.77-.24,0-.48.07-.74.09h0C106.15,37.13,116.87,45.46,127.52,53.87Z"/><path class="cls-1" d="M126.35,56c.07-.18.15-.36.22-.53q-17-13.32-34-26.59h-.9Q109,42.47,126.35,56Z"/><path class="cls-1" d="M129.34,52.21c.17-.12.33-.21.5-.31-10.16-8-20.37-16-30.57-23.95l-.3.12-.34.09Q114,40.16,129.34,52.21Z"/><path class="cls-1" d="M124.91,58a3.81,3.81,0,0,0,.43-.37C113.08,48,100.74,38.4,88.46,28.76c-.35,0-.69-.07-1-.12C99.9,38.45,112.44,48.17,124.91,58Z"/><path class="cls-1" d="M133.64,113.64a4.13,4.13,0,0,1-.13.61C150.07,127.5,166.35,141,182.28,155l.65-.12C166.84,140.72,150.38,127.05,133.64,113.64Z"/><path class="cls-1" d="M132.61,115.92a3.62,3.62,0,0,1-.36.42q24,19,47.07,39.15l.69-.1C164.51,141.85,148.69,128.77,132.61,115.92Z"/><path class="cls-1" d="M130.73,117.52l-.56.26q23.4,18.48,45.93,38c.26,0,.52,0,.77,0Q154.22,136.1,130.73,117.52Z"/><path class="cls-1" d="M133.68,107.5v.7q27.63,21.94,53.9,45.42l.56-.19Q161.6,129.61,133.68,107.5Z"/><path class="cls-1" d="M133.68,110.59v.7c17.47,14,34.62,28.27,51.36,43.12l.59-.17C168.7,139.2,151.36,124.74,133.68,110.59Z"/><path class="cls-1" d="M133.68,104.41v.7c19.21,15.38,38,31.1,56.27,47.58.17-.07.34-.16.51-.24C172,135.8,153.07,119.92,133.68,104.41Z"/><path class="cls-1" d="M133.68,101.31V102c20,16,39.51,32.38,58.46,49.6l.48-.26C173.52,134,153.84,117.45,133.68,101.31Z"/><path class="cls-1" d="M120.13,62.8l-.66.19c29.19,23,57.68,46.54,84.65,72.12,0-.2.08-.4.11-.6C177.43,109.08,149.14,85.65,120.13,62.8Z"/><path class="cls-1" d="M155.53,140.65a3.5,3.5,0,0,0-.38.39c7,5.79,10.5,8.73,17.5,14.79h.8C166.28,149.6,162.7,146.58,155.53,140.65Z"/><path class="cls-1" d="M130.56,55.56a2.62,2.62,0,0,0,.11.8c25.56,20.37,50.4,41.38,74.09,63.91v-.7C181,97,156.16,76,130.56,55.56Z"/><path class="cls-1" d="M117.33,63.69l-.45.18-.14.07c29.9,23.49,59.12,47.52,86.76,73.67.06-.19.11-.37.16-.56C176.16,111,147.09,87.08,117.33,63.69Z"/><path class="cls-1" d="M114.86,64.86a5.19,5.19,0,0,0-.5.31c30.42,23.85,60.18,48.21,88.33,74.74l.2-.51C174.84,112.94,145.19,88.64,114.86,64.86Z"/><path class="cls-1" d="M129.82,58.07a3.68,3.68,0,0,0-.34.44c26,20.67,51.22,42,75.28,64.86v-.71C180.81,99.88,155.68,78.66,129.82,58.07Z"/><path class="cls-1" d="M126.25,61.43l-.73.13c27.32,21.65,53.91,43.93,79.2,67.94,0-.22,0-.45,0-.68C179.68,105,153.33,82.9,126.25,61.43Z"/><path class="cls-1" d="M128.85,60.39a3.28,3.28,0,0,0,0,.63l-.11,0c26.21,20.85,51.7,42.33,76,65.42v-.71C180.51,102.69,155,81.22,128.85,60.39Z"/><path class="cls-1" d="M110.85,56.25v-.71C98.37,45.81,85.9,36.07,73.54,26.2a7.37,7.37,0,0,0-.82.05C85.35,36.35,98.1,46.3,110.85,56.25Z"/><path class="cls-1" d="M120.31,57.47l.06,0,.13.09.13.09.12.09.13.09L121,58a.51.51,0,0,0,.13.09l.13.1.13.09a2.38,2.38,0,0,0,1,.45,1.94,1.94,0,0,0,.34,0c-13-10.2-26-20.32-39-30.55L82.63,28C95.15,37.84,107.76,47.63,120.31,57.47Z"/><path class="cls-1" d="M113,66.5a4.66,4.66,0,0,0-.3.47c30.62,24,60.62,48.45,89,75.08.08-.15.16-.32.24-.48C173.59,114.94,143.61,90.48,113,66.5Z"/><path class="cls-1" d="M110.85,59.34v-.71Q90.57,42.8,70.44,26.81l-.59.22Q90.24,43.33,110.85,59.34Z"/><path class="cls-1" d="M110.85,53.15v-.7Q94.7,39.85,78.61,27.16l-1.27-.31Q94.05,40.08,110.85,53.15Z"/><path class="cls-1" d="M110.85,65.52v-.71C96,53.18,81.07,41.52,66.34,29.67l-.36.42C80.83,42,95.83,53.79,110.85,65.52Z"/><path class="cls-1" d="M112,68.84a5.53,5.53,0,0,1-.17.57c30.48,23.86,60.38,48.18,88.67,74.63l.27-.45C172.5,117.09,142.57,92.74,112,68.84Z"/><path class="cls-1" d="M110.85,68.61V67.9C95.4,55.85,79.92,43.82,64.72,31.45l-.38.4C79.66,44.33,95.27,56.46,110.85,68.61Z"/><path class="cls-2" d="M205.42,14.29a2.7,2.7,0,0,0-.5-.46l-.13-.12a1.5,1.5,0,0,0-.13-.11l-.12-.11-.13-.12a1.5,1.5,0,0,1-.13-.11l-.13-.12c-.05,0-.08-.08-.13-.11a.69.69,0,0,0-.13-.11.74.74,0,0,0-.13-.12,1.5,1.5,0,0,0-.13-.11l-.12-.12a1.5,1.5,0,0,1-.13-.11l-.13-.11-.13-.12a1.5,1.5,0,0,0-.13-.11.69.69,0,0,0-.13-.11.74.74,0,0,0-.13-.12,1.5,1.5,0,0,0-.13-.11l-.12-.12a1.5,1.5,0,0,1-.13-.11,1.5,1.5,0,0,1-.13-.11,1.27,1.27,0,0,0-.13-.11.74.74,0,0,0-.13-.12,1.5,1.5,0,0,0-.13-.11.69.69,0,0,0-.13-.11l-.12-.12a1.5,1.5,0,0,1-.13-.11l-.13-.11-.13-.12c-.05,0-.08-.08-.13-.11a1.5,1.5,0,0,0-.13-.11.69.69,0,0,0-.13-.11l-.13-.12-.12-.11a1.5,1.5,0,0,1-.13-.11l-.13-.11-.13-.12s-.08-.08-.13-.11a1.5,1.5,0,0,0-.13-.11.69.69,0,0,0-.13-.11.69.69,0,0,0-.13-.11l-.12-.12a1.5,1.5,0,0,1-.13-.11,1.5,1.5,0,0,1-.13-.11s-.08-.08-.13-.11a.69.69,0,0,0-.13-.11.69.69,0,0,0-.13-.11l-.13-.12a1.5,1.5,0,0,0-.13-.11l-.12-.11a1.5,1.5,0,0,1-.13-.11L198.23,8a1.27,1.27,0,0,0-.13-.11.69.69,0,0,0-.13-.11l-.13-.12a1.5,1.5,0,0,0-.13-.11,1.5,1.5,0,0,0-.13-.11l-.12-.11a1.5,1.5,0,0,1-.13-.11l-.13-.11a1.27,1.27,0,0,0-.13-.11.69.69,0,0,0-.13-.11.69.69,0,0,0-.13-.11.69.69,0,0,0-.13-.11l-.12-.12a.69.69,0,0,1-.13-.11.69.69,0,0,1-.13-.11,1.27,1.27,0,0,1-.13-.11s-.08-.08-.13-.11a1.5,1.5,0,0,0-.13-.11,1.5,1.5,0,0,0-.13-.11,1.5,1.5,0,0,0-.13-.11l-.12-.11a1.5,1.5,0,0,1-.13-.11,1.5,1.5,0,0,1-.13-.11c-.05,0-.08-.08-.13-.11s-.08-.08-.13-.11a1.5,1.5,0,0,0-.13-.11,1.5,1.5,0,0,0-.13-.11,1.5,1.5,0,0,0-.13-.11l-.12-.11a1.5,1.5,0,0,1-.13-.11,1.5,1.5,0,0,1-.13-.11,1.27,1.27,0,0,1-.13-.11L194,4.31l-.13-.11-.13-.1a.69.69,0,0,0-.13-.11l-.12-.11-.13-.11-.13-.11a1.27,1.27,0,0,0-.13-.11,1.5,1.5,0,0,0-.13-.11,1.5,1.5,0,0,0-.13-.11,1.5,1.5,0,0,0-.13-.11l-.12-.11a.69.69,0,0,1-.13-.11l-.13-.1a1.27,1.27,0,0,0-.13-.11,1.27,1.27,0,0,0-.13-.11,2.94,2.94,0,0,0-3.69.16,3.12,3.12,0,0,1-1.55.5c-4.61.33-10-1.52-14.2-3.15a3.27,3.27,0,0,0-3.78,1.32c-1.61,2.29-3.11,4.37-4.48,6.19-1.19,1.59-2.41,3.16-3.61,4.66a12.51,12.51,0,0,1-2.14,2.28c-2.19,1.49-2.22,4.43.18,5.67l.12.09.13.1.13.1a1,1,0,0,0,.13.09l.13.1.13.1.13.1.12.09.26.2.13.1.13.1.13.09.13.1.13.1.12.1L161,22l.13.1.26.2.13.1.13.09.13.1.12.1.13.1.13.1.13.09.13.1.13.1.13.1h0v4.83a6.74,6.74,0,0,0-1.9-2.67c-3.27-2.87-4.94-4.36-8.23-7.16l-.13-.1-.12-.09-.13-.1a1,1,0,0,0-.13-.09l-.13-.1-.13-.1-.13-.09-.13-.1-.13-.09-.12-.1-.13-.09-.13-.1-.13-.09-.13-.1-.13-.1-.13-.09-.13-.1-.12-.09-.13-.1-.13-.09-.13-.1-.13-.09-.13-.1-.13-.09-.12-.1-.13-.09-.13-.1-.13-.09-.13-.1-.13-.09-.13-.1-.13-.09-.12-.1-.13-.09-.13-.1-.13-.09-.13-.1-.13-.09-.13-.1-.13-.09-.12-.09-.13-.1a1,1,0,0,0-.13-.09l-.13-.1-.13-.09-.13-.1-.13-.09-.13-.1-.12-.09-.13-.1-.13-.09a1,1,0,0,0-.13-.09l-.13-.1-.13-.09-.13-.1-.12-.09-.13-.1-.13-.09a1,1,0,0,0-.13-.09l-.13-.1-.13-.09-.13-.1-.13-.09a.94.94,0,0,0-.12-.09l-.13-.1L144,12l-.13-.1-.13-.09a1,1,0,0,0-.13-.09l-.13-.1-.13-.09-.12-.1-.13-.09a1,1,0,0,0-.13-.09l-.13-.1-.13-.09-.13-.1-.13-.09-.13-.09-.12-.1-.13-.09a1,1,0,0,0-.13-.09l-.13-.1-.13-.09a1,1,0,0,0-.13-.09l-.13-.1-.13-.09s-.08-.06-.12-.1l-.13-.09-.13-.09-.13-.1-.13-.09-.13-.09-.13-.1-.12-.09-.13-.09-.13-.1L139.9,9l-.13-.09-.13-.1c-10.9-7.24-27.37,9.85-34.51,17.37l0,0L105,26l-.13-.09-.13-.09-.12-.09-.13-.09-.13-.09a1,1,0,0,0-.13-.09,1,1,0,0,0-.13-.09,8585089031126.09,8585089031126.09,0,0,1-.39-.27.94.94,0,0,0-.12-.09l-.13-.09-.13-.1a1,1,0,0,1-.13-.09l-.13-.09-.13-.09-.13-.09-.13-.09-.12-.09-.13-.09-.13-.09a1,1,0,0,0-.13-.09A.6.6,0,0,0,102,24a8585089031125.29,8585089031125.29,0,0,1-.39-.27.94.94,0,0,0-.12-.09l-.13-.09-.13-.09-.13-.1-.13-.09-.13-.09-.13-.09-.13-.09-.12-.09-.13-.09-.13-.09a1,1,0,0,0-.13-.09.6.6,0,0,0-.13-.09,8585089031139.37,8585089031139.37,0,0,1-.26-.18l-.12-.09-.13-.09-.13-.09-.13-.1L99,21.87l-.13-.09-.13-.09-.13-.09-.12-.09-.13-.09-.13-.09a1,1,0,0,0-.13-.09,3.08,3.08,0,0,0-3.68.64,7.16,7.16,0,0,1-3.24,1.38h0C83.65,24.5,76.64,22.92,69,21a9.76,9.76,0,0,0-7.64,1.82,82.26,82.26,0,0,1-9.88,9.32h0l-.12-.09-.13-.1-.13-.1-.13-.1-.13-.1-.13-.09-.12-.1-.13-.1-.13-.1-.13-.1-.13-.1L50,31l-.13-.09-.13-.1-.12-.1-.13-.1-.13-.1-.13-.1-.13-.1-.13-.09-.13-.1-.13-.1-.13-.1-.12-.1-.13-.1-.13-.1-.13-.1-.13-.1-.13-.1-.13-.09-.12-.1-.13-.1-.13-.1-.13-.1L47,28.7l-.13-.1-.13-.1-.13-.1-.12-.1-.13-.1-.13-.1-.13-.1L46,27.9l-.13-.1-.13-.1c-9.8-6.76-23,4.17-30.74,10.18a112.73,112.73,0,0,0-9.57,9,3,3,0,0,0,.08,4.22,1.42,1.42,0,0,0,.13.12,1.5,1.5,0,0,0,.13.11s.09.08.13.12.08.07.13.11a.5.5,0,0,0,.13.12.68.68,0,0,0,.12.12l.13.11a1.42,1.42,0,0,0,.13.12l.13.11c0,.05.09.08.13.12s.09.07.13.11a.5.5,0,0,0,.13.12c0,.05.08.07.13.11a.68.68,0,0,0,.12.12,1.27,1.27,0,0,0,.13.11,1.42,1.42,0,0,0,.13.12,1.27,1.27,0,0,0,.13.11c0,.05.09.08.13.12s.09.07.13.11.08.07.12.11l-.63,1.87a2.94,2.94,0,0,0,.88,3.18l.12.12.13.11.13.12.13.11a.69.69,0,0,0,.13.11l.13.12.13.11.12.12.13.11.13.11.13.12.13.11L10,60l.13.11a.69.69,0,0,0,.13.11l.12.12.13.11.13.11.13.12.13.11a.69.69,0,0,0,.13.11l.13.12.13.11.12.11.13.12.13.11.13.11.13.12.13.11.13.11a.69.69,0,0,0,.13.11l.12.12.13.11.13.11.13.11.13.12.13.11.13.11.12.11.13.12a.69.69,0,0,1,.13.11l.13.11.13.11a.69.69,0,0,0,.13.11l.13.12.13.11.12.11.13.11.13.11.13.11.13.12.13.11.13.11.13.11.12.11.13.11.13.11.13.11.13.12.13.11.13.11.13.11.12.11.13.11.13.11.13.11a.69.69,0,0,0,.13.11,9573487451208.24,9573487451208.24,0,0,0,.26.22.69.69,0,0,0,.13.11l.12.11.13.11.13.11.13.11a.69.69,0,0,0,.13.11l.13.12.13.1.12.12.13.1.13.11.13.11.13.11a9573487451206.61,9573487451206.61,0,0,0,.26.22.69.69,0,0,0,.13.11l.12.11.13.11.13.11.13.11.13.11.13.11.13.11.13.11.12.11a.69.69,0,0,1,.13.11l.13.1.13.11a9573487451206.89,9573487451206.89,0,0,0,.26.22l.13.11c1.55,1.43,4.13.54,4.87-1.4a7,7,0,0,1,4-4.16c.36,2,.17,4.42.39,6.67-3.73,3.69-6.13,8.05-8.35,12.91a2.89,2.89,0,0,0,.67,3.42l.13.1.13.11.13.11.13.11.13.11.13.1.12.11.13.11.13.11.13.1.13.11.13.11.13.11.12.1.13.11.13.11.13.1.13.11.13.11.13.11.13.1.12.11.13.11.13.1.13.11.13.11.13.1.13.11.13.11.12.1.13.11.13.11.13.1.13.11.13.11.13.1.13.11.12.1.13.11.13.11.13.1.13.11.13.1.13.11.13.11.12.1.13.11.13.1.13.11.13.1.13.11.13.1.12.11.13.1.13.11.13.1.13.11.13.11.13.1.13.11.12.1.13.1.13.11.13.1.13.11.13.1.13.11.13.1.12.11.13.1.13.11.13.1.13.11.13.1.13.1.13.11.12.1.13.11.13.1.13.1.13.11.13.1.13.11a0,0,0,0,0,0,0v5.77a5.48,5.48,0,0,1-3.08,4.7,3.3,3.3,0,0,0-1.59,3.9c-4.63,0-15.54-.66-16.87,4.59-.77,3.51-4.12,6.74-6.55,9.28-1,1-1.58,1.51-2.27,2.08a3,3,0,0,0,.1,4.69l.13.12.13.12.12.11.13.12.13.12c.05,0,.08.08.13.11a.74.74,0,0,0,.13.12l.13.12a1.5,1.5,0,0,0,.13.11l.12.12.13.12a1.5,1.5,0,0,1,.13.11l.13.12s0,0,0,0A29.16,29.16,0,0,0,.07,143.19a3,3,0,0,0,1.11,3l.13.12.12.12a1.5,1.5,0,0,1,.13.11,1.42,1.42,0,0,0,.13.12l.13.12.13.12.13.12a1.5,1.5,0,0,0,.13.11l.12.12.13.12.13.12c.05,0,.08.08.13.11a1.42,1.42,0,0,0,.13.12l.13.12.13.12a1.5,1.5,0,0,0,.13.11l.12.12.13.12a1.5,1.5,0,0,1,.13.11,1.42,1.42,0,0,0,.13.12l.13.12a.69.69,0,0,0,.13.11.74.74,0,0,0,.13.12l.13.12.12.11.13.12.13.12s.08.08.13.11l.13.12.13.12a1.5,1.5,0,0,0,.13.11l.13.12.12.11.13.12.13.12c.05,0,.08.08.13.11l.13.12a.69.69,0,0,0,.13.11l.13.12a.69.69,0,0,0,.13.11l.12.12.13.12s.08.08.13.11l.13.12a1.5,1.5,0,0,0,.13.11l.13.12a1.5,1.5,0,0,0,.13.11l.12.12a1.5,1.5,0,0,1,.13.11l.13.12s.08.08.13.11l.13.12a1.5,1.5,0,0,0,.13.11l.13.12a1.5,1.5,0,0,0,.13.11l.12.12a1.5,1.5,0,0,1,.13.11l.13.11.13.12a.69.69,0,0,0,.13.11l.13.12a1.5,1.5,0,0,0,.13.11l.13.12.12.11.13.11.13.12c.05,0,.08.08.13.11l.13.12a1.5,1.5,0,0,0,.13.11.69.69,0,0,0,.13.11l.13.12.12.11.13.11.13.12c.05,0,.08.08.13.11A.69.69,0,0,0,11,155l.13.12a1.5,1.5,0,0,0,.13.11l.12.11.13.12a1.5,1.5,0,0,1,.13.11,1.27,1.27,0,0,0,.13.11l.13.12.13.11a1.5,1.5,0,0,0,.13.11.69.69,0,0,0,.13.11l.12.12a1.5,1.5,0,0,1,.13.11l.13.11a1.27,1.27,0,0,0,.13.11l.13.12a1.5,1.5,0,0,0,.13.11,1196685931403,1196685931403,0,0,1,.26.22l.12.12a.69.69,0,0,1,.13.11c.05,0,.08.08.13.11a1.27,1.27,0,0,0,.13.11.69.69,0,0,0,.13.11l.13.12a3.1,3.1,0,0,0,4.81-1.65,10,10,0,0,1,2.29-4A18.69,18.69,0,0,1,30,147.12a32.74,32.74,0,0,1,26.48,4l2.62,2,0,0c-.68.15-1.37.24-2.08.33-2.44.29-4.18,4-2,5.58l.12.1.13.09.13.1.13.1.13.09.13.1.13.1.13.1.12.09.13.1.13.1.13.09.13.1.13.1.13.09.13.1.12.1.13.09.13.1.13.1.13.09.13.1.13.1.13.09.12.1.13.09.13.1.13.1.13.09.13.1.13.1.12.09.13.1.13.09.13.1.13.1.13.09.13.1.13.09.12.1.13.1.13.09.13.1.13.09.13.1.13.1.13.09.12.1.13.09.13.1.13.09.13.1.13.09.13.1.13.1.12.09.13.1.13.09.13.1.13.09.13.1.13.09.13.1.12.09.13.1.13.09.13.1.13.09.13.1.13.09.12.1.13.09.13.1.13.09.13.1.13.09.13.1.13.09.12.1.13.09.13.1.13.09.13.1.13.09.13.1.13.09.12.1.13.09.13.1.13.09.13.1.13.09.13.09.13.1.12.09.13.1.13.09.13.1.13.09.13.09a2.36,2.36,0,0,0,1.54.53,46.86,46.86,0,0,0,9.45-.9c7.83-1.65,15-5.35,19.84-11.93,3.95-5.43,5.76-11.87,5.73-19.09v-34l.09.06a.6.6,0,0,0,.13.09.94.94,0,0,0,.12.09l.13.09.13.09a1,1,0,0,0,.13.09,3434035612475.72,3434035612475.72,0,0,0,.26.18l.13.1.13.09a.94.94,0,0,1,.12.09l.13.09.13.09.13.09.13.09.13.09.13.09.13.09.12.09.13.09.13.09a1,1,0,0,0,.13.09.6.6,0,0,0,.13.09,4292544515546.08,4292544515546.08,0,0,0,.39.27l.12.1c1.84,1.12,4.21-.4,4.81-2.36,2-6.46,8.46-9.88,14.59-11.55v16.15c0,2.16-1.76,4-3.83,4.84-4.09,1.55-6.71,3.73-9.52,6-2.07,1-3.5,4.18-1.45,5.59l.13.1.13.09.13.09.13.09.13.09.12.09.13.09.13.09.13.09.13.09.13.09a.6.6,0,0,0,.13.09.94.94,0,0,0,.12.09l.13.09a1,1,0,0,0,.13.09l.13.1.13.09.13.09.13.09.13.09.12.09.13.09.13.09.13.09.13.09a1226441290168.88,1226441290168.88,0,0,1,.26.18.6.6,0,0,0,.13.09l.12.1.13.09.13.09.13.09.13.09.13.09.13.09.13.09.12.09.13.09a2861696343698,2861696343698,0,0,0,.26.18l.13.1.13.09.13.09.12.09.13.09.13.09.13.09.13.09.13.09a2861696343697,2861696343697,0,0,0,.26.18l.12.1.13.09.13.09.13.09.13.09.13.09.13.09.13.09.12.09.13.09a1,1,0,0,0,.13.09l.13.1.13.09.13.09.13.09.13.09.12.09.13.09a1,1,0,0,0,.13.09,1,1,0,0,0,.13.09l.13.1.13.09.13.09.13.09.12.09.13.09.13.09a1,1,0,0,0,.13.09.6.6,0,0,0,.13.09l.13.1.13.09.12.09.13.09.13.09.13.09a1,1,0,0,0,.13.09.6.6,0,0,0,.13.09l.13.1.13.09.12.09.13.09.13.09.13.09a1,1,0,0,0,.13.09l.13.1.13.09.13.09.12.09.13.09c1.16,1,2.91.44,4-.5,6.19-3.7,13.86-1.73,20.58,1.77-1.87.87-2.86,4-1,5.24l.13.1.13.09.13.1.12.09.13.1.13.09.13.1.13.09.13.1.13.1.13.09.12.1.13.09.13.1.13.09.13.1.13.09.13.1.12.09.13.1.13.1.13.09.13.1.13.09.13.1.13.09.12.1.13.09.13.1.13.1.13.09.13.1.13.09.13.1.12.1.13.09.13.1.13.09.13.1.13.1.13.09.13.1.12.09.13.1.13.1.13.09.13.1.13.1.13.09.12.1.13.1.13.09.13.1.13.1.13.09.13.1.13.1.12.09.13.1.13.1.13.09.13.1.13.1.13.09.13.1.12.1.13.09.13.1.13.1.13.09.13.1.13.1.13.1.12.09.13.1.13.1.13.1.13.09.13.1.13.1.12.09.13.1.13.1.13.1.13.09.13.1.13.1.13.1.12.1.13.09.13.1.13.1.13.1.13.09.13.1.13.1.12.1.13.1.13.09.13.1a2.47,2.47,0,0,0,1.54.58,54.8,54.8,0,0,0,9.46-.41c10.48-1.28,20.65-6.84,24-17.52a32.14,32.14,0,0,0,1.52-10.41V26.88a21.7,21.7,0,0,1,3.06-4.26,35.05,35.05,0,0,1,3.7-4.23A3,3,0,0,0,205.42,14.29ZM104.77,45.79l.13.09L105,46l.13.09.13.09.13.09.12.09.13.09.13.09a1,1,0,0,0,.13.09.51.51,0,0,0,.13.09.38.38,0,0,0,.13.09l.13.1.13.09.12.09.13.09.13.09.13.09.13.09.13.09.13.09.13.09.12.09.13.09.13.09.13.09.13.09a.6.6,0,0,0,.13.09,1907797562487.58,1907797562487.58,0,0,0,.26.18l.12.1.13.09.13.09.13.09.13.09.13.09.13.09.12.09.13.09.13.09.13.09.13.09.13.09.13.09.13.09a.47.47,0,0,0,.12.09l.13.09.13.1.13.09.13.09.13.09.13.09.13.09.12.09.13.09.13.09.13.09.13.09.13.09.13.09.13.09.12.09.13.09.13.1.13.09.13.09.13.09.13.09.13.09.12.09.13.09.13.09.13.09.13.09.13.09.13.09.12.09.13.09.13.1.13.09.13.09c1.75,1.25,4.16-.13,4.87-2a8.22,8.22,0,0,1,4.15-4.69,33.28,33.28,0,0,1,.13,3.93,2.6,2.6,0,0,0,.47,1.59c-1.38.85-2.46,2.47-2.12,4a59.24,59.24,0,0,0-12,2.89c-2.13.89-4.43,2.25-4.78,4.72a10.33,10.33,0,0,1-1.25,3V45.61l.12.09Z"/><path class="cls-3" d="M63.05,121.87c1.3-1,5.13-4.2,6.4-4.52-6.88,8.69-10.33,13-17.22,21.49a3.36,3.36,0,0,1-2.13,1.26,2.44,2.44,0,0,1-2.13-.59,32.32,32.32,0,0,0-10.82-6,36.84,36.84,0,0,0-14.51-2.13c-7.7.68-17,3.25-19.64,11.48,5.67-24.55,36.66-24.75,56.49-20.09A3.67,3.67,0,0,0,63.05,121.87Zm-.85-1.22c-18.44-5.5-41.44-6.46-57.21,6.83,3.6-3.3,8.69-8,9.82-13.08.22-.9,1.69-1,2.42-1.41,4.73-1.1,11.53-.88,17.57-.27C43.71,113.69,53.88,116,62.2,120.65Zm34-97.72c-1.51,1.78-2.78,3.57-3.84,5.07-1.29,1.82-3.63,4.91-3.84,6.77v92.87c.37,18.51-13.93,28.34-31.45,27.77,9.77-.66,14.14-9.42,14.52-17.77.36-20.35,0-40,.14-60.3l-3.42,7.52a6.46,6.46,0,0,1-5,3.68c-4,.74-6.06,1.09-10.1,1.76v21.38c-6.21-2.22-13.68-4.49-20.34-4.12,2.84-1.58,3.56-4.08,3.55-7.27V84.5c-1.89-1.82-4.82-3.62-7.83-3.06a17.63,17.63,0,0,0-3.16.91,34.73,34.73,0,0,1,6-9.61c1.49-1.76,3.18-2.62,5-2.42V51.11a9.42,9.42,0,0,0-3.56-7.47l-.28-.2c-8.67-4.72-18.23-1.34-25,4.48,6.57-6.9,26.24-25.7,36-18.81,3,2.41,4.44,3.61,7.4,6a83.9,83.9,0,0,0,8.54-7.27c1.23-1.21,2.33-2.68,3.27-3.56a6.09,6.09,0,0,1,5-1.27,81.47,81.47,0,0,0,11.67,2.38C84.76,25.91,91.87,26.57,96.2,22.93Zm-75,25.5c-4.65.16-9.1,1.91-11,6.72l1.85-5.57L12,49.13c-.64-2.9,6.83-4.89,9.4-4.94,13-1.06,13.15,14.57,12,24.45C33.43,60.34,31.56,47.76,21.21,48.43ZM67,73.55c2.4-.39,4.73-2.6,4.7-5V38.79c-5.61.47-11.36-1.22-16.79-2.65a2.12,2.12,0,0,0-1.71.4V76C58.75,75.09,61.51,74.6,67,73.55Z"/><path class="cls-3" d="M58.51,156.19c-.49,0-1,0-1.46,0l0-1.49c9.66-.66,13.48-9.61,13.82-17.07.12-7,.17-14.06.17-21l-1,1.23-3.49,4.39,2,1.14-2.38-.71c-4.6,5.78-7.9,9.9-13.4,16.67a4.14,4.14,0,0,1-2.6,1.53,3.18,3.18,0,0,1-2.76-.78,31.83,31.83,0,0,0-10.55-5.87A36,36,0,0,0,22.7,132.1c-7.28.64-16.49,3.06-19,11l-1.45-.4a26.28,26.28,0,0,1,12-17C29.8,116,52.94,120.43,59.66,122a2.85,2.85,0,0,0,2.67-.53l-.35-.11c-10.79-3.22-37.88-9-56.5,6.68l-1-1.13c3.17-2.9,8.48-7.77,9.59-12.68.26-1.07,1.35-1.42,2.15-1.67a4.92,4.92,0,0,0,.66-.24l.17-.07c5.14-1.2,12.53-.82,17.82-.28,7.51.82,18.4,2.87,27.68,8l1,.54.33-.26c2.34-1.85,4.36-3.4,5.4-3.66l1.74-.43c0-5.24,0-10.43,0-15.54,0-6.48,0-13.14,0-19.82l-2,4.34a7.15,7.15,0,0,1-5.53,4.1c-3.74.69-5.74,1-9.49,1.66v21.82l-1-.36c-5.84-2.09-13.4-4.45-20-4.09l-3.27.18,2.87-1.58c2.26-1.25,3.17-3.17,3.16-6.61V84.83c-1.24-1.14-4-3.21-6.94-2.65a5.74,5.74,0,0,0-1.5.37c-.35.13-.81.29-1.59.52l-1.53.44.64-1.46a35.83,35.83,0,0,1,6.12-9.81,6.82,6.82,0,0,1,4.8-2.69V51.11a8.66,8.66,0,0,0-3.29-6.9l-.23-.15C25,40.13,15.91,41.77,8,48.49L7,47.41c6-6.32,26.45-26.34,37-18.91,2.84,2.31,4.32,3.51,7,5.64a84.9,84.9,0,0,0,8-6.87c.59-.58,1.16-1.23,1.7-1.86s1.08-1.24,1.58-1.71a6.84,6.84,0,0,1,5.62-1.46,82.13,82.13,0,0,0,11.64,2.37c4.78.5,12,1.25,16.21-2.25l1,1.06C95.26,25.2,94,27,93,28.43l-.4.57c-1.17,1.63-3.14,4.37-3.3,5.85v92.79c.16,8.07-2.45,15-7.56,20.06C76.14,153.2,67.94,156.19,58.51,156.19Zm14-82.37,0,3.52c0,7.83,0,15.7,0,23.3,0,12,.08,24.52-.14,37-.29,6.25-2.85,13.45-8.91,16.74,6.95-.84,12.93-3.51,17.22-7.76,4.81-4.75,7.27-11.31,7.12-19V34.77c.21-2,2.16-4.67,3.58-6.65l.4-.56c.46-.64,1-1.36,1.52-2.11-4.45,1.64-10,1.06-13.93.65a81.85,81.85,0,0,1-11.8-2.4,5.3,5.3,0,0,0-4.26,1.1,20.46,20.46,0,0,0-1.48,1.6c-.56.65-1.14,1.32-1.78,2a85.59,85.59,0,0,1-8.62,7.34l-.47.34-.44-.36c-3-2.37-4.45-3.56-7.41-6-7.39-5.21-21.3,5.76-29.4,13.26,6.57-3.22,13.43-3.35,19.28-.17l.35.24a10.25,10.25,0,0,1,3.88,8.09v20l-.83-.09c-1.52-.17-3,.55-4.33,2.15a33.59,33.59,0,0,0-5.19,7.88,7.14,7.14,0,0,1,1.68-.4c3.8-.72,7.17,2,8.44,3.26l.23.22v16.11c0,2.21-.27,4.62-2,6.49,5.9.16,12.19,2,17.34,3.84v-21l.63-.1c4.15-.69,6.16-1,10.09-1.76a5.69,5.69,0,0,0,4.44-3.26ZM24.82,130.5a40.29,40.29,0,0,1,12.57,2.27A32.72,32.72,0,0,1,48.46,139a1.67,1.67,0,0,0,1.52.4,2.55,2.55,0,0,0,1.67-1c5.35-6.59,8.62-10.66,13-16.2L64.1,122l-.59.45a4.36,4.36,0,0,1-4.25,1c-6.52-1.53-29.16-5.84-44.17,3.49A24.67,24.67,0,0,0,6,136.67c4.3-4.07,11-5.58,16.55-6.07C23.3,130.54,24.05,130.5,24.82,130.5Zm-7.34-16.79a7.27,7.27,0,0,1-.79.28c-.41.14-1.09.35-1.15.59a19,19,0,0,1-4.31,7.7c14.46-8,31.7-6.71,43.19-4.35a83.67,83.67,0,0,0-19.7-4.46C29.58,113,22.42,112.57,17.48,113.71ZM65,121.33l.26.15.74-.93ZM52.48,76.88V36.15l.32-.22a2.8,2.8,0,0,1,2.31-.52l1.36.36c5,1.33,10.17,2.7,15.2,2.28l.81-.07V68.53c0,2.92-2.72,5.33-5.32,5.76-5.43,1-8.18,1.53-13.81,2.45ZM54,37V75.12c5-.84,7.78-1.33,12.91-2.31h0c2-.31,4.1-2.15,4.07-4.27V39.59c-5,.25-10-1.08-14.89-2.37l-1.34-.35A1.14,1.14,0,0,0,54,37ZM34.05,68.73l-1.49-.1c.06-3.77-.29-13-4.75-17.24a8.31,8.31,0,0,0-6.55-2.21h0c-3.64.12-8.38,1.3-10.28,6.24l-1.41-.51,1.77-5.34-.07-.22a2.53,2.53,0,0,1,.55-2.23c1.83-2.33,7.52-3.64,9.54-3.68,3.72-.3,6.74.7,8.94,3C35,51.39,35,61.29,34.05,68.73ZM22,47.66a9.56,9.56,0,0,1,6.84,2.64,16.1,16.1,0,0,1,4.08,7.64c-.33-4.16-1.37-8-3.72-10.46-1.88-2-4.49-2.81-7.78-2.54C19.3,45,14.33,46.32,13,48a1,1,0,0,0-.28.92l.2.62-.35,1a13.81,13.81,0,0,1,8.63-2.94C21.46,47.66,21.73,47.66,22,47.66Z"/><path class="cls-3" d="M182.43,110.08c.35,18.75-14.32,26.53-31.44,26.17,12.64-1.43,15-12.45,14.65-23V73.4c-3.24,2.78-6.52,5.66-9.39,8.39-2,1.72-3,2-5,1.11A45.15,45.15,0,0,0,147.14,81v24.81l2.28,1c2.87,1.08,5.8-.75,8-2.44A48.15,48.15,0,0,1,147,118.17a12.78,12.78,0,0,1-6.26,3.44,3.37,3.37,0,0,1-1.85-.2c-7.7-4-16.59-5.72-23.62-1.32,2.59-2,5-4.14,8.82-5.56a10.57,10.57,0,0,0,4.56-3.49,8,8,0,0,0,1.7-4.81V77.29c-12.31-1.22-29,2.33-33.44,15.49,3.17-15.64,17.83-25.61,33.44-27.27,11.24-1.15,23,1.25,33.73,4.36a1.49,1.49,0,0,0,1.56-.24V17.82A7,7,0,0,1,160,16.09a15.58,15.58,0,0,0,3-3.05c2.93-3.64,5.4-7,8.25-11,4.91,1.78,14.24,5.34,18.93,2.08a54.87,54.87,0,0,0-3.85,4.59c-1.33,1.79-3.68,4.4-3.84,6.34ZM98.19,77.86c.4-.38.27-.46.72-.73Zm64.18-10.81C141,58.5,115.46,59.55,98.91,77.13a58.43,58.43,0,0,0,8.32-11,13.52,13.52,0,0,0,1.49-3.88c.18-1.07,1.64-1.26,2.42-1.79C126.68,55,148.21,56.36,162.37,67.05ZM126.51,25.49c-9.2-4.08-18.79,1.54-25,8.08,6.07-7.57,25.63-29.77,36-23.27,3.24,2.73,4.86,4.1,8.11,6.87a4.18,4.18,0,0,1,1.56,3.36V55.87c-6.23-2-15.07-3.31-21.63-2.26,2.71-1.92,4.84-4.91,4.84-8.11V32.8a8.12,8.12,0,0,0-3.7-7.11Zm-11.38,6.34c-4.86.85-9.13,3.43-11,8.46L106,34.4l-.14-.43a2.31,2.31,0,0,1,1-2.28,18.59,18.59,0,0,1,8.4-4.12c12.43-2.77,13.51,11.79,12,21.1a28.82,28.82,0,0,0-1.14-9.48C124.58,34.13,120.79,30.43,115.13,31.83Z"/><path class="cls-3" d="M151.75,137H151l-.08-1.5c8.4-.88,12.74-6.74,13.65-14.52.67-1.14.23-43.6.34-46-2.79,2.45-5.5,4.8-8.11,7.31-2.33,2-3.59,2.26-5.85,1.24-.75-.41-1.76-.88-3-1.42v23.2l1.81.76c4,1.29,7.63-2.83,10.36-5.08-3.88,7.17-6.71,12.42-12.55,17.69a13.61,13.61,0,0,1-6.63,3.62,4.17,4.17,0,0,1-2.26-.23c-6.8-3.51-13.67-5-20.27-2.74-.56.13-.38.11-1.13.31l-.66.14a6.13,6.13,0,0,1-.66.29c-.09.07-.69.15-.91.27l-1.34.23.75-.66.4-.4s.06-.07.07-.07c2.63-2.08,5-4.18,8.93-5.65a9.84,9.84,0,0,0,4.24-3.24,7.16,7.16,0,0,0,1.56-4.37V78c-11.79-1-27.7,2.46-32,15l-1.45-.38c3.21-16,18.27-26.19,34.09-27.85,10.69-1.22,23.83,1.34,34,4.39l.11,0a.49.49,0,0,0,.48,0v-.35c-22.42-9.58-48.67-9.46-66.16,9.54l-1.07-1a2.1,2.1,0,0,0,.24-.27,1.55,1.55,0,0,1,.53-.52,56.8,56.8,0,0,0,8.14-10.75A12.63,12.63,0,0,0,108,62.15a2.14,2.14,0,0,1,1.36-1.61c.51-.22,1-.46,1.44-.7,10.53-4,24.7-4.2,36.47-1A48.48,48.48,0,0,1,164.9,68V18.65A8,8,0,0,1,158.77,16a12.78,12.78,0,0,0,3.6-3.42c3.1-3.85,5.5-7.11,8.56-11.45,4.66,1.74,14.23,5.44,18.73,2.42l1,1.1a60.63,60.63,0,0,0-4.32,5.21c-1,1.14-3.2,4.21-3.15,5.2v95C183.55,128.88,169.06,137.17,151.75,137ZM166.4,71.8c-.13,2.43.36,48.42-.36,49.41-.72,5.72-3.24,11.32-8.77,14,14.39-1.41,24.75-9.73,24.43-25.14v-95c.38-3.07,3.83-6.35,5.75-9-5.22.64-11.14-1.27-16-3.07-3.47,4.71-6.42,9.17-10.29,13.13a6,6,0,0,0,4.35,1l.86-.14V69.1l1,.71-1-.38V70l-.32.22a2.2,2.2,0,0,1-2.26.33c-10-3-22.89-5.51-33.37-4.32-12.52,1.41-24.87,8.08-30.31,19.5,7.75-8.26,20.17-10.28,31-9.15v29.62c0,3.91-3,7.54-6.73,9a27.48,27.48,0,0,0-4,1.94c6.39-1.16,12.41.32,18.8,3.58,5.63,1.22,13.49-9.6,16-14h0c-1.91,1-3.95,1.59-6,.78l-2.76-1.15V79.93a55.12,55.12,0,0,1,5.23,2.32,3.59,3.59,0,0,0,1.69.4c.3,0,1-.2,2.45-1.42C159.15,78,162.76,74.87,166.4,71.8ZM130.17,58.12a56.17,56.17,0,0,0-18.72,3.07c-.39.32-1.88.66-2,1.23-.47,2.64-2.41,5.72-4.08,8.08,15-10.79,34.22-11.53,51.35-6.19C148.68,59.8,138.92,58.18,130.17,58.12ZM147.91,57c-3.18-1.37-7.46-2-11.24-2.56-3.42-.41-7.89-.71-11-.07l-3.52.74L125.09,53c2.51-1.78,4.51-4.53,4.53-7.5V32.81a7.38,7.38,0,0,0-3.38-6.5l-.2-.21c-8.83-3.78-18,1.74-24,8l-1.13-1c6.41-7.94,26.09-30.29,37-23.44l.09.07c3.25,2.73,4.87,4.11,8.12,6.87a4.94,4.94,0,0,1,1.83,3.94ZM130,52.48a63.53,63.53,0,0,1,16.42,2.34V20.54a3.45,3.45,0,0,0-1.3-2.79c-3.23-2.76-4.85-4.13-8.07-6.84-8.57-5.2-23.57,10.51-29.23,16.41,5.5-3.39,12.64-5.6,19.2-2.43l.19.26a8.88,8.88,0,0,1,3.92,7.66V45.5a10.42,10.42,0,0,1-3.19,7C128.57,52.5,129.26,52.48,130,52.48Zm-2-3.7-1.49-.12a28.67,28.67,0,0,0-1.11-9.24c-1.39-4.65-4.77-8.18-10.1-6.85h0c-4.84.92-8.54,3.13-10.4,8l-1.41-.5,1.77-5.66-.06-.19a3,3,0,0,1,1.22-3.09,19,19,0,0,1,8.72-4.29C128.13,24,129.68,38.77,128,48.78Zm-10.33-18c4.8-.1,7.88,3.94,9.16,8.14,0,.16.1.32.14.48-.48-6.66-3.54-13.09-11.51-11.13a17.32,17.32,0,0,0-8.07,4c-.82.69-.82,1.21-.75,1.55l.2.58-.24.76A15.24,15.24,0,0,1,115,31.1h0A13.83,13.83,0,0,1,117.65,30.82Z"/><path class="cls-2" d="M61.4,155.19l2.72-1.84c5.54-3.76,8.11-10.76,7.86-21.41V77.14a.37.37,0,0,0-.47.24L68.1,84.9a6,6,0,0,1-4.63,3.37c-3.94.73-6,1.08-10.12,1.77a.47.47,0,0,0-.37.42V111.2l-1-.3a72.93,72.93,0,0,0-17.47-3.28l-1.67-.09L34,106.34a8.9,8.9,0,0,0,2.65-6.17V84.38a.16.16,0,0,0,0-.11c-2.21-2.21-6-4-9.14-2.78l-1.8.7.85-1.73a33.69,33.69,0,0,1,5.05-7.61,5.52,5.52,0,0,1,4.75-2.3.48.48,0,0,0,.32-.36V51a9.6,9.6,0,0,0-3.56-7.54C26.56,39.27,19,41.31,15.05,42.9l-4.26,1.72,4.07-3.48c6.6-5.65,20.32-17.42,28.49-11.78,3,2.44,4.45,3.62,7.38,6h0a21.08,21.08,0,0,0,3.57-2.68c.51-.44,1-.86,1.51-1.26a59.15,59.15,0,0,0,7-6.92l.16-.15a6.19,6.19,0,0,1,4.58-1.09c7.75,1.93,16.46,4.09,25,1.9l2-.52L93.35,26.3c-.41.57-.8,1.13-1.16,1.68C89,32.14,88.32,34.1,88.27,35v92.82c.28,13.92-8.22,24.13-22.18,26.62l-1.44.24ZM71.93,75.57h0a1.54,1.54,0,0,1,1.5,1.57v54.78c.23,9.63-1.81,16.47-6.21,20.78,12.5-2.79,19.76-12,19.5-24.83V35c.1-1.71,1.47-4.27,4.2-7.87A.61.61,0,0,1,91,27c-8.3,1.55-16.51-.48-23.81-2.3a4.62,4.62,0,0,0-3.36.81,60.37,60.37,0,0,1-7.08,7c-.51.41-1,.83-1.49,1.25l-.68.58a18.52,18.52,0,0,1,4.23.91,25,25,0,0,0,2.7.69c1.57.36,3.29.66,5.32.93a21.32,21.32,0,0,0,4.88.12,1.57,1.57,0,0,1,1.22.39,1.54,1.54,0,0,1,.51,1.18V68.33c0,3.21-2.85,6.4-6.33,7-5.41,1-8.17,1.53-13.8,2.45A1.64,1.64,0,0,1,52,77.39a1.6,1.6,0,0,1-.55-1.23V36.65l-.18.1-.23.07a1.61,1.61,0,0,1-1.28-.32c-2.93-2.35-4.4-3.54-7.34-5.94-6.33-4.37-17.69,4.22-24.27,9.73,4.41-1.14,10.39-1.55,15.8,1.92l.08.06A11,11,0,0,1,38.19,51V70.19a2,2,0,0,1-1.72,1.86h-.14a4.07,4.07,0,0,0-3.57,1.77,32.54,32.54,0,0,0-4.08,5.83c3.32-.45,6.8,1.32,9,3.55a1.6,1.6,0,0,1,.49,1.18v15.78a10.19,10.19,0,0,1-2.08,6.06,75.68,75.68,0,0,1,15.37,2.94V90.46a2,2,0,0,1,1.63-1.9c4.15-.69,6.16-1,10.09-1.76a4.45,4.45,0,0,0,3.54-2.54l3.41-7.5A2,2,0,0,1,71.93,75.57ZM54.28,35.87c-.64.13-1.3.49-1.3.84V76.16c0,.1.07.11.13.1,5.61-.92,8.36-1.42,13.78-2.45,2.71-.43,5.13-3,5.09-5.47V38.6l-.16-.82.08.74a22.65,22.65,0,0,1-5.23-.12c-2.07-.28-3.84-.59-5.41-.95a25.19,25.19,0,0,1-2.84-.72A16,16,0,0,0,54.28,35.87Zm-4.52,104a2.27,2.27,0,0,1-1.57-.6,32.11,32.11,0,0,0-10.85-6,35.83,35.83,0,0,0-20.8-1.17,22.59,22.59,0,0,0-9.21,4.17L4,138.87l2.21-3.61c11.19-18.32,38-15.54,53.05-12.26,1.9.67,3.56-.69,5.17-2l5.43-4.43L65.54,122c-5.27,6.62-8,10-13.45,16.73a2.92,2.92,0,0,1-1.87,1.09h0ZM24.83,129.53a39.06,39.06,0,0,1,13,2.28,33.5,33.5,0,0,1,11.36,6.35.84.84,0,0,0,.79.19h0a1.36,1.36,0,0,0,.94-.55c4.47-5.5,7.08-8.73,10.73-13.31a4.35,4.35,0,0,1-2.78,0c-13.59-3-37.31-5.56-49.09,8.44a27.06,27.06,0,0,1,6.41-2.28A35.14,35.14,0,0,1,24.83,129.53Zm129.77,6.55,3.29-1.87c6.45-3.66,7.91-11.69,8-17.79V73.25s0-.09,0-.1a.35.35,0,0,0-.28.09c-1.3,1.1-2.55,2.18-3.71,3.22l-1.5,1.34c-1.49,1.33-2.9,2.58-4.2,3.86-2.14,1.69-2.6,1.79-4.58,1-.82-.43-2.13-1.07-4.2-1.91h-.1a.56.56,0,0,0-.38.44V106l2.3,1a5.22,5.22,0,0,0,2.76.27l.11,0a10,10,0,0,0,2.3-.78l2.19-1.08-1.21,2.13c-2.14,3.76-9.18,13.74-15,13.74a4.57,4.57,0,0,1-1.17-.14l-.15-.06c-6.28-3.24-11.81-4.39-17.41-3.64l-4.19.56,3.74-2c.8-.42,1.72-.84,2.81-1.29,3.85-1.51,6.62-5.19,6.6-8.75V77.08c-12-1.2-22.68,1.86-29.33,8.33L98,88.6l2.08-4.07c5.22-10.17,16.47-17.18,30.11-18.75,9.43-1,20.11.41,33.62,4.33l.12,0a1.77,1.77,0,0,0,1.49-.13.87.87,0,0,0,.48-.61V17.67a.22.22,0,0,0,0-.09,3.27,3.27,0,0,0-.86,0,3.71,3.71,0,0,1-1.45-.06,5.64,5.64,0,0,1-1.88-.7l-.44-.22-.92-.45.7-.74a100.3,100.3,0,0,0,8.2-10.37l1.64-2.25.33-.46.53.2c4.4,1.64,10.08,3.45,15.09,3l1.76-.16L187.46,6.8c-.5.61-1,1.22-1.37,1.8-1.27,1.55-3.84,4.69-3.91,6.58v95c.28,13.77-7.81,22.95-22.2,25.18q-.79.13-1.62.24Zm11.19-64.44a1.9,1.9,0,0,1,.57.1,1.59,1.59,0,0,1,1,1.51v43.18c-.08,5.61-1.28,12.76-6.15,17.2,12.63-2.49,19.7-11,19.44-23.42V15.15c.09-2.42,2.77-5.7,4.22-7.46l.39-.54h0c-4.64,0-9.56-1.53-13.54-3L170.44,6a112.59,112.59,0,0,1-7.65,9.79,3.57,3.57,0,0,0,1.06.34l.16,0a2.7,2.7,0,0,0,.85,0,2.6,2.6,0,0,1,2,.35,1.57,1.57,0,0,1,.53,1.16V69.48a2.28,2.28,0,0,1-1.23,1.84,3.24,3.24,0,0,1-2.82.21c-13.29-3.85-23.78-5.2-33-4.26-11.15,1.28-20.94,6.58-26.57,14.16,6.91-4.77,16.46-6.9,26.93-5.9a1.51,1.51,0,0,1,1.39,1.55V106c0,3.86-2.72,7.82-6.64,9.74a32.79,32.79,0,0,1,14.19,4c3.9.9,10-6,13.27-11.09l-.45.11-.24,0a6.69,6.69,0,0,1-3.59-.34l-2.3-1a1.55,1.55,0,0,1-1-1.46V81.22A2,2,0,0,1,147,79.3a1.66,1.66,0,0,1,.91.08c1.69.69,3.16,1.36,4.26,1.94,1.33.51,1.33.51,3-.79,1.27-1.25,2.69-2.51,4.2-3.85l1.49-1.33c1.17-1.06,2.43-2.15,3.74-3.26A1.88,1.88,0,0,1,165.79,71.64ZM9.39,123.75l2.09-2.67c2.11-2.69,3.28-4.85,3.56-6.6l.06-.38.35-.17a9.66,9.66,0,0,1,1.1-.43c.24-.09.48-.17.69-.26l.17,0c9.18-1.57,20.29-.58,33,2.91l-.32,1.47c-9.9-1.59-24.47-2.07-37.68,4.64Zm7.05-8.62a13.94,13.94,0,0,1-2.05,4.5,59.34,59.34,0,0,1,24.55-4.55,64.33,64.33,0,0,0-21.19-.43c-.22.09-.46.18-.71.26S16.63,115.05,16.44,115.13Zm86.63-42.32,2.32-3.38c2-3,3.3-5.54,3.58-7.31l.06-.36.32-.18c.26-.14.55-.27.83-.4s.59-.27.84-.42l.12-.06c13.15-4.66,30-4,42.87,1.75l-.5,1.41c-17.22-4.62-34.38-2.21-47.07,6.61Zm7.31-10.07a17.39,17.39,0,0,1-1.94,4.66c9.68-5.75,21.47-8.19,33.79-7.08a59.27,59.27,0,0,0-30.52,1.77c-.28.16-.58.3-.9.45ZM31.62,55.63c-1.38-3.58-3.39-5.89-6-6.89a14.5,14.5,0,0,0-12.21,1.85l-2.3,1.62,1.18-2.55c.05-.11,0-.29-.1-.58l0-.14a1.65,1.65,0,0,1,.86-1.71,16.07,16.07,0,0,1,8.26-2.79c6.14-.74,10.33,3.09,11.75,10.78Zm-10.08-9a14.92,14.92,0,0,1,4.62.71,9.88,9.88,0,0,1,3,1.82,7.7,7.7,0,0,0-7.69-3.22,14.63,14.63,0,0,0-7.52,2.52l-.25.21A16,16,0,0,1,21.54,46.62Zm125.35,8.76-.94-.25A60.62,60.62,0,0,0,128.42,53l-1.79.07,1.21-1.33a9.86,9.86,0,0,0,2.76-6.44V32.59a8.22,8.22,0,0,0-3.6-7.1c-6.2-3.74-13.91-.52-18,1.74l-4.59,2.56,4.08-4.14c6-6.09,20-20.35,28.64-15.12l.1.07c3.22,2.71,4.84,4.08,8.06,6.83a4.09,4.09,0,0,1,1.55,3.29Zm-16.68-3.92a63,63,0,0,1,15.18,2V20.72a2.61,2.61,0,0,0-1-2.14c-3.22-2.74-4.83-4.11-8-6.8-6.56-3.89-17.75,6-24.08,12.25,4.47-1.78,10.39-2.91,15.55.2a9.66,9.66,0,0,1,4.28,8.36v12.7A10.8,10.8,0,0,1,130,51.46Zm-2-8.39-2.63-6c-1.34-3.07-3.33-4.93-5.93-5.53a15.44,15.44,0,0,0-12.23,3.71l-2.55,2.26,1.37-3.12c.06-.13,0-.26-.11-.61l0-.12a1.65,1.65,0,0,1,.79-1.74,18,18,0,0,1,8.23-4,9.11,9.11,0,0,1,7.34.92c2.29,1.48,3.86,4.19,4.54,7.83ZM117.93,29a10.14,10.14,0,0,0-2.48.33,16.6,16.6,0,0,0-7.26,3.43A16.79,16.79,0,0,1,119.94,30a9,9,0,0,1,3.45,1.62A7.08,7.08,0,0,0,121.64,30,6.7,6.7,0,0,0,117.93,29Z"/><path class="cls-2" d="M126.27,36.72c0-.19-.11-.38-.16-.57l-.12,0C126.08,36.36,126.18,36.53,126.27,36.72Z"/><path class="cls-2" d="M88.22,32.76c.12-.25.27-.52.43-.8-10.2,2.17-15.29,3.23-25.49,5.1.65.12,1.32.24,2,.34C74.38,35.69,79,34.73,88.22,32.76Z"/><path class="cls-2" d="M124.94,34.34c.17.24.32.48.47.72l.39-.08c-.08-.26-.18-.51-.27-.76Z"/><path class="cls-2" d="M28.61,40.75c9.45-1,14.17-1.63,23.62-3.16V36.9c-10.4,1.69-15.61,2.41-26,3.4A17.28,17.28,0,0,1,28.61,40.75Z"/><path class="cls-2" d="M110,25.26c-.29.29-.57.58-.85.88l.69-.15a25.4,25.4,0,0,1,3.08-1.37Z"/><path class="cls-2" d="M106.93,34.64c.27-.24.55-.46.82-.67l-.74.16A1.12,1.12,0,0,1,106.93,34.64Z"/><path class="cls-2" d="M90.11,29.59c-10.64,2.23-21.27,4.34-32,6.31l1.62.41c10-1.76,19.92-3.77,29.82-5.92Z"/><path class="cls-2" d="M120.89,31.1a7.82,7.82,0,0,1,1.13.53l2-.43a6.87,6.87,0,0,0-.55-.66Z"/><path class="cls-2" d="M144,61.29c1.11.14,2.24.3,3.36.49l2-.37c-.76-.25-1.53-.49-2.31-.7Z"/><path class="cls-2" d="M72.73,42.18c5.92-1.17,8.87-1.78,14.79-3v-.77c-5.92,1.25-8.87,1.87-14.79,3Z"/><path class="cls-2" d="M111.57,29.75l6.8-1.48A16.81,16.81,0,0,0,111.57,29.75Z"/><path class="cls-2" d="M108.09,31.84a9.82,9.82,0,0,0-1.11,1l4.54-1a17.91,17.91,0,0,1,3.61-1,12.81,12.81,0,0,1,2.37-.3l4.77-1a7.82,7.82,0,0,0-1-.54C116,30.1,113.37,30.68,108.09,31.84Z"/><path class="cls-2" d="M123.41,32.62a8.08,8.08,0,0,1,.66.65l1-.22c-.11-.25-.22-.49-.34-.72Z"/><path class="cls-2" d="M87.52,41.22v-.8c-5.92,1.26-8.87,1.87-14.79,3v.8C78.65,43.09,81.6,42.47,87.52,41.22Z"/><path class="cls-2" d="M87.52,43.29v-.81c-5.92,1.25-8.87,1.87-14.79,3v.81C78.65,45.17,81.6,44.55,87.52,43.29Z"/><path class="cls-2" d="M152.71,82.29a1.88,1.88,0,0,0,1.76-.31Z"/><path class="cls-2" d="M131.35,90.56V92c5.92-1.23,8.88-1.83,14.79-3V87.61C140.23,88.73,137.27,89.33,131.35,90.56Z"/><path class="cls-2" d="M131.35,86.45v1.36c5.92-1.23,8.88-1.82,14.79-2.94V83.5C140.23,84.62,137.27,85.22,131.35,86.45Z"/><path class="cls-2" d="M131.35,88.5v1.39c5.92-1.23,8.88-1.83,14.79-3V85.55C140.23,86.68,137.27,87.27,131.35,88.5Z"/><path class="cls-2" d="M149.43,80.83c.81.36,1.5.68,2.06,1,1.68-.31,2.52-.46,4.21-.75.51-.5,1.11-1.06,1.75-1.64C154.24,80,152.64,80.24,149.43,80.83Z"/><path class="cls-2" d="M87.52,37.06v-.75c-5.92,1.26-8.87,1.87-14.79,3v.75C78.65,38.94,81.6,38.32,87.52,37.06Z"/><path class="cls-2" d="M131.35,92.62v1.43c5.92-1.23,8.88-1.83,14.79-3V89.67C140.23,90.79,137.27,91.39,131.35,92.62Z"/><path class="cls-2" d="M131.35,96.73V98.2c5.92-1.23,8.88-1.83,14.79-3V93.78C140.23,94.9,137.27,95.5,131.35,96.73Z"/><path class="cls-2" d="M131.35,94.67v1.45c5.92-1.23,8.88-1.82,14.79-3V91.72C140.23,92.84,137.27,93.44,131.35,94.67Z"/><path class="cls-2" d="M72.73,90.75V92c5.92-1.17,8.87-1.78,14.79-3V87.71C81.6,89,78.65,89.58,72.73,90.75Z"/><path class="cls-2" d="M87.52,35a3.22,3.22,0,0,1,.12-.75C80.51,35.74,77,36.48,69.82,37.86c.84.14,2.15-.4,2.71.21,6-1.19,9-1.81,15-3.08Z"/><path class="cls-2" d="M87.52,66.14v-1c-5.92,1.26-8.87,1.88-14.79,3a5.46,5.46,0,0,1-.09,1.07C78.59,68,81.57,67.41,87.52,66.14Z"/><path class="cls-2" d="M79.07,26.37l-1.8-.26c-7.32,1.48-11,2.2-18.32,3.48l-.84.78C66.5,28.91,70.69,28.08,79.07,26.37Z"/><path class="cls-2" d="M131.35,82.34v1.32c6-1.24,9-1.84,14.94-3a1.29,1.29,0,0,1,1.94-.36c4.08-.76,6.12-1.13,10.2-1.81l1.83-1.63C150.59,78.46,140.94,80.31,131.35,82.34Z"/><path class="cls-2" d="M72.73,94.11c5.92-1.17,8.87-1.79,14.79-3V89.76c-5.92,1.26-8.87,1.88-14.79,3Z"/><path class="cls-2" d="M87.52,74.45V73.32c-6.07,1.29-9.11,1.92-15.19,3.11a1,1,0,0,1,.4,1.06C78.65,76.32,81.6,75.71,87.52,74.45Z"/><path class="cls-2" d="M87.35,26.71c-1.1.06-2.22.09-3.36.06-9.25,2-18.55,3.79-27.88,5.37-.31.27-.64.54-1,.81C65.92,31,76.62,28.94,87.35,26.71Z"/><path class="cls-2" d="M149.86,62.25c.94.19,1.88.41,2.83.64l.33-.06c-.65-.29-1.29-.55-2-.81Z"/><path class="cls-2" d="M117.25,70.05c7.18-1.56,10.78-2.34,18-3.8A44.64,44.64,0,0,0,117.25,70.05Z"/><path class="cls-2" d="M87.52,80.68v-1.2c-5.92,1.26-8.87,1.88-14.79,3v1.2C78.65,82.55,81.6,81.94,87.52,80.68Z"/><path class="cls-2" d="M87.52,78.6V77.43c-5.92,1.25-8.87,1.87-14.79,3v1.17C78.65,80.48,81.6,79.86,87.52,78.6Z"/><path class="cls-2" d="M87.52,82.76V81.54c-5.92,1.26-8.87,1.87-14.79,3V85.8C78.65,84.63,81.6,84,87.52,82.76Z"/><path class="cls-2" d="M87.52,76.53V75.37c-5.92,1.26-8.87,1.87-14.79,3v1.16C78.65,78.4,81.6,77.78,87.52,76.53Z"/><path class="cls-2" d="M109.84,67.52c1.26-.7,2.52-1.36,3.79-2l-5.75,1.26c-.24.43-.48.86-.74,1.28Z"/><path class="cls-2" d="M103.9,80a15.44,15.44,0,0,0-1.1,1.49l3.4-.75a31.42,31.42,0,0,1,5.52-2.45Z"/><path class="cls-2" d="M107.25,69l-.82.18-.42.64C106.42,69.57,106.84,69.29,107.25,69Z"/><path class="cls-2" d="M102.16,82.48c-.31.48-.59,1-.87,1.45l.64-.14A24.72,24.72,0,0,1,104.15,82Z"/><path class="cls-2" d="M87.52,84.83V83.6c-5.92,1.25-8.87,1.87-14.79,3v1.24C78.65,86.71,81.6,86.09,87.52,84.83Z"/><path class="cls-2" d="M109.27,74.75c-.68.53-1.32,1.07-1.91,1.62,14.15-3.09,28.29-6.08,42.51-8.82q-1.71-.3-3.51-.54C134,69.37,121.6,72,109.27,74.75Z"/><path class="cls-2" d="M87.52,107.68v-1.47c-5.92,1.26-8.87,1.87-14.79,3v1.47C78.65,109.56,81.6,108.94,87.52,107.68Z"/><path class="cls-2" d="M157.39,69.14c-12,2.06-24,4.49-35.94,7.07a46.25,46.25,0,0,1,6.34-.11c10.83-2.23,21.63-4.31,32.53-6.21C159.35,69.63,158.37,69.38,157.39,69.14Z"/><path class="cls-2" d="M87.52,86.91V85.65c-5.92,1.26-8.87,1.87-14.79,3V90C78.65,88.79,81.6,88.17,87.52,86.91Z"/><path class="cls-2" d="M100.77,84.84l0,0,0,0Z"/><path class="cls-2" d="M87.52,70.3V69.2c-6.73,1.43-10.09,2.13-16.82,3.44a7.09,7.09,0,0,1-2.45,1.57C76,72.73,79.81,71.93,87.52,70.3Z"/><path class="cls-2" d="M52.23,50.05v-.82c-5.92,1-8.87,1.4-14.79,2.15v.82C43.36,51.45,46.31,51,52.23,50.05Z"/><path class="cls-2" d="M87.52,44.53c-5.92,1.26-8.87,1.88-14.79,3v.84c5.92-1.17,8.87-1.78,14.79-3Z"/><path class="cls-2" d="M87.52,47.45v-.86c-5.92,1.26-8.87,1.87-14.79,3v.86C78.65,49.32,81.6,48.7,87.52,47.45Z"/><path class="cls-2" d="M52.23,52.13v-.84c-5.92,1-8.87,1.4-14.79,2.15v.84C43.36,53.53,46.31,53.09,52.23,52.13Z"/><path class="cls-2" d="M36.26,46.12c6.39-.79,9.58-1.26,16-2.3v-.76c-6.55,1.07-9.83,1.55-16.38,2.35C36,45.64,36.13,45.88,36.26,46.12Z"/><path class="cls-2" d="M52.23,45.9v-.78c-6.17,1-9.25,1.46-15.42,2.23.09.24.16.49.23.75C43.12,47.33,46.16,46.88,52.23,45.9Z"/><path class="cls-2" d="M52.23,48v-.79c-6,1-8.95,1.41-14.92,2.16,0,.26.07.52.09.79C43.33,49.38,46.3,48.94,52.23,48Z"/><path class="cls-2" d="M87.52,49.52v-.88c-5.92,1.26-8.87,1.88-14.79,3v.88C78.65,51.4,81.6,50.78,87.52,49.52Z"/><path class="cls-2" d="M87.52,53.68v-.92c-5.92,1.25-8.87,1.87-14.79,3v.92C78.65,55.55,81.6,54.94,87.52,53.68Z"/><path class="cls-2" d="M87.52,62V61c-5.92,1.26-8.87,1.87-14.79,3v1C78.65,63.86,81.6,63.24,87.52,62Z"/><path class="cls-2" d="M87.52,64.06V63c-5.92,1.25-8.87,1.87-14.79,3v1C78.65,65.94,81.6,65.32,87.52,64.06Z"/><path class="cls-2" d="M87.52,59.91v-1c-5.92,1.26-8.87,1.88-14.79,3v1C78.65,61.78,81.6,61.17,87.52,59.91Z"/><path class="cls-2" d="M87.52,55.76v-.95c-5.92,1.26-8.87,1.88-14.79,3v.95C78.65,57.63,81.6,57,87.52,55.76Z"/><path class="cls-2" d="M87.52,68.22V67.15c-6.07,1.29-9.1,1.92-15.17,3.11a6.22,6.22,0,0,1-.62,1.2C78,70.22,81.2,69.56,87.52,68.22Z"/><path class="cls-2" d="M87.52,57.83v-1c-5.92,1.26-8.87,1.87-14.79,3v1C78.65,59.71,81.6,59.09,87.52,57.83Z"/><path class="cls-2" d="M87.52,51.6v-.9c-5.92,1.26-8.87,1.87-14.79,3v.9C78.65,53.48,81.6,52.86,87.52,51.6Z"/><path class="cls-2" d="M53.71,35.27a2.37,2.37,0,0,1,1.08-.18C67,33,79.17,30.57,91.28,28c.1-.13.19-.26.29-.38s.19-.28.28-.41C78.93,30,66,32.57,52.94,34.73l-1.1.84Z"/><path class="cls-2" d="M87.52,71.26c-18.28,3.79-36.52,7.1-55,9.5a10.53,10.53,0,0,1,2,.89c17.86-2.4,35.46-5.62,53.09-9.28Z"/><path class="cls-2" d="M52.23,75V73.9C43.11,75.38,38.55,76,29.44,77c-.18.27-.38.52-.55.79l-.2.36C38.11,77.17,42.81,76.5,52.23,75Z"/><path class="cls-2" d="M52.23,70.82v-1C44.56,71,40.72,71.59,33,72.47A8.61,8.61,0,0,0,32,73.63C40.07,72.72,44.12,72.14,52.23,70.82Z"/><path class="cls-2" d="M52.23,68.74v-1c-5.92,1-8.87,1.39-14.79,2.15a1.26,1.26,0,0,1-.34,1C43.15,70.17,46.18,69.72,52.23,68.74Z"/><path class="cls-2" d="M30.62,50.13l-1.38.15a8.87,8.87,0,0,1,.64.72L31,50.89C30.86,50.63,30.74,50.38,30.62,50.13Z"/><path class="cls-2" d="M52.23,104.05v-1.36c-6.48,1-9.73,1.53-16.21,2.32a9.35,9.35,0,0,1-1.14,1.51C41.82,105.69,45.29,105.18,52.23,104.05Z"/><path class="cls-2" d="M131.35,80.28v1.3c9.92-2.09,19.92-4,29.94-5.62l1.8-1.59C152.46,76.17,141.92,78.15,131.35,80.28Z"/><path class="cls-2" d="M52.23,104.74c-6.27,1-9.41,1.48-15.69,2.27,1.73.14,3.46.41,5.22.7,4.19-.58,6.28-.9,10.47-1.58Z"/><path class="cls-2" d="M109.4,63.46c9.34-2.05,14-3.09,23.36-5-1.67-.09-3.41-.08-5,0-7.22,1.53-10.83,2.32-18,3.91A11.07,11.07,0,0,1,109.4,63.46Z"/><path class="cls-2" d="M12.12,121.48l0,.07.14-.07Z"/><path class="cls-2" d="M122.52,23.22c9.15-2,13.72-2.93,22.87-4.68a4,4,0,0,0-.58-.58c-9.87,1.89-14.8,2.95-24.68,5.08A16.12,16.12,0,0,1,122.52,23.22Z"/><path class="cls-2" d="M112.78,72.33q-.93.57-1.8,1.17,16.26-3.54,32.55-6.83c-1.39-.15-2.84-.28-4.25-.34-10.13,2-15.19,3.13-25.33,5.34Z"/><path class="cls-2" d="M40.67,28.93a7.34,7.34,0,0,0-1.88-.34c-1.41.19-2.12.28-3.54.45a27.06,27.06,0,0,0-2.67.9C35.82,29.57,37.44,29.37,40.67,28.93Z"/><path class="cls-2" d="M17.61,47.91a17.24,17.24,0,0,1,3.6-.48,13.24,13.24,0,0,1,2.28,0c1.91-.16,2.86-.25,4.77-.44a7.67,7.67,0,0,0-.92-.66c-5.26.51-7.89.72-13.16,1-.24.15-.47.31-.69.47a1.72,1.72,0,0,0-.39.34C14.9,48.09,15.8,48,17.61,47.91Z"/><path class="cls-2" d="M121.35,15.16c6.47-1.39,9.7-2.08,16.16-3.38l-.58-.49c-5.74,1.16-8.61,1.77-14.35,3Z"/><path class="cls-2" d="M63,25.33c2.22-.4,3.33-.61,5.55-1L67.41,24h-.19l-3.19.6a5.69,5.69,0,0,0-.66.39Z"/><path class="cls-2" d="M20.07,118.36a59.76,59.76,0,0,1,22-2.39l3-.44c-1.42-.32-2.82-.63-4.18-.88-10.43,1.42-15.64,2-26.07,2.58a12,12,0,0,1-.84,1.52C16.46,118.62,17.66,118.54,20.07,118.36Z"/><path class="cls-2" d="M163.41,129.83A13.24,13.24,0,0,1,161.8,132c3.81-.62,5.72-.9,9.53-1.43a17.61,17.61,0,0,0,3.13-2.3C170,128.81,167.83,129.13,163.41,129.83Z"/><path class="cls-2" d="M164.58,127.59a14.17,14.17,0,0,1-1,2c4.46-.7,6.69-1,11.15-1.6a20.53,20.53,0,0,0,1.94-2.1C171.81,126.5,169.4,126.84,164.58,127.59Z"/><path class="cls-2" d="M161.62,132.17a16.85,16.85,0,0,1-2.87,2.37c2.14-.36,3.22-.54,5.36-.87a27.87,27.87,0,0,0,6.82-2.91C167.2,131.29,165.34,131.57,161.62,132.17Z"/><path class="cls-2" d="M166.26,121.16c-.09.61-.22,1.23-.35,1.85,5.41-.82,8.11-1.2,13.52-1.83.25-.6.5-1.23.71-1.87C174.59,120,171.81,120.33,166.26,121.16Z"/><path class="cls-2" d="M69.29,152.93a28,28,0,0,0,7.48-3.37c-3.74.76-5.61,1.13-9.35,1.84a12.66,12.66,0,0,1-2.62,2.38Z"/><path class="cls-2" d="M166.4,10.13l-.56.73c7.79-1.19,11.68-1.7,19.47-2.48l.17-.21c.11-.16.24-.33.36-.49C178.06,8.44,174.18,9,166.4,10.13Z"/><path class="cls-2" d="M166.64,110.83v1.68c5.91-.89,8.87-1.28,14.78-2,0-.61,0-1.07,0-1.68C175.52,109.54,172.56,109.94,166.64,110.83Z"/><path class="cls-2" d="M45.83,121.66a78.57,78.57,0,0,0-9.49-.24c-3.38.42-5.08.61-8.46,1a44.64,44.64,0,0,0-7.52,2.2C30.55,123.79,35.64,123.17,45.83,121.66Z"/><path class="cls-2" d="M10.29,133.46a26.17,26.17,0,0,1,5.06-1.87c-2.3.14-3.45.19-5.75.28a15.22,15.22,0,0,0-1.33,1.67Z"/><path class="cls-2" d="M7.93,134c-.38.55-.73,1.1-1.06,1.67a18.19,18.19,0,0,1,2.59-1.72C8.85,134,8.54,134,7.93,134Z"/><path class="cls-2" d="M77.16,149.3a18.49,18.49,0,0,0,3.22-2.53c-4.46.92-6.69,1.37-11.16,2.23a20.74,20.74,0,0,1-1.61,2.18C71.43,150.45,73.34,150.07,77.16,149.3Z"/><path class="cls-2" d="M58.92,123.69c-1.33-.3-2.77-.57-4.31-.84a365.06,365.06,0,0,1-40,4.67,22.33,22.33,0,0,0-2.24,1.7A376.75,376.75,0,0,0,58.92,123.69Z"/><path class="cls-2" d="M55.84,132.93c-5.1.86-7.64,1.26-12.73,2,.79.41,1.58.89,2.31,1.35,3.53-.52,5.3-.8,8.84-1.39Z"/><path class="cls-2" d="M82.82,144a19.48,19.48,0,0,0,1.35-2.11c-5.15,1.08-7.73,1.61-12.88,2.61a13,13,0,0,1-.72,2C75.47,145.5,77.92,145,82.82,144Z"/><path class="cls-2" d="M86.84,134.83c.12-.59.23-1.19.32-1.82-5.81,1.24-8.71,1.84-14.52,3,0,.54,0,1.16-.08,1.76C78.27,136.63,81.13,136,86.84,134.83Z"/><path class="cls-2" d="M87.52,124.3v-1.64c-5.92,1.25-8.87,1.87-14.79,3v1.64C78.65,126.17,81.6,125.56,87.52,124.3Z"/><path class="cls-2" d="M131.35,102.9v1.53c5.92-1.23,8.88-1.83,14.79-3V100C140.23,101.07,137.27,101.67,131.35,102.9Z"/><path class="cls-2" d="M131.35,100.84v1.51c5.92-1.23,8.88-1.82,14.79-2.95V97.89C140.23,99,137.27,99.61,131.35,100.84Z"/><path class="cls-2" d="M131.28,117.3a29,29,0,0,1,3.29,1c5.49-1.13,8.23-1.67,13.72-2.69.65-.67,1.28-1.35,1.87-2C142.61,115,138.83,115.73,131.28,117.3Z"/><path class="cls-2" d="M46.58,116.34c1.24.14,2.46.3,3.63.49-1.18-.36-2.36-.67-3.55-.94l-1.85.28C45.4,116.22,46,116.27,46.58,116.34Z"/><path class="cls-2" d="M131.35,98.78v1.5c5.92-1.23,8.88-1.83,14.79-3v-1.5C140.23,97,137.27,97.55,131.35,98.78Z"/><path class="cls-2" d="M126.64,114.16c-1.46,1.09-3.58,1.73-5.1,2.57.51-.08,1-.14,1.61-.18,9.71-2.11,19.47-4.09,29.25-5.84.42-.6.83-1.22,1.24-1.86C142.84,110.76,137.44,111.88,126.64,114.16Z"/><path class="cls-2" d="M129.78,111c7.28-1.52,10.92-2.26,18.2-3.62-.63-.37-1.75-.39-1.83-1.26-6.17,1.17-9.26,1.8-15.43,3.08A9.69,9.69,0,0,1,129.78,111Z"/><path class="cls-2" d="M131.35,105c0,.55,0,1,0,1.56,5.93-1.23,8.89-1.83,14.81-3V102C140.23,103.12,137.27,103.72,131.35,105Z"/><path class="cls-2" d="M87.52,108.27c-5.92,1.25-8.87,1.87-14.79,3v1.49c5.92-1.17,8.87-1.78,14.79-3Z"/><path class="cls-2" d="M87.52,99.37V98c-5.92,1.25-8.87,1.87-14.79,3v1.38C78.65,101.25,81.6,100.63,87.52,99.37Z"/><path class="cls-2" d="M87.52,101.45V100c-5.92,1.26-8.87,1.88-14.79,3v1.41C78.65,103.32,81.6,102.71,87.52,101.45Z"/><path class="cls-2" d="M87.52,103.53V102.1c-5.92,1.26-8.87,1.87-14.79,3v1.43C78.65,105.4,81.6,104.79,87.52,103.53Z"/><path class="cls-2" d="M72.73,94.86v1.32c5.92-1.16,8.87-1.78,14.79-3V91.82C81.6,93.08,78.65,93.69,72.73,94.86Z"/><path class="cls-2" d="M87.52,95.22V93.87c-5.92,1.26-8.87,1.88-14.79,3v1.34C78.65,97.09,81.6,96.48,87.52,95.22Z"/><path class="cls-2" d="M87.52,97.3V95.93c-5.92,1.26-8.87,1.87-14.79,3v1.37C78.65,99.17,81.6,98.55,87.52,97.3Z"/><path class="cls-2" d="M146.14,81.44c-5.91,1.12-8.87,1.72-14.79,3v1.35c5.92-1.23,8.88-1.83,14.79-2.95Z"/><path class="cls-2" d="M131.28,107a8.1,8.1,0,0,1-.37,1.66c6.1-1.27,9.14-1.89,15.23-3v-1.58C140.2,105.19,137.23,105.79,131.28,107Z"/><path class="cls-2" d="M87.43,130.55c0-.56,0-1.14.06-1.72-5.91,1.26-8.86,1.87-14.76,3,0,.5,0,1,0,1.7C78.6,132.41,81.54,131.8,87.43,130.55Z"/><path class="cls-2" d="M87.52,120.6c-5.92,1.26-8.87,1.87-14.79,3v1.62c5.92-1.16,8.87-1.78,14.79-3Z"/><path class="cls-2" d="M138.41,120c.33.15.65.31,1,.48,2,.62,3.83-.64,5.59-1.77C142.35,119.17,141,119.43,138.41,120Z"/><path class="cls-2" d="M61.6,125.75c-10.94,1.85-21.76,3.44-32.78,4.75a41.54,41.54,0,0,1,5.38,1c10.36-1.22,15.53-2,25.89-3.88Z"/><path class="cls-2" d="M129.4,111.55a11.9,11.9,0,0,1-1.94,2c10.59-2.24,15.89-3.33,26.49-5.2l.74-1.16a11.13,11.13,0,0,1-2.38.82l-.23,0a5.9,5.9,0,0,1-3.18-.31l-.16-.07c-7.73,1.44-11.6,2.22-19.33,3.84Z"/><path class="cls-2" d="M135.2,118.55c.88.34,1.78.73,2.7,1.16,3.07-.62,4.6-.92,7.67-1.5a29,29,0,0,0,2.29-2.14C142.8,117,140.27,117.52,135.2,118.55Z"/><path class="cls-2" d="M125.26,116.51a31.73,31.73,0,0,1,5.09.59c8.09-1.69,12.13-2.5,20.22-4,.37-.43.73-.86,1.07-1.3.15-.2.29-.43.44-.63C141.35,113.11,136,114.23,125.26,116.51Z"/><path class="cls-2" d="M87.52,116v-1.56c-5.92,1.26-8.87,1.88-14.79,3V119C78.65,117.86,81.6,117.25,87.52,116Z"/><path class="cls-2" d="M64,122.78c.39-.49.59-.73,1-1.23l-1.35,1c-.14.12-.28.22-.43.33Z"/><path class="cls-2" d="M87.52,105.61v-1.46c-5.92,1.26-8.87,1.88-14.79,3v1.45C78.65,107.48,81.6,106.86,87.52,105.61Z"/><path class="cls-2" d="M87.52,126.38v-1.67c-5.92,1.26-8.87,1.88-14.79,3v1.67C78.65,128.25,81.6,127.63,87.52,126.38Z"/><path class="cls-2" d="M87.52,120.14v-1.59c-5.92,1.25-8.87,1.87-14.79,3v1.6C78.65,122,81.6,121.4,87.52,120.14Z"/><path class="cls-2" d="M87.52,116.49c-5.92,1.26-8.87,1.87-14.79,3v1.58c5.92-1.17,8.87-1.79,14.79-3Z"/><path class="cls-2" d="M87.5,128.46c0-.6,0-1.1,0-1.69-5.92,1.26-8.87,1.87-14.79,3v1.68C78.64,130.33,81.59,129.71,87.5,128.46Z"/><path class="cls-2" d="M72.73,115.42V117c5.92-1.16,8.87-1.78,14.79-3v-1.53C81.6,113.63,78.65,114.25,72.73,115.42Z"/><path class="cls-2" d="M104.78,79c16.81-3.68,33.62-7.25,50.54-10.35-1-.24-2.1-.46-3.16-.66-15.39,2.75-30.67,6.11-45.94,9.48Q105.45,78.24,104.78,79Z"/><path class="cls-2" d="M166.64,94.38v1.51c5.92-.88,8.88-1.28,14.79-1.94V92.43C175.52,93.09,172.56,93.49,166.64,94.38Z"/><path class="cls-2" d="M166.64,90.27v1.47c5.92-.89,8.88-1.29,14.79-1.95V88.32C175.52,89,172.56,89.38,166.64,90.27Z"/><path class="cls-2" d="M166.64,92.32v1.5c5.92-.89,8.88-1.29,14.79-1.95V90.38C175.52,91,172.56,91.44,166.64,92.32Z"/><path class="cls-2" d="M166.64,88.21v1.45c5.92-.88,8.88-1.28,14.79-1.94V86.27C175.52,86.93,172.56,87.32,166.64,88.21Z"/><path class="cls-2" d="M166.64,96.44V98c5.92-.89,8.88-1.28,14.79-2V94.49C175.52,95.15,172.56,95.55,166.64,96.44Z"/><path class="cls-2" d="M166.64,100.55v1.58c5.92-.89,8.88-1.29,14.79-1.95V98.6C175.52,99.26,172.56,99.66,166.64,100.55Z"/><path class="cls-2" d="M166.64,86.16v1.43c5.92-.89,8.88-1.29,14.79-2V84.21C175.52,84.87,172.56,85.27,166.64,86.16Z"/><path class="cls-2" d="M166.61,69.71a2.32,2.32,0,0,1-3,1.12c-.48-.15-1-.28-1.45-.42-10.51,1.67-21,3.68-31.42,5.89.54.09.68.64.62,1.13C147.92,74,164.61,70.86,181.43,69V67.76C175.5,68.42,172.54,68.82,166.61,69.71Z"/><path class="cls-2" d="M166.64,75.88V77.2c5.92-.89,8.88-1.28,14.79-2V73.93C175.52,74.59,172.56,75,166.64,75.88Z"/><path class="cls-2" d="M166.64,102.6v1.6c5.92-.89,8.88-1.28,14.79-1.94v-1.6C175.52,101.32,172.56,101.72,166.64,102.6Z"/><path class="cls-2" d="M166.64,73.82v1.3c5.92-.88,8.88-1.28,14.79-1.94V71.87C175.52,72.54,172.56,72.93,166.64,73.82Z"/><path class="cls-2" d="M131.35,78.22v1.29c10.94-2.21,21.84-4.24,32.84-6.09.68-.62,1.89-1.78,2.42-.37,5.93-.89,8.9-1.29,14.82-2V69.82C164.61,71.66,147.92,74.79,131.35,78.22Z"/><path class="cls-2" d="M166.64,84.1v1.41c5.92-.89,8.88-1.29,14.79-2V82.15C175.52,82.82,172.56,83.21,166.64,84.1Z"/><path class="cls-2" d="M166.64,82v1.39c5.92-.89,8.88-1.28,14.79-2V80.1C175.52,80.76,172.56,81.16,166.64,82Z"/><path class="cls-2" d="M166.64,80v1.37c5.92-.89,8.88-1.29,14.79-2V78C175.52,78.7,172.56,79.1,166.64,80Z"/><path class="cls-2" d="M166.64,77.93v1.35c5.92-.89,8.88-1.29,14.79-2V76C175.52,76.65,172.56,77,166.64,77.93Z"/><path class="cls-2" d="M166.64,98.49v1.56c5.92-.89,8.88-1.29,14.79-2V96.54C175.52,97.21,172.56,97.6,166.64,98.49Z"/><path class="cls-2" d="M80.65,146.51a22.88,22.88,0,0,0,2-2.26c-4.86,1-7.29,1.51-12.15,2.45a18.58,18.58,0,0,1-1.09,2.07C73.88,147.9,76.13,147.44,80.65,146.51Z"/><path class="cls-2" d="M50.1,139.1A3,3,0,0,0,52,137.67l-3.82.61C48.75,138.77,49.24,139.27,50.1,139.1Z"/><path class="cls-2" d="M165.3,125.42a14,14,0,0,1-.62,1.93c4.86-.75,7.28-1.1,12.14-1.7a19.35,19.35,0,0,0,1.34-2C173,124.27,170.45,124.63,165.3,125.42Z"/><path class="cls-2" d="M84.32,141.59a22.29,22.29,0,0,0,1-2c-5.37,1.13-8,1.69-13.42,2.74-.15.64-.32,1.27-.52,1.91C76.55,143.21,79.14,142.68,84.32,141.59Z"/><path class="cls-2" d="M158.43,134.75l-.17.11a38.08,38.08,0,0,0,4.31-.79Z"/><path class="cls-2" d="M87.39,130.91c-5.88,1.25-8.81,1.86-14.69,3,0,.52,0,1.1,0,1.73,5.83-1.15,8.74-1.75,14.56-3C87.29,132.1,87.34,131.51,87.39,130.91Z"/><path class="cls-2" d="M85.44,139.28c.26-.63.5-1.27.73-1.94-5.55,1.17-8.32,1.74-13.86,2.83-.09.62-.21,1.24-.35,1.86C77.35,141,80.05,140.41,85.44,139.28Z"/><path class="cls-2" d="M86.26,137c.19-.61.37-1.23.51-1.88-5.69,1.21-8.54,1.8-14.23,2.92,0,.6-.1,1.2-.19,1.81C77.92,138.78,80.7,138.2,86.26,137Z"/><path class="cls-2" d="M166.64,106.72v1.64c5.92-.89,8.88-1.29,14.79-2v-1.64C175.52,105.43,172.56,105.83,166.64,106.72Z"/><path class="cls-2" d="M165.86,123.28c-.14.62-.31,1.25-.49,1.89,5.18-.8,7.77-1.16,12.95-1.78.34-.62.67-1.25,1-1.93C173.92,122.09,171.23,122.47,165.86,123.28Z"/><path class="cls-2" d="M166.64,112.88v1.71c5.89-.89,8.83-1.28,14.71-1.94,0-.55.05-1.13.06-1.71C175.5,111.6,172.55,112,166.64,112.88Z"/><path class="cls-2" d="M166.64,104.66v1.62c5.92-.89,8.88-1.29,14.79-2v-1.62C175.52,103.37,172.56,103.77,166.64,104.66Z"/><path class="cls-2" d="M166.64,108.77v1.66c5.92-.88,8.88-1.28,14.79-1.94v-1.67C175.52,107.49,172.56,107.88,166.64,108.77Z"/><path class="cls-2" d="M166.64,114.94c0,.65,0,1.08,0,1.73,5.81-.88,8.71-1.27,14.52-1.92.07-.57.13-1.15.18-1.75C175.45,113.66,172.52,114.06,166.64,114.94Z"/><path class="cls-2" d="M166.51,119.07c-.06.59-.12,1.19-.21,1.8,5.57-.84,8.36-1.22,13.93-1.86.18-.59.36-1.19.5-1.83C175,117.83,172.19,118.22,166.51,119.07Z"/><path class="cls-2" d="M166.62,117c0,.57,0,1.15-.08,1.76,5.7-.86,8.55-1.25,14.25-1.89.12-.58.24-1.17.32-1.79C175.32,115.74,172.42,116.13,166.62,117Z"/><path class="cls-2" d="M66,153.72l-.18,0Z"/><path class="cls-2" d="M166.64,26.54v.81c5.92-.89,8.88-1.28,14.79-2v-.81C175.52,25.25,172.56,25.65,166.64,26.54Z"/><path class="cls-2" d="M166.64,24.48v.8c5.92-.89,8.88-1.29,14.79-2v-.8C175.52,23.19,172.56,23.59,166.64,24.48Z"/><path class="cls-2" d="M166.64,18.31v.74c5.92-.89,8.88-1.29,14.79-1.95v-.74C175.52,17,172.56,17.42,166.64,18.31Z"/><path class="cls-2" d="M166.64,20.37v.75c5.92-.89,8.88-1.28,14.79-1.95v-.75C175.52,19.08,172.56,19.48,166.64,20.37Z"/><path class="cls-2" d="M166.64,34.76v.9c5.92-.89,8.88-1.29,14.79-1.95v-.9C175.52,33.47,172.56,33.87,166.64,34.76Z"/><path class="cls-2" d="M166.64,32.7v.88c5.92-.89,8.88-1.28,14.79-1.94v-.88C175.52,31.42,172.56,31.82,166.64,32.7Z"/><path class="cls-2" d="M166.64,30.65v.86c5.92-.89,8.88-1.29,14.79-2V28.7C175.52,29.36,172.56,29.76,166.64,30.65Z"/><path class="cls-2" d="M166.64,28.59v.84c5.92-.89,8.88-1.29,14.79-1.95v-.84C175.52,27.31,172.56,27.7,166.64,28.59Z"/><path class="cls-2" d="M166.64,22.42v.78c5.92-.89,8.88-1.29,14.79-1.95v-.77C175.52,21.14,172.56,21.54,166.64,22.42Z"/><path class="cls-2" d="M171,3.87l1.53-.21c-.37-.13-.75-.26-1.1-.4C171.32,3.47,171.17,3.67,171,3.87Z"/><path class="cls-2" d="M126.5,12c3.23-.68,4.85-1,8.09-1.68a7.07,7.07,0,0,0-1.89-.2l-3.53.74A25.47,25.47,0,0,0,126.5,12Z"/><path class="cls-2" d="M163.45,16.75a5.36,5.36,0,0,0,2.19.07.86.86,0,0,1,.71.19c6-.91,9.06-1.32,15.1-2a3.36,3.36,0,0,1,.12-.73C174.32,15.1,170.7,15.61,163.45,16.75Z"/><path class="cls-2" d="M169.85,5.51l-.49.67c3.11-.44,4.67-.65,7.78-1l-1.44-.42C173.36,5,172.19,5.17,169.85,5.51Z"/><path class="cls-2" d="M162.64,14.82q-.39.45-.75.81c8.11-1.3,12.16-1.88,20.27-2.77.12-.23.28-.48.43-.74C174.61,13,170.62,13.55,162.64,14.82Z"/><path class="cls-2" d="M168.16,7.81l-.53.7c6.77-1,10.15-1.44,16.91-2.13a24.1,24.1,0,0,1-3.08-.3C176.14,6.68,173.48,7,168.16,7.81Z"/><path class="cls-2" d="M164.58,12.46l-.61.76c7.85-1.22,11.77-1.76,19.61-2.59l.52-.72C176.29,10.72,172.39,11.25,164.58,12.46Z"/><path class="cls-2" d="M166.64,53.26v1.09c5.92-.88,8.88-1.28,14.79-1.94v-1.1C175.52,52,172.56,52.37,166.64,53.26Z"/><path class="cls-2" d="M166.64,57.37v1.14c5.92-.89,8.88-1.29,14.79-1.95V55.43C175.52,56.09,172.56,56.49,166.64,57.37Z"/><path class="cls-2" d="M166.64,55.32v1.11c5.92-.89,8.88-1.29,14.79-2V53.37C175.52,54,172.56,54.43,166.64,55.32Z"/><path class="cls-2" d="M166.64,59.43v1.16c5.92-.89,8.88-1.29,14.79-2V57.48C175.52,58.14,172.56,58.54,166.64,59.43Z"/><path class="cls-2" d="M166.64,36.82v.92c5.92-.89,8.88-1.29,14.79-2v-.92C175.52,35.53,172.56,35.93,166.64,36.82Z"/><path class="cls-2" d="M166.64,65.6v1.22c5.92-.89,8.88-1.29,14.79-1.95V63.65C175.52,64.31,172.56,64.71,166.64,65.6Z"/><path class="cls-2" d="M166.64,61.49v1.17c5.92-.89,8.88-1.28,14.79-1.95V59.54C175.52,60.2,172.56,60.6,166.64,61.49Z"/><path class="cls-2" d="M166.64,67.65v1.24c5.92-.89,8.88-1.28,14.79-1.94V65.71C175.52,66.37,172.56,66.77,166.64,67.65Z"/><path class="cls-2" d="M166.64,63.54v1.2c5.92-.89,8.88-1.29,14.79-1.95v-1.2C175.52,62.26,172.56,62.65,166.64,63.54Z"/><path class="cls-2" d="M166.64,43v1c5.92-.89,8.88-1.29,14.79-1.95V41C175.52,41.7,172.56,42.09,166.64,43Z"/><path class="cls-2" d="M166.64,40.93v1c5.92-.89,8.88-1.28,14.79-2V39C175.52,39.64,172.56,40,166.64,40.93Z"/><path class="cls-2" d="M166.64,38.87v1c5.92-.89,8.88-1.29,14.79-2v-.95C175.52,37.59,172.56,38,166.64,38.87Z"/><path class="cls-2" d="M166.64,45v1c5.92-.89,8.88-1.29,14.79-1.95v-1C175.52,43.75,172.56,44.15,166.64,45Z"/><path class="cls-2" d="M166.64,49.15V50.2c5.92-.89,8.88-1.29,14.79-2v-1C175.52,47.86,172.56,48.26,166.64,49.15Z"/><path class="cls-2" d="M166.64,51.21v1.07c5.92-.89,8.88-1.29,14.79-2V49.26C175.52,49.92,172.56,50.32,166.64,51.21Z"/><path class="cls-2" d="M166.64,47.09v1c5.92-.89,8.88-1.28,14.79-1.94v-1C175.52,45.81,172.56,46.21,166.64,47.09Z"/><path class="cls-2" d="M37.44,85.43c10.73-1.51,21.31-3.25,32-5.21L70,79c-10.85,2-21.63,3.79-32.56,5.33A11,11,0,0,1,37.44,85.43Z"/><path class="cls-2" d="M60.76,27.82c5.06-.9,7.59-1.39,12.65-2.39L72,25.11c-4.2.82-6.3,1.22-10.49,2Z"/><path class="cls-2" d="M118.81,17.16c-.36.29-.71.57-1,.86,8.7-1.89,13-2.83,21.74-4.56l-.6-.51C130.86,14.56,126.84,15.42,118.81,17.16Z"/><path class="cls-2" d="M45.84,32.35l-.65-.53C37.07,33,33,33.52,24.89,34.25L23.84,35C32.64,34.2,37,33.65,45.84,32.35Z"/><path class="cls-2" d="M29.41,48.2l-2.58.26a11,11,0,0,1,1.09.67l2-.21C29.77,48.67,29.59,48.44,29.41,48.2Z"/><path class="cls-2" d="M129.74,27.16c.15.22.29.44.42.67,6.39-1.34,9.59-2,16-3.2v-.75C139.58,25.12,136.3,25.79,129.74,27.16Z"/><path class="cls-2" d="M112.59,22.63l-.9.86q15.89-3.45,31.8-6.66l-.65-.54C132.73,18.25,122.65,20.4,112.59,22.63Z"/><path class="cls-2" d="M128.15,25.44c.22.19.43.39.64.6,6.94-1.46,10.41-2.17,17.35-3.49v-.73C138.94,23.19,135.35,23.93,128.15,25.44Z"/><path class="cls-2" d="M125.5,24c.41.13.81.28,1.21.45,7.77-1.64,11.65-2.45,19.41-3.92a3.82,3.82,0,0,0-.1-.69C137.81,21.35,133.71,22.2,125.5,24Z"/><path class="cls-2" d="M115.52,19.93l-1,.86c10.77-2.36,16.16-3.53,26.92-5.65l-.62-.52C130.73,16.62,125.66,17.72,115.52,19.93Z"/><path class="cls-2" d="M52.23,41.74V41c-7.16,1.16-10.74,1.68-17.9,2.53l.61.66C41.85,43.37,45.31,42.86,52.23,41.74Z"/><path class="cls-2" d="M24.49,45.3a16.75,16.75,0,0,0-6.83.53C20.39,45.65,21.76,45.54,24.49,45.3Z"/><path class="cls-2" d="M13.1,49.48A1.16,1.16,0,0,1,13,50c.28-.19.55-.36.83-.53Z"/><path class="cls-2" d="M50.17,35.84l-.7-.56C39.32,36.93,29,38.18,18.68,38.86l-.9.73C28.68,38.66,39.34,37.41,50.17,35.84Z"/><path class="cls-2" d="M48,34.1l-.67-.54c-10.29,1.56-15.44,2.21-25.73,3l-.94.72C31.6,36.47,37.07,35.77,48,34.1Z"/><path class="cls-2" d="M15.89,41.79A25,25,0,0,1,19,40.9L16,41.09l-.84.74Z"/><path class="cls-2" d="M52.23,39.66V39C44,40.29,39.85,40.89,31.59,41.8c.4.18.81.37,1.21.57C40.57,41.49,44.46,40.93,52.23,39.66Z"/><path class="cls-2" d="M43.67,30.59,43,30.07c-5.75.81-8.62,1.17-14.37,1.76-.41.23-.82.48-1.23.73C33.93,31.92,37.18,31.52,43.67,30.59Z"/><path class="cls-2" d="M130.17,49.69a6.85,6.85,0,0,1-.67,1.13c6.66-1.4,10-2.08,16.64-3.34v-1C139.75,47.7,136.56,48.35,130.17,49.69Z"/><path class="cls-2" d="M131.06,47.45a10.33,10.33,0,0,1-.34,1c6.17-1.28,9.25-1.91,15.42-3.08v-1C140.11,45.58,137.09,46.19,131.06,47.45Z"/><path class="cls-2" d="M128.53,52.09a1.83,1.83,0,0,0-.13.16,34.16,34.16,0,0,1,4,0c5.48-1.13,8.22-1.69,13.7-2.72v-1C139.1,49.88,135.57,50.61,128.53,52.09Z"/><path class="cls-2" d="M136.16,52.57c1,.08,2.07.25,3.08.41,2.76-.55,4.14-.82,6.9-1.35v-1C142.15,51.36,140.15,51.76,136.16,52.57Z"/><path class="cls-2" d="M109,64.53a12.71,12.71,0,0,1-.55,1.21L119,63.44a48.62,48.62,0,0,1,11.11-2.37c3.81-.79,5.71-1.18,9.51-1.94-1.11-.17-2.22-.31-3.31-.42C125.39,60.92,119.93,62.13,109,64.53Z"/><path class="cls-2" d="M131.35,45.33a7.75,7.75,0,0,1-.07,1c5.94-1.24,8.92-1.84,14.86-3v-.94C140.23,43.5,137.27,44.1,131.35,45.33Z"/><path class="cls-2" d="M142,53.46c.86.14,1.79.34,2.6.54l1.52-.29V52.66C144.49,53,143.67,53.13,142,53.46Z"/><path class="cls-2" d="M131.35,39.16V40c5.92-1.23,8.88-1.83,14.79-2.95v-.88C140.23,37.33,137.27,37.93,131.35,39.16Z"/><path class="cls-2" d="M52.32,137.27l1.59-2c-3.21.54-4.82.79-8,1.27a23.93,23.93,0,0,1,2,1.41Z"/><path class="cls-2" d="M131.22,31c0,.25.07.51.09.77,5.93-1.23,8.9-1.83,14.83-2.95V28C140.17,29.12,137.19,29.72,131.22,31Z"/><path class="cls-2" d="M131.35,43.27v.93c5.92-1.23,8.88-1.83,14.79-3v-.92C140.23,41.45,137.27,42,131.35,43.27Z"/><path class="cls-2" d="M131.35,35.05v.84c5.92-1.23,8.88-1.83,14.79-3V32.1C140.23,33.22,137.27,33.82,131.35,35.05Z"/><path class="cls-2" d="M131.35,41.22v.9c5.92-1.23,8.88-1.83,14.79-2.95v-.9C140.23,39.39,137.27,40,131.35,41.22Z"/><path class="cls-2" d="M130.72,29c.09.24.17.48.24.73,6.07-1.26,9.11-1.88,15.18-3v-.78C140,27.1,136.89,27.73,130.72,29Z"/><path class="cls-2" d="M131.35,37.11V38c5.92-1.23,8.88-1.83,14.79-2.95v-.86C140.23,35.28,137.27,35.88,131.35,37.11Z"/><path class="cls-2" d="M131.35,33v.82c5.92-1.23,8.88-1.83,14.79-3v-.81C140.23,31.17,137.27,31.77,131.35,33Z"/><path class="cls-2" d="M52.23,102v-1.34c-6.08,1-9.13,1.44-15.21,2.2a8.35,8.35,0,0,1-.59,1.42C42.75,103.47,45.91,103,52.23,102Z"/><path class="cls-2" d="M52.23,108.21V106.8c-3.35.54-5,.8-8.37,1.28,1.31.26,2.58.54,3.83.84Z"/><path class="cls-2" d="M52.23,99.9V98.57c-5.93,1-8.9,1.41-14.83,2.16a9,9,0,0,1-.19,1.35C43.22,101.32,46.22,100.87,52.23,99.9Z"/><path class="cls-2" d="M29.64,113.34a48.91,48.91,0,0,0-12.1.59c-.48.18-1,.37-1.5.55C21.48,114.15,24.2,113.91,29.64,113.34Z"/><path class="cls-2" d="M52.23,108.85l-2.92.47c1.13.3,2.1.59,2.92.86Z"/><path class="cls-2" d="M52.23,93.67V92.41c-5.92,1-8.87,1.4-14.79,2.15v1.26C43.36,95.07,46.31,94.63,52.23,93.67Z"/><path class="cls-2" d="M52.23,97.82v-1.3c-5.92,1-8.87,1.4-14.79,2.15V100C43.36,99.22,46.31,98.78,52.23,97.82Z"/><path class="cls-2" d="M52.23,95.74V94.46c-5.92,1-8.87,1.4-14.79,2.15v1.28C43.36,97.14,46.31,96.7,52.23,95.74Z"/><path class="cls-2" d="M87.52,110.32c-5.92,1.26-8.87,1.88-14.79,3v1.52c5.92-1.17,8.87-1.79,14.79-3Z"/><path class="cls-2" d="M59.68,128.15c-9.74,1.72-14.62,2.49-24.36,3.68a36.07,36.07,0,0,1,3.6,1.18c7.69-1,11.54-1.61,19.23-2.95Z"/><path class="cls-2" d="M38.93,114.32c-2-.33-3.91-.58-5.87-.73-7,.8-10.44,1.12-17.4,1.54a10.57,10.57,0,0,1-.48,1.48C24.68,116.06,29.43,115.56,38.93,114.32Z"/><path class="cls-2" d="M56.2,132.47l1.56-1.93c-7.22,1.25-10.83,1.82-18,2.78,1,.4,1.93.82,2.82,1.28C48,133.83,50.74,133.4,56.2,132.47Z"/><path class="cls-2" d="M18.22,131a35.7,35.7,0,0,1,8.17-.67c12-1.15,23.83-2.91,35.64-5.07.6-.74.9-1.12,1.49-1.87l-1.67.31a4.06,4.06,0,0,1-1.5.27,379.21,379.21,0,0,1-48.55,5.8q-1,.84-1.77,1.68C13.31,131.27,15,131.18,18.22,131Z"/><path class="cls-2" d="M13.5,120.85c1.43-.66,2.92-1.23,4.39-1.75l-4.24.25c-.35.52-.71,1-1.1,1.55Z"/><path class="cls-2" d="M52.23,91.59c0-.47,0-.77,0-1.24-5.92,1-8.89,1.4-14.81,2.15v1.24C43.36,93,46.31,92.55,52.23,91.59Z"/><path class="cls-2" d="M31.67,52.89l-.24-.79-.7.07c.16.25.32.51.47.77Z"/><path class="cls-2" d="M53.08,122.61c-1.64-.26-3.46-.55-5.23-.73-9.57,1.51-19.32,2.67-29,3.32A31.88,31.88,0,0,0,15.51,127,367.41,367.41,0,0,0,53.08,122.61Z"/><path class="cls-2" d="M52.23,58.36v-.9c-5.92,1-8.87,1.4-14.79,2.15v.9C43.36,59.76,46.31,59.32,52.23,58.36Z"/><path class="cls-2" d="M52.23,60.43v-.92c-5.92,1-8.87,1.4-14.79,2.15v.93C43.36,61.83,46.31,61.4,52.23,60.43Z"/><path class="cls-2" d="M52.23,62.51v-.94c-5.92,1-8.87,1.4-14.79,2.15v.94C43.36,63.91,46.31,63.47,52.23,62.51Z"/><path class="cls-2" d="M52.23,64.59v-1c-5.92,1-8.87,1.4-14.79,2.15v1C43.36,66,46.31,65.55,52.23,64.59Z"/><path class="cls-2" d="M52.23,56.28V55.4c-5.92,1-8.87,1.4-14.79,2.15v.88C43.36,57.68,46.31,57.24,52.23,56.28Z"/><path class="cls-2" d="M32.21,54.9c-.06-.27-.13-.54-.2-.81l-.23,0c.12.27.24.53.35.8Z"/><path class="cls-2" d="M52.23,54.2v-.86c-5.92,1-8.87,1.4-14.79,2.15v.86C43.36,55.6,46.31,55.16,52.23,54.2Z"/><path class="cls-2" d="M68.37,82.49,69,81.2c-10.41,2-21,3.82-31.51,5.13v1.18C47.78,86.22,58.14,84.49,68.37,82.49Z"/><path class="cls-2" d="M53,89.39c4.06-.81,6.28-1,10.36-1.85a5.51,5.51,0,0,0,3.34-1.79c-9.67,1.87-19.46,3.47-29.23,4.7v1.21C43.65,90.87,46.76,90.41,53,89.39Z"/><path class="cls-2" d="M67.32,84.77c.25-.48.38-.82.61-1.31-10.08,2-20.3,3.66-30.49,4.93v1.2C47.43,88.34,57.44,86.69,67.32,84.77Z"/><path class="cls-2" d="M136.14,60.79c1.61,0,3.15,0,4.68.18l4.12-.8c-.92-.21-1.83-.41-2.73-.58C139.78,60.06,138.57,60.3,136.14,60.79Z"/><path class="cls-2" d="M52.23,66.67v-1c-5.92,1-8.87,1.4-14.79,2.15v1C43.36,68.06,46.31,67.63,52.23,66.67Z"/><path class="cls-2" d="M52.23,72.9V71.85c-8.47,1.37-12.7,2-21.17,2.9-.3.38-.59.76-.87,1.15C39,75,43.41,74.33,52.23,72.9Z"/><path class="cls-2" d="M52.79,77a.89.89,0,0,1-.56-1c-9.65,1.57-14.48,2.25-24.13,3.22-.21.37-.41.76-.61,1.15C37.61,79.33,42.67,78.61,52.79,77Z"/><path class="cls-2" d="M70.44,77.94a4.57,4.57,0,0,1,.68-1.27C59.36,79,47.53,81,35.63,82.45c.51.4.91.73,1.21,1C48.12,81.85,59.24,80,70.44,77.94Z"/><path class="cls-2" d="M110.56,67.12a12.78,12.78,0,0,0,1.15-3.32c.54-.29,1.19-.54,1.68-.83,9.46-3.46,21.85-3.91,32.48-1.42a75.39,75.39,0,0,1,7.83,1.58c-13-5.79-29.65-6.21-42.31-1.72-.49.29-1.14.54-1.68.83-.38,2.37-2.19,5.42-3.7,7.61A45.64,45.64,0,0,1,110.56,67.12Z"/><path class="cls-2" d="M31.66,53.83q.36.73.66,1.53a25.19,25.19,0,0,0-.82-3,8.18,8.18,0,0,0-1.83-1.59A14,14,0,0,1,31.66,53.83Z"/><path class="cls-2" d="M28.47,35c5.1-3.11,11.13-6.66,16.46-3.29,2.92,2.38,4.38,3.55,7.3,5.88,0-.66-.12-1.4.53-1.83a3.48,3.48,0,0,1,3.45-.35,67.33,67.33,0,0,0,9.16-8.8,5.43,5.43,0,0,1,4-1c7.41,1.9,14.27,3.3,21.72,2.55l.44-.58q.54-.84,1.17-1.71C84.26,28,75.92,26.1,67.41,24a5.42,5.42,0,0,0-4,1,60.36,60.36,0,0,1-7.08,7A36.79,36.79,0,0,1,51,36.08a.85.85,0,0,1-.69-.17c-2.93-2.35-4.4-3.53-7.33-5.93C35,24.5,20.74,37.1,14.77,42.2a26.68,26.68,0,0,1,6.14-1.68C23.23,38.65,25.76,36.79,28.47,35Z"/><path class="cls-2" d="M107,33.89a1.15,1.15,0,0,1,0,.75A15.5,15.5,0,0,1,114.46,31c2.9-1.1,6.58-1.76,9.18-.26-3-3.76-9.25-2.5-13-.47a15.38,15.38,0,0,0-3.25,2.24c-.53.4-.58.69-.52,1Z"/><path class="cls-2" d="M124,33.19a12.33,12.33,0,0,1,2.27,3.53c-.19-.8-.43-1.59-.69-2.37A6.78,6.78,0,0,0,124,33.19Z"/><path class="cls-2" d="M162.29,16.31a4.19,4.19,0,0,0,2,.56c3.34-3.82,6.05-7.59,9.15-11.88a45.7,45.7,0,0,0,12.06,3.13c.41-.59.86-1.18,1.35-1.79-5.06.44-10.68-1.3-15.41-3.07-3.29,4.5-6.25,8.83-9.9,12.69C161.79,16.09,162.05,16.18,162.29,16.31Z"/><path class="cls-2" d="M28.89,80.41a11.41,11.41,0,0,1,1.54,0l.46-.82c1.79-2.49,4.12-6.89,7.51-6.51a1.2,1.2,0,0,0,1-1.11V52.72a10.23,10.23,0,0,0-3.86-8.12,3.54,3.54,0,0,0-.64-.39A10.07,10.07,0,0,1,37.44,51V70.19a1.2,1.2,0,0,1-1.35,1.11c-3.2-.19-5.47,4.09-7.2,6.47-.56,1-1.11,2-1.65,3A6.37,6.37,0,0,1,28.89,80.41Z"/><path class="cls-2" d="M129.9,50.21a13.37,13.37,0,0,1-1.5,2,28.39,28.39,0,0,1,3.2,0,9.56,9.56,0,0,0,1.75-5.37V34.18a9,9,0,0,0-3.92-7.73,1.16,1.16,0,0,0-.7-.46,8.94,8.94,0,0,1,2.62,6.6v12.7A9.63,9.63,0,0,1,129.9,50.21Z"/><path class="cls-2" d="M122.39,17.46c4.75-3.44,10.8-7.65,16.13-4.83l-1.73-1.46c-8.31-5-22.56,9.76-28.11,15.41A27.91,27.91,0,0,1,114.83,24C117.14,21.77,119.67,19.58,122.39,17.46Z"/><path class="cls-2" d="M152.31,108l-.23,0a5.9,5.9,0,0,1-3.18-.31l-.76-.31a.91.91,0,0,0,.49,1l2.27,1a6.27,6.27,0,0,0,2.14.4c.55-.84,1.1-1.7,1.65-2.59A11.13,11.13,0,0,1,152.31,108Z"/><path class="cls-2" d="M107,80.35c6.23-7.1,15.74-11.12,25.29-12.24,11-1.11,22.69,1.29,33.16,4.36a.84.84,0,0,1,1,.22c.84,0,2.19-.5,2.21-1.51V19.37c0-1.15-1.22-.78-2-.78V69.48c-.11,1.31-2,1.83-3,1.35-10.52-3-22.26-5.44-33.33-4.31-12,1.38-24,7.57-29.52,18.36A24.39,24.39,0,0,1,107,80.35Z"/><path class="cls-2" d="M131.4,113.13a9.23,9.23,0,0,0,1.95-5.53V78.67c0-1.07-1.27-.8-2-.89V106c0,4.09-3.19,7.92-7.07,9.45a29.77,29.77,0,0,0-2.74,1.26,21.55,21.55,0,0,1,5.58-.1A11.84,11.84,0,0,0,131.4,113.13Z"/><path class="cls-2" d="M164.47,132.87c3.2-4.09,4-9.81,4.17-14.74V75c-.11-1.23-1.38-1-2-.23v41.7c-.1,6.81-1.88,14.74-8.38,18.43a37.92,37.92,0,0,0,5.4-1.06C164,133.49,164.22,133.19,164.47,132.87Z"/><path class="cls-2" d="M73.1,146.72a26.9,26.9,0,0,0,1.49-7.64c.36-20.38,0-40,.14-60.34-.1-1.31-1.74-.87-2,.16-.11,19.73.22,38.77-.14,58.58-.28,6.07-2.67,12.85-8,16.49a34.79,34.79,0,0,0,5-1.12A18.88,18.88,0,0,0,73.1,146.72Z"/><path class="cls-2" d="M37.76,107.14a9,9,0,0,0,1.68-5.24V86.12a.88.88,0,0,0-.27-.65c-.29-.28-1.07-.92-1.81-1.47.23,6.37,0,9.78.08,16.16a9.64,9.64,0,0,1-2.87,6.71C35.55,106.91,36.72,107,37.76,107.14Z"/><path class="cls-2" d="M13.06,132.29c12.35-11.52,32.8-10.14,48.06-6.91a3.69,3.69,0,0,0,.66.14c1.27-1.58,1.9-2.38,3.17-4l-1.35,1a4.61,4.61,0,0,1-4.48,1.13c-17-3.71-41.86-5.09-52.25,11.92A21,21,0,0,1,13.06,132.29Z"/><path class="cls-2" d="M13.06,49.23A1.05,1.05,0,0,1,13,50a13.93,13.93,0,0,1,7.54-2.51c2.88-.66,6.54-.87,8.86.74-3.49-4.73-11.74-3.34-15.92-.36-.63.43-.61.74-.57.94Z"/><path class="cls-2" d="M74.73,69.94V40.2c0-1.12-1.25-.76-2-.74V68.33a5.83,5.83,0,0,1-1.69,4,7.2,7.2,0,0,1-4,2.22c-5.12,1-7.68,1.43-12.8,2.28,0,.8-.17,2,1,1.84,5.52-.93,8.28-1.44,13.8-2.5C72,75.68,74.78,72.89,74.73,69.94Z"/><path class="cls-2" d="M16.67,119.55a10.5,10.5,0,0,0,1.11-3.07c.53-.27,1.23-.46,1.76-.69,6.2-1.27,13.35-.8,20.29.08a80.23,80.23,0,0,1,10.38,1c-10.8-3-22.28-4.67-32.67-2.9-.53.22-1.23.41-1.76.67-.38,2.38-2.13,4.93-3.71,7A40.49,40.49,0,0,1,16.67,119.55Z"/></g></g></svg>
