<?xml version="1.0" encoding="UTF-8"?><svg xmlns="http://www.w3.org/2000/svg" viewBox="0 0 285.42 345.79"><g id="a"/><g id="b"><g id="c"><path d="M100.15,2.82c-3.8,4.4-5,12.1-4.2,25.8,.6,10.3,.5,11.9-.9,13.1-1.5,1.2-1.9,1.1-3.2-.7-.8-1.2-2.1-2.2-2.8-2.2-.8,0-1.6-.9-1.9-2-.3-1.2-1.4-2-2.6-2-1.4,0-2.5-.9-3.1-2.5-.6-1.5-1.7-2.5-2.9-2.5-1.1,0-2.3-.5-2.7-1.1-.3-.6-1.6-.9-2.9-.7-1.4,.3-2.6-.2-3.4-1.4-1.1-1.8-1.4-1.8-3.5-.4-2.1,1.3-2.5,1.3-3.9-.2-1.5-1.4-1.8-1.4-3.5,.1-1,.9-2.8,1.7-4.1,1.7-1.2,0-2.4,.7-2.7,1.5-.4,.8-1.7,1.5-3,1.5s-2.4,.5-2.4,1c0,.6-1.1,1.5-2.5,2s-3,2.1-3.5,3.5-1.4,2.5-2,2.5c-.5,0-1,1.1-1,2.4s-.7,2.7-1.6,3c-1.1,.4-1.4,1.3-1.1,2.7,.3,1.2,0,3-.6,4-.9,1.5-.9,2.3,0,3.9,.8,1.2,.9,2.1,.3,2.5-1.3,.8-1.3,4.5,0,4.5,.7,0,.8,1.3,.4,3.5-.5,2.7-.3,3.6,1,4.1,1.1,.4,1.6,1.6,1.4,3.3-.2,1.9,.3,2.9,1.9,3.6,1.2,.5,2.3,1.9,2.5,3,.2,1.2,1.2,2.1,2.5,2.3s2.4,1.3,2.8,2.9c.5,2,1.1,2.4,3.1,2,2.1-.4,2.4-.2,1.8,1.7-1.8,5.2,0,8,8.4,12.8,2.9,1.7,7.5,5.1,10,7.5,4.4,4.3,4.8,4.5,8.9,3.9,3.1-.4,4.3-.2,4.3,.7,0,.7,.9,1.8,2,2.5s2,1.8,2,2.5c0,.8,1.1,2.4,2.5,3.7s2.5,2.9,2.5,3.6,1.3,2.2,2.9,3.4c1.7,1.1,3.3,2.9,3.6,4s1.8,2.5,3.3,3.3c1.5,.7,2.7,2,2.6,2.8s-2.2,4.2-4.7,7.5c-8.3,10.8-13.6,21.3-14,27.4-.3,3.8-1.6,7.8-4.1,12.7-2,4-4.7,10.7-6.2,15-1.4,4.3-3.2,9.4-4.1,11.3s-1.9,4.8-2.3,6.5c-.5,2.7-5.7,7.5-8.1,7.5-.4,0-1.5-2.4-2.5-5.3-2.8-8.8-6-14-11.3-19-6.2-5.8-12.6-8.7-19.2-8.7-5.6,0-9.4,1.7-15.6,6.8-3.9,3.3-9.3,12.1-9.3,15.1,0,.7-.5,2.2-1.2,3.4-2.4,4.3-3.1,39.8-1,51.7,3,16.9,10.2,32.5,16.1,35,1.5,.6,4.5,1,6.7,.9,2.1,0,6.6,.4,9.9,.9,14.1,2.4,41.5-.8,58.9-6.8,3.3-1.1,6.8-2,7.9-2,1.8,0,1.9,.4,1.1,5.2-2.5,14.8,.1,24.6,8.4,31.9,8.7,7.6,25,10.9,37.9,7.6,14.6-3.8,32-15.5,43.4-29.2l6.1-7.4,2.8,2.1c2.1,1.5,3.8,1.9,6.3,1.5l3.5-.5,.7,4.6c.8,5.8,2.6,8.7,6.7,10.8,12.1,6.3,25.3-9.1,32.3-37.9,2.1-8.5,3-10.5,6.4-14.2,16.4-17.8,20.3-40.1,10.6-61.2-3.5-7.7-10.5-15.9-16.4-19.5-2-1.2-3.7-2.2-3.9-2.4-1.1-.7-5.2-20.8-5.2-25.3v-5.3l3.4,.6c2.4,.5,3.7,.2,4.6-.9,.9-1,1.6-1.2,2.5-.5,.6,.5,2.5,1,4.1,1,6.9,0,8,.2,10.1,1.6,1.3,.8,2.3,2.3,2.3,3.5,0,1.1,.8,2.3,1.8,2.6,2.7,1,3.3,2.5,2.6,6.4-.4,3.1-.2,4,1.8,5.3,3,2.1,7.1,2,9.1-.2,1.9-2.1,2.3-6.7,.6-7.8-.7-.4-2.7-4-4.6-8-2-4.4-4-7.4-4.9-7.4-1.5,0-3.7-1.2-10.6-5.8-2.1-1.3-4.4-2.2-5.3-1.8-.8,.3-2.6,0-4-.6-1.8-.8-2.8-.8-3.9,.1-.8,.7-2.5,.9-4.1,.5-2-.5-3.1-.1-4.6,1.5-1.1,1.1-2.5,2.1-3.1,2.1-1,0-20.8-19.5-20.8-20.5,0-.2,1.2-1.7,2.8-3.3,1.5-1.6,4.7-5.1,7.2-7.9,2.5-2.7,5-5.2,5.5-5.5,.7-.5,1.1,1.9,1,7,0,7.3,.2,8,3.7,13.4,3.7,5.5,3.9,5.6,9,6,4,.4,6.4,0,9.8-1.6,8.4-4,8.6-4.2,8-8.5-.1-.8,.4-2.4,1-3.7,.8-1.4,1-3.3,.5-5.1-.5-1.5-.7-3.7-.6-4.8,.1-1.4-1.4-3.3-4.9-5.9-4.6-3.5-4.9-4-3.3-5.2,1-.7,2.3-1.4,2.9-1.4s1.9-.9,2.9-2,2.9-2,4.2-2c2.9,0,3.9-2.3,2.7-5.9-.8-2.2-1.6-2.6-4.9-2.7-2.2-.1-4.7-.4-5.6-.8s-2.1-.1-2.9,.9c-.7,.8-1.7,1.5-2.2,1.5s-3,2-5.5,4.5c-2.4,2.5-5.7,4.8-7.1,5.1-1.5,.3-5.3,1.2-8.5,2s-7,1.4-8.3,1.4c-1.6,0-2.8,.8-3.5,2.4-.6,1.3-2,2.7-3,2.9-1.1,.3-1.9,1.2-1.9,2s-1.1,2.2-2.5,3.1c-1.6,1.1-2.5,2.6-2.5,4.4,0,4.8-1.1,5.5-5.9,4.1-3.2-1-3.9-1.5-2.7-2.1,.9-.5,1.6-2,1.6-3.4,0-1.3,.7-2.7,1.5-3,.8-.4,1.5-1.8,1.5-3.4,0-1.5,.7-3.3,1.5-4s1.5-2.7,1.5-4.4c0-1.8,.7-4.1,1.5-5.2,.8-1,1.5-3.6,1.5-5.6s.5-4,1-4.3c.6-.4,.7-2.3,.4-4.5-.3-2.1-.2-4.6,.4-5.5,.6-1.2,.5-2.6-.4-4.4-2-3.7-1.7-5,1-5.7,1.4-.3,2.7-1.2,3-2s1.1-1.4,1.8-1.3c2.6,.3,3.6-.2,4.1-2,.2-1.1,1.5-2.1,2.8-2.3,1.3-.1,2.5-1,2.5-1.8,.1-.8,.2-2.1,.3-2.9,0-.8,.4-1.1,.8-.8,1.3,1.3,3.3-1.5,2.7-3.9-.5-1.8-.2-2.4,1.1-2.4,1.2,0,1.6-.7,1.3-2.9-.1-1.6,.4-3.6,1.2-4.6,1.1-1.3,1.1-2.1,.3-3.5-.7-1-.9-2.7-.6-3.9s0-2.8-.7-3.6c-.6-.8-.9-2.3-.5-3.4,.4-1.4,0-2.3-1.3-3-1.4-.7-1.8-1.8-1.4-4,.4-2.6,.1-3.1-1.7-3.1-1.5,0-2.1-.6-2.1-2.1,0-1.2-.8-2.3-1.9-2.6s-2.1-1.5-2.3-2.7c-.2-1.5-1.1-2.2-3-2.4-1.7-.2-2.8-.9-2.8-1.9,0-1.2-.7-1.4-3-1-1.6,.4-3.2,.2-3.6-.4-.3-.6-1.9-.9-3.4-.6s-3.2,.1-3.9-.6c-.9-.9-1.6-.9-3,0-1,.7-2.9,.9-4.1,.6-1.5-.4-2.6-.1-3.2,1-.4,.9-1.5,1.4-2.3,1.1s-2,.4-2.7,1.5c-.7,1.2-2.1,2.1-3.1,2.1-1.1,0-2.1,.9-2.4,2-.3,1-1.4,2.2-2.4,2.5-1.2,.4-1.9,1.6-1.9,3s-.9,2.9-2.1,3.5c-1.6,.9-1.9,1.8-1.5,3.6,.4,1.3,.4,2.4,.1,2.4-.2,0-3.8-1.1-7.9-2.5s-11.2-2.8-15.7-3.2l-8.3-.8-.7-3.4c-1-4.8-3.4-6.7-12.1-9-4.3-1.1-11.8-3.9-16.7-6.1-10.7-4.8-13.1-5-16.4-1Zm17.6,4c3.7,1.6,10.1,3.9,14.4,5.1,9.2,2.5,11.3,4.1,11.3,8.5,0,2.4-1.1,4.4-4.4,8.1l-4.4,4.8-6.5-6.3c-3.6-3.4-7.2-6.2-8-6.2-1.3,0-3.6,1.5-12,8.1-1.5,1.1-3.9,4.3-5.3,7-1.3,2.7-2.6,4.9-2.9,4.9-.6,0,2.3-9.2,6.1-19.3,1.9-5,3.8-11.1,4.1-13.4,.3-2.4,.7-4.3,.8-4.3s3.2,1.3,6.8,3Zm98.9,8.7c5.4,3.2,5.8,5,1.8,8.4-1.9,1.6-4.7,3.6-6.2,4.4-2.5,1.4-2.9,1.3-4.7-.6-2.1-2.3-5.1-10-5.1-13.2,0-1.8,.5-1.9,5.5-1.4,3.1,.3,7,1.4,8.7,2.4Zm-19.8,4c.7,1.6,2.1,5,3,7.7,2.3,6.8,1.4,7.6-8.5,7.6-7.3,0-7.9-.2-7.9-2,0-1.2,.7-3.5,1.6-5.3,1.7-3.4,8.3-10.7,9.6-10.7,.4,0,1.4,1.2,2.2,2.7Zm-68.5,10.7l5.4,5.5-3.8,4.7c-3.8,4.6-14.8,13.4-16.7,13.4-2.3,0,.3-2.8,6.2-6.7,10.6-7.1,10.5-6.4,2.5-13.9l-7-6.6,2.4-1.9c2.8-2.3,3.9-1.8,11,5.5Zm31.7-4.4c9.6,1.7,13.7,3.6,15.3,7,1.2,2.8,1.1,3.3-.4,5.1-1.7,1.8-1.7,2-.2,3.7,1.2,1.3,1.4,2.1,.6,2.9s-.5,1.7,.9,3.1c1.3,1.3,1.8,2.8,1.5,4.6-.4,2.1-.1,2.8,1.5,3.3,1.3,.3,2.2,1.5,2.4,3.2,.2,2,.9,2.6,2.7,2.6s2.5,.6,2.6,2.4c.2,2.7,2.3,4.3,4.8,3.7,2.3-.6,2.2,.1-1.2,8.6-5.9,14.6-7.2,17-8.5,15.8-.8-.5-2.1-.7-3-.4-1.1,.4-1.6,.2-1.4-.7s-.7-1.4-2.7-1.4c-1.6,0-3.6-.4-4.4-.9-1-.6-1.9-.2-3.1,1.4-.9,1.3-2.2,2-2.8,1.6-1.8-1.1-4.2,.5-4.2,3,0,1.5-.6,2.4-1.5,2.4-1.1,0-1.5,1-1.3,3.2,.1,1.8-.2,4.1-.7,5.1-.6,1.4-.2,2,1.4,2.4,1.5,.4,2.1,1.3,2.1,3.4,0,2.4,.4,2.9,2.5,2.9s2.5,.5,2.5,2.5c0,2.8,2.1,3.3,4,1,.7-.9,1.5-1.3,1.8-1s-.3,1.4-1.3,2.5c-1.3,1.5-3.1,2-6.4,2-2.5,0-7.6,.9-11.2,2.1-6.2,2-6.8,2.1-9,.5-1.9-1.3-2-1.6-.6-1.6,1.7,0,2.1-.9,1.8-4.1-.1-.9,.5-1.9,1.4-2.2,2-.8,1.9-3.4-.2-4.6-1.4-.7-1.5-1.2-.4-2.5,1.6-1.9,.6-3.6-2-3.6-1.2,0-1.9-.7-1.9-1.9,0-2.5-2.2-4.2-3.9-3.1-1,.5-2,.1-3.2-1.3-1.6-2.1-1.8-2.1-3.6-.5-1.3,1.2-2.3,1.4-3.5,.7-1.3-.7-2.1-.4-3.4,1.6-2.1,3.2-2.7,3.2-7.4-.8-3-2.4-4-4-4-6.1,0-1.6-.6-3.7-1.4-4.5-1.7-2-6.6-17.3-6.6-20.7,0-1.4,.7-2.7,1.8-3.1,.9-.3,2.5-1.3,3.4-2.1,1.6-1.3,2.1-1.2,5,1.2,16.8,13.5,18.7,14.6,18.9,10.3,.3-8.4,.2-8.1,4.3-9.2,6.9-2,5.8-4.6-5.1-12l-6.3-4.2,5.6-4.8c4.9-4.2,5.5-5.1,5-7.6-.3-1.6-.1-2.9,.4-2.9s2.3-2,4.1-4.5c3-4.2,3.5-4.5,7.9-4.5,2.5,0,7.3,.5,10.6,1Zm68.3,3.1c2.7,7.7,2.5,17.9-.3,17.9-2.4,0-12.6-8-12.6-10,0-1.6,9.5-11,11.1-11,.4,0,1.2,1.4,1.8,3.1Zm-108.9,4.8c3,2.7,5.3,5.1,5,5.3s-3.3,2.5-6.7,5.1-6.6,4.7-7.2,4.7c-1.6,0-1.3-2,.4-2.6,2.8-1.1,1.6-2.6-1.6-1.9-3,.7-3.1,.6-2.5-1.9,.7-3-.1-3.4-2-.9-2.3,3.2-2.6,.6-.4-3.9,2.7-5.3,5.8-8.8,7.9-8.8,.9,0,4.1,2.2,7.1,4.9Zm-51.5,1.5c1.8,1.3,1.8,1.6-.9,8-3.4,8-4.5,8.2-12.1,2.5-8-6.1-7.5-7.4,4.5-11.3,2.9-.9,6.6-.6,8.5,.8Zm142.4,.5c.7,1.3,.6,2.3-.3,3.6-2.3,3.2-6.7-.2-5.2-4,.8-2.1,4.3-1.9,5.5,.4Zm-124.2,12.9c2.1,3.6,2.3,4.5,1.2,5.8s-2.7,1.5-7.7,1.1c-3.8-.3-6.8-1-7.4-1.8-1.1-1.8-.3-5.9,2.2-11.7l2-4.6,3.6,3.5c2,1.9,4.7,5.3,6.1,7.7Zm115.6-5.9c1.4,1.4-2.2,17.2-4,17.8-3.4,1.2-16.1-15.3-13.6-17.7,1.9-1.9,15.7-2,17.6-.1Zm-99.3,3.1c0,.5,.9,1,1.9,1,1.1,0,2.2,.9,2.6,1.9,.3,1.1,1.2,2.2,2,2.5,1,.3,1.5,1.9,1.5,4.4,0,5.3-2.6,7.5-8.5,7.4-3.8,0-5-.5-6.8-2.8-1.2-1.6-2.1-3.3-1.9-3.7,.1-.5-.2-1.4-.7-2.1-1.4-1.7-.8-7.6,.9-8.6,2-1.3,9-1.3,9,0Zm116.6,2.7c2.9,2.1,5.4,4.5,5.4,5.4,0,3.7-9.2,8.9-15.7,8.9-3.5,0-3.6,0-3-3.8,.4-2,1.4-6.1,2.2-9,2-6.5,3.5-6.7,11.1-1.5Zm-163.6,5.7c3.1,3.4,2.3,4.9-5.1,9.4-7.8,4.7-8.4,4.3-8.4-5.9,0-5.8,.4-9.1,1.4-10.2,1.2-1.5,1.7-1.4,5.5,1.2,2.2,1.6,5.2,4.1,6.6,5.5Zm72.9-1.2c5,3,11.1,7.8,11.1,8.7,0,.4-1.8,1.3-4,2-3.9,1.1-4,1.3-4,5.6,0,2.5-.3,4.5-.6,4.5-1.7,0-17.4-13.6-17.4-15.1,0-1,2.1-2.9,5.3-4.7,2.8-1.7,5.4-3.1,5.6-3.1,.2-.1,2,.9,4,2.1Zm-60.4,4.8c0,1.8-.6,2.6-2.3,2.8-1.3,.2-2.5-.3-2.8-1.2-1-2.6,.4-4.8,2.8-4.4,1.7,.2,2.3,1,2.3,2.8Zm22.5-1.2c0,.5-.9,1.7-2,2.7-2.8,2.6-2.5,4,.5,2.1,2.8-1.8,3.3-1,1,2-2.5,3.3-1.6,5.1,1,1.9,1.7-2.1,2.8-2.6,3.5-1.9,.8,.8-.3,2.8-3.5,7-2.6,3.2-5.1,6.6-5.6,7.4-.7,1.2-1.9,.5-5.9-3.9-2.8-3-5-6.2-5-7.1,0-2.2,3.4-5.2,9.5-8.3,5.5-2.8,6.5-3.1,6.5-1.9Zm-16,5.6c0,.2-.7,.9-1.5,1.6-1.2,1-1.5,1-1.5-.4,0-.9,.7-1.6,1.5-1.6s1.5,.2,1.5,.4Zm-9.6,4.8c.9,1.2,1.6,3.4,1.6,4.7,0,3.4-5.6,9.1-9,9.1-2.9,0-10.3-5.6-9.4-7.2,1-1.5,12.5-8.8,14-8.8,.7,0,2,1,2.8,2.2Zm33.5,2.6c-3.7,6.1-7.6,10.7-12.4,14.7l-4.7,3.8-5.5-5.4c-7.2-7.1-7.7-8.2-5.4-11l1.8-2.2,6.5,6.8c3.6,3.8,6.9,6.5,7.5,6.2,.6-.4,3.7-4.5,6.8-9.2s6.1-8.3,6.6-7.9c.6,.3,0,2.1-1.2,4.2Zm104.6,3.2c.6,0,1.6-.5,2.3-1.2,.8-.8,1.5-.8,2.5,.1,.8,.6,2.1,.9,3,.5,1.2-.4,1.7,.5,2.3,4.1,1.1,7.4-.2,16.1-4,27.9-3.9,11.7-8,19.7-12,23.5l-2.6,2.4-1.4-3.4c-2-4.7-8.6-7.4-16.4-6.6-5.1,.5-5.5,.4-3.8-.9,1.1-.8,2.3-1.4,2.8-1.4,.4,0,.8-.7,.8-1.5,0-1,1-1.5,3-1.5,2.5,0,3-.4,3-2.5,0-1.6,.6-2.5,1.5-2.5,2.1,0,3-2.7,1.6-4.4-.8-1-.9-1.6-.1-2.1,1.6-1,1.2-4.5-.6-4.5-.9,0-1.4-.4-1.2-.8,8.1-20.1,11.5-27,13.8-27.9,2-.7,2.7-.6,3.4,.9,.5,1,1.4,1.8,2.1,1.8Zm-93.5,21.3c0,.4-1.1,.5-2.5,.1-2.2-.5-2.7-.1-4.3,3.7-1.7,4-2,4.2-2.9,2.4-.6-1.1-1.7-4.3-2.5-7-1.3-4.2-1.3-6-.2-11.2,.7-3.5,2.1-7.6,3-9.3l1.8-3,3.8,11.8c2.1,6.4,3.8,12,3.8,12.5Zm-34-8.8c3.5,3.6,7.2,6.5,8.1,6.5s3.7-2.2,6.3-5c2.5-2.7,4.6-4.3,4.6-3.6,0,2-3.6,14.8-5.3,18.6-2,4.6-6.5,8.8-10.2,9.5-2.6,.5-3.7,0-7.7-3.8-2.6-2.5-7.2-5.9-10.2-7.6-3.1-1.8-5.8-3.7-6.2-4.3-.3-.5,.9-2.6,2.8-4.6,1.9-2.1,4.9-5.6,6.7-8,1.8-2.3,3.6-4.2,4-4.2,.3,0,3.6,2.9,7.1,6.5Zm23.5,17.9c1.8,2.4,3.4,1.2,5.1-3.7,1.4-4.2,4.5-3.9,9.7,1.1,4.9,4.7,6.2,7.1,4.8,8.5s-1.4,4.7-.1,4.7c.5,0,.7,1.3,.4,3-.6,2.5-.3,3,1.4,3,1.3,0,2.2,.9,2.6,2.6,.6,2.1,1.2,2.5,3.1,2.2,1.8-.4,2.6,0,3,1.3,.8,2.3,2.8,2.4,4.5,.4,1-1.2,1.6-1.3,2.6-.4,1.1,.9,1.7,.9,2.8,0,1.3-1.1,4.6-.5,4.6,.9,0,1.1-3.3,3.7-5.9,4.5-1.3,.4-4.1,2.3-6.2,4.2-3.5,3.2-3.9,4-3.9,8.4,0,2.7-.3,4.9-.6,4.9-.4,0-4-1.6-8-3.5-8.8-4.2-22.3-16.6-28.4-25.8-4.6-7-4.8-8.4-2-12,1.1-1.4,2.7-4.5,3.5-6.9,2.7-7.6,2.6-7.5,4.2-3.3,.7,2.2,2,4.9,2.8,5.9Zm72.1-6.9c1.7,4.4-3.9,11.1-7.1,8.5-2.1-1.7-1.9-4.3,.6-7.4,2.3-2.9,5.6-3.4,6.5-1.1Zm89.4,1.4c0,1.6,.3,3.7,.6,4.5,.4,1.2,.2,1.5-.9,1-1.8-.6-3-4.5-2.1-6.8,1-2.6,2.4-1.8,2.4,1.3Zm8.5-.4c0,1.1-.7,2.1-1.6,2.3-1.8,.3-3.3-2.3-2.3-3.9,1-1.7,3.9-.5,3.9,1.6Zm-91.5,2.1c1.1,1.2,1,1.8-.3,3.2-1.6,1.5-1.8,1.5-3.4,0-1.3-1.4-1.4-2-.3-3.2,.7-.9,1.6-1.6,2-1.6s1.3,.7,2,1.6Zm78,.8c0,1.4,.5,2.8,1,3.1,1.3,.8,1.3,2.5,0,2.5-1.5,0-4.3-4.8-3.6-6.5,.9-2.4,2.6-1.8,2.6,.9Zm-124.2,6.2c2.2,3.9-2.3,10.9-5.6,8.8-2.3-1.5-2.7-5-.8-8,1.9-2.7,5.1-3.2,6.4-.8Zm7.8,1.9c.6,1.5-1.2,4.5-2.7,4.5-1.1,0-2.2-3.8-1.4-5,.9-1.5,3.5-1.2,4.1,.5Zm36.1-.4c1.6,1.6,.5,3.9-1.7,3.9-2,0-3-1.7-2.2-3.8,.5-1.5,2.4-1.6,3.9-.1Zm70.3-.4c-.1,1.3-4.9,6.8-5.4,6.2-.8-.7,3.2-6.9,4.4-6.9,.5,0,1,.3,1,.7Zm-11.4,1.8c-1,.8-2.3,1.2-2.9,.8-1.1-.7,1.2-2.3,3.3-2.3,1.2,.1,1.1,.4-.4,1.5Zm-7.6,3.9c0,1.4,.5,2.8,1,3.1,1.3,.8,1.3,2.5,0,2.5-1,0-4-5.2-4-7,0-.5,.7-1,1.5-1,.9,0,1.5,.9,1.5,2.4Zm27.6,5.4c.3,.9,.9,2.4,1.4,3.3,1.1,2.1-1,11-2.8,11.7-.8,.3-2.2-.4-3.1-1.6-.9-1.1-2.5-2.2-3.5-2.4-3.9-.6-3.8-10.4,0-14.3,1.4-1.3,1.8-1.3,4.5,.1,1.7,.8,3.2,2.3,3.5,3.2Zm-31.7-.2c2.5,4.2,1.8,6-1,2.5-1.6-2-2.7-6.1-1.5-6.1,.2,0,1.4,1.6,2.5,3.6Zm41.4-2c.3,.4-1,1.5-3,2.5-4.3,2.2-5.8,1.5-2.4-1.2,2.4-1.9,4.3-2.4,5.4-1.3Zm-126.6,2c.3,.8,.1,2-.6,2.7-1.4,1.4-4.7-1.5-3.7-3.2,1-1.6,3.6-1.3,4.3,.5Zm80.1,4.4c.7,1.1,1.9,2,2.7,2s1.5,.4,1.5,1c0,1.9-3.9,1-5.4-1.2-.9-1.2-1.6-2.6-1.6-3,0-1.5,1.5-.8,2.8,1.2Zm-48.8,0c.8,.5,1.3,1,1,1-.3,.1-2.5,.3-5,.6s-5.7,.9-7.2,1.4c-1.7,.5-3,.5-3.3-.1-.7-1.1,.5-1.6,6.5-2.8,6.1-1.2,6.3-1.2,8-.1Zm17.3,.4c5.9,2.4,9.1,10,6.4,15.2-3.3,6.4-10.6,10.5-18.6,10.5-6.2,.1-9.9-1.5-11.1-4.7-.6-1.5-.9-2.7-.8-2.8,6.5-3.6,13.8-12.4,13.8-16.8,0-2.5,.3-2.8,3.5-2.8,2,0,5,.6,6.8,1.4Zm78.7,.6c1.9,1.2,1.3,1.6-3.2,2.3-4.2,.6-5.2-.8-1.5-2.3q2.9-1.1,4.7,0Zm-113,2.9c0,.5-.7,1.1-1.5,1.5-1.5,.5-2-.5-.8-1.7,.9-1,2.3-.9,2.3,.2Zm57.5,3.5c10.1,4.8,25,20.1,28.5,29.4,1.1,2.9,2,7,2,9.1,0,4.3-5.2,15.6-9.7,21l-2.9,3.3-.1-4.9c-.1-6.2-2.3-10.5-6.7-13.3-7.2-4.4-13.5-3.5-18.9,2.9-3.3,4-4.2,9.1-2.3,13.5l1.5,3.6h-3.7c-6.5-.1-11.6-1.8-14.3-4.8-3.4-3.8-6-14.9-6-25.4,0-9.5,1.7-13.2,6.9-15.3,5.7-2.4,11.1-8.3,11.9-12.9,.4-2.6,1.2-4,2.4-4.3,1.1-.3,1.9-1.4,1.9-2.4,0-2.6,3.3-2.4,9.5,.5Zm30.5,1.6c.7,1.3,.7,2,.1,2s-1.5-.9-2.1-2c-.7-1.3-.7-2-.1-2s1.5,.9,2.1,2Zm22.1-1c1,.6,1.9,1.7,1.9,2.4,0,1.1-.7,1-3.5-.3-1.9-.9-3.4-1.9-3.5-2.4,0-1,2.8-.9,5.1,.3Zm-120.1,3.5c2.3,2.7,8.1,5.7,13.3,6.9,4.9,1.1,5.2,1.3,5.5,4.4,.3,2.7-.4,4-3.5,7.2-7.3,7.2-17.1,7.4-24.1,.4-3.2-3.2-3.4-3.8-3-8.5,.5-5.1,3.3-9.3,7.3-10.9,2.8-1.2,3.1-1.2,4.5,.5Zm105.8,1.2c-.2,1.6-1,2.9-2,3.1-1.5,.3-1.5-.1-.5-2.7,1.4-3.8,2.9-4,2.5-.4Zm11.1,3.4c-.8,.5-2.1,.9-2.9,.9-1.2-.1-1.1-.4,.4-1.5,1-.8,2.3-1.2,2.9-.8,.5,.3,.3,.9-.4,1.4Zm-147.2,4.9c1,1.1,2.3,2,3,2,2,0,1.6,.9-3.2,6.2-5,5.6-11,16.1-14.6,25.5-2.5,6.6-4.9,8.1-6.9,4.4-2.1-4.1-1.2-10.7,2.8-18.1,4.5-8.6,14.2-22,16-22,.7,0,2,.9,2.9,2Zm9.1,5.6c.6,1.2,1.7,1.5,3.2,1.1,1.7-.4,3.1,.3,5.9,3,5.2,5.1,11.4,7.7,16.7,6.9,3.1-.4,5.2-.1,7.3,1.1l2.9,1.7-2.5,5c-3.6,7.1-5.9,14.1-7.8,23.8-.8,4.5-1.8,9.3-2.1,10.5-.6,3-3,2.9-5-.2-1.2-1.8-2.5-2.5-4.9-2.5-5,0-8.3,4.9-6.4,9.7,1.4,3.7,2.7,4.4,7.4,3.7,6.4-.9,7.8,.8,6.5,8.1-.6,3.3-1.3,7.5-1.6,9.4-.5,3.1-.7,3.3-3.6,2.7-1.7-.3-4.1-1.7-5.4-3.1-2.9-3.2-5.8-3.2-8.9,0-4.9,4.8-1.7,13.6,4.3,11.9,3.5-1,8.3-.7,9.5,.5,2,2-1.2,5.9-11.5,13.8-5.6,4.5-11.9,9.7-13.8,11.8-4.7,4.9-8.5,6.9-10.9,5.5-3.1-1.6-9.8-9.8-12.6-15.3-2.1-4.2-2.5-6.5-2.5-13.1,0-7.8,1.4-20,2.7-24.1q.6-1.9,1.4,.3c1,2.7,4.9,3,7.1,.4,4.1-4.6,2.8-10.2-2.3-10.2-1.7,0-3.2-.6-3.5-1.5-.7-1.8,1.5-11.5,2.6-11.5,1.2,0,4,2.9,4,4.1,0,.5,.9,.9,2,.9,2.3,0,4.7-3.3,5.6-7.7,.8-3.9-2.6-6.9-5.9-5.2-3.8,2.1-4.2-.5-1.3-8.8,3.9-11,10.2-22.5,15.9-28.8,5.2-5.9,6.1-6.4,7.5-3.9Zm51.5,1.7c4.8,.6,5,.8,3.1,3.5-3.6,5.2-15.5,8.3-20.2,5.3-1-.6-.1-2.1,3.5-5.8,4.1-4.3,5.1-4.9,7.3-4.2,1.4,.4,4.2,1,6.3,1.2Zm77,3.7c.3,1-.1,2.7-.9,3.7-1.2,1.6-1.3,1.5-1.4-1.4,0-1.7-.5-3.5-1-3.8-.6-.4-.8-1.1-.4-1.6,.8-1.3,3,.6,3.7,3.1Zm7.3-1.5c.8,3-.2,5.9-1.7,5-.5-.4-.8-.9-.6-1.2,.3-.2,.1-1.8-.3-3.4-.7-2.2-.5-2.9,.6-2.9,.7,0,1.6,1.1,2,2.5Zm7,.9c.6,2.6-.1,4.6-1.5,4.6-.5,0-1.1-1.6-1.3-3.5-.5-4.1,1.8-5,2.8-1.1Zm12.4,9.4c-.9,1.5-2.4,2.8-3.4,3-1.8,.4-1.7,.2,.2-2.3,1.2-1.5,2.2-3.5,2.2-4.3,0-1.3,.3-1.3,1.2-.4,1,1,1,1.8-.2,4Zm-101.4-.1c-.1,7,1.6,21.3,2.4,21.3,.5,0,1.4,1.6,2,3.5,.7,2,2.3,4.3,3.6,5.1,3,2,7.1,14.4,5.1,15.6-4.1,2.6-37.8,.1-40.9-3-1.1-1.1,3.5-22.4,6.5-30.4,3.8-9.8,5.1-11.5,10-12.2,2.3-.4,5.3-1.3,6.7-2.1,3.8-2.2,4.6-1.8,4.6,2.2Zm94.9-2.7c.3,.5,.2,1-.4,1-.5,0-1.3-.5-1.6-1-.3-.6-.2-1,.4-1,.5,0,1.3,.4,1.6,1Zm11.3,7.8c.6,1.8-1.5,1.4-2.2-.4-.4-1-.1-1.4,.6-1.2,.6,.2,1.4,1,1.6,1.6Zm-63.3,7.2c6.8,3.3,8.8,9.2,7.1,20.5-.8,5.4,1.3,12.2,5.7,18.2,7.9,10.9,8.3,15.4,2.1,22.3-4.2,4.6-9,6.4-15.1,5.7-5.7-.6-9.4-3.3-11.2-8.2-1.4-3.5-1.3-4.6,1.3-14.6,3.4-12.9,3.1-15.4-2.5-23.9-6.1-9.1-5.4-15.3,2.4-20,4-2.5,5.1-2.5,10.2,0Zm65.5,2.5c-1.6,1.9-5.4,1.9-7,0-1.1-1.3-.8-1.4,1.7-.9,2.1,.4,3.3,.1,4.3-1.1,.9-1.1,1.6-1.3,1.8-.6s-.2,1.8-.8,2.6Zm-39,12c2.3,11.7,4.1,44.2,2.4,43.3-.5-.2-2.4-1-4.1-1.7-2.5-1-3.3-1.9-3.3-3.7,0-3.4-2.4-8.8-6.3-14.3-7.2-10-7.7-15.1-2-21.5,2.2-2.5,5.3-7.1,6.9-10.1,1.8-3.3,3.1-4.9,3.6-4.2,.3,.7,1.6,6.2,2.8,12.2Zm-151-2.9c0,.6-1.1,1.6-2.5,2.2-2.6,1.2-3.3,4-1.3,6,.9,.9,.8,2.4-.1,6.5-1.4,6.6-5.2,10-10,9.1l-2.9-.6,1.5-5.2c.8-2.8,3.3-9,5.5-13.7l4-8.7,2.9,1.7c1.6,.9,2.9,2.1,2.9,2.7Zm.1,7c1.2,1.4,1.1,1.6-.5,1.3-1.1-.2-2.1-1-2.4-1.7-.5-1.7,1.3-1.5,2.9,.4Zm9.3-.1c.6,1.8-1.3,6.5-2.7,6.5-.5,0-.4-.7,.3-1.5s1-2.6,.8-4c-.6-2.7,.6-3.4,1.6-1Zm96.1,3c6.1,.8,7.2,1.7,8.6,6.7,.8,3.3,.6,5.6-1.7,14.4-1.4,5.8-2.4,11.6-2.1,13,.3,1.7-.2,2.9-1.7,3.9-2.7,2-3.6,1.9-3.6-.3,0-1-2.2-10-5-19.9-2.7-10-5-18.4-5-18.8s1.2-.4,2.8-.1c1.5,.2,5,.8,7.7,1.1Zm55.6,.3c1.3,1.1,1.8,2.1,1.2,2.5s-2.1-.5-3.3-1.8c-2.7-2.9-1.3-3.3,2.1-.7Zm-215.1,1.7c16.2,8.4,24.1,30.8,19.5,55.5-.7,4.1-1.6,9.1-2,11-.6,3.2-.5,3.3,.8,1.7,2.3-2.7,4.8-18.6,4.6-28.2-.1-4.7,0-8.7,.2-8.9,.9-.9,20.9-10.6,21.9-10.6,1.3,0,1.3,1.7-.5,13.4-2,13.5-.9,21.7,4,29.6,1.2,1.9,2.9,6.6,3.9,10.5,1,3.8,3.4,10.7,5.3,15.3,2,4.6,3.4,8.4,3.2,8.6-1.1,.9-17.5,5.7-24.1,7.1-13.9,2.7-34.4,3.7-43.6,2-1.8-.3-3.2-.9-3-1.3,6.3-11.8,8.2-22.1,7.4-39.7-1.3-29.5-7-52.9-14.7-60.6l-3.9-3.9,3.2-2.1c3.9-2.4,12.5-2.2,17.8,.6Zm96.2,3.6c-2.6,1-3.8,4.5-2.1,6.5,.6,.8,.9,1.8,.5,2.2-1.3,1.2-4.5-3.6-3.9-5.8,.7-2.7,4.1-5,6.1-4.3,1.2,.5,1.1,.8-.6,1.4Zm122.4,9.9c6.5,11.6,8.1,24.3,4.5,35.9-1.8,5.7-6.9,15.7-7.6,14.9-.2-.2-.5-4.4-.7-9.3-.2-6.7-.8-10.2-2.4-13.5-1.8-3.8-2.1-6.5-2.3-18.3,0-7.5-.4-15.4-.7-17.5l-.6-3.7,3.7,3.5c2,1.9,4.7,5.5,6.1,8Zm1.4-10c0,.5-.2,1-.4,1-.3,0-.8-.5-1.1-1-.3-.6-.1-1,.4-1,.6,0,1.1,.4,1.1,1Zm-119.5,3c.3,.5-.3,1-1.4,1s-2.3-.5-2.6-1c-.3-.6,.3-1,1.4-1s2.3,.4,2.6,1Zm43.9,7.1c-.7,1.2-4.4,1.2-4.4,0,0-.5,.6-1.1,1.3-1.4,1.7-.6,3.8,.3,3.1,1.4Zm-32.4-.1c0,.5-.4,1-1,1-.5,0-1-.5-1-1,0-.6,.5-1,1-1,.6,0,1,.4,1,1Zm-67.2,1.6c2,.6-.3,2.6-6.6,5.8-5.6,2.8-5.8,2.7-4.1-2.3,1.6-4.4,4.6-5.4,10.7-3.5Zm81.2,1.6c0,.4-1,.8-2.2,.8-3.5,0-9.9-2-9.4-2.9,.7-1,11.6,1,11.6,2.1Zm-68.7,1.9c-.6,2.2-3.1,4.4-3.9,3.6-.4-.3,.1-1.3,1-2.2s1.6-2.6,1.6-3.8c0-1.6,.3-1.8,.9-.8,.5,.7,.6,2.2,.4,3.2Zm-6.4-1.8c.6,.8,.8,1.7,.4,2-.7,.8-3.3-1.1-3.3-2.4s1.6-1.1,2.9,.4Zm63.6,1c2.7,.6,12.5,1.2,21.7,1.2h16.6l1.3,5.3c.7,3.2,.9,5.6,.3,6.2-1.7,1.6-17.8,5.8-25.3,6.5-7.8,.7-22.8-.1-25-1.4-1-.6-1-2.2-.2-7.2,.6-3.5,1.4-7.9,1.7-9.7,.4-2.6,.9-3.2,2.2-2.7,.9,.3,3.9,1.2,6.7,1.8Zm112.5,6.2c0,.8-.4,1.5-1,1.5-.5,0-1-.7-1-1.5s.5-1.5,1-1.5c.6,0,1,.7,1,1.5Zm1.4,5.1c1,2.5,.7,11.2-.4,11.9-.6,.4-1-1.2-1-4.2,0-2.6-.3-5.8-.6-7.1-.7-2.5,1.1-3.1,2-.6Zm-138.4,2.3c0,.5-1,1.1-2.1,1.4-1.9,.5-2.1,1.1-1.6,4.6,.4,3.1,.2,3.8-.9,3.4-2.3-.9-2.8-5-1-7.8,1.6-2.4,5.6-3.5,5.6-1.6Zm2.4,4.2c-.3,.5-1,.7-1.5,.3-.5-.3-.7-1-.3-1.5,.3-.5,1-.7,1.5-.3,.5,.3,.7,1,.3,1.5Zm111.6-.1c2.2,1.1,4.6,3.3,5.4,4.8,2,3.8,3.6,13.3,3.6,21.1v6.5l-5.7,5.3c-4.4,4.1-6.4,5.3-8.9,5.3-4.6,0-6.3,.9-7.9,4.1-2.3,4.4-1.9,9.6,1,12.4,4.2,4.3,8.4,2.8,11-3.7,1.5-3.8,6.9-9.7,8-8.6,.7,.7-3.3,14.8-6.4,22.6-5.9,14.5-14.3,22.5-21.9,20.6-4.7-1.2-7.1-4.7-7.6-11.2-.2-3-.6-5.5-.8-5.8-.3-.2-1.8,.2-3.6,.8-2.4,1-3.6,.9-5.6-.1-3.7-2-3.9-3.6-.7-9.9,9-17.8,8-32.3-2.8-42.7-3.6-3.4-4.1-4.5-4.1-8.3s.6-5,3.4-7.8c4.2-4.2,5.5-4.2,6.9-.5,1.2,3.2,3,3.8,12.4,4.8,6.9,.6,13.4-2.3,17-7.8,1.4-2.2,2.7-3.9,3-3.9,.2,0,2.2,.9,4.3,2Zm-103.4,1.1c2.4,.6,4.4,1.5,4.4,2,0,1.1-.2,1.1-5.6-.2-2.4-.6-4.4-1.5-4.4-2,0-1.1,.2-1.1,5.6,.2Zm53.9,.8c-.6,.5-2.3,1.2-4,1.6q-2.9,.6-1.1-.9c2.1-1.7,6.7-2.3,5.1-.7Zm-31.5,2.1c0,.5-1.1,1-2.5,1s-2.5-.5-2.5-1c0-.6,1.1-1,2.5-1s2.5,.4,2.5,1Zm5.5,0c.3,.5,.2,1-.4,1-.5,0-1.3-.5-1.6-1-.3-.6-.2-1,.4-1,.5,0,1.3,.4,1.6,1Zm27.1,4.6c-.9,2.6-1.6,5.5-1.6,6.5,0,1.6-.3,1.6-4.7,.2-19.1-6-47.6,4.7-67.4,25.3-6.6,6.9-13,15.9-15,21q-1,2.7-2.5,.6c-2.1-3-7.1-14.5-8.8-20.1l-1.4-4.9,3.5,2.4c2,1.3,4.2,2.4,5,2.4,2.4,0,6.7-2.7,10.3-6.5,1.9-2.1,8.2-7.4,13.9-11.8s11.3-9.6,12.4-11.5l2-3.4,6.1,.8c15,1.8,34.8-.2,44.8-4.5,2.4-1,4.5-1.7,4.7-1.5,.2,.1-.4,2.4-1.3,5Zm-2.1,10.6c12.7,6.6,17.2,18.2,12.9,32.9-6.6,22.2-28.2,44.9-50.8,53.4-25.4,9.5-50.9-2.7-51-24.5-.1-24.8,27.4-54.2,59.4-63.6,2.8-.8,8.4-1.2,14.5-1.1,8.5,.3,10.7,.7,15,2.9Zm59.3,23.5c-2.1,2-4.1,3.4-4.4,3-1-1,4.6-6.7,6.5-6.7,1,0,.3,1.3-2.1,3.7Zm-15.8,3.1c0,.4-.5,1.3-1.1,1.9-1.9,1.9-.6,5.8,1.9,6.1,2.8,.4,2.6,2.9-.4,4.8-4.9,3.3-8.9-7.1-4.4-11.6,2-2,4-2.6,4-1.2Zm1.5,3.1c-.3,.6-1.1,1.1-1.7,1.1s-.6-.6,.2-1.5c1.4-1.7,2.6-1.3,1.5,.4Z"/><path d="M187.65,70.72c.4,1.3,1.8,1.6,1.9,.4,0-.4-.5-.9-1.1-1.2-.7-.2-1.1,.2-.8,.8Z"/><path d="M185.05,77.72c-.4,.5-.2,1.2,.3,1.5,.5,.4,1.2,.2,1.5-.3,.4-.5,.2-1.2-.3-1.5-.5-.4-1.2-.2-1.5,.3Z"/><path d="M181.45,86.32c0,.8,.5,1.5,1,1.5,.6,0,1-.7,1-1.5s-.4-1.5-1-1.5c-.5,0-1,.7-1,1.5Z"/><path d="M115.45,96.82c0,.5,.5,1,1,1,.6,0,1-.5,1-1,0-.6-.4-1-1-1-.5,0-1,.4-1,1Z"/><path d="M145.45,122.32c0,.8,.5,1.5,1,1.5,.6,0,1-.7,1-1.5s-.4-1.5-1-1.5c-.5,0-1,.7-1,1.5Z"/><path d="M95.15,48.62c-2.6,2.9-2,6.1,1.8,9.9,4.2,4.2,8.1,4.3,10.5,.1,1.3-2.5,1.3-3.1-.4-6.2-2.9-5.3-8.8-7.2-11.9-3.8Zm4.3,5.3c0,2.1-2,2.5-3.8,.7-1.7-1.7,.5-5.3,2.4-3.7,.8,.6,1.4,2,1.4,3Zm7,3.3c0,2.1-2,3-3.3,1.7-.9-.9-.8-1.4,.3-2.1,2.1-1.4,3-1.2,3,.4Z"/><path d="M189.45,134.32c0,.8,.5,1.5,1,1.5,.6,0,1-.7,1-1.5s-.4-1.5-1-1.5c-.5,0-1,.7-1,1.5Z"/><path d="M184.95,140.92c-1,1.5,.3,2.5,1.6,1.2,.7-.7,.7-1.3,.1-1.7-.6-.3-1.4-.1-1.7,.5Z"/><path d="M166.95,143.72c-.3,.5-.1,1.2,.5,1.6,.5,.3,1-.1,1-.9,0-1.8-.6-2.1-1.5-.7Z"/><path d="M176.45,144.82c0,.5,.5,1,1,1,.6,0,1-.5,1-1,0-.6-.4-1-1-1-.5,0-1,.4-1,1Z"/><path d="M234.95,161.92c-1,1.5,.3,2.5,1.6,1.2,.7-.7,.7-1.3,.1-1.7-.6-.3-1.4-.1-1.7,.5Z"/><path d="M232.95,171.72c-.6,1.1,.9,2.3,1.9,1.4,.9-.9,.7-2.3-.3-2.3-.6,0-1.2,.4-1.6,.9Z"/><path d="M228.05,180.52c-1.1,1.1-.6,2.3,.9,2.3,.8,0,1.5-.4,1.5-.9,0-1.3-1.6-2.2-2.4-1.4Z"/><path d="M183.45,187.82c0,.5,.5,1,1,1,.6,0,1-.5,1-1,0-.6-.4-1-1-1-.5,0-1,.4-1,1Z"/><path d="M193.05,188.62c-.3,.6-.1,1.4,.5,1.7,1.5,1,2.5-.3,1.2-1.6-.7-.7-1.3-.7-1.7-.1Z"/><path d="M154.95,146.82c.3,.5,1,1,1.6,1,.5,0,.9-.5,.9-1,0-.6-.7-1-1.6-1-.8,0-1.2,.4-.9,1Z"/><path d="M131.45,148.82c0,.5,.5,1,1,1,.6,0,1-.5,1-1,0-.6-.4-1-1-1-.5,0-1,.4-1,1Z"/><path d="M148.45,152.82c0,.5,.5,1,1,1,.6,0,1-.5,1-1,0-.6-.4-1-1-1-.5,0-1,.4-1,1Z"/><path d="M138.95,153.72c-.6,1.1,.9,2.3,1.9,1.4,.9-.9,.7-2.3-.3-2.3-.6,0-1.2,.4-1.6,.9Z"/><path d="M89.45,174.82c0,.5,.5,1,1.1,1,.5,0,.7-.5,.4-1-.3-.6-.8-1-1.1-1-.2,0-.4,.4-.4,1Z"/><path d="M149.95,164.82c-.3,.5,.1,1,.9,1,.9,0,1.6-.5,1.6-1,0-.6-.4-1-.9-1-.6,0-1.3,.4-1.6,1Z"/><path d="M144.95,174.72c-.6,1.1,.9,2.3,1.9,1.4,.9-.9,.7-2.3-.3-2.3-.6,0-1.2,.4-1.6,.9Z"/><path d="M141.95,185.92c-1,1.5,.3,2.5,1.6,1.2,.7-.7,.7-1.3,.1-1.7-.6-.3-1.4-.1-1.7,.5Z"/><path d="M140.05,197.72c-.4,.5-.2,1.2,.3,1.5,.5,.4,1.2,.2,1.5-.3,.4-.5,.2-1.2-.3-1.5-.5-.4-1.2-.2-1.5,.3Z"/><path d="M136.45,218.82c0,.5,.5,1,1,1,.6,0,1-.5,1-1,0-.6-.4-1-1-1-.5,0-1,.4-1,1Z"/><path d="M135.05,228.72c-.4,.5-.2,1.2,.3,1.5,.5,.4,1.2,.2,1.5-.3,.4-.5,.2-1.2-.3-1.5-.5-.4-1.2-.2-1.5,.3Z"/><path d="M127.95,246.92c-1,1.5,.3,2.5,1.6,1.2,.7-.7,.7-1.3,.1-1.7-.6-.3-1.4-.1-1.7,.5Z"/><path d="M85.45,250.82c0,.5,.5,1,1,1,.6,0,1-.5,1-1,0-.6-.4-1-1-1-.5,0-1,.4-1,1Z"/><path d="M117.95,254.72c-.6,1.1,.9,2.3,1.9,1.4,.9-.9,.7-2.3-.3-2.3-.6,0-1.2,.4-1.6,.9Z"/><path d="M90.45,258.82c0,.5,.5,1,1,1,.6,0,1-.5,1-1,0-.6-.4-1-1-1-.5,0-1,.4-1,1Z"/><path d="M107.95,262.72c-.6,1.1,.9,2.3,1.9,1.4,.9-.9,.7-2.3-.3-2.3-.6,0-1.2,.4-1.6,.9Z"/><path d="M98.45,267.72c0,.6,.5,1.3,1,1.6,.6,.3,1-.1,1-.9,0-.9-.4-1.6-1-1.6-.5,0-1,.4-1,.9Z"/><path d="M206.65,183.02c-1.8,1.8-1.5,6.3,.6,8.7,2.4,3.1,7.9,3.1,10.4,.1,2.3-2.9,2.3-5.1-.2-7.8-2.3-2.5-8.7-3.1-10.8-1Zm3,4c.2,1.5,1.1,2.4,2.6,2.6,1.8,.3,2.2-.1,2.2-2.4,0-2.6,.1-2.7,1.6-1.2,2.4,2.4,.3,5.8-3.6,5.8-3,0-5-2.2-5-5.4,0-2.5,1.8-1.9,2.2,.6Z"/><path d="M214.35,221.72c-1.8,1.4-2.4,2.9-2.4,6.1,0,7.9,8.7,11.9,14.1,6.5,2.7-2.7,2.7-6.1,.2-11.2-1.8-3.7-8.2-4.4-11.9-1.4Zm8.5,.7c2.7,1,1.8,2.1-2.4,2.8-3.1,.5-4,1.1-4,2.6,0,2.5,1.8,3.5,5.7,3.1,3.6-.3,4.4,1.3,1.4,2.9s-5,1.2-7.6-1.5c-3-2.9-3.1-4.5-.4-7.9,2-2.6,4.2-3.2,7.3-2Z"/><path d="M75.45,216.82c0,.5,.5,1,1,1,.6,0,1-.5,1-1,0-.6-.4-1-1-1-.5,0-1,.4-1,1Z"/><path d="M235.45,238.82c0,.5,.7,1,1.5,1s1.5-.5,1.5-1c0-.6-.7-1-1.5-1s-1.5,.4-1.5,1Z"/><path d="M244.45,241.82c0,.5,.5,1,1,1,.6,0,1-.5,1-1,0-.6-.4-1-1-1-.5,0-1,.4-1,1Z"/><path d="M198.45,244.82c0,.5,.5,1,1,1,.6,0,1-.5,1-1,0-.6-.4-1-1-1-.5,0-1,.4-1,1Z"/><path d="M163.95,264.62c-4.4,1.6-10.5,4.1-13.5,5.6-20.9,10.7-36.4,29.8-36.2,44.7,.1,8,1.6,12.2,5.7,15.8,12.7,11.1,39,2.9,60.6-18.9,10.4-10.4,15.9-21.3,16.1-31.6,.2-7.8-1.5-12.1-6.5-15.8-4.6-3.4-16.1-3.3-26.2,.2Z"/></g></g></svg>