<?xml version="1.0" encoding="UTF-8"?><svg xmlns="http://www.w3.org/2000/svg" viewBox="0 0 569.92 407.11"><defs><style>.f{fill:#4f4933;}</style></defs><g id="a"/><g id="b"><g id="c"><g id="d"><g id="e"><path class="f" d="M422.72,197.38c.05-.12,.34-.33,.48-.34,.41-.14,.9-.21,1.31-.34,3.72-.97,6.67,3.66,4.06,6.75-1.52-1-3.11-1.45-3.51-3.24-.21-1.31-1.1-1.86-2.2-2.2-.07-.07-.14-.41-.14-.62h0Zm-115.84-124.11l.83-1.45c2.98-6.25,6.46-12.26,9.09-18.66,.28-.69,.41-1.52,.41-1.72,.07-1.79-.21-2.96-.76-4.06-.14-.28-.48-.55-.76-.48-.28,0-.62,.28-.76,.55-.34,.83-.76,1.65-.83,2.55-.69,6.42-3.97,12.04-7.16,17.49-.9,1.58-1.38,3.31-1.79,5.03-.07,.34-.07,.69,0,.96,.07,.21,.21,.34,.34,.55,.14,.14,.76,.07,.9-.14,.21-.28,.34-.41,.48-.62h.01Zm-18.87,93.52c-9.92-2.41-20.38-.82-29.48,3.72-.05,0-.09-.02-.14-.07l-.07,.14s.07,0,.07-.07c0,.07,.07,.07,.07,.14,.07-.07,.07-.14,.07-.14,1.03,.34,2.07,.48,3.1,.34,5.14-.46,10.29-1.02,15.43-.76,1.44,0,2.89-.14,4.34,0,.69,0,1.31,.07,2,.14,3.37,.07,6.68,.41,9.99,.96,1.45,.21,2.89,.48,4.27,.69,.55,.07,1.1,.14,1.65,.14,.07,0,.28-.07,.28-.14-.07-.21-.07-.48-.21-.55-3.44-2.2-7.37-3.51-11.36-4.55h0Zm145.59,66.33c2.41,1.66,4.47-3.19,4.68-5.03,.07-.34,.07-.69,0-.96-.28-1.58-.83-2.96-2-4.13-.62-.62-1.31-.55-1.52,.21-.76,2.07-1.45,4.2-2.2,6.34-.14,.41-.14,.9-.14,.96,.07,1.24,.41,2,1.17,2.62h.01ZM569.27,52.96c1.17,5.03,.76,9.99-1.24,14.81-1.84,4.35-5.42,7.66-8.54,11.16-3.17,3.44-6.4,6.89-9.57,10.33-5.36,6.23-11.1,12.37-16.32,18.73-10.77,12.69-19.17,27.54-32.02,38.36-5.1,4.41-10.47,8.4-16.11,12.05-2.96,1.93-6.13,3.24-9.43,4.34-5.51,1.86-10.95,3.93-16.39,5.99-8.4,3.17-16.87,6.06-25.55,8.33-5.2,1.41-10.44,2.62-15.84,2.75-.69,0-1.38,.07-2,.14-1.85,.15-1.45,2.32-1.38,3.58,.21,1.31,.48,1.79,2,1.24,1.93-.69,3.86-1.17,5.85-1.58,8.74-1.87,17.91,4.88,17.91,13.98,0,2.82,0,5.58-.76,8.33-.21,.62-.14,1.31-.28,2-.28,1.24,.28,2.2,1.17,2.96,4.7,3.35,8.88,8.16,9.57,14.05,.41,3.58,.48,7.16-1.1,10.54-.83,1.79-1.79,3.37-3.03,4.82-2.07,2.55-4.61,4.61-7.64,5.92-2.55,1.17-5.3,1.86-8.13,1.52-.34-.07-.69-.07-.96-.14-.34,0-.9,.41-.96,.76-.34,1.31-.83,2.62-.69,3.93-.11,4.48-1.54,8.87-3.65,12.81-.69,1.17-1.17,2.34-1.31,3.79-.21,2.34-1.24,4.55-2.34,6.61-.76,1.52-1.65,2.89-2.48,4.41-.98,1.88-1.98,3.74-2.89,5.65-.69,1.24-1.65,2.2-3.03,2.48-2.56,.61-4.65,2.18-6.75,3.72-3.44,2.48-7.09,4.68-10.81,6.82-3.49,1.97-7.01,4.5-11.23,3.44-1.86-.41-3.79-.14-5.72-.28-.14,0-.41,.28-.48,.41-.63,4.92,.21,9.84-.48,14.74-.55,3.83-.43,7.82-.41,11.71-.07,1.79-.14,3.58-.28,5.37-.07,1.38-.07,2.69,.14,3.99,.44,4.82-.19,9.61,.34,14.39,.36,3.17-.28,6.51,.34,9.71,.07,.41,.07,.9,.07,1.31,.14,4.96,.21,9.85,.34,14.81,0,2.2,.31,4.51,.34,6.68,0,5.94,.43,11.9,.21,17.84,0,.55-.48,1.1-1.03,1.1-8.86,1.29-17.81,1.37-26.72,2.13-1.84,.2-3.84,.12-5.65,.28-2.13,.48-4.27,.28-6.34,.34-1.24,.07-2.48,.21-3.65,.21-3.25,.23-6.49-.23-9.71,.34-4.23,.32-8.52-.27-12.74,.28-10.18,.2-20.44,0-30.58,.07,0,0-3.65,.21-7.16,0-.21,0-.48,0-.69-.07-5.37-.78-10.76,.2-16.12-.55-.62-.14-1.31-.07-2-.07-3.72,.08-7.36-.28-11.09-.34-1.65,0-3.37,0-5.03-.28-4.39-.49-8.93-.24-13.36-.83-3.1-.34-6.27,.07-9.37-.62-.41-.07-.9-.07-1.31-.07-4.74,.02-9.36-.56-14.05-.83-.34-.07-.69-.14-1.03-.14-8.84-.31-17.56-1.37-26.38-2.07-.41-.07-.9-.14-1.31-.21-1.17-.28-2-.9-2.69-1.86-5.91-9.34-2.36-20.69-.14-30.65,3.22-13.01,7.39-25.85,10.33-38.91,.21-.9,.28-1.79,.41-2.62,.07-.34-.34-.96-.69-1.1-.41-.14-.83-.28-1.31-.41-2.13-.69-4.06-1.79-5.65-3.51-.9-.96-1.79-2-2.69-2.96-.62-.69-1.45-1.03-2.41-.76-2.19,.58-4.31,1.28-6.61,1.17-3.72,.07-7.02-1.24-10.05-3.24-1.45-.96-2.41-2.34-3.1-3.93-.9-1.86-1.38-3.79-1.38-5.85,.08-7.4-.53-14.8,1.03-22.11,.43-1.76,.88-3.6-.28-5.17-3.77-6.02-7.35-13.04-6.54-20.32,.81-5.57,3.1-10.76,4.75-16.12,1.1-3.31,3.1-5.92,5.99-7.92,1.44-1.05,2.96-2.05,4.2-3.31,1.17-1.58,2.62-2.69,4.34-3.65,.55-.28,.69-.9,.62-1.45-.54-3.08-2.09-5.93-3.1-8.88-2.75-7.09-5.58-14.19-8.95-21-2.69-5.3-2.62-10.54,.14-15.77,.21-.41,.41-.83,.55-1.24,.14-.21-.14-.76-.41-.83-.28-.14-.62-.28-.96-.34-14.14-2.98-28.24-6.46-41.11-13.22-4.52-2.26-8.92-4.73-13.08-7.64-1.38-1.03-3.03-1.38-4.27-2.62-1.1-1.1-2.41-2.07-3.58-3.03-3.86-3.1-7.58-6.27-10.95-9.92-5.6-5.46-10.93-11.33-14.39-18.46-5.96-11.45-11.98-22.78-17.84-34.23-3.87-7.84-9.95-14.02-15.77-20.38-4.33-4.58-8.97-8.78-13.77-12.88C7.8,51.34,1.79,46.78,.49,39.47c-1.82-8.29,1.41-17.93,9.23-21.83,3.06-1.65,6.4-2.79,9.85-3.1,3.93,0,7.85-.21,11.71,.48,7.96,1.09,15.94,1.99,23.9,3.17,19.25,2.94,38.19,7.66,57.23,11.85,14.91,3.49,29.94,6.75,44.76,10.61,3.86,1.24,7.85,1.79,11.85,2.34,.21,0,.41-.07,.83-.14,1.93-3.03,4.96-4.89,8.13-6.61l11.78-6.4c18.96-10.31,38.84-19.24,59.78-24.65,7.63-2.15,15.5-3.53,23.35-4.68,5.97-.87,12.12-.52,18.11,.28,22.69,3.52,44.8,10.54,65.49,20.45,8.2,3.99,15.77,8.95,22.93,14.6,1.65,1.31,3.31,2.69,5.17,3.72,1.03,.55,1.79,1.38,2.55,2.2,3.33,3.69,8.35,3.4,12.88,2.89,5.67-.89,11.43-.12,17.15-.69,10.64,.02,21.26-.3,31.95-.41,3.93-.07,7.85,.21,11.78-.41,5.16-.1,10.27,.24,15.43-.21h1.03c11.87,.17,23.74,.37,35.6-.07,.41,0,.9-.07,1.31-.21,3.44-1.24,7.09-1.1,10.61-1.31,5.61-.31,11.09-1.02,16.67-1.45,3.24-.28,6.47-.69,9.64-1.17,7.09-.96,13.6,4.16,16.94,10.05,.41,1.31,.83,2.75,1.17,4.2h-.03ZM160.82,193.87c5.75,9.63,11.18,19.42,18.8,27.75,.9,.96,1.86,2,2.89,2.82,10.79,9.39,22.47,19.37,36.91,22.24,5.41,1.05,10.7,2.27,16.12,3.1,.69,.07,1.38,.07,2,0,1.52-.14,2.41-1.38,2.13-2.82-.48-2.62-.96-5.3-1.45-7.92-.9-4.82-2.07-9.64-2.62-14.53-.71-4.08-1.76-8.1-2.13-12.26-.62-2-.21-3.99,.14-5.99,1.03-5.1,3.86-8.68,8.4-11.09,1.86-.96,3.79-1.38,5.78-1.52,3.37-.28,6.68-.62,9.99-.96,.96-.14,2-.34,2.96-.55,.14,0,.21-.28,.34-.41,0,0-.14-.21-.21-.21-2.27-.14-4.41-.69-6.61-1.24-1.52-.34-3.1-.69-4.61-.69-4.75-.41-9.41,.33-13.98,1.65-1.99,.64-3.98,.26-5.99,.14-1.45-.07-2.34,.69-2.96,1.86-.28,.62-.48,1.24-.76,1.86-.87,1.27-2.84,.65-4.06,.28-1.93-.69-3.79-1.31-5.72-2-4.55-1.73-9.41-2.16-14.26-1.45-3.78,.59-7.33,1.9-10.81,3.44-2.74,1.12-4.56-1.73-6.75-2.96-3.99-2.69-7.99-5.37-12.05-7.99-1.83-1.32-4.08-2.86-4.13-5.37-.07-.55,0-1.1,0-.96,.07-1.03,.14-1.38,.14-1.72,0-.48-.48-.83-.9-.62-1.79,.9-3.37,2.13-4.61,3.79-1.45,1.86-2.48,3.99-3.37,6.13-.96,2.48-.76,4.82,.41,7.09,.48,.34,.76,.76,.96,1.1h0Zm218.72,13.3c6.46-2.97,12.19-6.96,17.29-11.91,4.26-3.71,7.02-10.48,3.86-15.7-.21-.41-.48-.83-.83-1.03-1.58-1.24-3.1-2.55-4.89-3.51-.62,.34-.62,.9-.83,1.45-1.53,4.54-6.34,6.26-10.61,7.16-7.69,1.16-15.56,1.84-23.35,2.13-.41,0-.9-.07-1.31,.07-1.31,.41-2.69,.28-3.99,.34-3.17,.19-6.57,.41-9.71,.62-3.79,.21-7.58,.83-11.36,.76-1.65,.48-3.37,.21-5.03,.34-2.13,.21-4.2,.41-6.34,.62-7.42,.67-14.99,1.44-22.31-.41-.83-.21-1.58-.14-2.27,.14-.34,.07-.62,.28-.96,.34-5.99,2.34-12.26,3.51-18.46,4.96-6.38,.86-12.66,3.14-19.08,3.72-5.06,.93-10.39,.36-15.22,2.2-4.49,1.67-7.02,6.27-6.68,10.95,.97,7.38,2.48,14.78,3.93,22.11,.95,6.26,3.09,12.49,2.55,18.87,0,.41-.21,.9-.34,1.31-.28,.69-.69,1.17-1.45,1.24-2.82,.24-5.45,1.21-8.26,.34-2.07-.48-4.13-.83-6.27-1.24-.69-.14-1.38,.28-1.52,.96-.62,2.41,0,3.24,1.93,3.93,.34,.14,.62,.21,.96,.21,9.24,1.46,18.57,3.32,27.96,3.51,.9,0,1.79,.07,2.69,0,1.45-.07,2.89-.14,4.34-.28,7.17-.7,14.51-2.25,21-5.37,2.13-1.03,4.34-1.65,6.75-1.72,5.85,.1,10.99-3.32,14.94-7.37,3.07-3.09,7.16-5.12,11.09-6.82,13.66-5.85,27.31-11.99,41.39-16.67,3.5-.95,5.92-3.5,8.82-5.51,3.65-2.41,7.23-4.89,11.16-6.89,.21-.07,.41-.21,.55-.34,.28-.21,.55-.34,.83-.55,.9-.62,.9-1.1,0-1.79-.48-.21-1.03-.34-.96-1.17h-.01Zm-201.85,59.85c0,.55,.28,.9,.69,1.03,2.82,1.17,5.3,2.89,7.71,4.75,2.95,1.95,5.45,4.82,8.95,5.85,.34,.07,.96-.28,1.03-.69,.8-10.04,1.74-19.94,2.55-29.96,.28-1.32,.4-2.83-.76-3.24-.9-.41-1.86-.83-2.75-1.24-7.16-2.82-13.7-6.54-19.77-11.29-.65-.49-1.52-1.41-2.41-.9-2.41,1.45-4.61,3.17-6.54,5.23-1.06,1.1-.22,2.6,.07,3.79,.28,1.65,.41,3.31,.76,4.96,1,6.12,3.88,11.71,7.99,16.32,1.45,1.45,2.55,3.17,2.48,5.37v.02Zm19.83,37.6c-.28,.76,.28,1.38,1.03,1.24,5.57-.91,9.37-5.62,13.02-9.57,6.92-8.4,10.62-19.22,10.4-30.1h.14c-.07-1.24-.07-2.41-.14-3.65-.28-3.24-.9-6.4-.76-9.71-.03-.92-.98-1.12-1.72-1.38-5.15-1.16-10.09-2.93-15.15-4.27-.21-.07-.41-.07-.69-.07-.21,0-.69,.34-.69,.62-.14,1.1-.14,2.2-.28,3.31-.85,6.75-1.27,13.54-1.86,20.32-.28,2.75-.55,5.58-.76,8.33-.3,2.56,1.57,4.86,1.79,7.37,.54,3.41-.93,6.84-1.86,10.05-.9,2.62-1.72,5.03-2.48,7.51h0Zm-27.48-9.23c-3.81-2.73-6.98-6.39-8.61-10.81-.45-.97-.7-2.21-1.65-2.75-.34-.21-1.03,0-1.1,.34-1.32,5.89-3.05,11.1-3.03,17.42,.07,.96,.07,2.27,.14,3.65,.07,.9,.28,1.79,.48,2.62,.28,.9,.9,1.58,1.79,1.86,3.47,.76,8.77,2.08,10.33-2.27,.78-2.31,1.27-4.74,2.34-6.96,.76-1.65,.83-2.07-.69-3.1h0Zm9.23-.83c3.17,2.48,6.4,4.89,9.64,7.3,.69,.48,1.31,.41,1.72-.28,2.36-3.66,5.33-7.31,6.89-11.5,.48-1.24,.28-2.41-.48-3.51-.41-.55-.83-1.03-1.38-1.45-.62-.48-1.31-.9-2-1.31-3.58-2.27-7.16-4.61-10.4-7.37-.69-.55-1.38-1.1-2.13-1.65-2.07-1.45-4.27-1.93-6.68-.9-.48,.21-1.03,.41-1.58,.55-.34,.14-.96-.48-.9-.83,.34-1.31,.76-2.55,1.03-3.86,.71-2.56-.35-4.9-2.07-6.75-5.37-5.97-7.4-14.09-8.61-21.83-.07-.21-.21-.34-.41-.48-.34-.21-.69-.07-.9,.14-.41,.41-.83,.76-1.1,1.24-3.77,5.45-4.71,11.8-4.89,18.46,.16,5.5,1.66,11.53,6.2,15.08,1.45,1.17,2.62,2.48,3.58,3.99,1.86,2.96,4.34,5.37,6.61,7.99,.21,.28,.48,.48,.69,.69,2.41,2.2,4.68,4.34,7.16,6.27h0Zm2.82,18.67c2.29-1.18,4.63-3.53,7.37-2.2,.62,.28,1.1,0,1.38-.55,.21-.48,.41-1.03,.55-1.58,.21-.55-.14-1.24-.69-1.38-3.03-.76-5.51-2.48-7.92-4.27-1.3-.82-2.54-1.85-3.86-2.69-.76-.41-1.58-.83-2.41-1.24-.62-.28-1.17,.07-1.24,.62v.69c.55,4.41,2.07,8.47,4.68,12.05,.62,.76,1.38,.96,2.13,.55h.01Zm64.6-14.81c1.38-6.82,2.69-13.64,4.48-20.32,.55-2.07,1.03-4.13,1.52-6.2,.34-1.52,.21-2.13-1.65-1.93-.9,.07-1.79,.28-2.69,.21-1.72,0-3.37,.21-5.03,.55-1.1,.21-2.2,.41-3.31,.62-4.81,1.08-9.22-1.67-13.08-4.06-.28-.14-.62,0-.96,.07-1.31,6.05-1.98,12.17-3.86,18.11-1.65,5.92-3.51,11.78-6.13,17.42-2.29,5.3-6.05,9.63-11.78,11.09-.76,.21-1.52,.14-2.34-.07-1.58-.48-2.75-1.45-3.58-2.89-.41-.76-.76-1.65-1.17-2.41-.14-.21-.48-.34-.83-.48-.28,.48-.55,.83-.62,1.24-1.97,6.12-2.92,12.33-4.75,18.53-1.03,3.51-2.13,7.09-2.41,10.81-.76,2.27-.07,4.48,.55,6.61,.64,2.14,2.46,3.93,4.68,4.41,7.88,.88,14.39-4.82,19.7-9.92,3.17-3.03,5.92-6.4,8.82-9.71,.48-.62,1.1-1.1,1.65-1.65,.07-.07,.28-.07,.34,0,.31,.27,.38,.86,.14,1.17-3.86,7.02-8.87,13.27-15.22,18.18-6.85,4.93-13.96,9.28-21.35,13.36-3.09,1.67-6.76,3.55-6.89,7.51-.42,6.37-.78,12.62,.21,19.01,.55,.14,.83,.28,1.17,.34,12.13,2.02,24.35,3.35,36.57,4.61,1.65,.21,3.37,.07,5.03,.34,2.82,.48,5.58,.21,8.4,.34,2.34,.14,4.68-.55,7.02-.48,.76,0,1.58-.21,2.34-.28,.21,0,.41-.07,.62-.14,.69-.21,1.31-1.1,1.24-1.79-.28-1.79-.55-3.51-.76-5.3-.34-2.34-.69-4.68-.9-6.96-.28-3.99-.9-7.99-.76-12.05,0-.34,0-.69-.07-1.03-.34-1.31-.28-2.69-.21-3.99,.14-6.4-.34-12.74,.34-19.15-.04-6.76,.94-13.62,1.79-20.32,.96-7.99,2.13-15.7,3.72-23.42l.02,.02Zm32.37-2.55c.55-2.27,.41-4.68,.69-7.02,.61-5.25,1.14-10.41,1.72-15.7,.21-.96,0-2-.07-2.96-.1-.38-.8-.57-1.17-.41-3.44,.96-7.02,1.31-10.61,1.72-3.35,.16-6.99-.52-10.33-1.17-.34-.07-.69-.14-.96,0-.28,.07-.69,.28-.76,.48-4.45,17.43-8.46,35.13-10.12,53.1-1.98,22.27-1.26,44.98,4.13,66.73,.41,1.1,1.24,2,2.41,2.07,2,.14,3.99,.69,5.99,.55h.69c3.65-.48,7.37-.55,11.02-1.24,1.5-.42,3.75-.38,3.93-2.41,.49-2.08-.16-4.17,0-6.34,.11-9.18-.22-18.38,.14-27.55,.41-2.89,.21-5.78,.28-8.75,.07-1.45,0-2.89,.21-4.34,.31-2.68-.14-5.37,.14-8.06,0,0,.48-13.22,1.31-22.24,0-.48,.07-1.03,.14-1.52,0-.28,.07-.55,.07-.83,.15-4.7,1.03-9.47,1.17-14.12h-.02Zm81.95,86.23c-.34-3.03-.21-6.06-.28-9.09,.02-2.03-.29-4.03-.34-6.06-.04-7.95,.03-15.95,0-23.9,0-.62,.21-1.31-.28-1.93-.48,0-1.03-.07-1.58-.07-.21-.69-.21-1.38-.14-2,.48-2.96,.69-5.99,.62-9.02,.31-3.46,.63-6.93,.21-10.4-.07-1.03-.21-2-.21-3.03-.07-2.34-.14-4.68-.28-7.02-.74-7-1.24-13.87-3.37-20.66-.28,.14-.69,.28-.69,.41-2.92,11.62-4.51,23.64-10.12,34.37-.2,.41-.82,1.01-1.24,.55-.14-.41-.34-.83-.34-1.24,.14-4.27-.21-8.54-.41-12.74-.07-1.79,.28-3.24,1.17-4.75,3.72-6.34,5.99-13.22,7.3-20.45,.69-3.65,1.45-7.23,1.38-10.95,.55-2.07,.34-4.2,.34-6.34,0-2.82,.07-5.58,0-8.4-.07-3.17,.34-6.27,1.03-9.3,.55-2.48,1.65-4.61,3.86-6.06,.28-.21,.55-.41,.83-.55,.83-.55,1.17-1.31,1.45-2.2,.56-4.22,1.69-8.32,3.17-12.33,.07-.34,.07-.69,0-.96-.07-.14-.28-.41-.41-.41-.41,.07-.9,.14-1.31,.28-1.31,.34-2,1.24-2.41,2.55-8.71,26.31-19.45,52.99-39.05,73.21-2.41,2.62-5.23,4.89-7.99,7.16-2.2,1.72-4.41,3.51-6.82,4.89-.9,.48-1.45,.48-2.13-.07-2.07-1.72-4.06-3.51-6.06-5.3-.34-.28-.62-.62-.62-1.24,.34-.14,.69-.34,1.1-.48,1.03-.41,2.13-.69,3.17-1.1,3.17-1.1,6.13-2.69,8.88-4.68,6.1-4.58,11.67-9.81,16.6-15.63,8.41-9.9,15.17-21.16,20.66-32.85,2.75-5.78,5.17-11.71,7.44-17.63,.69-1.86,1.31-3.79,1.93-5.72,.07-.21-.07-.41-.07-.62-.07-.21-.62-.34-.9-.21-.14,.07-.21,0-.34,.07-9.59,4.52-18.53,10.51-28.24,14.74-2.14,.9-3.93,2.13-5.37,3.93-2.82,3.58-6.06,6.89-9.16,10.26-3.97,4.25-9.82,6.6-15.63,6.61h-6.75c-1.38,.07-2.34,.76-2.75,2.07-.28,.76-.41,1.52-.55,2.27-1.6,11.03-3.09,22.21-3.72,33.33-.48,1.79-.14,3.58-.34,5.37-.34,2.69-.41,5.37-.62,7.99-.42,4.79-.77,9.6-.76,14.39,0,.34,0,.69-.07,1.03-.41,1.45-.28,2.89-.34,4.34,0,1.38,.14,2.69-.07,4.06-.41,3.24-.21,6.47-.21,9.71-.07,2.34,.14,4.68-.34,7.02-.14,.62-.07,1.31-.07,2,.07,8.29-.13,16.59,.07,24.86,.6,2.43,.22,4.86,.41,7.3,.1,.78,1.23,1.04,1.86,1.03,3.92,.18,7.74,.91,11.71,.9,2.89,.14,5.85,0,8.75,.41,.41,.07,.9,.07,1.38,0,3.58-.07,7.16,.28,10.74-.41,.34-.07,.69,0,1.03,0,4.13,0,8.26-.14,12.4-.69,10.97-1.21,22.13-2.3,32.71-5.72,.14-.34,.28-.69,.34-.96-.14-1.24,0-2.62-.14-3.93h-.02Zm51.86-129.28c-.11-1.67,.65-3.93-2.07-3.58-2.75,.28-5.58,.55-8.33,.83-1.03,.14-1.86,.69-2.55,1.52-.9,1.17-1.79,2.27-2.82,3.31-2.89,2.95-5.35,6.3-8.54,8.95-.07,.07-.21,.07-.28,.07-.21-.07-.48-.28-.48-.34-.17-4.14-.01-8.3-1.1-12.33-1.1-4.55-2.34-9.09-3.44-13.7-2.32-8.07-2.37-15.11,2.89-22.04,4.55-5.5,9.92-10.37,15.5-14.81,.07-.07,.07-.21,.14-.28,.14-.21-.07-.76-.34-.83-1.17-.41-2.2-.07-3.17,.55-1.38,.83-2.48,2-3.44,3.17-5.57,6.09-12.06,11.48-18.73,16.32-1.52,1.1-2.96,2.41-4.27,3.72-1.58,1.65-2.75,3.58-3.37,5.72-1.31,4.41-2.41,8.82-2.82,13.43-.07,1.1-.07,2.2,.14,3.31,.14,.62,.34,1.31,.48,1.93,.21,.83,0,1.24-.69,1.72-5.34,3.21-5.74,2.97-4.06,9.23,1.82,7.1,3.9,14.35,7.71,20.66,1.65,2.69,3.93,4.82,6.75,6.4,3.37,1.93,9.09,1.79,12.05,.28,2.07-1.1,4.13-2.2,6.2-3.44,8.38-4.95,15.35-12.79,17.63-22.38,.69-2.13,1.17-4.61,1.03-7.37l-.02-.02Zm-20.94-33.75c.55-.21,.48-.69,.55-1.17-.28,.34-.41,.69-.55,1.17Zm19.08-19.35c-5.17,3.03-9.78,6.68-13.84,11.09-1.86,2-3.51,4.2-4.48,6.82,1.27-.93,2.71-1.78,4.2-2.34,2.07-.69,4.68,.62,5.3,2.82,.42,1.89,.65,4.29-1.17,5.44-2.1,1.48-4.78,.81-7.09,.48-.41-.07-.83-.34-1.17-.62-.48-.34-.76-.83-.83-1.38-.07-.96-.07-1.86-.07-2.82l-.41,.41c-6.7,11.16-2.06,22.92,.69,34.5,.07,.21,.14,.41,.28,.62,.14,.34,.62,.48,.83,.21,.69-.9,1.38-1.79,1.93-2.75,1.73-2.78,2.99-6.49,6.75-6.89,.34-.07,.69,0,1.03-.07,4.41-.76,8.33-2.48,11.43-5.78,1.12-1.17,2.44-2.5,4.2-2.2,2.04,.04,3.15-1.92,4.75-2.82,.34-.28,.83-.41,1.24-.48,1.1-.14,2.2-.21,3.31,.34,.62,.28,1.17,.62,1.86,.83,1.31,.48,2.62,.55,3.93,.07,3.07-.94,5.11-3.29,5.99-6.34,.98-3.75-2.48-6.57-4.75-9.09-2.82-2.89-6.27-4.61-10.12-5.58-.9-.21-1.72-.41-2.69-.62,.14-.41,.14-.83,.34-.96,2.48-1.78,5.22-3.16,6.54-6.06,1.61-2.89,2.34-11.16-2.13-11.64-1.58-.14-3.1,0-4.68,.34-3.93,.96-7.64,2.41-11.16,4.48h0ZM559.54,53.81c-.55-1.45-1.58-2.48-3.1-2.75-.9-.21-1.79-.41-2.69-.28-2.2,.34-4.48,0-6.68,.55-1.37,.21-2.92-.03-4.34,.14-3.93,.28-7.78,.62-11.71,.9-1.45,.14-2.89,.28-4.34,.41-6.51,.18-12.88,1.42-19.35,1.38-1.88,.06-3.75,.59-5.65,.41h-16.46c-1.45,0-2.89,.07-4.34,.28-2.94,.39-6.04,.13-9.02,.07-20.61,.18-41.29-.51-61.84,.55-5.17,.18-10.45,1.72-15.63,1.38-.76-.07-1.52-.28-2.27-.48-1.65-.48-3.1-1.31-4.48-2.34-1.58-1.24-3.17-2.48-4.89-3.51-4.89-3.03-9.43-6.4-14.05-9.85-2.48-1.86-5.1-3.72-7.99-5.03-23.76-10.57-48.16-21.91-74.38-24.24-17.21-1.07-34.07,3.99-49.93,10.12-12.02,4.54-23.81,9.92-34.98,16.32-2,1.17-4.34,2-5.99,3.72-1.65,1.65-4.06,1.93-5.78,3.31-.21,.14-.34,.28-.55,.34-3.79,2.55-7.64,5.17-11.43,7.71-2.61,1.75-5.63,3.18-8.82,2.34-4.92-.77-9.56-2.39-14.32-3.86-9.93-2.95-19.87-5.44-29.89-7.92-.76-.21-1.52-.34-2.13-.9-.41-.41-1.03-.48-1.58-.48-2.41,.21-4.68-.55-6.96-.96-10.64-2.26-21.27-4.41-31.95-6.54-13.33-2.5-26.58-5.1-39.87-7.71-4.2-.9-8.4-1.1-12.6-1.52-3.1-.28-6.27,.28-9.37,.76-1.1,.14-2.13,.62-3.17,1.03-1.86,.69-3.17,2.07-4.2,3.72-2.99,4.39,1.01,8.82,3.93,11.98,7.44,7.44,14.94,14.88,22.38,22.31,4.34,4.27,8.13,8.95,11.5,13.98,4.13,6.2,7.44,12.74,9.92,19.77,1.38,3.93,2.96,7.71,4.96,11.43,4.71,8.97,11.13,17.22,18.66,24.03,5.66,5.56,12.07,10.34,18.66,14.74,11.87,7.92,25.38,13.01,39.32,15.91,5.17,1.1,10.33,2,15.56,2.62,3.99,.48,8.06,.62,11.98,1.58,.76,.21,1.58,.14,2.34-.07,.41-.14,.76-.69,.62-1.03s-.21-.62-.34-.96c-.69-1.38-1.45-2.82-2.2-4.13-.76-1.38-1.45-2.75-1.79-4.34,0-.15,.24-.47,.41-.34,.28,.14,.62,.28,.83,.48,2.2,1.86,3.58,4.27,4.89,6.82,2.27,4.55,5.3,8.54,9.09,11.98,5.95,5.67,14.27,9.25,22.59,8.26,11.21-1.39,21.95-5.39,32.99-7.78,.14,0,.28,.21,.41,.34,.07,.07,0,.28-.07,.28-.41,.34-.9,.69-1.38,.96-4.89,2.56-9.85,4.74-14.88,6.96-.44,.15-.78,.48-.76,.96,.07,.21,.21,.41,.41,.48,1.24,.41,2.41,.41,3.58-.21,1.93-1.1,3.99-1.45,6.2-1.1,1.17,.21,2.2,.07,3.31-.14,3.32-.88,6.82-1.27,10.26-1.52,2.89-.7,5.79,0,8.68,.14,1.03,.07,2,.14,3.03,.21,1.65,.07,3.31,.34,5.03,.48,6.82,.35,13.47,2.59,20.32,1.58,5.39-.88,10.58-2.93,15.77-4.48,2.07-.69,4.2-.83,6.27-.21,1.86,.48,3.72,.69,5.65,.69,4.44-.05,9,.11,13.43-.07,1.31-.07,2.69-.21,3.99-.21,1.45,.07,2.89-.41,4.34-.48h.69c3.37-.07,6.75-.21,10.05-.28,1.45,0,2.57-.5,4.13-.83-5.8-1-11.13-1.47-16.8-2.48-.62-.07-1.24-.41-1.86-.62-.13-.03-.08-.52,.07-.55,.28-.14,.62-.34,.96-.34,3.67,.31,7.35,.8,11.02,.9,2.82-.07,5.58,.21,8.4-.41,18.56-.98,37.91-7.17,48.76-23.42,.28-.48,.69-.83,1.1-1.24,.07-.07,.21-.07,.28,0,.07,0,.28,.07,.28,.14,0,.9,.21,1.79,0,2.69-.62,2.75-1.31,5.44-2.69,7.92-.33,.61-.56,1.21-.76,1.86-.07,.28,.21,.69,.48,.83,14.26,3.85,34.43-1.58,48.48-5.51,24.76-7.04,45.89-14.74,61.98-36.16,10.42-13.75,21.55-26.92,32.92-39.87,3.81-4.08,7.45-8.35,11.36-12.4,1.72-1.79,3.44-3.51,5.03-5.37,3.2-3.81,4.64-9.11,2.96-13.84h0Zm-48.26,16.8c-2.22-.25-4.4,.55-6.61,.76-4.41,.76-8.82,1.38-13.29,2-5.23,.76-10.47,.55-15.77,.41-10.4-.41-20.88,.24-30.92,3.17-4.68,1.52-9.37,2.96-14.12,4.48-7.32,2.26-13.65,6.78-19.01,12.19-3.44,3.86-6.4,8.06-8.88,12.6-1.1,1.93-2.13,3.93-2.96,5.99-.9,2.07-.96,4.2,.41,6.13,1.45,2.07,2.07,4.41,2.62,6.82s.55,4.89,.9,7.3c-.05,2.12-.33,4.92-.76,7.02-.38,2.2-1.3,4.27-1.79,6.4-.21,.96-.28,2,.21,2.96,.07,.14,.28,.28,.48,.34,.07,0,.21-.07,.28-.21,.48-.96,1.03-2,1.45-3.03,1.31-3.1,2.55-6.2,3.31-9.5,.48-1.93,.96-3.93,1.24-5.92,.34-2,.55-3.99,.69-5.99,.34-4.96,2-9.43,4.82-13.43,4.22-5.94,8.72-11.67,14.32-16.32,12.29-11.68,26.56-11.25,42.01-14.94,6.09-1.66,12.47-1.08,18.66-2.2,7.5-1.31,14.86-3.32,21.97-6.06,.28-.14,.55-.34,.83-.55,.07-.07,.07-.21,.07-.34-.07,.07-.07-.07-.14-.07h-.02Zm-250.13,6.46c.56,.74,1.68,1.03,1.72-.41v-1.03c.41-6.18-4.22-10.67-8.13-14.81-4.66-4.65-9.32-9.34-13.98-13.98-1.24-1.17-2.75-1.86-4.41-2.27-1.37-.26-3-.39-4.2,.48-.21,.14-.28,.83-.07,.9,1.03,.69,2,1.38,3.1,2,4.64,2.67,8.88,6.11,12.53,10.05,4.74,4.7,8.48,10.5,11.71,16.32,.48,.9,1.1,1.79,1.72,2.75h.01Zm16.87-27.34c1.58,5.17,2.07,10.47,1.52,15.84-.07,.9-.07,1.79,0,2.69,.07,1.38,.48,2.62,1.38,3.65,.07,.07,.48,.14,.55,.07,.28-.48,.62-.96,.76-1.45,.48-2.2,.83-4.41,.76-6.54-.08-5.41-.97-10.8-3.58-15.5-.14-.21-.21-.41-.34-.55-.95-1.25-1.56-.52-1.38,.62,.07,.28,.21,.76,.34,1.17h-.01Zm-120.48,43.94c-8.44-16.79-26.9-25.54-44.63-28.86-3.24-.48-6.27-1.58-9.23-2.96-5.13-2.27-10.22-4.61-15.5-6.54-.21,.28-.62,.48-.62,.69,.06,1.44-.67,3.46,.96,4.27,2.14,1.03,4.27,2.07,6.27,3.24,4.75,2.69,9.78,4.96,14.81,7.16,5.52,2.63,11.71,4.15,16.73,7.71,7.15,4.86,12.81,11.52,17.84,18.53,2.27,3.1,4.2,6.34,6.2,9.57,.82,1.56,.76,3.52,.96,5.23,.89,11.32,3.52,22.35,6.68,33.19,.21,.69,.48,1.24,1.24,1.45,1.88-.48,.71-4.67,.41-6.13-.96-3.72-1.58-7.44-1.52-11.29-.12-7.24,1.38-14.55,3.72-21.42,.21-.69,.28-1.31,.07-2-1.03-4.06-2.48-8.06-4.41-11.85h.02ZM88.51,55.31c-3.24-1.65-6.89-2.75-10.26-4.06-6.51-2.21-13.03-4.79-19.77-6.27-.41-.07-.9,0-1.31,0-.07,.14-.07,.28-.14,.48,2.43,1.32,5.04,2.33,7.58,3.37,7.89,3.21,15.57,6.83,23.14,10.54,1.97,.93,1.4-1.83,1.38-2.96,0-.48-.28-.9-.62-1.1Zm177.13,87.81c.41,.21,.83,.34,1.24,.41,2.62,.55,5.23,1.1,7.85,1.65,.41,.07,.9,.14,1.31,.14,.41,.07,.76-.41,.76-.9,.07-1.4-1.29-2.41-2.62-2.55-.9-.14-1.79-.21-2.69-.28-1.1-.14-1.93-.62-2.48-1.52-3.12-4.19,.05-10.19,4.68-11.57,2-.69,4.13-1.03,6.27-.83,4.08,.29,7.95,1.48,11.29,3.86,.55,.34,1.03,.9,1.38,1.45,1.03,1.93,.96,3.86,0,5.78-.21,.34-.55,.69-.96,.9-.55,.34-1.24,.55-1.86,.76-.76,.21-1.52,.34-2.27,.62-1.65,.55-2.89,1.65-3.72,3.17-.48,2.25,4.63,.42,5.85,.41,4.22-.57,6.88-4.58,7.09-8.61-.43-3.29-1.92-6.75-5.03-8.26-3.79-1.86-7.71-3.03-12.6-3.03-8.08,0-16.19,7.81-15.15,16.25,.21,.96,.83,1.72,1.65,2.13v.02Zm-40.56-70.57c-31.66,4.87-45.73,43.9-23.16,67.3,4.58,4.8,8.69,7.46,15.23,9.95,4.44,1.66,6.02,1.95,11.62,2.17,21.17,1.68,41.2-16.29,41.59-37.67,1.46-18.66-11.2-35.04-28.38-40.37-4.09-1.24-12.93-1.97-16.9-1.38Zm11.34,9.78c23.86,4.93,33.4,34.89,15.17,51.97-12.26,11.56-31.43,11.11-42.87-1.08-18.54-19.73-4.87-51.07,22.41-51.57,.83,.02,3.18,.33,5.29,.69h0Zm-11.87,4.13c-7.37,1.73-14.14,7.2-17.77,14.29-1.88,3.72-2.02,4.31-2.2,10.73s-.09,7.02,1.57,10.85c10.52,23.92,45.11,20.87,50.61-5.18,3.94-18.04-14.01-35.46-32.21-30.69Zm2.25,1.9c-.06,1.89-3.88,13.4-6.22,18.88-2.91,6.76-9.46,18.61-10.28,18.58-.24,0-.92-.97-1.59-2.11l-1.12-2.04c4.95-7.35,9.65-17.3,12.34-26.37,1.58-5.5,2.02-6.37,3.33-6.81,1.85-.65,3.56-.66,3.54-.13Zm19.75,4.77l1.9,1.65c-3.47,14.33-8.45,28.05-16.45,39.76-1.42,2.14-1.9,2.48-3.67,2.43-3.6-.11-3.81-.76-1.65-4.18,7.2-10.8,14.09-28.99,17.15-41.28,.07-.47,1.12,.15,2.73,1.61h0Zm6.57,23.4c-2.12,5.78-6.63,14.68-7.96,15.7-.42,.34,.65-2.16,2.41-5.59s4.09-8.73,5.19-11.89c1.15-3.09,2.1-5.19,2.2-4.66,.1,.59-.75,3.46-1.84,6.44Zm74.09-41.14c-43.5,5.98-48.96,64.36-7.31,78.16,20.87,5.87,42.2-5.31,49.27-25.99,8.53-27.65-13.37-54.66-41.96-52.16h0Zm10.91,10.23c37.89,10.45,26.82,64.86-12.02,59.55-10.22-1.78-18.24-7.97-22.62-17.48-10.71-22.51,10.69-48.11,34.64-42.06h0Zm-12.02,3.47c-9.13,1.56-17.69,9.51-20.57,19.17-4.77,15.79,8,32.93,24.75,33.48,10.2,.3,20-5.67,24.82-15.03,1.88-3.72,2.02-4.31,2.21-10.79s.14-6.9-1.85-11.27c-5.27-11.54-16.77-17.61-29.35-15.56h0Zm13.79,2.82c1.64,.58,1.86,1.06,2.62,5.21,1.49,7.6,5.81,19.29,9.51,25.77,1.09,1.92,1.28,3.52,.57,4.8-.62,1.04-1.36,1.97-1.71,2.07-1.67,.54-10.16-19.66-12.46-29.7-2.36-10.04-2.37-9.63,1.48-8.16h-.01Zm-18.71,10.02c2.61,11.64,7.37,24.18,12.64,33.66,2.25,3.9,1.99,4.54-1.78,4.43-1.95-.06-2.23-.3-4.2-3.84-6.26-11.03-11.44-26.99-13.14-38.69-.16-.65,.52-1.46,1.96-2.42,1.26-.79,2.4-1.29,2.51-1.17,.17,.12,1.07,3.75,2.01,8.03Zm-7.63,26.8c1.55,3.47,2.42,5.91,2.02,5.55-2.13-1.83-8.75-19.44-8.6-22.8,.08-.76,.96,1.39,1.98,4.84,1.02,3.39,3.1,9,4.59,12.41h.01Zm-108.86-50.83c-15.63,3.79-30.99,10.3-38.01,16.11-3.87,3.19-3.59,3.79,1.89,4.13l4.54,.31-.73,24.76c-1.5,.11-9.54-.29-8.99,.8,.48,1.78,7.7,7.01,15.14,10.89,9.33,5.04,17.07,7.91,26.83,10.82l-3.21-3.22c-4.42-4.38-6.91-7.88-9.18-12.78-7.93-16.45-3.3-37.37,10.71-49.08,2-1.83,3.58-3.26,3.4-3.26s-1.25,.26-2.38,.52h0Zm155.69,7.65c4.93,4.98,8.53,11.11,10.68,17.96,1.56,5,1.7,6.25,1.52,12.61-.23,7.96-1.24,12.12-4.68,18.51-3.18,6.29-7.9,10.98-13.26,15.43,9.78-2.3,20.58-5.76,29.45-10.05,6.23-3,13.09-7.58,13.61-9.1,.62-1.05-7.45-1.12-8.93-1.32,.08-6.25,.3-18.82,.44-25.07l4.72,.14c5.54,.16,5.97-.41,2.64-3.52-7.24-6.99-24.89-15.1-39.91-19.41l3.72,3.83h0Zm-89.35,16.19c1.5,5.3,1.48,15.92-.09,21.12-.52,1.76-.98,3.28-.98,3.33-.46,.22,21.68,.88,21.23,.62-2.13-6.69-1.89-18.95,.82-25.77l-21.35-.63,.37,1.31v.02Zm-108.56-.83c-.8,1.04-1.03,3.04-1.23,9.64-.31,10.55-.09,11.03,5.58,10.9l3.84-.06c.26-5.36,.72-16.15,.93-21.51l-4.07-.12c-3.6-.11-4.25,.05-5.05,1.15h0Zm228.27,16.15l-.14,10.8c1.95,.15,7.37,.73,8.32-.11,.66-.51,.91-2.75,1.14-10.53,.33-11.32,.67-10.6-5.35-10.78l-3.77-.11-.2,10.73Z"/></g></g></g></g></svg>