<?xml version="1.0" encoding="utf-8"?>
<!-- Generator: Adobe Illustrator 26.1.0, SVG Export Plug-In . SVG Version: 6.00 Build 0)  -->
<svg version="1.1" id="Layer_1" xmlns="http://www.w3.org/2000/svg" xmlns:xlink="http://www.w3.org/1999/xlink" x="0px" y="0px"
	 viewBox="0 0 808 439" style="enable-background:new 0 0 808 439;" xml:space="preserve">
<style type="text/css">
	.st0{fill:#4E4832;}
</style>
<g transform="translate(0.000000,439.000000) scale(0.100000,-0.100000)">
	<path class="st0" d="M474,4356c-225-92-344-190-434-357l-30-57V2195V448l30-57c84-157,228-276,426-352l75-29h3350h3351l95,40
		c192,80,330,198,395,336c34,72,48,197,48,434c0,80,3,255,7,390l6,245h61c79,0,162,43,189,97c29,59,40,280,33,703
		c-6,393-12,472-44,515c-33,43-108,75-178,74h-61l-6,269c-4,149-7,343-7,431c0,89-5,217-10,286c-13,161-39,221-150,330
		c-84,83-143,121-282,183l-93,42l-3345,2l-3345,2L474,4356z M5850,4091l1295-8l58-22c36-14,79-43,114-75l55-51l9-230
		c14-402,21-2155,11-2696c-11-578-7-546-87-617c-68-60-115-73-305-82c-221-12-5878-12-6145,0c-268,11-284,14-358,65
		c-74,50-84,73-97,220c-13,139-12,3060,0,3203c13,145,25,173,92,215c123,77,12,71,1263,77C3439,4099,4421,4099,5850,4091z"/>
</g>
</svg>
