<?xml version="1.0" encoding="utf-8"?>
<!-- Generator: Adobe Illustrator 26.1.0, SVG Export Plug-In . SVG Version: 6.00 Build 0)  -->
<svg version="1.1" id="Layer_1" xmlns="http://www.w3.org/2000/svg" xmlns:xlink="http://www.w3.org/1999/xlink" x="0px" y="0px"
	 viewBox="0 0 438 407" style="enable-background:new 0 0 438 407;" xml:space="preserve">
<style type="text/css">
	.st0{fill:#4E4832;}
</style>
<g transform="translate(0.000000,407.000000) scale(0.100000,-0.100000)">
	<path class="st0" d="M1173,4040c-39-24-53-48-53-95c0-110,124-163,202-85c23,23,28,37,28,77c0,55-17,86-60,108
		C1251,4065,1211,4064,1173,4040z"/>
	<path class="st0" d="M3083,4040c-40-24-53-48-53-97c0-85,74-140,154-113c51,16,76,53,76,109c0,53-18,84-60,106
		C3161,4065,3121,4064,3083,4040z"/>
	<path class="st0" d="M1340,3773c-14-9-26-17-28-18c-3-3,324-545,337-558c4-4,24-7,44-5l36,3l-175,290c-97,160-179,293-183,297
		S1353,3782,1340,3773z"/>
	<path class="st0" d="M2839,3503c-96-158-178-293-182-300c-7-11,0-14,34-11l43,3l168,275c92,151,167,277,168,280c0,3-13,13-29,23
		l-29,17L2839,3503z"/>
	<path class="st0" d="M59,3095c-63-34-59,61-59-1537C0,195,1,103,18,70c10-20,32-42,52-52C103,1,225,0,2188,0c2292,0,2131-5,2172,62
		c20,33,20,46,20,1491c0,1237-2,1463-14,1492c-30,71,154,65-2178,65C389,3109,81,3107,59,3095z M2773,2855c183-39,329-174,393-365
		c17-51,19-111,22-885c2-544-1-857-8-909c-25-192-159-358-345-428l-60-23l-1025-3c-732-2-1042,0-1085,8c-150,28-300,140-363,271
		c-65,132-63,98-60,1060l3,874l23,60c68,180,224,314,402,345c25,4,493,8,1040,9C2538,2869,2716,2867,2773,2855z M3927,2835
		c74-33,138-96,176-174c28-58,32-75,32-151c0-72-4-94-28-145c-122-262-471-288-626-47c-41,64-65,160-56,227c7,59,49,155,88,201
		C3608,2858,3791,2898,3927,2835z M3927,1905c74-33,138-96,176-174c28-58,32-75,32-151c0-72-4-94-28-145c-85-183-294-263-472-181
		c-136,62-228,220-210,361c7,59,49,155,88,201C3608,1928,3791,1968,3927,1905z M3627,511c108-50,106-204-3-256c-72-34-147-4-185,73
		c-35,71-1,154,76,188C3556,534,3578,533,3627,511z M4050,514c129-52,111-244-25-270c-48-9-78,1-120,37c-78,69-58,192,40,235
		C3985,533,4002,533,4050,514z"/>
	<path class="st0" d="M2696,2735c-3-8-3-22,0-30c6-15,16-18,89-30c81-13,158-70,200-147c27-49,30-63,33-168c4-153,6-162,40-158l27,3
		v141v141l-35,69c-41,80-109,141-194,173C2788,2754,2705,2757,2696,2735z"/>
	<path class="st0" d="M354,983c-15-15-16-36-12-183c7-198,22-250,99-335c57-62,130-102,210-114c61-10,89-1,89,29c0,24-29,40-72,40
		c-78,0-188,84-229,174c-16,35-19,66-19,208c0,138-3,169-16,182C384,1004,375,1004,354,983z"/>
	<path class="st0" d="M3708,2777c-139-40-228-182-198-320c35-166,192-260,355-213c45,14,69,29,110,70c79,79,103,173,70,282
		C4006,2729,3845,2815,3708,2777z M3944,2648c8-13,5-22-13-42c-20-21-21-28-13-60c18-62-13-133-70-162c-22-12-47-15-87-11
		c-46,4-60,1-78-15c-17-16-25-18-42-9c-27,15-27,52-1,76c15,13,17,22,10,36c-28,51,2,132,62,170c27,16,44,19,89,15c44-4,60-2,70,10
		C3887,2675,3930,2670,3944,2648z"/>
	<path class="st0" d="M3737,2552c-37-40-9-102,46-102c33,0,57,24,57,59C3840,2563,3772,2591,3737,2552z"/>
	<path class="st0" d="M3708,1847c-140-40-227-181-198-322c39-189,257-283,419-180c182,114,169,386-22,480
		C3842,1856,3771,1864,3708,1847z M3801,1790c12-7,19-21,19-40c0-21,8-33,33-48c91-57,92-190,1-244c-25-15-34-27-34-47
		c0-29-16-51-36-51s-44,30-44,54c0,13-12,31-31,45c-90,67-90,187,1,239c21,12,30,25,30,44c0,15,7,34,16,42
		C3774,1803,3776,1803,3801,1790z"/>
	<path class="st0" d="M3737,1622c-37-40-9-102,46-102c33,0,57,24,57,59C3840,1633,3772,1661,3737,1622z"/>
	<path class="st0" d="M3525,425c-14-13-25-31-25-40c0-23,45-65,70-65c27,0,60,35,60,64c0,25-41,66-67,66C3555,450,3538,439,3525,425
		z"/>
	<path class="st0" d="M3962,434c-46-32-17-114,40-114c26,0,58,36,58,64c0,24-41,66-64,66C3990,450,3974,443,3962,434z"/>
</g>
</svg>
