<?xml version="1.0" encoding="UTF-8"?><svg xmlns="http://www.w3.org/2000/svg" viewBox="0 0 511.23 511.04"><g id="a"/><g id="b"><g id="c"><path d="M231.33,.64C151.33,8.94,81.23,52.34,38.63,120.24c-49.4,78.6-51.6,181-5.6,261.3,24.3,42.3,59.8,77,101.7,99.4,35.7,19.1,75.1,29.6,112.1,30l13.5,.1,.3-99.3,.2-99.2h-55v-64l27.3-.2,27.2-.3,.6-33.5c.5-30.4,.7-34.2,2.7-41.5,7.7-27.6,26-46,53.7-53.7,7.2-2,10.4-2.2,31.5-2.2,12.9-.1,27.9,.3,33.3,.8l9.7,.8v57.6l-23.7,.4c-23.7,.3-23.8,.3-29,3-11,5.8-12.3,10.5-12.3,43.5v25.3h31.5c17.3,0,31.5,.3,31.5,.7,0,.5-1.8,14.5-4,31.2-2.2,16.8-4,30.8-4,31.3,0,.4-12.4,.8-27.5,.8h-27.5v94.5c0,52,.2,94.5,.4,94.5,1.9,0,25.7-9,34.7-13.1,30.1-13.8,53.4-30.4,77.4-55,20.9-21.5,33.8-40,47.1-67.4,11.8-24.4,19.9-51.6,23.6-79.5,1.6-12.4,1.6-50.9,0-62.5-8.4-59.1-32.8-108.9-73.3-149.4C397.03,35.04,347.63,10.24,291.33,1.94c-12.3-1.8-47.8-2.6-60-1.3Z"/></g></g></svg>