<?xml version="1.0" encoding="UTF-8"?><svg xmlns="http://www.w3.org/2000/svg" viewBox="0 0 510.63 511.55"><g id="a"/><g id="b"><g id="c"><path d="M159.9,.55c-33,1.4-55.6,5.6-74.7,13.8-17.9,7.7-28.5,14.8-41.7,27.9C25.7,59.95,14.6,79.85,7.6,106.55,1.4,130.15,0,157.25,0,255.55s1.3,124.1,7.1,147.7c14.4,58.7,57.4,96.1,120.7,104.8,18.1,2.4,56.1,3.5,128.7,3.5,67.5,0,106.4-1,123.9-3.1,35.8-4.2,63.8-16.6,85.9-37.8,24.9-24,38.1-52.7,42.9-93.6,1.9-16,1.9-229.4,0-244.5-3.9-30.6-13-55.8-27.4-75.1-7.1-9.6-22.3-24.1-31.8-30.6-21.5-14.5-47.4-22.5-81.5-25.4C352.4,.15,187.2-.55,159.9,.55Zm216.3,48.3c28.5,4.2,44.5,11.3,59.9,26.6,10,10,15.5,18.8,20.4,32.4,8.2,23,9,35.2,9,148.2,0,65.1-.4,96.4-1.3,106.9-2.9,34.7-9.8,53.4-26,70.7-16.9,18-38,26.9-70.7,29.9-17.7,1.7-164,2.5-197.7,1.1-15.2-.6-31.1-1.6-35.4-2.2-18.9-2.6-37.2-9.3-48.6-17.6-7.1-5.3-18.5-17.7-22.7-24.7-8.4-14-13.4-33.7-15.1-58.7-3-45.4-2-201.2,1.4-227,3.6-26.7,11.9-44.7,27.6-59.9,17.2-16.7,39.8-24.8,74.8-27,7.6-.4,58.7-.7,113.7-.5,85.3,.2,101.6,.4,110.7,1.8Z"/><path d="M379.2,91.55c-11.3,5.7-16.7,14.5-16.7,27.5,0,9.4,2.2,15,8.6,21.4,6.4,6.3,12,8.6,21.4,8.6,6.7,0,8.9-.4,13.7-2.8,10.1-5,15.8-13.7,16.6-25.3,.7-10.3-1.6-16.3-8.7-23.5-6.6-6.6-12.4-8.9-22.1-8.9-5.4,0-7.8,.6-12.8,3Z"/><path d="M232.6,126.15c-26.3,4.8-49.6,17.1-69.2,36.8-26,25.9-38.5,56.2-38.5,92.6,0,22,4.1,40.1,13.2,58.3,28,55.6,89.6,84.1,149.5,69.2,23.6-5.9,41.8-16.1,59.5-33.2,15.9-15.4,26.6-32.2,33.3-52.3,4.8-14.5,6.6-25.7,6.6-42s-1.8-27.5-6.5-41.7c-6.4-19.2-15.7-34.4-30.2-49.4-19.8-20.4-44.5-33.6-71.7-38.4-11.1-1.9-35.2-1.9-46,.1Zm39.6,45.8c45.8,8.8,76.2,53.8,67.4,99.9-5.4,27.9-25.9,52.7-52.1,62.8-12.8,5-20.2,6.2-35,5.6-10.5-.4-14.6-1-21.5-3.2-30.3-9.6-52.4-34.1-58.6-64.9-2.4-11.9-1.5-30.4,2.1-41.6,9.4-29.8,34.5-52.5,64.4-58.5,8.9-1.8,24.3-1.8,33.3-.1Z"/></g></g></svg>