<?xml version="1.0" encoding="UTF-8"?><svg xmlns="http://www.w3.org/2000/svg" viewBox="0 0 511.07 443.65"><g id="a"/><g id="b"><g id="c"><path d="M457.14,5.67c-9.9,3.3-110.2,36.4-223,73.6C121.44,116.37,25.94,147.87,21.94,149.37c-9,3.2-15.2,8.6-19,16.2-3.8,7.7-3.9,19.3-.4,26.2,2.9,5.7,8.5,11.6,13.3,14.1,2,1,28.3,12.7,58.4,25.9s54.8,24.1,55,24.3,8,35.8,17.3,79.1c9.4,43.3,17.8,80.4,18.8,82.4,3.8,7.8,12.9,10.4,20.8,5.9,2.2-1.3,23-16.6,46.2-34l42.2-31.6,48.8,39.9c26.8,22,51,41.1,53.7,42.6,6.4,3.5,15.2,4.3,23.1,1.9,8.1-2.3,17.3-11.4,19.8-19.5,.9-3,22-91.9,46.8-197.5,49.5-210.7,46.9-197.7,41.6-208.1-5.4-10.5-14.4-16.4-26.2-17.1-6.4-.3-8.5,.1-25,5.6Zm24,26.8c-.4,1.6-20.7,87.8-45.1,191.7s-44.6,189.2-44.9,189.4c-.3,.3-1.3-.2-2.2-1-1-.8-35.5-29.1-76.8-62.8-41.2-33.7-75.4-61.6-75.8-62s34.4-37.5,77.5-82.5,79.3-83.4,80.5-85.4c1.5-2.4,2.3-5.2,2.3-8.2,0-4-.6-5.3-3.8-8.9-3.6-4.1-4.2-4.4-9.8-4.7l-5.9-.4-117.7,65.4-117.6,65.4-56.2-24.5c-30.8-13.5-55.7-24.9-55.2-25.4,.8-.8,447.8-148.6,450.1-148.7,1-.1,1.1,.6,.6,2.6Zm-180.5,142.7c0,.2-22.3,23.8-49.6,52.3s-50.3,53.1-51,54.8c-.7,1.6-5.3,16.7-10,33.5-4.8,16.8-9,30.8-9.4,31.3-.6,.7-20.2-88.3-20.4-92.6-.1-1.3,16.9-11.2,69.9-40.7,38.5-21.4,70.1-39,70.3-39,.1,0,.2,.2,.2,.4Zm-63.2,152.4c6.8,5.5,12.3,10.3,12.3,10.7,0,1-43.6,33.5-43.9,32.7-.1-.4,2.5-10.2,5.8-21.7,10.8-37.4,9.9-34.9,11.8-33.2,.9,.8,7.2,5.9,14,11.5Z"/></g></g></svg>