<?xml version="1.0" encoding="UTF-8"?><svg xmlns="http://www.w3.org/2000/svg" viewBox="0 0 510.95 501.23"><g id="a"/><g id="b"><g id="c"><path d="M237.87,.83C136.67,7.73,48.77,74.63,14.37,171.13c-5.3,14.6-10.2,34.9-12.5,51.2-2.3,15.7-2.5,49.6-.5,65.5,10.2,81.6,57.5,152.6,128.7,193.2,16.4,9.4,41.8,20,48.3,20.2,5.1,.1,9.4-2,11.6-5.7,1.8-3,1.9-5,1.6-26.7-.1-12.9-.3-23.6-.4-23.6-.1-.1-3.8,.4-8.2,1.2-26.3,4.3-49.7-1.6-64.6-16.5-5.8-5.8-7.6-8.6-13.4-20.6-9.4-19.6-14.9-27.1-25.5-34.8-7.8-5.6-12-9.8-12-11.9,0-5,12.1-6.7,21.7-3,12.5,4.7,20.8,11.9,29.9,25.8,12.6,19.1,28.4,27.6,48.5,26.1,7.7-.6,23.3-4.9,24.5-6.8,.3-.6,1.3-3.8,2-7.1,1.9-8,6.8-18.1,11-22.8,4-4.5,4.4-4.2-8.6-6-10.3-1.4-28.2-6-36.8-9.4-36.2-14.3-57.1-41-64.9-82.9-2.5-13.4-2.5-46.3,0-56.7,3.6-14.9,10.3-28.5,19.5-39.8l4.3-5.3-1.5-4.7c-5.2-16.1-4.6-37,1.6-56.4,2-6.1,2.4-6.7,5.4-7.3,10.7-2,35.2,6.8,57.6,20.6l9.8,6.1,8.7-2c20.4-4.7,29.8-5.7,55.3-5.7s34.9,1,55.3,5.7l8.8,2,7.7-4.8c15.3-9.6,30.4-16.7,40.7-19.3,8.5-2.1,15.9-3.1,19.1-2.5,2.8,.5,3.3,1.2,5.2,7.2,5.7,17.8,6.7,40.4,2.3,54.2l-2.1,6.5,2,2.5c9.8,12.1,17.5,26.9,21.2,40.9,2.6,9.8,3.6,34.8,1.9,48.8-7.4,60.8-40.7,93.5-104.1,102.3-12,1.6-11.8,1.5-8.3,5.3,4.6,4.8,9,13.4,11.5,22.3,2,7.4,2.2,10.6,2.7,52.9,.7,49.2,.5,48.2,6.6,50.7,4.7,2,10.2,1.3,20-2.6,34.8-13.5,62.2-31.1,88.4-56.9,41.7-41,67.9-94.2,75.2-152.7,2-15.9,1.8-49.8-.5-65.5C491.77,100.43,393.97,9.23,271.77,.83c-16.1-1.1-17.5-1.1-33.9,0Z"/></g></g></svg>