<?xml version="1.0" encoding="UTF-8"?><svg xmlns="http://www.w3.org/2000/svg" viewBox="0 0 512 511.93"><g id="a"/><g id="b"><g id="c"><path d="M45.2,1.93c-10.9,2.9-18.7,7.4-27.2,16C9.3,26.53,4.9,34.23,2,45.53,0,53.13,0,57.33,0,255.93s0,202.8,2,210.4c2.9,11.3,7.3,19,16,27.6,8.6,8.7,16.3,13.1,27.6,16,7.6,2,11.8,2,210.4,2s202.8,0,210.4-2c11.3-2.9,19-7.3,27.6-16,8.7-8.6,13.1-16.3,16-27.6,2-7.6,2-11.8,2-210.4s0-202.8-2-210.4c-2.9-11.3-7.3-19-16-27.6-8.6-8.7-16.3-13.1-27.6-16C458.8-.07,454.7-.07,255.6,.03,58.9,.03,52.3,.13,45.2,1.93ZM462.3,42.83c2.1,1.3,5,4.2,6.5,6.4l2.7,4.1V458.43l-2.4,3.8c-1.3,2.1-4.2,5-6.4,6.5l-4.1,2.7H53.4l-4.1-2.7c-2.2-1.5-5.1-4.4-6.4-6.5l-2.4-3.8-.3-200.4c-.1-139,.1-201.5,.8-204.3,1.3-4.7,7.7-11.4,12.2-12.7,2.1-.6,79.3-.9,204.3-.8l201,.2,3.8,2.4Z"/><path d="M115.2,85.43c-7.4,2.1-13.1,5.6-18.9,11.8-9,9.5-12.7,21.7-10.6,34.2,1.5,8.6,4.6,14.9,10.6,21.2,9,9.5,20.3,14,32.7,13,10-.8,17.2-4,24.4-10.7,13.8-13,17.4-32.1,9-48.7-3.8-7.5-13.6-16.5-21.1-19.3s-19-3.5-26.1-1.5Z"/><path d="M324,194.03c-19.4,2.8-39.2,14.3-48.5,28.2l-3.5,5.2v-30.5h-68v226h67.9l.4-65.3c.4-70.9,.4-70.7,6.2-83.1,7.2-15.2,21.3-22.6,40.6-21.3,13.6,.9,22.7,6.8,27.9,18.2,5.2,11.2,5.3,12.3,5.7,84.2l.4,67.3h69l-.4-76.8c-.3-49.9-.9-79-1.6-83.2-7.5-43.8-25.9-63.4-64.6-69-8.1-1.1-23.6-1.1-31.5,.1Z"/><path d="M90,309.93v113h70V196.93H90v113Z"/></g></g></svg>