<?xml version="1.0" encoding="UTF-8"?><svg xmlns="http://www.w3.org/2000/svg" viewBox="0 0 511.72 415.59"><g id="a"/><g id="b"><g id="c"><path d="M333.5,1.34c-31.9,7.1-57.2,26.1-72.3,54.4-10.4,19.4-14.4,45.7-10.6,68.2l.7,3.8h-3.9c-2.2,0-9.6-.7-16.4-1.5-65-8-124.5-36.6-171.3-82.4-6.5-6.3-14.3-14.6-17.4-18.3-3.2-3.7-6.1-6.8-6.5-6.8-2.6,0-11,22.3-13.2,34.9-6.8,39.6,8.5,78.2,40.8,102.9l2.9,2.2-4.9-.6c-12.7-1.4-26.7-5.5-36.4-10.4-2.2-1.1-4.2-2-4.6-2s-.4,4-.1,8.8c2.2,31.2,17.4,59,42.2,77.5,9.6,7.2,19.2,12.1,30.4,15.8l8.4,2.7-5.8,1.2c-6.8,1.4-27,1.8-33.7,.7-3.4-.6-4.8-.5-4.8,.3,0,2.9,6.8,17.1,12.2,25.2,17.1,26.1,46.3,44,77,47.3l6.8,.7-4.5,3.5c-19.5,14.8-49.6,28.5-77,34.8-17.7,4.1-46.9,6.3-62.7,4.8-4.9-.5-8.8-.6-8.8-.2s5.1,3.6,11.3,7.2c38.1,22,75.5,34,121.5,38.8,14.2,1.5,58.9,.6,72.2-1.4,57.5-8.9,103-28.4,144.1-61.9,68.2-55.5,110.8-145,110.9-233v-14.6l8.9-7.1c11.3-9.1,29.1-27.6,37.1-38.6,3.4-4.7,6-8.8,5.7-9.1-.2-.3-3.8,.8-7.8,2.4-8.2,3.3-21.7,7.5-29.4,9.2-8.7,2-19.7,3.8-18.8,3.1,.4-.4,3.4-2.6,6.5-5,7.3-5.5,18.2-17,23.1-24.4,4.2-6.2,11.1-20.4,12.2-24.9,.7-2.7,.4-2.6-12.7,4-13.2,6.7-31.3,13.4-46,17l-7.6,2-4.4-4.5c-9.8-10-29.7-21.1-45.3-25.3-10.9-2.9-37.6-3.7-48-1.4Z"/></g></g></svg>