<?xml version="1.0" encoding="UTF-8"?><svg xmlns="http://www.w3.org/2000/svg" viewBox="0 0 792.48 614.54"><defs><style>.f{fill:#4e4832;}</style></defs><g id="a"/><g id="b"><g id="c"><g id="d"><g id="e"><g><path class="f" d="M600.04,90.84h0c2.04,.83,4.05,1.66,5.99,2.5-1.95-.84-3.95-1.67-5.99-2.5Z"/><path class="f" d="M559.97,77.48c-11.04-3.01-23.11-5.83-36.29-8.41,.55,.11,1.07,.22,1.62,.33,1.71,18.47,2.47,39.58,1.64,63.39,.86,.04,1.72,.09,2.57,.13,13.14,.66,29.47,2.23,40.47,3,11.94,.84,22.32,2.58,31.98,3.5,.2,.02,.38,.04,.58,.06-.36-14.11-1.09-30.97-2.5-48.64-2.47-1-4.99-1.99-7.61-2.97-9.69-3.63-20.47-7.12-32.46-10.39Z"/><path class="f" d="M137.48,87.15h0c1.82-.65,3.65-1.3,5.51-1.94-1.86,.64-3.7,1.29-5.51,1.94Z"/><path class="f" d="M220.74,65.15c2.37-.43,4.79-.84,7.21-1.25h0c-2.43,.4-4.83,.82-7.21,1.25Z"/><path class="f" d="M305.76,55.39c-28.27,1.54-54.14,4.51-77.82,8.52,2.06,19.52,3.07,42.15,2.21,67.97,24.17-1.38,50.74-2.43,80.03-3-.68-20.78-1.97-46.44-4.42-73.49h0Z"/><path class="f" d="M220.73,65.16c-29.23,5.3-54.99,12.21-77.58,19.99,1.37,15.53,1.87,33.5,.84,53.97,23.5-2.72,50.53-5.14,81.68-6.99-.86-19.17-2.35-42.59-4.94-66.97h0Z"/><path class="f" d="M314.03,54.97c1.72,21.52,2.27,46.1,.92,73.82,20.83-.37,42.95-.51,66.55-.37,20.69,.12,39.17,.59,56.74,1.05-.66-20.36-1.91-45.49-4.25-72.05,2.8,.22,5.57,.44,8.31,.67,1.54,20.97,1.98,44.79,.64,71.5,4.41,.12,8.78,.23,13.11,.33,25.33,.59,46.65,1.65,66.44,2.65-.82-18.53-2.23-41.05-4.65-64.6,1.96,.37,3.93,.73,5.84,1.1-21.85-4.27-46.79-7.85-75.23-10.44-23.04-2.1-48.39-3.55-76.28-4.2-20.39-.48-39.76-.26-58.14,.54h0Z"/><path class="f" d="M614.58,78.59c3.69,2.15,7.14,4.31,10.41,6.47-6.14-5.03-13.25-10.11-21.51-15.11-6.92-4.18-14.65-8.31-23.26-12.3-9.28-4.3-19.61-8.44-31.09-12.32-10.57-3.57-22.13-6.92-34.76-9.98-20.93-5.07-44.82-9.31-72.06-12.39-22.08-2.5-46.36-4.22-73.07-4.99C210.98,13.41,117.01,62.58,65.81,104.99,121.25,64.85,216.76,22.37,370.53,26.62c27.83,.77,53.13,2.5,76.13,4.99,28.39,3.08,53.27,7.33,75.08,12.39,13.16,3.05,25.2,6.41,36.22,9.98,11.96,3.88,22.71,8.02,32.39,12.32,8.98,3.99,17.02,8.11,24.23,12.29h0Z"/><path class="f" d="M75.26,207.74l36.85,273.59-72.82,21.34,.24,.81c-15.23-1.6-25.84-2.31-25.84-.94,0,3.41,42.05,9.47,76.52,14.02,21.32,2.81,56.4,7.36,80.07,10.42-3.94,.89-7.31,2.52-9.19,5.34-7.12,10.68,0,32.05,7.12,27.6,0,0-4.45-8.9,1.78-14.24,6.24-5.35,15.14,1.78,18.7,11.57s32.94,50.75,90.81,56.09c57.87,5.35,159.36-8.9,177.17-10.68,17.8-1.78,58.76,.89,65.88,7.12s16.92,4.45,24.93,0c8.02-4.45,10.69-32.05-10.68-56.98,0,0-21.67-16.31-90.89-18.57,0,0,41.87-6.48,90.96,13.05,.15-3.99,.55-9.78,1.59-16.23-2.54-.37-10.67-.18-15.07-.39-4.57-.22-2.93-1.29-.37-1.5,2.3-.2,9.76,.3,15.66,.56,.29-1.72,.63-3.48,1.03-5.27-6.52-.22-26.51-.85-35.52-1.06-9.14-.21-4.2-1.49,2.56-1.28,6.33,.2,27.41,.42,33.36,.6,1.03-4.28,2.38-8.64,4.14-12.77-7.06-.29-18.3-.41-26.17-.23-9.51,.21-7.5-1.5-.37-1.71,5.29-.16,18.74-.19,27.26,.32,.77-1.67,1.61-3.29,2.53-4.85-2.51-.3-5.25-.55-8.05-.81-9.32-.85-24.12-.64-28.51-.85-4.38-.21-9.33-1.47,6.4-1.28,11.43,.14,23.49,.06,31.23,.01l2.47-18.08h-4.63l-1.66-19.19,96.79-251.14c20.23-20.16,23.55-37.16,24.44-39.82,2.07-6.22,11.76-18.12,37.76-18.3,2.29,25.76,17.43,40.18,21.19,44.77,3.85,4.7,11.97,11.54,29.92,7.69,14.91-3.19,10.35-5.22-7.28-16.82-.2,.06-.44,.1-.75,.13-3.98,.35-13.83,.87-16.08,.52-2.25-.35-1.38-1.38,4.15-1.73,3.71-.23,7.01-1,8.8-1.49-2.61-1.75-5.44-3.67-8.5-5.82-2.74-1.93-5.16-3.76-7.33-5.52-4.47,.26-10.02,.46-11.64,.21-2.25-.35-1.38-1.38,4.15-1.73,1.78-.11,3.47-.35,4.94-.62-10.54-9.1-13.73-15.72-14.63-19.38,.16,0,.3,.02,.45,.03,0,0,2.9,1.53,4.4-3.26h.86c-.03-.86-.1-1.62-.17-2.34,3.25-.05,10.42-.09,26.02,.08,25.84,.27,46.18,1.09,49.2,.27,3.02-.82-1.1-1.92-4.95-1.92-3.4,0-57.55-.64-70.19-.79,.03-.46,.06-.93,.08-1.44h-.87c-1.51-4.78-4.4-3.25-4.4-3.25h-.11c1.26-3.82,4.79-10.02,14.3-18.23-1.47-.27-3.16-.51-4.94-.62-5.53-.35-6.4-1.38-4.15-1.73,1.62-.25,7.17-.05,11.64,.21,2.17-1.76,4.6-3.6,7.33-5.52,3.06-2.15,5.89-4.07,8.5-5.82-1.79-.49-5.1-1.26-8.8-1.49-5.53-.35-6.4-1.38-4.15-1.73,2.25-.34,12.1,.17,16.08,.52,.32,.03,.55,.08,.75,.13,17.63-11.6,22.18-13.63,7.28-16.82-17.95-3.85-26.07,2.99-29.92,7.69-3.7,4.53-18.45,18.59-21.08,43.64-26.08-.15-35.8-12.08-37.87-18.3-1.01-3.02-5.16-26.28-33.76-51.83-7.2-6.43-15.94-13-26.57-19.43-6.92-4.18-14.65-8.31-23.26-12.3-9.28-4.3-19.61-8.44-31.09-12.32-10.57-3.57-22.13-6.92-34.76-9.98-20.93-5.07-44.82-9.31-72.06-12.39-22.08-2.5-46.36-4.22-73.07-4.99C187.05-5.01,89.92,62.58,46.04,107.48,35.83,108.24,1.38,113.14,0,144.57c0,0-.65,37.87,46.36,37.52,0,0,.29-.22,.77-.7l28.13,26.35h0Zm439.87,321.64c2.19,0,1.65,.85,.55,1.28-1.1,.43-2.38,.43-4.02,0s-.37-1.29,3.47-1.28Zm-377.99-24.41l.72-.33-.57,3.03-.15-2.7Zm3.24-1.51l2.65-1.23-3.83,7.54,1.18-6.31h0Zm351.9-35.45l2.35-7.2-1.21,13.79-1.14-6.59Zm-.83-4.73l-14.35-82.52,27.04-28.55-8.64,98.69-4.05,12.38h0Zm50.98-.35l-6.11,15.85,5.62-21.53,.49,5.68Zm84.02-243.13c-7.44,5.45-16.29,10.97-26.83,16.33l1.02-3.9c11.57-5.34,21.32-10.87,29.55-16.38l-3.74,3.95Zm-19.37-21.2c-1.98,.74-4.01,1.47-6.09,2.2-5.47,1.91-11.3,3.78-17.48,5.59l3.35-5.01c7.52-2,14.54-4.07,21.11-6.19l-.89,3.41h0Zm-470.56,60.02l39.95,39.54-.21,1.13-39.96-37.44,.22-3.23Zm170.61,20.48l.11-6.64c20.2,1.26,41.6,1.68,64.32,1.06,25.28-.69,48.43-2.11,69.66-4.11l-.08,6.57c-19.6,1.95-40.93,3.36-64.11,4.13-1.87,.06-3.74,.13-5.63,.18-8.22,.23-16.22,.28-24.09,.24-13.93-.08-27.32-.57-40.18-1.43h0Zm71.54,68.43c.48-5,1.91-19.18,1.91-20.13s.36-1.55,2.03-1.55,2.86-.12,2.38,1.79c-.41,1.63-5.36,20.02-5.72,21.33s-1.08,3.57-.6-1.44Zm.96,127.43c.38,1.4,5.71,21.19,6.15,22.93,.52,2.05-.76,1.92-2.56,1.92s-2.18-.65-2.18-1.67-1.54-16.27-2.05-21.65c-.51-5.39,.26-2.95,.64-1.53h0Zm84.96-109.17l5.47-12.32,1.49,8.54-8.26,14.38,1.3-10.6h0Zm-4.94,21.68l-.89,1.33,.93-1.61-.04,.28h0Zm2.93-5.31l9.57-16.67,.46,2.62-10.17,15.2,.14-1.15Zm46.91-65.12l18.01-26.93,2.7,31.3-23.25,24.55,2.54-28.92h0Zm87.46-79.58c-9.81,4.84-21.02,9.54-33.84,13.95l1.77-5.4c12.39-3.97,23.37-8.21,33.12-12.58l-1.05,4.03Zm-141.75,30.51l1.1,6.34c-3.49,.42-7.04,.82-10.65,1.2l.08-6.54c3.2-.32,6.36-.65,9.47-1Zm2.25-.25c5.88-.67,11.6-1.39,17.17-2.15l-.79,6.43c-4.96,.72-10.05,1.4-15.28,2.04l-1.1-6.32Zm14.26,82.03l33.86-76.25c.11-.04,.2-.08,.31-.12l-.11-.32,.03-.07c1.81-.37,3.61-.74,5.38-1.12l-2.18,24.91-35.69,62.16-1.6-9.19Zm39.49-52.28l14.72-25.64,1.27,14.69-17.29,25.85,1.3-14.9h0Zm13.9-35.11c-3.59,.86-7.26,1.7-11.04,2.51l.52-5.97c3.42-.69,6.76-1.4,10.04-2.12l.48,5.58Zm-11.61,9.01c3.97-.87,7.87-1.76,11.63-2.68l-13.45,23.43,1.82-20.75Zm-1.75-6.02c-.94,.2-1.87,.4-2.82,.59l2.89-6.5c.16-.03,.31-.06,.46-.09l-.53,6h0Zm16.43,2.57c4.83-1.22,9.49-2.47,13.98-3.76l-12.95,19.36-1.31-15.12,.28-.48Zm-52.84,10.42c4.82-.72,9.53-1.48,14.11-2.27-5.67,3.31-10.72,7.12-15.21,11.23l1.1-8.96h0Zm-4.31,67.4l-2.32-13.36,4.66-37.98c7.69-7.91,17.3-14.98,29.24-19.76l-31.58,71.1Zm-1.66,3.71l-3.83,8.63,2.21-17.97,1.62,9.34Zm-1.99-24.73l-3.34-19.18c2.03-2.81,4.27-5.61,6.71-8.33l-3.37,27.51h0Zm-4.4-25.24l-3.3-18.97c4.54-.58,9-1.17,13.34-1.81l-1.35,11.03c-3.19,3.14-6.08,6.41-8.69,9.75Zm13.96-34.22c11.37-1.59,22.09-3.36,32.18-5.29l-2.89,6.51c-9.46,1.88-19.47,3.62-30.08,5.19l.79-6.41Zm49.91-8.98c2.1-.47,4.18-.95,6.23-1.44l-3.72,6.48c-.67,.17-1.35,.33-2.03,.5l-.48-5.54Zm9.26-2.17c5.38-1.32,10.54-2.69,15.51-4.1l-4.31,6.45c-4.78,1.41-9.74,2.78-14.91,4.1l3.71-6.45h0Zm23.84-41.54l3.18-5.54c4.51-.97,8.88-1.96,13.1-2.98l-1.58,4.82c-1.97,.53-3.96,1.06-6,1.58-2.83,.72-5.73,1.43-8.7,2.12h0Zm23.63-10.34l-3.43,5.13c-.96,.27-1.91,.54-2.89,.81l1.55-4.74c1.61-.4,3.2-.8,4.77-1.2Zm-23.13,50.1c-3.15,1.05-6.4,2.09-9.74,3.11l4.28-6.4c2.46-.72,4.88-1.45,7.25-2.19l-1.79,5.48h0Zm-2.25,6.83l-16.33,49.93-9.59,10.13-2.77-32.11,16.02-23.94c4.39-1.3,8.61-2.64,12.67-4.01h0Zm-50.89,57.11l-32.86,49.12-.52-2.97,34.61-60.29-1.23,14.14h0Zm-44.89,48.89l-18.43,41.49,.75-58.84c.16-.82,4.26-20.22,17.46-39.66l4.22,24.3-4,32.71h0Zm-16.84-83.01c4.03-.43,7.98-.89,11.86-1.37l3.67,21.12c-7.84,10.61-12.97,21.52-16.17,29.95l.64-49.7Zm-142.97-3.34c-14.36-1.07-28.05-2.62-41.14-4.55l3.01-5.92c12.23,1.62,24.96,2.92,38.25,3.84l-.12,6.63Zm-181.14-51.61c4.69,2.27,9.53,4.5,14.55,6.68l-.25,3.58c-4.87-2.3-9.58-4.65-14.11-7.03l-.19-3.23Zm16.1,16.85c9.84,4.7,20.37,9.2,31.64,13.4l12.15,14.66-4.37,23.37-40.24-39.83,.82-11.6Zm40.85,56.03l15.31,15.15-.12,.31-15.38-14.41,.19-1.05Zm14.3,17.72l-33.67,85.85,18.68-99.89,14.99,14.04Zm69.2,61.75l-35.91-35.54,5.68-11.18,63.9,77.07,1.43,2.53-35.1-32.88h0Zm-5.98-99.39l-14.6,28.72-20.11-35.74c10.93,2.59,22.39,4.88,34.38,6.83,.11,.06,.22,.13,.33,.19Zm-45.58-21.74l3.33,5.92-.19,.49c-9.41-2.34-18.44-4.88-27.06-7.61l.91-4.89c7.41,2.16,15.06,4.2,23.01,6.09h0Zm-13.98,56.26l6.51-16.6,27.24,32.86-5.8,11.4-27.95-27.66Zm-1.76-1.74l-15.7-15.54,4.31-23.03,18.01,21.72-6.62,16.85Zm-12.72-43.71l-8.5-10.25c3.21,1.16,6.46,2.29,9.78,3.4l-1.28,6.85Zm3.45-6.15c8.26,2.7,16.88,5.23,25.87,7.57l-9.04,23.04-18.41-22.2,1.58-8.41Zm32.88,9.33l21.88,38.88-8.87,17.45-27.42-33.07,9.59-24.45c1.59,.41,3.21,.8,4.82,1.19h0Zm23.21,41.26l47.96,85.23-56.59-68.26,8.63-16.97Zm-39.69,9.49l-6.36-5.96,.09-.24,6.27,6.2h0Zm-45.24-80.99l5.38,6.49c-8.4-3.25-16.37-6.65-23.94-10.17l.26-3.65c5.88,2.51,11.97,4.95,18.3,7.33h0Zm4.2,1.5c7.8,2.81,15.95,5.5,24.46,8.02l-.9,4.83c-6.24-2.01-12.28-4.11-18.12-6.29l-5.44-6.56h0Zm52.63,15.46c.73,.17,1.47,.32,2.2,.49l-.79,2.01-1.41-2.5Zm4.43,.98c13.95,3.1,28.72,5.77,44.35,7.9l-2.99,5.89c-14.83-2.25-28.85-5.01-42.08-8.19l-.87-1.54,1.59-4.06h0Zm84.73,25.4l-.76,44.52c-5.67-14.6-16.59-35.33-35.83-48.49,11.69,1.67,23.9,3,36.59,3.97h0Zm-2.17,126.58l-2.87-3.47-54.79-97.37,15.21-29.92c29.06,18.25,40.37,50.53,43.63,62.18l-1.18,68.58Zm-136.4,54.03l60.37-118.74,36.05,33.78,39.84,39.43-.1,5.62-136.16,39.91h0Zm-2.97,.88l-14.55,4.26,10.43-55.8,37.65-96,28.09,26.32-61.62,121.22h0Zm-16.98,4.96l-8.55,2.51-.22-3.86,17.24-43.96-8.47,45.31h0Zm-9.07-6.74l-5.76-101.98,6.95-98.49,39.68,37.18-21.12,112.91-19.75,50.38Zm-.28-211.66l-12.36-12.23-.29-5.18c4.32,2.32,8.78,4.61,13.4,6.85l-.75,10.56h0Zm-14.75-14.6l-9.32-9.22c2.96,1.73,5.97,3.46,9.09,5.16l.23,4.06Zm-23.4-23.17l-4.78-4.73c8.42,5.1,17.57,10.14,27.46,15.01l.17,3.1c-8.17-4.38-15.79-8.86-22.85-13.38Zm-9.8-6.53c-3.44-2.37-6.74-4.75-9.9-7.12l-.1-.72c2.04,1.39,4.13,2.78,6.28,4.17l3.72,3.67Zm-12.44-9.04c-2.11-1.61-4.17-3.22-6.15-4.82,1.97,1.43,4.01,2.87,6.08,4.31l.07,.51h0Zm-8.41-36.53c12.08,6.59,26.02,13.25,41.93,19.65l3.36,4.06c-17.74-7.79-32.77-15.9-45.29-23.71Zm46.29,21.38c1.59,.62,3.18,1.24,4.82,1.86l.17,3.04c-.47-.2-.95-.39-1.42-.59l-3.57-4.31Zm7.12,2.7c6.24,2.31,12.75,4.57,19.55,6.77l-.26,3.75c-6.67-2.39-13.03-4.85-19.1-7.36l-.19-3.16Zm61.78,18.51l3.33,5.93c-15.79-4-30.3-8.43-43.61-13.13l.27-3.81c12.37,3.93,25.71,7.62,40.01,11.01h0Zm2.99,.7c3,.7,6.06,1.38,9.15,2.04l-.96,5.12c-1.64-.39-3.23-.79-4.84-1.19l-3.35-5.97h0Zm48.55,9.23l-2.21,5.64c-12.62-2.14-24.6-4.56-35.95-7.21l.96-5.14c11.76,2.48,24.17,4.73,37.2,6.71Zm52.77,6.14l-3.19,6.27c-17.52-1.63-34-3.79-49.52-6.37l2.23-5.69c15.87,2.36,32.66,4.33,50.48,5.79Zm97.5,2.77c23.12-.48,44.54-1.45,64.42-2.81l1.12,6.41c-20.48,1.55-42.72,2.65-66.88,3.17-35.32,.76-67.54-.42-96.93-3.06l3.2-6.29c29.02,2.3,60.64,3.29,95.07,2.58h0Zm66.7-2.97c4.23-.3,8.42-.61,12.51-.94,6.25-.51,12.3-1.07,18.23-1.66l-.77,6.31c-7.08,.77-14.4,1.49-21.98,2.13-2.26,.19-4.56,.37-6.87,.55l-1.12-6.39h0Zm66.61-6.88l-.51,5.85c-10.59,1.65-21.88,3.14-33.82,4.47l.77-6.27c11.82-1.21,22.99-2.57,33.56-4.05Zm4.84-.7l.48,5.6c-1.17,.19-2.34,.38-3.53,.57l.51-5.81c.85-.12,1.7-.24,2.54-.36h0Zm2.24-.32c2.25-.34,4.47-.69,6.67-1.04l-2.66,5.99c-1.18,.2-2.34,.41-3.53,.61l-.48-5.56h0Zm36.96-6.58l-3.21,5.59c-7.71,1.76-15.82,3.44-24.47,5.02-.85,.15-1.73,.3-2.58,.45l2.64-5.95c2.56-.42,5.11-.84,7.6-1.28,6.96-1.22,13.63-2.5,20.02-3.83Zm52.28,26.92l-17.14,18.09,2.6-9.98c5.24-2.68,10.08-5.39,14.54-8.11h0Zm-20.37,21.48l-46.59,49.19,15.37-46.99c13.01-4.48,24.39-9.27,34.36-14.21l-3.14,12.01h0Zm-1.17,4.53l-47.85,183.41-8.97-103.86,9.77-29.87,47.05-49.68h0Zm-57.32,73.81l-1.05-12.18,7.69-8.12-6.64,20.3Zm-1.8,5.48l-33.21,101.55,8.05-91.86,23.83-25.16,1.33,15.47Zm-55.17,38.08l-1.63-9.37,31.89-47.67-2.42,27.66-27.84,29.38h0Zm-1.94,2.06l-13.6,14.36,.75-6.11,11.34-16.95,1.51,8.7Zm-16.21,17.11l-8.74,9.23,9.32-13.93-.58,4.7h0Zm-10.24,5.49l13.22-29.78-1.05,8.57-12.17,21.21Zm-7.87-67.22c-1.94-5.02-4.72-11.25-8.54-17.82-8.1-13.92-18.24-24.69-29.85-31.87,13.72-.79,26.75-1.82,39.07-3.08l-.68,52.77Zm-43.22-7.89c-.95,1.91-9.89,17.75-10.84,19.66s-3.69,5.96-1.07,.12c.88-1.96,7.62-18.58,8.22-20.25,.59-1.67,1.19-1.43,2.14-1.19,.95,.23,2.5-.24,1.55,1.66Zm-9.94,149.35c1.03,2.05,10.64,19.09,11.66,21.14s-.64,1.53-1.67,1.79-1.67,.51-2.31-1.28c-.64-1.79-7.89-19.67-8.84-21.78-2.82-6.28,.13-1.92,1.16,.13h0Zm-23.4-149.22c-.48-1.91,.71-1.79,2.38-1.79s2.03,.6,2.03,1.55,1.43,15.13,1.91,20.13c.47,5-.24,2.74-.6,1.43s-5.32-19.7-5.72-21.32h0Zm5.99,148.83c-.51,5.38-2.05,20.62-2.05,21.65s-.39,1.67-2.18,1.67-3.07,.13-2.56-1.92c.44-1.74,5.77-21.52,6.15-22.93s1.15-3.85,.64,1.53h0Zm-19.85,21.53c1.03-2.05,10.63-19.09,11.66-21.14,1.02-2.05,3.97-6.41,1.15-.13-.95,2.11-8.2,19.99-8.84,21.78-.64,1.79-1.28,1.54-2.31,1.28-1.03-.25-2.69,.26-1.66-1.79Zm1.71-170.48c-.95-1.91,.6-1.43,1.55-1.67s1.54-.48,2.14,1.19c.59,1.66,7.34,18.29,8.22,20.25,2.62,5.84-.12,1.79-1.07-.12-.96-1.9-9.89-17.75-10.84-19.65Zm-11.37-40.29c-10.75,6.18-18.48,15.61-27.05,30.35-2.91,5-5.22,9.8-7.01,14.03l.78-45.77c10.73,.74,21.82,1.21,33.28,1.39h0Zm-49.97,144.2l-142.31,66.01,14.52-28.56,127.79-37.45Zm-145.63,67.54l-3.8,1.76,5.05-26.99,13.61-3.99-14.86,29.22h0Zm-7.68,3.56l-1.45-25.75,7.95-2.33-5.13,27.45-1.37,.63h0Zm-2.19,1.03l-15.31,7.1,12.92-32.96,.91-.27,1.48,26.13h0Zm-20.23-20.64l3.94-1.15-1.41,19.93-2.53-18.78Zm6.24-1.81l8.86-2.6-10.58,26.97,1.72-24.37Zm.17-2.41l6.89-97.68,5.04,89.22-2.2,5.6-9.73,2.86Zm7.14-133.29l-5.25-93.05,11.09,10.39-5.84,82.66Zm-5.42-96.31l-.25-4.42,11.96,11.84-.24,3.33-11.47-10.75Zm-2.4-2.24l-38.33-35.91c6.26,4.6,13.01,9.22,20.31,13.78l17.77,17.58,.25,4.55ZM36.49,117.81c.36,.79,.88,2.02,1.43,3.68,1.19,3.58,2.56,9.15,2.98,16.62,.46,8.14-.22,18.54-3.47,31.08-.09,.36-.19,.72-.29,1.08-.12,.46-.24,.92-.37,1.39-.35,1.24-.72,2.49-1.12,3.77-.02,.12-.03,.2-.03,.2,0,0-.14,.36,.02-.17,0,0,0-.02,0-.03,.07-.49,.3-1.98,.6-4.25,.07-.51,.14-1.07,.21-1.67,.04-.35,.09-.71,.13-1.09,.8-6.72,1.78-17.31,1.7-28.31-.05-5.96-.41-12.03-1.27-17.67-.22-1.48-.49-2.93-.79-4.35-.1-.46-.19-.92-.3-1.37,0,0,.21,.38,.56,1.09h0Zm607.95-3.19c-7.51-5.42-16.64-10.96-27.74-16.38-3.37-1.65-6.94-3.28-10.68-4.9,.88,13.76,1.06,29.25,.17,46.49,7.09,.69,13.21,1.34,19.24,2.09,8.6,1.07,15.74,3.95,22.13,5.03-3.4-.47-6.99-.93-10.83-1.39-7.5-.9-15.87-1.78-25.21-2.64-1.78-.17-3.61-.33-5.46-.49-.63,10.98-1.7,22.66-3.31,35.05,.06-2.87,.29-16.37-.15-35.35-7.65-.64-15.89-1.26-24.78-1.86-11.46-.76-23.99-1.48-37.68-2.14-4.34-.21-8.83-.41-13.4-.6-.55,12.76-1.54,26.27-3.1,40.56,0-3.4-.05-18.84-.94-40.73-18.28-.75-38.44-1.39-60.66-1.89-6.29-.14-12.76-.27-19.39-.39-.77,13.24-1.98,27.18-3.71,41.83,.03-3.64,.11-19.36-.53-41.9-17.36-.29-35.84-.5-55.57-.61-24.09-.14-46.79-.04-68.2,.24-.78,13.38-1.99,27.46-3.74,42.28,.03-3.66,.11-19.51-.54-42.22-29.21,.42-55.95,1.2-80.39,2.25-.55,12.93-1.56,26.63-3.14,41.14,0-3.42-.05-18.96-.95-40.97-31.02,1.38-58.25,3.19-82.07,5.22-.63,11.01-1.7,22.71-3.31,35.14,.06-2.84,.28-16.14-.14-34.85-30.22,2.64-54.82,5.65-74.54,8.6,19.58-3.96,43.99-8.06,74.47-11.68-.39-15.11-1.19-33.37-2.81-52.4-33.84,12.16-60.31,26.23-80.54,39.59-1.73-10.36-4.74-15.54-6.55-17.84C97.49,64.39,193.8,4.3,368.01,9.32c26.71,.77,51,2.5,73.07,4.99,27.25,3.08,51.13,7.33,72.06,12.39,12.63,3.05,24.18,6.41,34.76,9.98,11.48,3.88,21.8,8.02,31.09,12.32,8.62,3.99,16.34,8.11,23.26,12.3,10.63,6.43,19.37,13,26.57,19.43,23.84,21.3,30.69,40.99,32.89,48.71-4.51-4.7-10.16-9.7-17.27-14.82h0Zm3.13,64.69c-6.39,3.95-13.78,7.93-22.38,11.85-4.78,2.18-9.97,4.33-15.51,6.45l.85-3.26c.33-.11,.67-.22,1-.33,9.34-3.12,17.71-6.36,25.21-9.64,3.84-1.68,7.43-3.38,10.83-5.07Zm-103.29,278.83l-.64-7.41,50.49-193.53,26.34-27.81c6.69-4.58,12.37-9.16,17.22-13.62l-93.41,242.37Zm-6.95,24.31l5.55-14.39,1.24,14.39h-6.79Zm-4.29-.01h-38.02l2.72-31.1,34.57-105.72,9.06,104.91-8.33,31.92h0Zm-45.5-.01l3.23-9.87,1.72,9.87h-4.95Zm-2.36,.01h-34.92l10.35-84.3,14.55-15.36,14.79,85.05-4.77,14.6h0Zm-42.18,0l.85-66.59,14.16-14.95-10.01,81.54h-5Zm11.59,98.12c-3.03,9.92-9.09,15.39-9.39,14.65s4.09-2.66,7.73-14.94,2.58-31.02,2.58-31.02c0-4.43,1.82-1.18,1.82-.44s.31,21.85-2.74,31.75Zm-14.36,19.12c23.71-3.39,58.13-14.67,72.8-22.01,14.67-7.34,20.88-18.06,20.88-18.06,.69,3.29,1.14,6.62,1.38,9.9,1.43-.42,4.24-1.47,5.09-3.41,0,0,.14,5.03-4.93,6.34,.1,2.48,.09,4.91-.03,7.25,9.43-.83,11.07-4.67,11.07-4.67-1.24,6.76-8.82,7.52-11.27,7.59-.24,2.8-.61,5.42-1.09,7.81,2.8,.53,10.71,1.49,14.34-3.35,0,0-2.89,9.21-15.03,6.41-.73,2.81-1.6,5.16-2.54,6.87,2.24,1.27,8.33,4.09,15.26,1.74,0,0-7.42,6.59-17.32,.87-4.38,3.57-9.43-1.71-18.63-4.42-9.59-2.82-69.97,1.13-69.98,1.14h0Zm-4.31-35.16c0-3.47,2.59-6.28,5.78-6.28s5.78,2.81,5.78,6.28-2.59,6.28-5.78,6.28-5.78-2.82-5.78-6.28Zm-5.09-70.49c0,8.01,.89,30.27,.89,30.27v8.9l-25.33,.03v-35.51l-16.93-25.21-.75-119.26,12.41-24.45,.29-37.95c26.5,18.08,37.06,52.95,38.77,59.19l-1.7,132.4h-1.42s-6.23,3.56-6.23,11.59h0Zm-6.84,92.3c3.64-12.28,2.58-39.06,2.58-39.06,0-4.43,1.82-1.18,1.82-.44s.3,29.89-2.73,39.8c-3.03,9.92-9.09,15.39-9.39,14.65s4.09-2.66,7.72-14.95h0Zm-18.72-17.79c0-3.47,2.59-6.28,5.78-6.28s5.78,2.81,5.78,6.28-2.59,6.28-5.78,6.28-5.78-2.82-5.78-6.28Zm-12.04,21.89c3.64-12.28,2.58-43.25,2.58-43.25,0-4.43,1.82-1.18,1.82-.44s.3,34.06-2.73,43.98-9.09,15.39-9.39,14.65c-.3-.74,4.09-2.66,7.72-14.94h0Zm-19.11-18.38c0-3.47,2.59-6.28,5.78-6.28s5.78,2.81,5.78,6.28-2.59,6.28-5.78,6.28-5.78-2.81-5.78-6.28Zm-11.04,20.19c3.64-12.28,2.58-44.5,2.58-44.5,0-4.43,1.82-1.18,1.82-.44s.3,35.33-2.73,45.24c-3.03,9.92-9.09,15.39-9.39,14.65s4.09-2.66,7.72-14.95h0Zm-17.1-18.18c0-3.47,2.59-6.28,5.78-6.28s5.78,2.81,5.78,6.28-2.59,6.28-5.78,6.28-5.78-2.81-5.78-6.28Zm-13.51,20.6c3.64-12.27,2.58-45.79,2.58-45.79,0-4.43,1.82-1.18,1.82-.44s.3,36.62-2.73,46.53c-3.03,9.92-9.09,15.39-9.39,14.65-.3-.74,4.1-2.66,7.72-14.95h0Zm-107.8-61.19l84.18-3.76v-19.65l-5.69,.04,2.82-164.54c2.71-9.04,14.03-41.35,41.2-57.05l-.61,38.04,12.41,25.96-.75,118.5-18.43,26.71-.32,35.59-114.81,.16h0Zm26.73,44.43c4.49,0,5.98,.85,4.06,1.28s-3.42,.43-4.7,0-1.92-1.29,.64-1.28Zm-29.69,.41c7.1-.22,17.52-.85,20.51-.64,2.99,.22,4.91,1.29-.43,1.5-5.34,.22-15.39,0-17.95,.43-2.57,.43-8.98-1.06-2.13-1.29Zm-.65-7.04c4.7-.19,32.26-.43,40.17-.64,7.9-.22,13.67,1.06,2.99,1.28-10.68,.22-34.61,.86-41.88,1.07-7.26,.21-11.97-1.28-1.28-1.71Zm-12.18-13.68c5.55-1.28,31.2-1.28,39.53-1.07,8.33,.21,10.68,1.92-.43,1.71s-27.99,0-35.04,.43-7.23-.33-4.06-1.07Zm-5.78-8.54c3.38-.1,25.43,.21,45.73,0,18.39-.2,12.61,1.07,7.48,1.28-5.12,.21-22.43,0-33.33,.85-10.89,.86-21.15,1.71-22.22,3.85s-3.42,0-4.7-2.35-8.12-3.2,7.04-3.63h0Zm-64.04-34.01l7.3-14.36,153.68-71.29-1.38,80.72-76.39,.6c-.03-3.1-.09-9.7-.11-12.79,3.99-.44,7.76-.8,9.61-.91,4.49-.25,6.16,2.57,5.9-1.92s-1.41-1.93-4.62-1.67c0,0-5.03,.11-10.73-.04,.1-2.1,0-4.01-1.32-3.93-1.73,.11-2.09,.61-2.16,3.81-4.3-.2-8.49-.56-10.79-1.25-6.03-1.79-9.1-8.46-9.36-.51-.26,7.95-.26,13.21,2.56,13.08s4.62-4.23,7.44-4.87c1.34-.3,5.58-.86,10.15-1.4,.04,3.97,.13,9.28,.19,12.44l-23.24,.18,.62,11.83c-15.15-2.18-36.92-5.21-57.35-7.72Zm-18.97-2.18l14.85-6.89,.49,8.64c-5.29-.63-10.44-1.22-15.34-1.75h0Zm-7.7-29.29l3.85,28.59-.5,.23c-22.03-2.39-51.07-6.2-72.55-8.54l69.2-20.28h0ZM77.84,210.18l42.66,39.97,6.38,113.08-8.2,116.16-4.41,1.29L77.84,210.18Z"/><path class="f" d="M409.8,564.48c1.72-.33,3.44,1.56,3.69,3.36,.17,1.21,.17,4.18,1.56,2.46,.58-.71,.65-2.54-.41-4.59-1.07-2.05-3.1-2.22-3.85-2.13-1.31,.17-2.7,1.23-.99,.9Z"/><path class="f" d="M440.44,560.72c1.72-.33,3.44,1.56,3.69,3.36,.17,1.21,.17,4.18,1.56,2.46,.58-.71,.65-2.54-.41-4.59-1.07-2.05-3.1-2.22-3.85-2.13-1.31,.16-2.71,1.23-.99,.9Z"/><path class="f" d="M378.53,568.28c1.72-.33,3.44,1.56,3.69,3.36,.17,1.21,.17,4.18,1.56,2.46,.58-.71,.65-2.54-.41-4.59-1.07-2.05-3.1-2.22-3.85-2.13-1.31,.16-2.71,1.23-.99,.9Z"/><path class="f" d="M350.02,570.49c1.72-.33,3.44,1.56,3.69,3.36,.17,1.21,.17,4.18,1.56,2.46,.58-.71,.65-2.54-.41-4.59-1.07-2.05-3.1-2.22-3.85-2.13-1.31,.16-2.7,1.23-.99,.9Z"/></g></g></g></g></g></svg>