<svg xmlns="http://www.w3.org/2000/svg" viewBox="0 0 135.32 179.54"><defs><style>.cls-1{fill:none;stroke:#000;stroke-linecap:round;stroke-miterlimit:10;stroke-width:3px;}</style></defs><g id="Layer_2" data-name="Layer 2"><g id="Layer_1-2" data-name="Layer 1"><path d="M130.83,53.11c8.5,8.78,6.35,24.84-18.91,30.22C111.92,72.26,92.49,68,67.79,68,41.3,68,22.52,72.05,22.52,83.64c-25.34-5.23-26.8-23-16.62-31.92,12.38-10.83,17.43,7.17,61.7,7.17C107.93,58.89,117.28,39.12,130.83,53.11Z"/><path d="M65,52.59c20,0,42.16-9.94,42.16-9.94V35c0-17.42-11-35-42.12-35C32.48,0,22.93,18.17,22.93,35v8S45.89,52.59,65,52.59Z"/><path d="M82.1,152.94c-4.11-1.17-8.79-2.58-11.6-6a3.41,3.41,0,0,0-2.08-1.5h0a3.48,3.48,0,0,0-2.09,1.5c-2.8,3.44-7.48,4.85-11.59,6A1.69,1.69,0,0,0,53.56,155a5.67,5.67,0,0,0,1.42,2.1A65,65,0,0,1,63.3,169.8a43.26,43.26,0,0,1,3.17,7.41c.27.92.48,2.14,1.62,2.32a1.16,1.16,0,0,0,.32,0,1.22,1.22,0,0,0,.33,0c1.14-.18,1.35-1.4,1.62-2.32a43.26,43.26,0,0,1,3.17-7.41,65,65,0,0,1,8.32-12.68,5.77,5.77,0,0,0,1.41-2.1,1.68,1.68,0,0,0-1.16-2.08Z"/><path d="M122.64,157.13c-2.4-1.16-8.19-1.54-15.75-1.54-1.63,0-3.25,0-4.88.07-2.36.07-3.91.21-4.81-2.5-.42-1.28-.86-2.56-1.26-3.85-.34-1.1-1-2.57-.66-3.74s1.51-1,2.45-1.06a26.07,26.07,0,0,0,4.21-.71,19,19,0,0,0,8.67-4.36,14,14,0,0,0,4.32-10,7.11,7.11,0,0,0-2.13-4.79c-1.73-1.79-6-2.33-7.35.32a2.2,2.2,0,0,0,.45,2.25c.76.88,1.76.28,2.7.51,1.63.41,1.18,3,.53,4.09-1.95,3.26-6.43,4-9.8,3.36-3.13-.61-5.73-2.57-8.18-4.53-3.25-2.59-7-6.38-11.3-6.74a11,11,0,0,0-6.71,1.77,15.2,15.2,0,0,0-2.78,2.23c-.71.69-1.28,1.39-1.94,1.42s-1.23-.73-1.93-1.42a15.26,15.26,0,0,0-2.79-2.23A11,11,0,0,0,57,123.94c-4.3.36-8.05,4.14-11.3,6.74-2.45,2-5.06,3.92-8.18,4.53-3.37.63-7.85-.1-9.81-3.36-.64-1.08-1.1-3.68.53-4.09.94-.23,1.94.37,2.7-.51a2.2,2.2,0,0,0,.46-2.25c-1.31-2.66-5.63-2.11-7.36-.32a7.11,7.11,0,0,0-2.12,4.79,13.91,13.91,0,0,0,4.31,10c3.72,3.48,8.87,4.73,13.75,5.16,7.26.64,14.88-1.47,21.28-5,2.06-1.13,4.63-3.59,7.16-3.78,2.54.19,5.11,2.65,7.17,3.78a42.83,42.83,0,0,0,10.4,4c1.53.37,2.09.87,2.31,2.5.87,6.33,1.13,12.76,2.21,19.06a40.08,40.08,0,0,0,1.21,5.09c1.49,4.79,6,7.93,10.49,8.8a24.47,24.47,0,0,0,4.68.42c9.83,0,16.66-4.49,16.94-19.76,0-1.24,0-2.08-1.18-2.65Z"/><path d="M22.17,67.71a10.74,10.74,0,0,1,.12,2c0,2.44,0,4.88.05,7.32a15.15,15.15,0,0,1-.67,4.3,27.88,27.88,0,0,0-.48,15.21c.62,2.47,1.63,4.72,1.74,7.31.22,5.74.52,10.76.91,13.94.5,4.06,4.66,1.36,6.42.1a21.67,21.67,0,0,1,3.39-2.36,6,6,0,0,1,3.8,0,27.73,27.73,0,0,0,10.91,2.22,28,28,0,0,0,28-28c0-3.17,1.44-4.6,2.25-5.17a80.29,80.29,0,0,1,10.71-5.92q5.86-2.91,11.83-5.57c3.25-1.43,6.57-2.7,9.87-4,1.29-.51,2.61-.94,3.93-1.34Zm36.16,14h0c-.14-.37.08-.51.32-.21A13.18,13.18,0,0,1,39.1,99.1c-.35-.35-.19-.63.23-.42a13.65,13.65,0,0,0,6,1.42,13.82,13.82,0,0,0,13.8-13.81A13.55,13.55,0,0,0,58.33,81.68Zm-13-.74A5.36,5.36,0,1,1,40,86.29,5.36,5.36,0,0,1,45.35,80.94Zm3,31.75h0A22.92,22.92,0,0,1,28.8,77.79,22.57,22.57,0,0,1,32.75,73c1.3-1.21,2.34-2.11,4.15-2.33,1.09-.13,3.83-.15,4.14,1.28S39,74,38.11,74.6a13.61,13.61,0,0,0-3.34,2.94,18.32,18.32,0,1,0,26.93-.29c-.64-.69-2.41-1.73-2.1-2.85.45-1.63,5.47-.18,6.23.54a16.22,16.22,0,0,1,2.91,4.3,22.91,22.91,0,0,1-20.38,33.45Z"/><path class="cls-1" d="M83.14,89.21c11.25-.51,7.6-1,21.91,0"/></g></g></svg>