<?xml version="1.0" standalone="no"?>
<!DOCTYPE svg PUBLIC "-//W3C//DTD SVG 20010904//EN"
 "http://www.w3.org/TR/2001/REC-SVG-20010904/DTD/svg10.dtd">
<svg version="1.0" xmlns="http://www.w3.org/2000/svg"
 width="512.000000pt" height="512.000000pt" viewBox="0 0 512.000000 512.000000"
 preserveAspectRatio="xMidYMid meet">

<g transform="translate(0.000000,512.000000) scale(0.100000,-0.100000)"
fill="#000000" stroke="none">
<path d="M2930 5111 c-50 -16 -88 -41 -127 -85 -42 -47 -54 -80 -74 -186 l-12
-65 -177 0 -178 -1 -7 45 c-29 194 -118 286 -275 286 -112 -1 -179 -43 -230
-145 -27 -53 -29 -134 -6 -230 8 -35 14 -65 13 -65 -1 -1 -36 -14 -77 -30 -41
-15 -113 -46 -159 -67 -47 -21 -88 -35 -92 -31 -5 5 -30 40 -56 78 -64 93
-121 128 -213 133 -86 5 -132 -10 -187 -61 -51 -47 -68 -76 -83 -143 -16 -71
1 -136 60 -224 28 -41 50 -77 50 -80 0 -7 -238 -250 -245 -250 -3 0 -34 19
-68 42 -77 53 -117 67 -187 67 -96 1 -199 -64 -233 -149 -57 -138 -6 -264 145
-357 32 -20 58 -38 58 -41 0 -3 -24 -64 -54 -136 -30 -72 -58 -143 -61 -158
-8 -32 -12 -33 -120 -13 -158 28 -275 -34 -321 -170 -33 -95 -2 -200 80 -272
47 -42 80 -54 186 -74 l65 -12 0 -177 1 -177 -61 -12 c-110 -22 -153 -41 -199
-87 -161 -161 -48 -438 179 -436 33 0 89 7 125 16 35 8 65 14 65 13 1 -1 14
-36 30 -77 15 -41 46 -113 67 -159 21 -47 35 -88 31 -92 -5 -5 -40 -30 -78
-56 -93 -64 -128 -120 -133 -215 -5 -85 13 -138 65 -191 44 -46 75 -63 139
-77 71 -16 136 1 224 60 41 28 77 50 80 50 7 0 250 -238 250 -245 0 -3 -18
-33 -41 -66 -50 -74 -69 -127 -69 -193 0 -105 79 -210 181 -240 65 -20 83 -20
143 -2 72 22 111 54 168 136 28 41 53 77 54 78 1 2 63 -21 136 -51 73 -31 145
-59 161 -62 31 -8 32 -12 13 -117 -28 -161 33 -278 169 -324 95 -33 200 -2
272 80 42 47 54 80 74 186 l12 65 177 0 177 0 12 -60 c22 -110 41 -153 87
-199 125 -125 330 -91 411 67 30 61 33 136 9 237 -8 35 -14 65 -13 65 1 1 36
14 77 30 41 15 113 46 159 67 47 21 88 35 92 31 5 -5 30 -40 56 -78 64 -93
121 -128 213 -133 86 -5 132 10 187 61 51 47 68 76 83 143 16 72 -2 139 -61
226 -27 40 -49 75 -49 78 0 7 239 250 246 250 3 0 32 -18 65 -41 100 -68 180
-84 273 -57 63 19 140 100 160 167 20 67 20 85 2 145 -22 72 -54 111 -136 168
-41 28 -77 53 -79 54 -2 2 15 45 37 96 22 51 51 123 64 161 15 43 28 67 38 67
8 0 49 -6 90 -14 91 -17 150 -10 213 27 153 90 169 294 33 414 -47 42 -80 54
-186 74 l-65 12 0 178 0 177 44 7 c25 4 73 15 107 26 221 68 250 371 45 473
-67 33 -107 37 -212 16 -52 -10 -94 -17 -95 -16 0 0 -13 35 -29 76 -15 41 -45
113 -67 159 -21 46 -36 87 -33 89 3 3 38 29 78 57 96 68 130 123 135 217 6 91
-14 143 -77 201 -35 33 -66 51 -106 63 -82 23 -146 9 -245 -56 -42 -28 -78
-50 -81 -50 -7 0 -249 239 -249 246 0 3 19 33 42 67 53 77 67 117 67 187 1
109 -76 214 -180 244 -66 20 -82 20 -148 0 -64 -19 -128 -74 -178 -156 -20
-32 -39 -58 -44 -58 -4 0 -41 15 -82 34 -40 18 -110 46 -155 62 -53 19 -82 34
-82 44 0 8 7 50 15 92 17 92 10 146 -29 212 -57 97 -182 148 -286 117z m109
-176 c16 -8 31 -22 35 -30 16 -42 -6 -190 -27 -182 -7 2 -45 10 -84 17 -82 15
-80 12 -59 105 22 92 70 124 135 90z m-916 -6 c14 -6 29 -21 35 -33 15 -30 35
-123 30 -138 -3 -7 -41 -20 -85 -29 l-81 -16 -11 55 c-17 87 -14 120 14 147
26 27 60 32 98 14z m617 -330 c1259 -117 2110 -1317 1804 -2541 -88 -354 -275
-681 -538 -944 -552 -552 -1358 -742 -2098 -494 -422 141 -798 428 -1048 799
-462 689 -462 1593 0 2282 416 618 1145 966 1880 898z m1168 -25 c12 -14 22
-38 22 -54 0 -27 -67 -150 -82 -150 -4 0 -39 21 -77 47 l-70 46 42 61 c64 91
114 106 165 50z m-2623 0 c16 -6 95 -115 95 -131 0 -9 -125 -93 -138 -93 -19
0 -86 115 -86 147 0 62 66 101 129 77z m3273 -636 c22 -21 29 -68 16 -103 -7
-16 -116 -95 -131 -95 -9 1 -93 126 -93 139 0 8 63 53 110 78 30 16 67 9 98
-19z m-3869 -45 c34 -21 61 -41 61 -46 0 -4 -21 -38 -46 -77 l-46 -69 -57 38
c-73 50 -85 65 -85 108 0 26 7 42 28 59 38 33 75 30 145 -13z m4226 -798 c39
-38 28 -111 -19 -133 -29 -15 -123 -35 -137 -30 -7 2 -20 41 -29 85 l-17 81
46 10 c86 18 129 14 156 -13z m-4565 -26 c31 -7 50 -15 47 -22 -2 -7 -10 -45
-17 -84 -15 -82 -12 -80 -105 -59 -63 15 -105 50 -105 87 0 26 26 76 42 82 23
9 85 7 138 -4z m4495 -853 c92 -22 124 -70 90 -135 -22 -44 -65 -52 -165 -30
-39 8 -50 15 -46 26 4 8 11 46 18 84 12 78 10 76 103 55z m-4455 -112 l17 -81
-49 -12 c-81 -18 -126 -14 -153 14 -53 52 -19 125 70 150 91 25 97 22 115 -71z
m4200 -779 c8 -9 14 -33 14 -52 0 -43 -40 -83 -84 -83 -27 0 -150 67 -150 82
0 4 21 39 46 77 l47 70 56 -39 c31 -21 63 -46 71 -55z m-3862 -10 c23 -36 42
-69 42 -73 0 -19 -115 -86 -147 -86 -46 0 -83 37 -83 83 0 20 4 42 9 49 10 17
113 91 126 91 6 1 29 -29 53 -64z m3197 -602 c46 -69 50 -111 15 -148 -29 -31
-90 -35 -118 -7 -25 25 -82 108 -82 119 1 10 120 91 136 92 6 1 28 -25 49 -56z
m-2575 -9 l69 -46 -38 -57 c-50 -73 -65 -85 -108 -85 -43 0 -83 40 -83 84 0
28 67 149 83 150 4 0 38 -21 77 -46z m1770 -432 c0 -84 -81 -122 -139 -64 -19
19 -31 45 -40 90 -7 35 -10 67 -6 70 3 4 41 14 83 22 l77 16 12 -46 c7 -25 13
-64 13 -88z m-962 108 c81 -15 79 -12 58 -105 -15 -63 -50 -105 -87 -105 -28
0 -75 26 -83 45 -16 42 6 190 27 182 7 -2 45 -10 85 -17z"/>
<path d="M2390 4429 c-1114 -106 -1889 -1146 -1669 -2241 132 -657 612 -1199
1250 -1409 389 -128 795 -127 1184 2 567 189 1011 639 1193 1210 120 374 117
779 -7 1158 -132 401 -409 759 -766 989 -345 223 -781 330 -1185 291z m303
-169 c761 -63 1382 -609 1537 -1353 141 -673 -144 -1375 -715 -1759 -579 -390
-1321 -391 -1905 -3 -778 517 -990 1582 -469 2360 314 469 815 743 1399 763
19 1 88 -3 153 -8z"/>
<path d="M2433 4090 c-608 -52 -1136 -466 -1327 -1041 -239 -719 76 -1502 745
-1848 375 -195 796 -229 1197 -95 114 37 252 103 351 168 163 105 342 285 447
446 255 396 317 881 169 1326 -221 667 -883 1103 -1582 1044z m40 -226 c7 -72
35 -104 87 -104 53 0 80 32 87 105 l6 57 56 -7 c317 -38 587 -169 812 -394
225 -225 356 -495 394 -812 l7 -56 -57 -6 c-73 -7 -105 -34 -105 -87 0 -53 32
-80 105 -87 l57 -6 -7 -56 c-38 -317 -169 -587 -394 -812 -225 -225 -495 -356
-812 -394 l-56 -7 -6 57 c-7 73 -34 105 -87 105 -53 0 -80 -32 -87 -105 l-6
-57 -56 7 c-315 37 -589 170 -812 394 -225 224 -356 496 -394 812 l-7 56 57 6
c72 7 105 34 105 86 0 20 -7 44 -14 54 -16 21 -66 37 -115 37 l-33 0 7 58 c38
318 168 588 394 813 195 195 431 324 687 373 188 36 180 38 187 -30z"/>
<path d="M1844 3286 c-21 -18 -28 -32 -27 -57 1 -28 326 -749 421 -935 20 -40
26 -43 490 -262 258 -122 480 -222 494 -222 33 0 74 33 82 66 5 20 -38 123
-206 487 -116 254 -218 472 -225 483 -8 13 -96 61 -221 120 -634 300 -729 344
-754 344 -15 0 -39 -11 -54 -24z m529 -377 c152 -73 277 -135 277 -138 0 -3
-69 -72 -154 -153 l-154 -147 -102 221 c-146 315 -160 348 -152 348 4 0 132
-59 285 -131z m537 -545 c71 -153 127 -281 125 -283 -4 -3 -522 238 -554 258
-10 7 24 46 140 159 85 82 155 149 157 147 1 -1 61 -128 132 -281z"/>
</g>
</svg>
