<?xml version="1.0" encoding="UTF-8"?><svg xmlns="http://www.w3.org/2000/svg" viewBox="0 0 453.54 453.54"><defs><style>.h{stroke:#000;stroke-miterlimit:10;stroke-width:.25px;}</style></defs><g id="a"/><g id="b"><g id="c"><g id="d"><g id="e"><g id="f"><g id="g"><path d="M453.49,203.26v47.02c0,4.02-3.33,7.35-7.35,7.35h-26.45c-2.06,13.32-5.58,26.35-10.38,38.99l22.92,13.22c3.53,2.06,4.7,6.56,2.65,9.99l-23.51,40.75c-2.06,3.53-6.56,4.7-9.99,2.64l-22.92-13.22c-8.52,10.48-18.03,19.98-28.51,28.51l13.23,22.92c2.06,3.53,.78,8.03-2.65,9.99h0l-40.75,23.51c-3.53,2.06-8.03,.78-9.99-2.64h0l-13.23-22.92c-12.54,4.8-25.67,8.23-38.89,10.38v26.45c0,4.02-3.33,7.35-7.35,7.35h-47.02c-4.02,0-7.35-3.33-7.35-7.35v-26.45c-13.32-2.06-26.35-5.58-38.89-10.38l-13.32,22.92c-2.06,3.53-6.56,4.7-9.99,2.74h0l-40.75-23.51c-3.53-2.06-4.7-6.56-2.65-9.99l13.23-22.92c-10.48-8.52-19.99-18.02-28.51-28.51l-22.92,13.13c-3.53,2.06-8.03,.78-9.99-2.64l-23.51-40.75c-2.06-3.53-.78-7.93,2.65-9.99l22.92-13.22c-4.8-12.54-8.23-25.66-10.38-38.89H7.35c-4.02,0-7.35-3.33-7.35-7.35H0v-47.02c0-4.02,3.33-7.35,7.35-7.35h26.45c2.06-13.32,5.58-26.35,10.38-38.89l-22.92-13.32c-3.53-2.06-4.7-6.47-2.74-9.99h0l23.51-40.75c2.06-3.53,6.56-4.7,9.99-2.74h0l23.02,13.32c8.52-10.48,18.03-19.98,28.51-28.51l-13.23-22.92c-2.06-3.53-.78-8.03,2.65-9.99h0l40.75-23.51c3.53-1.96,7.94-.78,9.99,2.64l13.23,22.82c12.54-4.8,25.67-8.23,38.89-10.38V7.35c0-4.02,3.33-7.35,7.35-7.35h47.02c4.02,0,7.35,3.33,7.35,7.35v26.45c13.32,2.06,26.35,5.58,38.99,10.38l13.23-22.82c2.06-3.53,6.56-4.7,9.99-2.64h0l40.75,23.51c3.53,2.06,4.7,6.56,2.65,9.99l-13.23,22.92c10.48,8.52,19.99,18.02,28.51,28.51l22.92-13.22c3.53-2.06,8.03-.78,9.99,2.64h0l23.51,40.75c1.96,3.53,.78,7.93-2.74,9.99l-22.92,13.22c4.8,12.54,8.23,25.66,10.38,38.89h26.45c4.21,0,7.45,3.23,7.45,7.35q.07,0,0,0h0Zm-14.7,39.67v-32.33h-25.47c-3.72,0-6.86-2.74-7.25-6.47-2.06-16.36-6.27-32.33-12.64-47.51-1.47-3.43-.1-7.35,3.13-9.21l22.04-12.73-16.26-27.92-22.04,12.73c-3.23,1.86-7.35,.98-9.5-1.96-9.99-13.13-21.65-24.78-34.78-34.77-2.94-2.25-3.82-6.27-1.96-9.5l12.74-22.04-28.02-16.16-12.74,22.04c-1.86,3.23-5.78,4.51-9.21,3.13-15.19-6.37-31.15-10.58-47.51-12.64-3.72-.49-6.47-3.62-6.47-7.25V14.89h-32.33v25.47c0,3.72-2.74,6.86-6.47,7.25-16.36,2.06-32.33,6.27-47.51,12.64-3.43,1.47-7.35,.1-9.21-3.13l-12.74-22.04-28.02,16.16,12.74,22.04c1.86,3.23,.98,7.25-1.96,9.5-13.13,9.99-24.79,21.65-34.78,34.77-2.25,2.94-6.27,3.82-9.5,1.96l-22.04-12.73-16.07,28.02,22.04,12.73c3.23,1.86,4.51,5.78,3.13,9.21-6.37,15.18-10.68,31.15-12.64,47.51-.49,3.72-3.62,6.47-7.25,6.47H14.79v32.33h25.47c3.72,0,6.86,2.74,7.25,6.47,2.06,16.36,6.27,32.33,12.64,47.51,1.47,3.43,.1,7.35-3.13,9.21l-22.04,12.73,16.16,28.02,22.04-12.73c3.23-1.86,7.35-.98,9.5,1.96,9.99,13.13,21.65,24.78,34.78,34.77,2.94,2.25,3.82,6.27,1.96,9.5l-12.74,22.04,28.02,16.16,12.74-22.04c1.86-3.23,5.78-4.51,9.21-3.13,15.19,6.37,31.15,10.68,47.51,12.64,3.72,.49,6.47,3.62,6.47,7.25v25.47h32.33v-25.47c0-3.72,2.74-6.86,6.47-7.35,16.36-2.06,32.33-6.27,47.51-12.64,3.43-1.47,7.35-.1,9.21,3.13l12.74,22.04,27.92-16.16-12.74-22.04c-1.86-3.23-.98-7.25,1.96-9.5,13.13-9.99,24.79-21.65,34.78-34.77,2.25-2.94,6.27-3.82,9.5-1.96l22.04,12.73,16.16-28.02-22.04-12.73c-3.23-1.86-4.51-5.78-3.13-9.21,6.37-15.18,10.68-31.15,12.64-47.51,.49-3.72,3.62-6.47,7.25-6.47h25.57Z"/><path d="M226.8,70.04c86.41,0,156.75,70.33,156.75,156.73s-70.34,156.73-156.75,156.73S70.05,313.17,70.05,226.77,140.29,70.04,226.8,70.04Zm53.88,149.39h87.98c-.98-19.98-6.27-39.48-15.38-57.21l-76.22,43.98c1.76,4.31,2.94,8.72,3.62,13.22h0Zm87.98,14.69h-88.07c-.59,4.51-1.76,9.01-3.53,13.22l76.22,43.98c9.11-17.73,14.3-37.22,15.38-57.21h0Zm-98.95-40.55l76.22-43.98c-10.87-16.75-25.18-30.95-41.83-41.83l-43.99,76.21c3.53,2.74,6.76,5.98,9.6,9.6h0Zm76.22,110.5l-76.22-43.98c-2.84,3.62-6.07,6.86-9.7,9.7l43.99,76.21c16.75-10.87,30.96-25.18,41.93-41.93h0Zm-98.65-127.54l43.99-76.21c-17.73-9.11-37.23-14.3-57.21-15.38v87.97c4.6,.69,9.01,1.86,13.23,3.62h0Zm43.99,176.81l-43.99-76.21c-4.21,1.76-8.72,2.94-13.23,3.53v87.97c19.99-.98,39.48-6.17,57.21-15.28h0Zm-24.88-126.46c0-21.94-17.73-39.67-39.68-39.67s-39.68,17.73-39.68,39.67,17.73,39.67,39.68,39.67h0c21.94-.1,39.68-17.83,39.68-39.67h0Zm-47.02,141.84v-87.97c-4.51-.59-9.01-1.76-13.23-3.53l-43.99,76.21c17.83,9.01,37.33,14.2,57.21,15.28h0Zm0-195.72V84.93c-19.99,.98-39.48,6.27-57.21,15.38l43.99,76.21c4.31-1.76,8.72-2.94,13.23-3.53h0Zm-25.86,10.87l-43.99-76.21c-16.75,10.87-30.96,25.18-41.83,41.83l76.22,43.98c2.74-3.53,5.98-6.76,9.6-9.6h0Zm-43.99,162.12l43.99-76.21c-3.62-2.84-6.86-6.07-9.7-9.7l-76.22,43.98c10.97,16.75,25.18,31.05,41.93,41.93Zm26.94-139.69l-76.22-43.98c-9.11,17.73-14.3,37.22-15.38,57.21h87.98c.69-4.6,1.86-9.01,3.62-13.22Zm-76.22,85.03l76.22-43.98c-1.76-4.21-2.94-8.72-3.53-13.22H84.84c1.08,19.98,6.27,39.48,15.38,57.21Z"/><path class="h" d="M226.8,203.75c12.74,0,23.02,10.29,23.02,23.02s-10.29,23.02-23.02,23.02-23.02-10.29-23.02-23.02,10.29-22.92,23.02-23.02Zm8.23,23.02c0-4.6-3.72-8.33-8.33-8.33s-8.33,3.72-8.33,8.33,3.72,8.33,8.33,8.33h0c4.6,0,8.33-3.72,8.33-8.33Z"/></g></g></g></g></g></g></svg>