<?xml version="1.0" encoding="UTF-8"?><svg xmlns="http://www.w3.org/2000/svg" viewBox="0 0 98.83 98.83"><g id="a"/><g id="b"><g id="c"><g id="d"><path d="M98.82,47.56c-.09-1.95-2.22-2.45-2.22-2.45,0,0-6.58-1.14-8.71-1.54-1.69-.32-2.61-1.62-2.92-2.14-.22-.98-.47-1.94-.77-2.89,.01-.62,.17-2.17,1.46-3.29,1.64-1.42,6.77-5.69,6.77-5.69,0,0,1.6-1.5,.7-3.23-.15-.3-1.68-2.94-1.86-3.22-1.05-1.64-3.15-1.01-3.15-1.01,0,0-6.26,2.31-8.32,3.02-1.55,.54-2.93-.03-3.52-.35-.71-.78-1.46-1.53-2.23-2.24-.31-.6-.87-1.97-.34-3.5,.71-2.05,3.02-8.32,3.02-8.32,0,0,.63-2.1-1.01-3.15-.28-.18-2.93-1.71-3.22-1.86-1.73-.9-3.23,.7-3.23,.7,0,0-4.27,5.13-5.69,6.77-.97,1.12-2.28,1.39-3.01,1.45-1.12-.37-2.27-.68-3.44-.93-.61-.42-1.59-1.3-1.86-2.74-.41-2.13-1.54-8.71-1.54-8.71,0,0-.5-2.13-2.45-2.22-.33-.02-3.39-.02-3.72,0-1.95,.09-2.45,2.22-2.45,2.22,0,0-1.14,6.58-1.54,8.71-.26,1.34-1.12,2.19-1.73,2.65-1.3,.27-2.56,.61-3.8,1.01-.75-.09-1.9-.41-2.78-1.42-1.42-1.64-5.69-6.77-5.69-6.77,0,0-1.5-1.6-3.23-.7-.3,.15-2.94,1.68-3.22,1.86-1.64,1.05-1.01,3.15-1.01,3.15,0,0,2.31,6.26,3.02,8.32,.42,1.21,.16,2.32-.12,3.02-1.04,.93-2.04,1.91-2.97,2.95-.71,.28-1.8,.52-3,.11-2.05-.71-8.32-3.02-8.32-3.02,0,0-2.1-.63-3.15,1.01-.18,.28-1.71,2.93-1.86,3.22-.9,1.73,.7,3.23,.7,3.23,0,0,5.13,4.27,6.77,5.69,.92,.79,1.26,1.81,1.39,2.56-.46,1.38-.84,2.79-1.14,4.24-.48,.58-1.29,1.29-2.48,1.51-2.13,.41-8.71,1.54-8.71,1.54,0,0-2.13,.5-2.22,2.45-.02,.33-.02,3.39,0,3.72,.09,1.95,2.22,2.45,2.22,2.45,0,0,6.58,1.14,8.71,1.54,1.19,.23,1.99,.93,2.48,1.51,.3,1.45,.68,2.87,1.14,4.25-.13,.75-.47,1.76-1.39,2.55-1.64,1.42-6.77,5.69-6.77,5.69,0,0-1.6,1.5-.7,3.23,.15,.3,1.68,2.94,1.86,3.22,1.05,1.64,3.15,1.01,3.15,1.01,0,0,6.26-2.31,8.32-3.02,1.19-.41,2.28-.17,2.99,.11,.94,1.04,1.93,2.03,2.98,2.96,.28,.71,.54,1.81,.12,3.02-.71,2.05-3.02,8.32-3.02,8.32,0,0-.63,2.1,1.01,3.15,.28,.18,2.93,1.71,3.22,1.86,1.73,.9,3.23-.7,3.23-.7,0,0,4.27-5.13,5.69-6.77,.87-1.01,2.01-1.33,2.77-1.42,1.25,.4,2.52,.74,3.83,1.01,.61,.45,1.46,1.31,1.72,2.64,.41,2.13,1.54,8.71,1.54,8.71,0,0,.5,2.13,2.45,2.22,.33,.02,3.39,.02,3.72,0,1.95-.09,2.45-2.22,2.45-2.22,0,0,1.14-6.58,1.54-8.71,.27-1.43,1.24-2.31,1.85-2.73,1.18-.26,2.33-.57,3.46-.94,.73,.06,2.03,.33,3,1.44,1.42,1.64,5.69,6.77,5.69,6.77,0,0,1.5,1.6,3.23,.7,.3-.15,2.94-1.68,3.22-1.86,1.64-1.05,1.01-3.15,1.01-3.15,0,0-2.31-6.26-3.02-8.32-.53-1.52,.02-2.88,.33-3.48,.78-.72,1.53-1.47,2.25-2.26,.59-.31,1.97-.88,3.5-.34,2.05,.71,8.32,3.02,8.32,3.02,0,0,2.1,.63,3.15-1.01,.18-.28,1.71-2.93,1.86-3.22,.9-1.73-.7-3.23-.7-3.23,0,0-5.13-4.27-6.77-5.69-1.28-1.11-1.45-2.66-1.46-3.28,.29-.95,.55-1.91,.77-2.9,.31-.52,1.23-1.81,2.92-2.13,2.13-.41,8.71-1.54,8.71-1.54,0,0,2.13-.5,2.22-2.45,.02-.34,.02-3.39,0-3.72h0Zm-49.55,28.25c-14.58,0-26.4-11.82-26.4-26.4s11.82-26.4,26.4-26.4,26.4,11.82,26.4,26.4-11.82,26.4-26.4,26.4Z"/></g></g></g></svg>