<?xml version="1.0" standalone="no"?>
<!DOCTYPE svg PUBLIC "-//W3C//DTD SVG 20010904//EN"
 "http://www.w3.org/TR/2001/REC-SVG-20010904/DTD/svg10.dtd">
<svg version="1.0" xmlns="http://www.w3.org/2000/svg"
 width="512.000000pt" height="512.000000pt" viewBox="0 0 512.000000 512.000000"
 preserveAspectRatio="xMidYMid meet">

<g transform="translate(0.000000,512.000000) scale(0.100000,-0.100000)"
fill="#000000" stroke="none">
<path d="M1681 5109 c-313 -61 -568 -316 -628 -628 -16 -83 -20 -92 -43 -97
-173 -38 -332 -139 -424 -267 -137 -192 -170 -401 -101 -642 4 -15 -3 -26 -28
-43 -56 -37 -187 -173 -239 -247 -90 -126 -150 -261 -190 -420 -29 -120 -32
-358 -4 -485 52 -244 196 -488 377 -640 l66 -54 -10 -51 c-5 -27 -7 -95 -5
-150 14 -298 224 -556 516 -631 l69 -18 11 -73 c21 -132 101 -298 195 -402 47
-51 171 -142 241 -176 213 -102 471 -105 683 -6 186 88 338 250 409 437 29 77
54 195 54 255 l0 39 384 0 385 0 147 -186 146 -186 -23 -51 c-48 -101 -24
-232 56 -310 59 -57 109 -77 196 -77 61 0 85 5 127 26 120 59 176 195 138 329
-14 45 -29 69 -69 110 -80 79 -167 100 -297 70 -23 -5 -38 12 -170 181 -80
103 -155 197 -167 210 l-22 24 -416 0 -415 0 0 210 0 210 370 0 369 0 19 -43
c57 -128 231 -195 358 -138 193 88 225 347 60 472 -27 21 -69 43 -93 49 -57
16 -149 8 -200 -18 -49 -26 -118 -101 -133 -148 l-12 -34 -369 0 -369 0 0 210
0 210 588 0 589 0 18 -40 c43 -96 145 -160 255 -160 156 1 271 118 271 277 0
116 -55 198 -170 251 -45 21 -64 24 -120 20 -39 -3 -83 -14 -107 -26 -50 -26
-119 -101 -134 -148 l-12 -34 -589 0 -589 0 0 210 0 210 209 0 210 0 28 -52
c66 -123 220 -177 349 -123 92 38 164 147 164 249 0 90 -17 134 -80 198 -66
67 -138 95 -223 84 -102 -14 -203 -93 -229 -178 l-11 -38 -209 0 -208 0 0 210
0 210 543 0 542 0 443 -443 443 -443 -16 -37 c-18 -44 -19 -148 -1 -199 48
-133 209 -209 347 -163 77 26 152 103 175 180 38 134 -21 272 -142 330 -56 27
-163 32 -221 10 l-45 -18 -462 462 -461 461 -573 0 -572 0 0 220 0 220 970 0
970 0 15 -36 c56 -134 209 -204 346 -159 73 25 149 101 174 174 46 140 -29
298 -165 346 -65 23 -156 19 -215 -9 -58 -26 -117 -88 -136 -140 l-13 -36
-973 0 -973 0 0 155 0 155 572 0 572 0 160 160 161 159 40 -14 c93 -33 195
-10 274 61 185 166 66 477 -182 477 -115 0 -212 -63 -257 -166 -28 -63 -29
-160 -2 -220 l20 -44 -137 -137 -136 -136 -541 0 -541 0 -6 123 c-7 144 -30
237 -88 347 -107 206 -298 357 -519 410 -91 21 -254 26 -339 9z m354 -164
c202 -68 355 -219 423 -420 l27 -80 3 -1845 c3 -2070 8 -1930 -71 -2090 -83
-170 -255 -304 -443 -346 -106 -23 -252 -15 -352 20 -247 86 -415 298 -442
558 -11 110 -21 123 -98 133 -232 29 -419 191 -477 412 -19 74 -19 193 0 268
20 76 11 98 -61 150 -150 108 -289 301 -353 492 -131 390 4 848 324 1101 136
107 138 109 132 139 -2 16 -15 55 -27 88 -31 83 -38 227 -15 315 57 218 237
378 462 410 90 12 102 26 113 131 16 156 69 274 174 387 96 103 230 179 359
202 91 16 233 5 322 -25z m2263 -185 c59 -36 78 -118 42 -178 -76 -125 -250
-76 -250 72 0 43 4 53 39 87 34 35 44 39 87 39 31 0 61 -7 82 -20z m620 -950
c55 -34 77 -112 48 -168 -37 -70 -109 -98 -179 -69 -49 21 -77 68 -77 131 0
43 4 53 39 87 34 35 44 39 87 39 31 0 61 -7 82 -20z m-1522 -1127 c53 -34 71
-126 37 -184 -24 -40 -93 -73 -135 -64 -101 21 -149 126 -95 206 44 66 128 85
193 42z m1520 -542 c34 -21 64 -75 64 -116 0 -63 -58 -125 -123 -132 -85 -10
-147 49 -147 141 0 43 4 53 39 87 34 35 44 39 87 39 30 0 61 -7 80 -19z m-775
-16 c43 -23 69 -71 69 -129 0 -43 -4 -53 -39 -87 -34 -35 -44 -39 -87 -39 -61
0 -105 25 -127 73 -21 43 -22 79 -3 115 16 30 53 66 76 75 29 11 81 7 111 -8z
m-440 -560 c43 -23 69 -71 69 -129 0 -43 -4 -53 -39 -87 -34 -35 -44 -39 -87
-39 -90 0 -152 67 -141 153 6 41 44 92 82 107 32 14 84 11 116 -5z m279 -1170
c69 -36 95 -109 61 -177 -25 -52 -65 -78 -121 -78 -56 0 -96 26 -121 78 -56
114 68 235 181 177z"/>
<path d="M1728 4701 c-163 -42 -284 -186 -296 -351 -4 -59 -2 -70 17 -89 26
-26 61 -27 90 -3 16 12 24 35 31 80 31 222 280 316 441 165 51 -48 76 -97 87
-177 12 -85 87 -114 129 -50 15 23 15 34 5 97 -30 173 -159 304 -332 337 -70
13 -92 12 -172 -9z"/>
<path d="M1387 3812 c-24 -26 -21 -75 4 -98 14 -13 43 -20 98 -25 132 -11 230
-78 288 -197 27 -54 28 -65 31 -229 4 -153 2 -181 -17 -242 -40 -130 -153
-222 -295 -240 -77 -9 -96 -24 -96 -77 0 -62 66 -80 183 -49 178 46 319 194
356 373 16 79 14 354 -4 430 -51 216 -243 372 -458 372 -59 0 -77 -4 -90 -18z"/>
<path d="M1014 3279 c-148 -25 -288 -101 -411 -224 -80 -80 -97 -105 -141
-196 -58 -118 -84 -226 -80 -318 3 -56 6 -66 30 -84 23 -17 31 -18 56 -8 36
15 52 48 52 109 0 106 62 262 142 359 111 134 303 232 456 233 43 0 81 13 94
34 16 24 8 75 -14 90 -25 18 -99 19 -184 5z"/>
<path d="M959 2529 c-20 -20 -21 -29 -16 -103 14 -216 171 -406 392 -472 51
-16 99 -19 318 -19 l259 0 19 24 c25 30 24 66 -1 91 -19 19 -33 20 -232 20
-242 0 -320 9 -398 47 -107 52 -201 176 -215 284 -13 97 -17 111 -36 130 -25
25 -64 24 -90 -2z"/>
<path d="M1515 1650 c-15 -16 -17 -32 -13 -102 11 -192 115 -367 286 -479 84
-55 165 -84 276 -100 72 -10 81 -9 105 9 33 24 40 80 14 104 -10 9 -54 21
-103 27 -160 21 -309 120 -379 251 -41 76 -50 107 -61 199 -6 44 -16 81 -26
92 -23 25 -76 25 -99 -1z"/>
<path d="M840 1543 c-19 -25 -22 -37 -18 -100 11 -163 134 -305 288 -329 34
-6 45 -3 65 16 50 47 22 105 -63 129 -92 26 -151 111 -152 217 0 70 -17 94
-68 94 -21 0 -37 -8 -52 -27z"/>
<path d="M1430 855 c-20 -22 -22 -31 -17 -84 22 -211 187 -376 397 -398 53 -5
60 -4 84 20 53 53 19 110 -71 120 -146 16 -253 123 -270 268 -10 92 -71 129
-123 74z"/>
<path d="M4544 3298 c-54 -18 -126 -80 -153 -133 -19 -35 -27 -69 -29 -120 -4
-64 -1 -76 30 -134 108 -209 397 -199 496 17 20 44 23 65 20 120 -9 157 -123
264 -277 261 -31 -1 -70 -6 -87 -11z m157 -143 c93 -48 90 -194 -4 -238 -95
-46 -197 14 -197 116 0 104 108 170 201 122z"/>
<path d="M4532 1390 c-72 -33 -110 -69 -143 -136 -28 -56 -31 -71 -27 -131 5
-82 28 -134 85 -190 101 -98 275 -98 376 0 58 57 80 108 85 192 3 64 1 76 -30
134 -66 128 -222 187 -346 131z m169 -135 c90 -47 90 -193 0 -240 -91 -47
-201 17 -201 118 0 104 108 170 201 122z"/>
</g>
</svg>
