<?xml version="1.0" encoding="UTF-8"?><svg xmlns="http://www.w3.org/2000/svg" viewBox="0 0 56.02 56.01"><g id="a"/><g id="b"><g id="c"><path d="M28.01,0c-1.01,0-1.99,.37-2.75,1.12l-5.62,5.69c-.3,.16-.56,.4-.75,.69L1.14,25.25c-1.52,1.51-1.52,3.98,0,5.5l24.12,24.12c1.52,1.51,3.98,1.51,5.5,0l24.12-24.12c1.52-1.51,1.52-3.98,0-5.5L30.76,1.12c-.76-.76-1.74-1.12-2.75-1.12Zm0,4.06l23.94,23.94-23.94,23.94L4.07,28,20.64,11.44l3.5,3.5c-.09,.34-.12,.7-.12,1.06,0,1.48,.8,2.74,2,3.44v17.12c-1.2,.7-2,1.96-2,3.44,0,2.21,1.79,4,4,4s4-1.79,4-4c0-1.48-.8-2.74-2-3.44v-15.69l6.12,6.12c-.09,.32-.12,.66-.12,1,0,2.21,1.79,4,4,4s4-1.79,4-4-1.79-4-4-4c-.34,0-.68,.04-1,.12l-7.12-7.12c.09-.32,.12-.66,.12-1,0-2.21-1.79-4-4-4-.37,0-.73,.03-1.06,.12l-3.5-3.5,4.56-4.56Z"/></g></g></svg>