<?xml version="1.0" standalone="no"?>
<!DOCTYPE svg PUBLIC "-//W3C//DTD SVG 20010904//EN"
 "http://www.w3.org/TR/2001/REC-SVG-20010904/DTD/svg10.dtd">
<svg version="1.0" xmlns="http://www.w3.org/2000/svg"
 width="96.000000pt" height="96.000000pt" viewBox="0 0 96.000000 96.000000"
 preserveAspectRatio="xMidYMid meet">

<g transform="translate(0.000000,96.000000) scale(0.100000,-0.100000)"
fill="#000000" stroke="none">
<path d="M383 783 c40 -115 57 -178 49 -181 -29 -9 -63 -47 -73 -82 -11 -35
-9 -44 14 -92 l26 -53 -27 -28 c-15 -16 -47 -40 -71 -55 l-44 -26 -18 23 c-25
31 -25 78 1 86 36 11 70 63 70 107 0 101 -103 160 -188 108 -32 -20 -62 -71
-62 -107 0 -10 8 -34 18 -53 19 -34 19 -35 -6 -88 -29 -65 -39 -155 -22 -206
17 -53 64 -102 116 -122 69 -26 129 -15 285 55 94 42 165 67 233 80 110 22
154 47 185 101 17 30 20 54 20 151 -1 132 -9 161 -54 189 l-33 21 58 174 59
175 -298 0 -298 0 60 -177z m457 115 c-7 -33 -100 -283 -106 -285 -5 -2 -32
42 -59 97 -27 55 -52 100 -55 100 -3 0 -28 -45 -55 -100 -27 -55 -52 -100 -56
-100 -4 0 -17 30 -30 68 -12 37 -35 102 -50 145 l-28 77 219 0 c121 0 220 -1
220 -2z m-178 -351 c-24 -50 -53 -50 -76 2 -18 38 -17 39 9 92 l28 53 28 -55
c27 -55 28 -57 11 -92z m-449 2 c66 -30 46 -129 -26 -129 -40 0 -67 26 -67 64
0 36 7 48 35 64 25 14 29 14 58 1z m312 -14 c14 -13 25 -33 25 -45 0 -28 -43
-70 -73 -70 -61 0 -89 81 -41 119 35 27 59 26 89 -4z m290 0 c30 -30 31 -54 4
-89 -39 -50 -119 -22 -119 43 0 20 9 36 26 50 35 27 59 26 89 -4z m-157 -104
c19 -43 93 -77 137 -63 19 5 36 7 39 4 11 -11 6 -54 -10 -88 -21 -45 -69 -69
-164 -83 -42 -7 -110 -28 -155 -47 -219 -98 -215 -96 -277 -92 -50 4 -64 9
-90 36 -44 43 -51 125 -18 212 22 60 40 78 40 40 0 -37 32 -100 63 -122 l30
-22 64 33 c35 19 80 52 101 76 26 29 48 44 74 49 41 8 94 46 103 76 10 31 48
25 63 -9z"/>
</g>
</svg>
