<?xml version="1.0" encoding="UTF-8"?><svg xmlns="http://www.w3.org/2000/svg" viewBox="0 0 22 20"><g id="a"/><g id="b"><g id="c"><path d="M10.5,0c-3.08,0-5.5,3.58-5.5,8.15,0,2.07,.5,3.93,1.33,5.35-.05,.16-.08,.32-.08,.5,0,.97,.78,1.75,1.75,1.75s1.75-.78,1.75-1.75-.78-1.75-1.75-1.75c-.02,0-.05,0-.07,0-.57-1.1-.93-2.54-.93-4.1,0-3.34,1.6-6.15,3.5-6.15,1.29,0,2.43,1.3,3.04,3.17,.74,.12,1.48,.32,2.22,.58-.68-3.36-2.75-5.75-5.26-5.75Zm-.12,6.5c-.97,0-1.75,.78-1.75,1.75s.78,1.75,1.75,1.75c.69,0,1.28-.4,1.56-.97,1.29,.06,2.73,.43,4.09,1.17,1.96,1.06,3.44,2.69,3.86,4.26,.22,.8,.14,1.51-.22,2.1-.72,1.17-2.43,1.64-4.39,1.39-.58,.59-1.24,1.13-1.96,1.62,1,.29,1.99,.44,2.92,.44,2.23,0,4.15-.82,5.13-2.41,.65-1.06,.81-2.33,.45-3.66-.56-2.11-2.37-4.16-4.84-5.5-1.8-.98-3.67-1.43-5.37-1.42-.32-.32-.75-.51-1.24-.51Zm-7.28,3.24C1.64,10.95,.59,12.43,.19,13.93c-.36,1.34-.2,2.6,.45,3.66,.98,1.59,2.89,2.41,5.13,2.41,1.69,0,3.57-.46,5.36-1.44,1.71-.93,3.09-2.2,3.97-3.6,.8-.16,1.4-.87,1.4-1.71,0-.97-.78-1.75-1.75-1.75s-1.75,.78-1.75,1.75c0,.33,.1,.63,.25,.89-.71,1.01-1.78,1.97-3.08,2.67-3.12,1.69-6.71,1.57-7.83-.26-.36-.59-.44-1.29-.22-2.09,.22-.81,.73-1.65,1.44-2.41-.22-.72-.37-1.49-.46-2.3Z"/></g></g></svg>