<?xml version="1.0" standalone="no"?>
<!DOCTYPE svg PUBLIC "-//W3C//DTD SVG 20010904//EN"
 "http://www.w3.org/TR/2001/REC-SVG-20010904/DTD/svg10.dtd">
<svg version="1.0" xmlns="http://www.w3.org/2000/svg"
 width="214.000000pt" height="214.000000pt" viewBox="0 0 214.000000 214.000000"
 preserveAspectRatio="xMidYMid meet">

<g transform="translate(0.000000,214.000000) scale(0.100000,-0.100000)"
fill="#000000" stroke="none">
<path d="M861 2049 c-237 -50 -468 -200 -606 -394 -83 -116 -151 -276 -174
-409 -14 -77 -14 -275 0 -352 58 -331 294 -620 614 -753 211 -88 487 -93 712
-13 448 158 730 638 648 1104 -99 567 -636 934 -1194 817z m433 -124 c160 -43
296 -125 414 -250 162 -172 242 -372 242 -605 0 -233 -80 -433 -243 -605 -174
-186 -385 -276 -644 -276 -143 0 -255 26 -380 86 -179 87 -316 223 -404 400
-72 146 -91 230 -91 395 0 165 19 249 91 395 60 120 135 214 237 295 86 68
227 141 324 166 131 34 326 33 454 -1z"/>
<path d="M1189 1690 c-179 -28 -343 -121 -488 -276 -120 -128 -160 -246 -118
-346 9 -21 54 -78 101 -128 47 -50 86 -95 86 -101 0 -6 -17 -30 -38 -54 -49
-56 -93 -144 -100 -200 -8 -78 22 -120 100 -139 54 -13 139 42 216 139 55 70
72 107 72 160 l0 45 40 0 c46 0 95 -21 104 -45 3 -9 6 -38 7 -63 1 -110 48
-157 89 -90 28 45 53 134 46 163 -9 35 -71 91 -132 120 -28 13 -96 32 -149 40
-198 32 -361 156 -340 258 16 77 104 187 210 262 125 89 246 135 353 135 174
0 247 -85 174 -201 -38 -60 -107 -117 -156 -130 -29 -8 -76 -8 -171 1 -195 18
-259 -5 -180 -65 105 -81 307 -85 453 -11 144 74 228 233 192 366 -32 118
-193 188 -371 160z m-283 -981 c8 -14 -132 -152 -149 -146 -18 6 -11 53 14 88
38 54 116 88 135 58z"/>
</g>
</svg>
