<?xml version="1.0" encoding="UTF-8"?><svg xmlns="http://www.w3.org/2000/svg" viewBox="0 0 42 42"><g id="a"/><g id="b"><g id="c"><path d="M1,0C.45,0,0,.45,0,1V41c0,.55,.45,1,1,1H41c.55,0,1-.45,1-1V1c0-.55-.45-1-1-1H1Zm1,2H40V40H2V2ZM11,19v3.45h5v15.55h4v-15.55h5v-3.45H11Zm21.69,0c-3.11-.01-6.67,.93-6.67,5.31,0,5.73,7.72,5.73,7.72,8.32,0,.24,.1,2.03-2.62,2.03s-5-1.71-5-1.71v4.16s11.88,3.84,11.88-4.82c0-5.62-7.79-5.34-7.79-8.14,0-1.08,.77-2.1,2.9-2.1s4.02,1.26,4.02,1.26l.14-3.71s-2.15-.59-4.58-.6Z"/></g></g></svg>