<?xml version="1.0" encoding="UTF-8"?><svg xmlns="http://www.w3.org/2000/svg" viewBox="0 0 269.59 511.01"><defs><style>.f{fill:#fffea8;}.g{fill:#6d6f7b;}.h{fill:#312c1b;}.i{fill:#4e4832;}.j{fill:none;}.k{fill:#575556;}.l{fill:#f2b12e;}.m{fill:#291e1b;}</style></defs><g id="a"/><g id="b"><g id="c"><rect class="i" x="9.2" y="78.94" width="251.97" height="163.69" rx="10.61" ry="10.61"/><g id="d"><g id="e"><g><path class="i" d="M153,318.12c0,6.2-3.16,11.65-7.96,14.83-2.82,1.89-6.22,2.98-9.86,2.98s-7.04-1.09-9.86-2.98c-4.8-3.18-7.96-8.63-7.96-14.83,0-6.56,3.53-12.27,8.8-15.37,2.63-1.55,5.73-2.45,9.02-2.45s6.34,.88,8.98,2.43c5.29,3.08,8.84,8.81,8.84,15.39h0Z"/><path class="i" d="M191.38,241.33c-.55,5.85-4.78,10.58-10.31,11.95-1.05,.25-2.15,.39-3.28,.39H92.57c-1.13,0-2.23-.14-3.28-.39-5.52-1.37-9.75-6.1-10.3-11.95h112.39Z"/><path class="i" d="M152.41,252.67c-.08,5.13-.36,10.23-.85,15.26-1.11,11.59-3.3,22.79-6.49,33.15-.07,.17-.12,.37-.17,.56-.23,.74-.48,1.44-.74,2.09-2.64-1.55-5.71-2.43-8.98-2.43s-6.39,.9-9.02,2.45c-.28-.67-.53-1.4-.77-2.17-.06-.21-.14-.42-.19-.63-3.15-10.32-5.31-21.47-6.41-33-.49-5.03-.77-10.14-.84-15.28h34.46Z"/><path class="i" d="M145.04,332.95v149.86l-7.05,28.2c-.9-.23-1.85-.35-2.82-.35s-1.9,.12-2.8,.35l-7.05-28.2v-149.86c2.82,1.89,6.22,2.98,9.86,2.98s7.04-1.09,9.86-2.98h0Z"/><path class="i" d="M108.12,312.83c-1.64,5.97-6.14,10.39-11.61,12.19-3.22,1.07-6.78,1.23-10.3,.26-3.51-.97-6.49-2.92-8.72-5.48-3.78-4.36-5.38-10.46-3.73-16.43,1.73-6.31,6.65-10.89,12.56-12.47,2.96-.81,6.17-.84,9.34,.03,3.16,.87,5.89,2.53,8.02,4.72,4.28,4.38,6.18,10.84,4.44,17.18Z"/><path class="i" d="M118.79,267.95c-3.84,9.44-8.4,18.33-13.53,26.38-.11,.16-.21,.33-.31,.5-.42,.65-.85,1.26-1.27,1.82-2.13-2.19-4.86-3.85-8.02-4.72-3.17-.87-6.38-.84-9.34-.03-.09-.73-.14-1.5-.17-2.31,0-.22-.01-.44-.01-.66-.33-11.78,.74-24.19,3.15-36.65,1.05,.25,2.15,.39,3.28,.39h25.38c.07,5.14,.35,10.25,.84,15.28h0Z"/><path class="i" d="M96.51,325.02l-39.77,144.49-14.27,25.31c-.81-.45-1.69-.82-2.63-1.08-.93-.25-1.87-.39-2.8-.41,.23-9.68,.46-19.36,.69-29.05l39.76-144.48c2.23,2.56,5.21,4.51,8.72,5.48,3.52,.97,7.08,.81,10.3-.26h0Z"/><path class="i" d="M192.87,319.8c-2.23,2.56-5.21,4.51-8.72,5.48-3.52,.97-7.08,.81-10.3-.26-5.47-1.8-9.97-6.22-11.61-12.19-1.74-6.34,.16-12.8,4.44-17.18,2.13-2.19,4.86-3.85,8.02-4.72,3.17-.87,6.39-.84,9.34-.03,5.91,1.58,10.83,6.16,12.56,12.47,1.65,5.97,.05,12.07-3.73,16.43Z"/><path class="i" d="M184.22,288.93c0,.22,0,.44,0,.66-.03,.81-.08,1.58-.17,2.31-2.95-.81-6.17-.84-9.34,.03-3.16,.87-5.89,2.53-8.02,4.72-.42-.56-.85-1.17-1.27-1.82-.1-.17-.2-.34-.31-.5-5.13-8.05-9.69-16.95-13.54-26.4,.49-5.03,.77-10.13,.85-15.26h25.38c1.13,0,2.23-.14,3.28-.39,2.41,12.46,3.48,24.87,3.15,36.65h0Z"/><path class="i" d="M233.32,493.33c-.93,.02-1.87,.16-2.8,.41-.94,.26-1.82,.63-2.63,1.08l-14.27-25.31-39.77-144.49c3.22,1.07,6.78,1.23,10.3,.26,3.51-.97,6.49-2.92,8.72-5.48l39.76,144.48c.23,9.69,.46,19.37,.69,29.05h0Z"/><path class="i" d="M9.2,98.06v45.31H3.56c-1.96,0-3.56-1.61-3.56-3.56v-38.2c0-1.95,1.6-3.56,3.56-3.56h5.64Z"/><path class="i" d="M269.59,101.62v38.2c0,1.95-1.6,3.56-3.55,3.56h-4.87v-45.31h4.87c1.95,0,3.55,1.6,3.55,3.56h0Z"/><path class="i" d="M234.6,74.09v4.87h-45.3v-4.87c0-1.95,1.6-3.55,3.55-3.55h38.2c1.95,0,3.55,1.6,3.55,3.55Z"/><path class="m" d="M193.84,119.61c-.55-1.69-.58-1.79-1.13-3.48l2.68-3.48c-2.43-3.35-.07-.09-2.5-3.43l-4.13,1.47c-1.44-1.04-1.52-1.11-2.96-2.15l.12-4.38c-3.93-1.28-.11-.04-4.04-1.31l-2.48,3.61h-3.65l-2.48-3.61c-3.93,1.27-.11,.03-4.04,1.31l.12,4.38c-1.44,1.04-1.52,1.11-2.96,2.15l-4.13-1.47c-2.43,3.35-.07,.09-2.5,3.43l2.68,3.48c-.55,1.69-.58,1.79-1.13,3.48l-4.21,1.24v4.2h7.43c-.09-.49-.14-.97-.16-1.48h7.22c.05,.52,.17,1.01,.34,1.48h11.28c.17-.47,.29-.96,.34-1.48h7.23c-.03,.5-.08,.99-.16,1.48h7.43v-4.2l-4.21-1.24h0Zm-22.24,2.77h-7.22c.14-3.21,1.42-6.11,3.44-8.32l5.11,5.11c-.73,.89-1.21,1.99-1.33,3.21Zm5.38-5.38c-1.21,.12-2.31,.59-3.21,1.33l-5.11-5.11c2.21-2.03,5.12-3.31,8.32-3.45v7.23h0Zm1.19,0v-7.23c3.21,.14,6.11,1.42,8.32,3.45l-5.11,5.11c-.89-.74-2-1.21-3.21-1.33h0Zm5.38,5.38c-.12-1.21-.59-2.32-1.33-3.21l5.11-5.11c2.03,2.21,3.29,5.12,3.45,8.32h-7.23Z"/><path class="i" d="M167.87,79.73v23.94c0,1.68-1.38,3.06-3.06,3.06h-59.26c-1.68,0-3.06-1.38-3.06-3.06v-23.94c0-.26,.03-.52,.1-.76h65.17c.07,.25,.1,.5,.1,.76h0Z"/><path class="l" d="M21.36,162.88v33.05c-.4-.16-.83-.25-1.29-.25H9.19v-32.55h10.88c.46,0,.9-.09,1.29-.25Z"/><path class="h" d="M23.66,156.6v2.93c0,1.52-.96,2.83-2.3,3.35-.4,.16-.83,.25-1.29,.25H9.19v-10.12h10.88c1.98,0,3.59,1.62,3.59,3.6h0Z"/><path class="h" d="M23.66,199.28v2.93c0,1.98-1.62,3.59-3.59,3.59H9.19v-10.12h10.88c.46,0,.9,.09,1.29,.25,1.34,.52,2.3,1.83,2.3,3.35Z"/><path class="m" d="M226.92,68.99v1.55h-5.32c0-5.33-4.32-9.65-9.66-9.65s-9.65,4.32-9.66,9.65h-5.3v-1.55l3.07-.9c.4-1.23,.42-1.3,.83-2.54l-1.95-2.54c1.77-2.44,.05-.07,1.82-2.51l3.02,1.07c1.05-.76,1.11-.8,2.16-1.57l-.09-3.21c2.87-.93,.08-.03,2.95-.95l1.82,2.64h2.67l1.82-2.64c2.87,.92,.08,.02,2.95,.95l-.09,3.21c1.05,.76,1.11,.8,2.16,1.57l3.02-1.07c1.77,2.44,.05,.07,1.82,2.51l-1.95,2.54c.41,1.24,.42,1.31,.83,2.54l3.08,.9h0Z"/><polygon class="i" points="173.52 78.97 96.84 78.97 104.56 66.16 165.8 66.16 173.52 78.97"/><path class="i" d="M70.14,77.34c0,.58-.12,1.13-.34,1.63H32.54c-.22-.5-.34-1.05-.34-1.63,0-1.12,.46-2.15,1.2-2.89s1.76-1.2,2.89-1.2h29.76c2.25,0,4.09,1.84,4.09,4.09Z"/><path class="h" d="M63.62,68.43v4.82h-24.9v-4.82c0-.63,.5-1.13,1.13-1.13h22.64c.62,0,1.13,.51,1.13,1.13Z"/><path class="h" d="M63.62,68.46v-.03c0-.63-.51-1.13-1.13-1.13h-22.64c-.63,0-1.13,.51-1.13,1.13v.45l-8.27-9.83c0-.26,.4-.48,.87-.48h39.33c.48,0,.87,.22,.87,.48l-7.91,9.42h0Z"/><path class="j" d="M50.98,0c-15.81,0-28.63,12.82-28.63,28.63,0,8.19,3.44,15.58,8.96,20.8,5.13,4.86,12.06,7.84,19.68,7.84s14.75-3.07,19.91-8.05c5.39-5.21,8.74-12.51,8.74-20.59C79.64,12.82,66.82,0,51,0h-.02Zm5.37,53.48c-1.73,.38-3.52,.58-5.37,.58-1.69,0-3.36-.17-4.97-.49-11.66-2.31-20.45-12.6-20.45-24.94,0-14.04,11.39-25.43,25.42-25.43s25.44,11.38,25.44,25.43c0,12.2-8.59,22.39-20.07,24.85Z"/><path class="f" d="M76.42,28.63c0,12.2-8.59,22.39-20.07,24.85-4.34-6.7-4.28-10.67-3.22-13.12,1.16-2.72,3.65-3.79,3.4-6.27-.23-2.33-2.75-4.69-5.39-4.77-2.76-.07-5.13,2.35-6.03,4.69-2,5.14,3.4,9.01,2.07,16.11-.26,1.37-.71,2.53-1.16,3.45-11.66-2.31-20.45-12.6-20.45-24.94,0-14.04,11.39-25.43,25.42-25.43s25.44,11.38,25.44,25.43h-.01Z"/><path class="k" d="M56.35,53.48c-1.73,.38-3.52,.58-5.37,.58-1.69,0-3.36-.17-4.97-.49,.46-.92,.9-2.08,1.16-3.45,1.34-7.1-4.07-10.97-2.07-16.11,.9-2.33,3.28-4.76,6.03-4.69,2.64,.07,5.16,2.43,5.39,4.77,.25,2.48-2.24,3.55-3.4,6.27-1.05,2.45-1.11,6.42,3.22,13.12h.01Z"/><path class="h" d="M70.89,49.22c-.27,1.05-.62,2.18-1.08,3.35-.95,2.41-2.14,4.4-3.29,5.98h-30.9c-1.15-1.58-2.33-3.57-3.29-5.98-.43-1.1-.77-2.15-1.03-3.14,5.13,4.86,12.06,7.84,19.68,7.84s14.75-3.07,19.91-8.05Z"/><path class="k" d="M36.53,181.43c-5.12-.39-10.21-1.23-15.17-2.53v-10.31c4.22,1.27,8.56,2.16,12.94,2.66,.12,1.19,.29,2.43,.53,3.72,.44,2.38,1.03,4.54,1.7,6.46h0Z"/><path class="g" d="M59.67,179.99c-2.5,.52-5.02,.92-7.55,1.19-3.03,.33-6.09,.5-9.15,.5-2.14,0-4.29-.08-6.44-.25-.67-1.92-1.26-4.08-1.7-6.46-.24-1.29-.41-2.53-.53-3.72,5.56,.64,11.19,.67,16.73,.07,1.4-.16,2.8-.34,4.2-.58,.28,1.54,.76,3.19,1.57,4.89,.84,1.75,1.84,3.19,2.87,4.37h0Z"/><path class="k" d="M80.09,170.23c0,.93,.02,1.85,.07,2.78-6.49,3.19-13.41,5.54-20.48,6.98-1.03-1.18-2.03-2.62-2.87-4.37-.8-1.7-1.29-3.35-1.57-4.89,8.97-1.52,17.73-4.7,25.56-9.33-.47,2.88-.7,5.82-.7,8.83h-.01Z"/><path class="k" d="M77.88,201.93c-5.61,1.42-12.19,2.49-19.33,2.49-1.02,0-2.05-.02-3.1-.07-.39-1.53-.68-3.21-.82-5.02-.14-1.79-.12-3.44,0-4.95,7.38,.47,14.26-.47,20.05-1.87,.37,1.61,.87,3.3,1.49,5.08,.53,1.55,1.11,3,1.71,4.34Z"/><path class="g" d="M55.45,204.35c-7.19-.32-14.85-1.78-22.57-5.05-.32-.14-.65-.28-.96-.42-.06-2.03,.02-4.22,.3-6.52,.17-1.42,.4-2.77,.66-4.03,1.27,.67,2.56,1.28,3.88,1.84,6.06,2.58,12.12,3.83,17.86,4.21-.12,1.51-.14,3.16,0,4.95,.14,1.82,.44,3.49,.82,5.02h0Z"/><path class="k" d="M32.22,192.36c-.28,2.3-.36,4.49-.3,6.52-3.68-1.64-7.22-3.64-10.56-5.97v-12.63c3.56,3.21,7.41,5.9,11.52,8.05-.27,1.26-.5,2.61-.66,4.03Z"/><path class="g" d="M88,198.7c-2.8,1.09-6.22,2.24-10.12,3.24-.61-1.34-1.18-2.79-1.71-4.34-.62-1.78-1.11-3.48-1.49-5.08,3.41-.84,6.44-1.83,8.96-2.78,1.18,3.14,2.65,6.14,4.36,8.96h0Z"/><path class="l" d="M59.69,22.5c-1.26-1.37-3.09-2.27-4.67-3.05h-.02c1.51-2.9,1.7-6.25-.75-8.34-1.5-1.11-3.25-1.84-5.19-1.11-2.16,.87-1.66,3.94-1.02,5.4,.61,1.75,1.7,3.39,3.1,4.64-1.15,1.37-2.62,2.37-3.92,2.32-2.8-.26-2.87-3.8-5.46-4.77-3.53-.44-3.53,5.51-3.62,7.79,.03,3.62,1.11,7.18,3.01,10.12-1.32-3.24-1.92-6.71-1.55-10.06,.25-1.94,.51-4.4,1.66-5.73,.07,.07,.2,.2,.32,.4,1.21,2.04,2.67,4.67,5.48,4.83,2.33,.16,4.73-1.27,6.47-3.34,.11,.05,.22,.12,.34,.16,1.67,.77,3.09,1.33,4.21,2.38,4.78,4.55,4.64,13.01,.76,18.33,5.22-4.97,6.02-14.59,.85-20v.03Zm-9.3-9.82c3.03,.23,3.26,2.62,2.23,4.98-1.28-1.4-2.12-3.22-2.23-4.98Z"/></g><rect class="f" x="72.42" y="124.3" width="127.16" height="85.05" rx="4.48" ry="4.48"/></g></g></g></g></svg>