<?xml version="1.0" encoding="UTF-8"?><svg xmlns="http://www.w3.org/2000/svg" viewBox="0 0 150.66 194.26"><defs><style>.f{fill:#4e4832;}</style></defs><g id="a"/><g id="b"><g id="c"><g id="d"><g id="e"><path class="f" d="M55.79,.38c6.36,1.23,11.54,4.02,16.3,8.73,5.54,5.53,8.29,11.11,9.24,18.7,.74,6.23-.82,13.69-4.02,19.27-2.34,4.02-8.17,9.63-12.23,11.77-5.17,2.71-8.91,3.61-14.99,3.61s-8.83-.66-14.37-3.36c-3.33-1.64-4.48-2.46-7.84-5.82-3.33-3.36-4.19-4.51-5.79-7.83-2.55-5.25-3.33-8.57-3.33-14.14s.74-8.86,2.92-13.49C25.82,8.99,33.99,2.55,43.6,.59c3.37-.7,9.2-.78,12.19-.2h0Zm-10.1,4.25c-1.19,.16-2.3,.49-2.55,.74-.62,.78,5.21,11.32,6.9,12.46,1.56,1.07,5.5,1.64,7.02,1.07,1.77-.66,10.67-7.09,10.67-7.71,0-1.15-6.65-4.96-10.26-5.99-1.03-.25-2.96-.62-4.31-.78-2.42-.33-3.28-.29-7.47,.2h0Zm-11.37,4.68c-3.12,2.17-6.69,6.35-8.46,10.04-1.85,3.77-3.24,9.47-2.55,10.17,.53,.53,12.52-1.52,13.79-2.34s3.57-4.84,3.61-6.23c.04-1.93-3.41-12.83-4.06-12.83-.33,0-1.35,.53-2.34,1.19h0Zm33.38,10.99c-5.17,5.49-5.38,5.86-5.09,9.14,.41,4.22,.7,4.63,6.04,8.65,2.67,2.01,5.09,3.77,5.42,3.89,1.27,.49,3.12-5.86,3.12-10.7,0-5.62-3.2-14.96-5.09-14.96-.33,0-2.3,1.8-4.39,3.98h-.01Zm-22.05,2.42c-2.42,1.19-3.86,2.87-4.8,5.45-1.19,3.4-.37,7.09,2.13,9.68,6.86,7.05,18.72,.9,16.59-8.57-1.4-6.27-8.13-9.43-13.92-6.56Zm-22.01,13.65c-.33,.53,1.27,5.21,2.75,8.04,1.89,3.53,7.14,8.69,10.8,10.58,2.26,1.15,3.04,1.39,3.37,.98,.7-.82,2.13-12.5,1.68-13.69-.53-1.39-3.61-5-4.89-5.66-1.19-.66-13.34-.86-13.71-.25Zm31.12,6.68c-1.72,.7-3.37,1.68-3.65,2.13-.78,1.15-4.31,11.23-4.31,12.18,0,.7,.37,.78,3.61,.78,4.39,0,7.47-.74,11.82-2.87,3.53-1.72,8.79-6.11,8.79-7.34,0-.82-10.59-6.19-12.19-6.19-.53,0-2.38,.57-4.06,1.31h0Z"/><path class="f" d="M53.17,9.77c2.67,.37,7.23,2.01,8.74,3.2l.94,.74-3.16,2.17c-3.08,2.17-3.16,2.17-5.42,1.93-3.49-.41-4.19-.94-6.12-4.51-.99-1.8-1.72-3.28-1.64-3.36,.37-.33,4.64-.45,6.65-.16h0Z"/><path class="f" d="M38.51,16.53c1.19,3.98,1.15,5.21-.21,7.3-1.56,2.34-1.97,2.62-5.05,3.16-1.48,.25-3.12,.57-3.65,.7-.94,.25-.94,.16-.7-1.35,.7-3.85,4.43-9.76,7.6-12.01l1.11-.82,.9,3.03h0Z"/><path class="f" d="M70.08,22.77c1.72,4.02,2.18,8.69,1.31,12.91-.25,1.19-.53,2.25-.57,2.3-.29,.33-5.79-4.14-6.24-5.04-.29-.53-.57-2.25-.62-3.85l-.12-2.91,2.71-2.71,2.71-2.71,.82,2.01Z"/><path class="f" d="M53.82,23.67c2.83,1.56,4.89,4.76,4.89,7.67,0,.49-.29,1.68-.62,2.66-2.18,6.15-10.1,7.63-14.45,2.71-3.33-3.77-2.46-9.68,1.81-12.59,2.01-1.39,6.24-1.6,8.38-.45h-.01Z"/><path class="f" d="M36.62,37.52c.37,.08,1.56,1.23,2.63,2.5l1.89,2.34-.25,3.53c-.33,4.92-.37,5-2.22,3.94-3.45-1.97-8.17-7.87-9.32-11.68-.25-.9-.21-.9,3.16-.86,1.89,.04,3.74,.12,4.11,.25v-.02Z"/><path class="f" d="M64.66,45.56l5.21,2.58-1.85,1.68c-.99,.9-2.55,2.17-3.45,2.75-1.09,.74-3.13,.96-6.12,.66-2.46-.2-4.6-.41-4.8-.41-.16,0-.29,.9-.29,2.05,0,2.66-.74,2.66-.9,0l-.12-2.05-1.44,.7c-1.03,.53-1.48,1.07-1.64,1.93-.12,.66-.41,1.27-.7,1.35-.45,.16,2.18-8.45,3.2-10.37,.45-.86,5.71-3.44,6.98-3.44,.37,0,3.04,1.15,5.91,2.58h0Z"/><path class="f" d="M130.97,15.75c1.23,.33,3.78,1.31,5.67,2.25,6.4,3.12,11.78,9.84,13.43,16.81,.78,3.36,.78,9.76,0,12.87-1.81,7.09-7.31,13.86-13.79,16.93-1.89,.9-4.48,1.89-5.71,2.17-3.24,.82-9.94,.7-12.93-.21-8.83-2.62-15.72-9.35-18.35-17.88-1.19-3.98-1.27-10.82-.16-14.55,2.67-8.98,10.1-16.15,18.97-18.41,3.16-.82,9.81-.82,12.89,0l-.02,.02Zm-12.73,3.69c-3.69,1.07-7.72,3.4-7.23,4.22,.41,.66,7.31,6.4,8.38,6.97,1.03,.53,3.49,.33,5.54-.45,1.52-.57,7.55-9.63,6.9-10.29-.74-.74-5.83-1.48-8.66-1.27-1.48,.12-3.69,.49-4.93,.82Zm16.34,8.2c-1.23,2.99-1.93,5.29-1.81,5.9,.29,1.52,2.26,4.88,3.28,5.53,1.4,.9,10.55,3.2,11,2.75,.53-.53-.29-6.07-1.31-8.69-.45-1.15-1.44-3.07-2.18-4.22-1.52-2.34-5.87-6.56-6.57-6.31-.25,.08-1.31,2.34-2.42,5.04h0Zm-29.97,2.83c-2.05,3.81-2.96,7.99-2.67,12.26,.25,3.61,.82,5.58,1.56,5.58,.66,0,8.62-5.08,9.48-6.03,.82-.9,1.52-4.47,1.15-5.9-.41-1.48-6.65-9.02-7.35-8.9-.33,.08-1.31,1.39-2.18,2.99h.01Zm15.31,4.02c-4.31,2.83-4.8,8.81-1.07,12.42,3.04,2.91,6.98,3.24,10.47,.9,2.71-1.84,4.06-6.4,2.83-9.63-.53-1.48-2.71-3.77-4.27-4.47-2.01-.94-5.95-.57-7.97,.78h.01Zm14.41,12.34c-1.48,.78-4.07,3.48-4.52,4.76-.49,1.35,.04,10.54,.66,11.15,.82,.82,7.02-2.58,9.85-5.37,2.54-2.46,5.21-6.72,5.67-8.94l.25-1.27-2.18-.25c-1.23-.16-3.16-.33-4.27-.37-1.15-.08-2.59-.16-3.2-.2s-1.64,.16-2.26,.49h0Zm-23.65,4.26c-2.71,1.07-4.97,2.13-5.05,2.42-.29,.78,5.17,5.99,7.72,7.42,3.57,2.01,10.96,3.69,11.62,2.62,.41-.66-2.46-10.78-3.28-11.52-.99-.98-4.68-2.91-5.5-2.91-.33,0-2.83,.9-5.5,1.97h-.01Z"/><path class="f" d="M126.74,25.59c.74,.33-1.07,2.91-2.34,3.4-2.42,.9-3.94,.9-5.34-.04-.74-.53-1.44-1.15-1.52-1.39-.41-1.19,7.14-2.79,9.2-1.97Z"/><path class="f" d="M136.47,31.13c2.26,2.66,4.1,7.75,2.87,7.75-1.77,0-3.29-1.19-4.43-3.44-1.03-2.13-1.11-2.46-.62-3.65,.78-2.01,.99-2.09,2.18-.66Z"/><path class="f" d="M112.12,35.23c.74,1.07,.86,1.6,.66,3.57-.17,1.43-.53,2.54-.99,2.95-1.48,1.39-7.64,4.96-7.92,4.63-.21-.16-.45-1.39-.61-2.66l-.29-2.34,3-.12,3.04-.12,.25-2.09c.33-2.5,1.11-5.08,1.6-5.08,.2,0,.78,.57,1.27,1.27h-.01Z"/><path class="f" d="M127.48,34.94c2.46,1.11,3.9,3.48,3.9,6.44,0,5.25-6.24,8.49-10.67,5.53-4.47-2.95-3.98-9.43,.9-11.97,1.4-.7,4.23-.7,5.87,0Z"/><path class="f" d="M137.66,47.82c.7,.29,.66,.49-.62,2.13-1.27,1.72-5.05,4.92-5.79,4.92-.16,0-.29-.78-.29-1.76,0-1.52,.25-1.97,1.77-3.48,1.76-1.72,3.53-2.38,4.93-1.8h0Z"/><path class="f" d="M118.45,51.42c2.59,1.35,2.92,1.72,3.29,3.32,.33,1.6,.12,1.64-2.75,.53-1.19-.45-2.26-.82-2.34-.82s-.04,1.48,.08,3.28c.12,1.93,.04,3.28-.16,3.28-1.44,0-7.02-3.98-8.54-6.07l-.86-1.23,4.52-1.68c2.5-.9,4.6-1.68,4.64-1.68s1.03,.49,2.13,1.07h0Z"/><path class="f" d="M97.34,45.48c.94,5.74,3.41,10.7,7.27,14.6,3.33,3.4,5.13,4.67,9.36,6.48,2.71,1.19,3.28,1.6,3.49,2.54,.16,.62,.62,5.74,1.03,11.36l.74,10.21-.94,.74c-.9,.74-2.38,.78-38.47,.78H42.29l-.86-.86c-.78-.78-.86-1.19-.62-4.02,.12-1.72,.41-6.35,.66-10.29,.86-14.55,.78-14.02,1.81-13.78,.49,.12,1.93,.33,3.2,.49l2.3,.25,.16,5.94c.12,5.66,.16,5.99,1.11,6.72,.53,.41,1.31,.78,1.72,.78,.74,0,.78-.41,.78-6.77,0-4.22,.16-6.76,.41-6.76s.41,2.54,.41,6.76v6.77h1.52c2.79,0,8.91-.82,9.85-1.31,1.81-.9,2.18-2.58,2.18-10.05v-6.93l1.19-.7c4.27-2.5,8.74-7.71,11.45-13.32l1.85-3.77h15.27l.66,4.14h0Zm12.73,22.75c-.82,1.02-.86,1.64-.86,8.61,0,4.1,.12,7.79,.25,8.16,.25,.57,2.18,1.85,2.83,1.85,.12,0,.21-4.43,.21-9.84,0-9.43-.04-9.84-.78-9.84-.45,0-1.19,.49-1.64,1.07h-.01Zm-3.74-.26c-.78,.78-.82,1.35-.82,8.94,0,8.81,.04,8.98,2.34,9.68l.94,.29v-9.84c0-9.59-.04-9.88-.82-9.88-.45,0-1.19,.37-1.64,.82h0Zm-4.06,.24c-.78,1.02-.86,1.64-.86,8.41,0,4.47,.16,7.67,.45,8.28,.37,.86,1.89,1.93,2.63,1.93,.12,0,.21-4.43,.21-9.84,0-9.43-.04-9.84-.78-9.84-.45,0-1.19,.49-1.64,1.07h0Zm-3.65-.26c-.86,.82-.9,1.15-.9,8.77,0,8.57,.16,9.22,2.34,9.88l.94,.25v-9.84c0-9.27-.04-9.88-.74-9.88-.41,0-1.15,.37-1.64,.82Zm-3.82-.04c-.94,.78-.99,.94-1.11,8.61l-.12,7.83,1.23,1.27c.7,.7,1.52,1.19,1.81,1.07,.37-.12,.53-2.46,.62-9.35,.04-5.04,0-9.39-.08-9.68-.29-.78-1.23-.66-2.34,.25h-.01Zm-17.41,16.65v2.05h6.16l.12-1.6c.21-2.62,.04-2.75-3.28-2.62l-3,.12v2.05Zm-6.98,0v2.05h6.16l.12-1.6c.21-2.62,.04-2.75-3.28-2.62l-3,.12v2.05Zm-7.1,.12l-.12,2.17,3.2-.12,3.2-.12,.12-1.6c.21-2.62,.04-2.75-3.28-2.62l-3,.12-.12,2.17Zm-7.06-.12v2.3l3.16-.12,3.2-.12,.12-1.6c.21-2.58,.04-2.71-3.41-2.71h-3.08v2.25h0Zm-7.14-1.6c-.12,.37-.25,1.07-.25,1.6,0,2.05,.29,2.26,3.49,2.26s3.49-.21,3.49-2.26-.29-2.25-3.49-2.25c-2.34,0-3.04,.12-3.24,.66h0Z"/><path class="f" d="M10.26,48.39c3.82,1.23,6.2,2.25,6.65,2.83,.66,.78,.74,1.93,.74,10.78,0,7.01-.16,10.17-.53,10.86-.41,.82-1.64,1.39-6.57,3.03-3.37,1.11-6.16,1.93-6.28,1.84-.08-.12-.12-7.22-.08-15.78l.12-15.58,5.95,2.01h0Z"/><path class="f" d="M3.28,62.25v15.99H0v-31.98H3.28v15.99Z"/><path class="f" d="M25.7,53.02c.37,.53,1.93,2.05,3.49,3.32l2.83,2.3v13.86h-7.68l-.08-10.25c-.04-6.48,.12-10.25,.37-10.25,.21,0,.7,.45,1.07,1.02Z"/><path class="f" d="M23.4,62.25v9.02h-4.93v-18.04h4.93v9.02Z"/><path class="f" d="M33.99,59.66c.53,.37,2.46,1.27,4.27,2.01l3.33,1.31-.08,4.02c-.04,2.21-.16,4.18-.29,4.35-.12,.16-2.05,.33-4.31,.33h-4.06v-6.35c0-3.48,.04-6.35,.08-6.31,.08,0,.53,.29,1.07,.66v-.02Z"/><path class="f" d="M115.69,94.64c-.9,2.58,1.11,2.46-35.88,2.46H46.11l-1.11-1.07c-.57-.61-1.07-1.43-1.07-1.85,0-.74,1.15-.78,36.09-.78h36.13l-.45,1.23h-.01Z"/><path class="f" d="M92.87,99.23l.12,.94,9.81,.12c6.57,.04,9.94-.04,10.1-.33,.16-.29,3.69-.53,9.36-.7l9.07-.25,.49,1.03c.33,.78,.33,1.27-.04,1.97l-.49,.94-8.91-.29c-4.89-.16-9.03-.49-9.24-.7-.25-.21-4.72-.37-10.31-.37h-9.85l-.78,1.39c-1.35,2.54-5.38,3.48-7.64,1.8-1.07-.78-1.19-1.07-.99-2.25,.16-.82,.08-1.6-.25-1.97-.62-.74-2.5-.82-3.2-.12-.37,.37-.7,.29-1.44-.41-1.68-1.6-3.28-1.03-3.94,1.43-.16,.66-.66,1.23-1.11,1.31-1.19,.21-1.81,.86-1.81,1.93s-.82,1.27-3.37,.57c-2.13-.61-3.2-2.25-3.2-4.88v-2.09h27.47l.12,.9,.03,.03Z"/><path class="f" d="M78.21,100.46c.99,.74,1.31,.82,2.34,.41,1.97-.74,3.24,.33,2.38,2.01-.37,.61-.25,.98,.62,1.84,1.19,1.19,1.35,2.54,.29,2.87-1.52,.49-1.93,.9-2.13,2.26-.16,1.11-.41,1.43-1.19,1.52-.62,.08-1.23-.12-1.52-.49-.33-.49-1.03-.61-2.46-.57l-2.01,.12,.12-1.72c.08-1.48-.08-1.84-.94-2.42-1.56-1.02-1.15-3.03,.66-3.03,.74,0,1.19-.78,1.19-2.05,0-1.35,1.4-1.76,2.67-.74h-.02Zm-1.27,4.21c-.62,.94-.62,1.11,0,2.09,.94,1.35,2.63,1.23,3.49-.33,.57-.98,.57-1.15-.12-1.93-1.07-1.19-2.55-1.11-3.37,.16h0Z"/><path class="f" d="M79.65,104.68c.82,1.02,.33,2.05-1.03,2.05-.86,0-1.27-.21-1.35-.74-.16-.86,.57-1.93,1.35-1.93,.29,0,.74,.29,1.03,.61h0Zm-1.56,.91c.16,.9,.9,.82,1.07-.04,.08-.41-.12-.66-.53-.66s-.62,.29-.53,.7h-.01Z"/><path class="f" d="M91.47,128.01l7.8,19.47-3.74,1.48c-2.01,.82-3.82,1.31-4.02,1.15-.62-.66-3.57-8.57-3.98-10.78-.25-1.23-1.11-7.42-1.93-13.73s-1.6-12.67-1.81-14.15-.29-2.71-.25-2.79c.04-.04,3.61,8.65,7.92,19.35h0Z"/><path class="f" d="M73.7,110.83c.12,.9,.41,2.46,.62,3.49s.57,4.02,.82,6.64l.49,4.84-4.8,11.97c-2.63,6.6-4.93,12.18-5.13,12.38-.21,.21-1.56-.12-3.16-.78-1.52-.61-3.2-1.27-3.7-1.48-.86-.33-.66-.86,6.49-18.7,4.06-10.09,7.55-18.74,7.76-19.19,.25-.7,.37-.53,.62,.82h-.01Z"/><path class="f" d="M83.06,111.9c.12,.98,.94,7.42,1.89,14.31,2.22,16.56,2.5,18.9,2.5,19.88,0,.78-.41,.9-3.78,1.35-2.09,.25-3.86,.41-3.94,.33-.25-.29-5.09-36.08-4.89-36.12,.04,0,.7-.25,1.48-.49,1.19-.45,1.52-.41,2.42,.29,1.4,1.11,2.34,1.02,3.28-.29l.78-1.07,.25,1.8h.01Z"/><path class="f" d="M86.63,148.71c0,.37,.82,6.64,1.81,13.98,1.03,7.34,1.77,13.37,1.68,13.45-.12,.16-5.3,.9-5.34,.78-.08-.12-3.78-27.96-3.74-28.04,.04-.04,1.31-.25,2.83-.45,2.38-.29,2.75-.29,2.75,.29h0Z"/><path class="f" d="M98.9,150.02c.21,.53,2.63,6.6,5.34,13.45,2.75,6.85,4.97,12.51,4.89,12.55-.08,.08-1.23,.57-2.63,1.15l-2.5,.98-5.17-12.96c-2.87-7.13-5.3-13.24-5.42-13.57-.16-.49,.33-.86,1.93-1.43,1.19-.41,2.42-.82,2.67-.94,.29-.08,.7,.29,.9,.78h-.01Z"/><path class="f" d="M61.58,150.15c1.44,.61,2.22,1.15,2.13,1.52-.12,.57-10.35,26.32-10.51,26.49-.08,.08-1.19-.33-2.55-.86-1.81-.74-2.38-1.19-2.34-1.76,.16-1.23,10.26-26.12,10.63-26.2,.21-.04,1.4,.33,2.63,.82h0Z"/><path class="f" d="M109.17,179.17c.41,.98,1.44,3.53,2.3,5.74,1.44,3.69,1.64,3.98,2.87,4.18,1.76,.33,3.12,1.89,3.24,3.69l.12,1.48h-9.24l.29-1.35c.21-.74,.53-1.72,.82-2.21,.41-.78,.12-1.72-1.72-6.4l-2.22-5.54,1.4-.66,1.39-.66,.74,1.72h0Z"/><path class="f" d="M89.26,178.56c.12,.61,.49,3.28,.86,5.86s.82,4.8,1.07,4.88c1.15,.37,2.5,2.05,2.79,3.4l.37,1.56h-4.48c-4.23,0-4.48-.04-4.48-.86,0-1.07,.7-2.46,1.64-3.24,.7-.57,.7-.86-.08-6.31-.41-3.12-.74-5.74-.66-5.78,.08-.04,.7-.25,1.44-.37,1.15-.29,1.31-.21,1.52,.86h.01Z"/><path class="f" d="M50.54,178.31l1.11,.41-2.26,5.62c-2.18,5.37-2.22,5.62-1.6,6.68,.37,.61,.66,1.6,.66,2.17v1.07h-8.91l.08-1.15c.04-.61,.29-1.52,.57-2.01,.49-.94,2.42-2.17,3.45-2.17,.33,0,1.4-2.13,2.75-5.53,1.19-3.03,2.38-5.54,2.63-5.49,.25,0,.94,.21,1.52,.41h0Z"/></g></g></g></g></svg>