<?xml version="1.0" encoding="UTF-8"?><svg xmlns="http://www.w3.org/2000/svg" viewBox="0 0 588.9 817.38"><defs><style>.h{fill:#fffea8;}.i{fill:#686146;}.j{fill:#4b4530;}</style></defs><g id="a"/><g id="b"><g id="c"><g id="d"><g id="e"><g id="f"><g id="g"><path class="j" d="M410.8,5.15c-2.8,5.5-4.9,15.8-4.9,24.4,0,6.2,.3,7.3,2.5,9.4,3,2.8,3.1,5,.5,5.7s-2.6,1.9,0,2.6c2,.5,2,.7,.5,4.4-3.1,7.4-9.8,12.3-21.8,15.7-6.2,1.8-12.1,6.4-13.2,10.3l-.6,2.3h86.2l-.6-2.3c-1.1-3.9-7-8.5-13.2-10.3-12-3.4-18.7-8.3-21.8-15.7-1.5-3.7-1.5-3.9,.5-4.4,2.6-.7,2.7-1.9,0-2.6s-2.5-2.9,.5-5.7c2.2-2.1,2.5-3.2,2.5-9.4,0-12-4.4-27.4-8.2-28.9-3.9-1.6-6.5-.3-8.9,4.5Z"/><path class="j" d="M451.9,82.05l-16.5-.1,7.8,4.3c10,5.4,15.5,10.2,20.5,17.6,4.3,6.5,7,13.1,12.7,31.1,4.2,13.2,8,20.4,14,26.6l4.2,4.4h46.4l46.4-.1-11-5.4c-18.2-9-26.7-16.9-39.8-37.3-14.3-22.3-34.6-35.7-59.7-39.7-8.3-.9-16.65-1.36-25-1.4h0Z"/><path class="j" d="M417.1,81.95c-10.4,0-12,.3-18.5,3-12.7,5.3-23.7,15.1-29.2,26-1.2,2.5-4.5,11.6-7.3,20.2-5.9,18.1-7.6,21.7-13.7,29.3l-4.5,5.5h146.2l-4-4.8c-6.3-7.7-8.8-12.8-14.3-29.7-2.8-8.8-6.5-18.6-8.1-21.7-5.5-10.4-16-19.5-28.7-24.9-5.9-2.6-7.8-2.8-17.9-2.9h0Z"/><path class="j" d="M398.4,82h-15.5c-8.35-.02-16.7,.47-25,1.45-26.1,3.9-46.1,17-60.7,39.7-13.1,20.4-21.6,28.3-39.8,37.3l-11,5.4,46.4,.1h46.4l4.2-4.4c6-6.2,9.8-13.4,14-26.6,9.9-31.2,15.1-38.9,33.2-48.7l7.8-4.25Z"/><path class="j" d="M416.9,167.95c-94.6,0-172,.2-172,.5,0,2,3,5.9,5.9,7.8l3.6,2.2h325l3.6-2.2c2.9-1.9,5.9-5.8,5.9-7.8,0-.3-77.4-.5-172-.5h0Z"/><path class="j" d="M416.9,181c-82,0-149,.2-149,.7s8.7,35.2,19.5,77.3,23,90.1,27.1,106.7l7.6,30.3h189.6l7.6-30.35c4.1-16.6,16.4-64.6,27.1-106.7,10.7-42.1,19.5-76.8,19.5-77.3,0-.4-67-.65-149-.65h0Z"/><g><path class="h" d="M555.9,187.55c0,.45-10.4,41.3-23,90.8s-24.1,94.9-25.6,100.8l-2.6,10.8h-37.9l.6-3.3c.6-3.7,27.5-198,27.5-199,0-.4,13.7-.7,30.5-.7s30.5,.15,30.5,.6h0Z"/><path class="h" d="M366.4,386.7l.6,3.3h-37.7l-25.4-99.85c-13.9-54.8-25.6-100.5-25.8-101.5-.4-1.6,1.5-1.65,30.2-1.65,16.8,0,30.6,.3,30.6,.7,0,1,26.9,195.3,27.5,199h0Z"/></g><path class="h" d="M486,186.95l-.6,3.2c-.7,4-27.5,197.9-27.5,199,0,.5-18.4,.8-41,.8s-41-.3-41-.8c0-1.1-26.8-195-27.5-199l-.6-3.2h138.2Z"/><path class="j" d="M416.9,397.95c-51.3,0-93.1,.2-92.9,.4,2.03,1.28,4.14,2.45,6.3,3.5,9,4.8,13,8.4,18.9,17.4,8.6,13,17.5,20.1,29.2,23.1,8.7,2.3,68.3,2.3,77,0,11.7-3,20.6-10.1,29.2-23.1,5.9-9,9.9-12.6,18.9-17.4,2.16-1.05,4.27-2.22,6.3-3.5,.2-.2-41.6-.4-92.9-.4Z"/><path class="j" d="M416.9,444.95c-17.6,0-32,.3-32,.6,.78,1.53,1.71,2.97,2.8,4.3,4.27,5.42,7.55,11.55,9.7,18.1l1.7,5.5,17.8,.1,17.8,.1,1.1-4.2c1.3-5.2,6.1-14.5,10.1-19.5,1.18-1.34,2.19-2.81,3-4.4,0-.3-14.4-.6-32-.6Z"/><path class="j" d="M.39,534.3l27.8-.6c15.2-.4,40.6-.7,56.3-.7h28.6l.7-5.2c.4-2.9,1.2-5.8,1.8-6.5,.8-1,5.2-1.3,16.4-1.3h15.4v6.97c4.25,.21,8.51,.4,12.74,.78,.19-3.34,.47-5.48,.84-6.11,1.1-1.8,3.4-1.9,60.5-2,32.7-.1,65.2,0,72.4,.3l13,.6v5.88c3.55-.42,7.02-1.04,10.55-1.42v-4.7l8.7-.6c4.9-.4,23.8-1,42-1.4l33.3-.6v15c3.51,.23,7.02,.41,10.51,.47,3.92-.17,7.85-.33,11.76-.17h10.73v-5.9c0-9.2-.1-9.1,9.9-9.1,4.7,0,15-.3,22.8-.7l14.3-.6v-25.4l-12.8-.6c-7-.4-16.8-.7-21.8-.7h-9.1l-.6-8.6c-.2-4.7-.7-8.9-1.1-9.2s-2.8-.5-5.4-.4c-3.55,.15-5.53,.06-6.7-.71-6.54,.46-13.16,.06-19.72,.25-1.61,.07-3.2,.07-4.8,.07-2.19,1.59-3,5.1-3,12,0,4.2-.5,7.9-1.3,8.9-1.3,1.9,1.6,1.9-204.5,3.2l-73.2,.4v-7.9c0-6.9-.2-8-1.8-8.1-11.1-.4-94.9,.4-95.7,1-.5,.5-4.9,1.1-9.5,1.5s-10.06,.82-10.16,.92-.56,.15,.15,26.02v24.95Z"/></g><path class="j" d="M40.21,746.48c3.67,5.93,8.15,8.35,18.24,9.66l7.51,1.06,1,6.14c.48,3.12,1.43,6.16,2.81,9,2.28,3.6,7.55,6.76,14,8.17,12.56,2.9,16.59,6.93,19.67,19.84,2,8.25,4,11.15,9.48,14.4l4.65,2.63,116.34-.13,116.32-.25,4.22-2.1c5.35-2.64,8-6.59,9.83-14.84,2.63-11.59,8.23-17.3,19.23-19.49,12.11-2.37,17.21-8.25,17.21-20,0-4.48,1.05-5.09,9.83-5.88,7.81-.79,12.73-3.34,16.15-8.52,2.64-3.86,2.9-4.91,3.43-14.13,.35-5.45,.52-27.87,.35-49.87l-.35-39.86-2.46-4.21c-3.6-6.06-7.46-8.26-16.95-9.66-4.38-.7-8.42-1.46-8.95-1.85s-1.05-2.28-1.05-4.39c0-10.62-6-17.38-17.56-19.75-10.1-2.11-16.6-8.25-18.44-17.38-1.41-7.29-3.34-11.33-7.2-14.75l-3.34-3.08h-119c-130.64,0-121.07-.35-127,5.18-3.23,3-4.48,5.38-6.23,12.38-3.05,11.77-7.9,16.6-19.05,19-3.37,.64-6.62,1.79-9.64,3.42-4,2.64-6.94,8.52-7.55,15.45-.62,6.15-1.67,6.94-9,6.94-5.88,0-12.9,3.77-16.33,8.6l-1.53,2.26-.09,.45v102.9c.05,.16,.13,.33,.13,.5l.13,.28v.06c.22,.26,.41,.55,.57,.86,.24,.3,.45,.62,.62,.96h0Z"/><path class="i" d="M411.2,691.21v44.6l-2.11,3.07c-2.91,4.4-7.52,7.39-12.73,8.26-12.38,2.37-11,1.58-11.58,7.46-1,9.83-4.39,13.61-14.75,15.71-9.49,2-13.88,5.89-16.07,14.23-.35,1.63-.88,3.22-1.58,4.74-.84,1.37-1.57,2.81-2.2,4.3-1.15,2.66-3.1,4.91-5.58,6.42l-3.95,2.46H127.9l-3.6-2.64c-3.6-2.54-6.32-6.58-6.32-9.21,0-.71-.35-1.32-.7-1.32s-1.23-1.85-1.76-4.13c-.67-2.39-1.62-4.68-2.81-6.85-2.1-3.51-8.6-6.93-15.27-8.34-4.13-.87-5.87-1.74-8.87-4.74-3.69-3.69-4.83-6.67-4.83-12.38v-2.81l-5.79-.61c-6.92-.66-11.31-2.33-14.65-5.58-5.18-4.85-5-3.25-5.05-52.33v-45.3l3.25-3.69c3.83-4.49,9.47-7,15.35-6.85h5l.52-3.33c2-13.61,4.9-17.14,15.9-19.14,9.65-1.76,13.87-6.41,17-18.7,1.14-4.22,5.79-9.94,9.92-11.94,2.28-1.14,16.77-1.32,110.71-1.32h108.18l2.72,3c1.68,1.73,3.02,3.77,3.95,6,.61,1.85,1.49,3.25,1.84,3.25s.71,.88,.71,2c.39,2.4,1.2,4.71,2.37,6.85,2.81,5.36,6.67,8.08,13.87,9.57,9.83,2.11,15.36,8.08,15.36,16.86,0,5,.62,5.32,9.84,6.32,6.84,.79,10.44,2.81,14,8l2.37,3.51,.09,44.6h0Z"/><rect class="j" x="305.77" y="512.71" width="13.7" height="59.09"/><rect class="j" x="146.93" y="512.71" width="13.7" height="59.09"/></g></g></g></g></g></svg>