<?xml version="1.0" encoding="UTF-8"?><svg xmlns="http://www.w3.org/2000/svg" viewBox="0 0 799.76 89.23"><defs><style>.g{fill:#4e4832;}</style></defs><g id="a"/><g id="b"><g id="c"><g id="d"><g id="e"><g id="f"><path class="g" d="M392.76,42.79c-12.82,0-23.22,10.39-23.22,23.22s10.39,23.22,23.22,23.22,23.22-10.39,23.22-23.22-10.39-23.22-23.22-23.22Zm-.22,39.8c-9.06,0-16.4-7.34-16.4-16.4s7.34-16.4,16.4-16.4,16.4,7.34,16.4,16.4-7.34,16.4-16.4,16.4Z"/><rect class="g" x="388.88" y="13.3" width="7.76" height="32.93"/></g><path class="g" d="M0,0H799.76V9.74c0,6.29-5.1,11.39-11.39,11.39H11.37c-6.28,0-11.37-5.09-11.37-11.37V0H0Z"/></g></g></g></g></svg>