<?xml version="1.0" encoding="UTF-8"?><svg xmlns="http://www.w3.org/2000/svg" viewBox="0 0 638.72 1158.24"><defs><style>.f{fill:#4e4832;}</style></defs><g id="a"/><g id="b"><g id="c"><g id="d"><g id="e"><path class="f" d="M318.9,3.94c-30.8,10.3-54,21.3-78.9,37.6-9.1,6-12.8,9.9-12.8,13.5,0,.7,3,6.5,6.5,12.8,5.9,10.5,6.3,11.6,4.8,12.7-2.2,1.7-3.3,1.6-3.3-.1s-3.8-4.6-6.3-4.6c-1.1,0-2.8-1.1-3.9-2.5s-3.6-3.4-5.6-4.4c-2.1-1.1-5.1-3.5-6.9-5.5-1.7-2-3.7-3.6-4.3-3.6s2,3.5,5.9,7.8c3.9,4.4,7.1,8.4,7.1,8.9,0,.6,.7,1.6,1.5,2.3s2,3.1,2.6,5.4c1.3,4.8,3.5,7.6,6.1,7.6,1.1,0,1.8,.7,1.8,2,0,1.7-.3,1.9-1.9,1.1-1-.6-2.1-.8-2.3-.5-.3,.3-3.1-.7-6.3-2.1-4.33-1.87-6.5-2.43-6.5-1.7,0,.5,1.8,1.7,3.9,2.7,2.2,1,5,2.8,6.2,4.1s3.1,2.4,4.1,2.4,1.8,.4,1.8,.8c0,1.7-1.3,2-3.7,.9-1.8-.8-2.9-.8-4.4,.1-1.6,1-2.4,1-4.2-.3-1.2-.8-3.8-1.5-5.8-1.5s-6.2-.9-9.4-2-6.1-1.8-6.4-1.4c-.8,.8,1.6,2.1,9.4,5.1,3.8,1.4,7.5,3.2,8.1,4,.6,.7,2,1.3,3.1,1.3,1,0,3.2,1.3,4.8,3,2,2.1,3.8,3,6,3,1.9,0,3.9,.8,5,2,1,1.1,2.8,2,4,2,1.3,0,2.8,.7,3.6,1.6,1.7,2.1,.6,2.7-9.8,6-4.5,1.4-8.5,2.9-8.8,3.5-1.3,2,.9,7.3,4.5,10.9,4.5,4.5,13.9,9.1,23,11.4,7.5,1.8,10.3,4.5,9.5,9-.5,2.7,2,8.6,3.7,8.6,.4,0,.8,1.3,.8,2.8,0,1.8,1.1,3.8,3,5.7,1.7,1.6,4.3,5.2,5.9,8,3.4,6,12.8,15,19.4,18.5,2.6,1.4,4.7,2.7,4.7,3-.1,1.2-9.8,7.5-16.6,10.7-4.1,1.9-7.4,3.7-7.4,3.9s1.3,1,3,1.9c1.6,.9,3,1.9,3,2.3,0,1.2-11.1,6.9-20.5,10.5-10.1,3.9-43.3,20.3-51.2,25.3-10.5,6.7-16.8,15-19.9,25.9-1.4,5.1-1.7,13-1.9,53.3-.3,41.2-.5,47.6-1.9,49.1-2.5,2.8-4.4,8.3-5.1,15.1-.4,3.6-1.4,7.5-2.2,8.8-1.4,2.2-1.8,2.3-9.1,1.7-5.9-.5-9.6-.1-15.7,1.4-7.9,1.9-8.1,1.9-11.2,.1-5.3-3.1-9.8-3.9-28.7-4.9-9.9-.6-23-1.8-29.2-2.7l-11.2-1.7-1.2-6.6c-1.4-8-3.3-11.3-6.3-10.9-2.1,.3-2.2,.8-2.2,8.6,.1,4.5-.2,8.1-.5,7.9-6-3.5-11.5-4.3-16.1-2.3-1.3,.6-1.7-.2-2.2-3.8-1.3-9-5.1-14.6-8-11.7-1.5,1.5-1,16.9,.8,22.9,.8,2.6,1.1,5,.7,5.4-1.2,1.1-8-1.7-13.9-5.9-18.4-12.6-18.3-12.5-21.5-9.6-5.2,4.7-1.1,9,22.3,23.8,25.6,16.1,29.8,18.1,43.9,20.5,6.2,1,11.9,2.4,12.6,3.2,.7,.7,2.5,7.6,3.9,15.3s3.2,14.6,4,15.4c2.6,2.6,38.4,9,56,10,9.8,.6,19.7,1.8,25.5,3.1,5.2,1.2,13.1,2.3,17.5,2.3,7.7,.1,8.4-.1,20.3-5.6,6.7-3.1,12.6-5.7,13-5.7s2.5-1.2,4.5-2.6c2.1-1.4,4.2-2.3,4.5-1.9,.9,.9,1.7,52.6,2,126,.2,62.2,.7,89.6,2.3,117.9,.5,9.9,.9,25.9,.9,35.5,0,12,.4,18.3,1.3,20,1.8,3.4,16.1,10.9,18.3,9.6,.9-.6,3.7-6.2,6.3-12.4,4.6-11.5,6.5-13.9,9.5-12.8,1.5,.6,1.6,2.2,1,15.9-.7,17.1,.8,31.8,5.1,51.3,7.3,32.2,6.8,28.4,5.4,46-.7,9.6-1.5,45.4-1.8,89.6l-.6,73.6-4.3,4.7c-6.7,7.3-11.7,15.8-14.5,24.8-2.5,8.2-6.1,21.6-7.2,27.2-.8,4.1-4.4,7.1-18.5,15.6-16.3,9.8-18.5,11.8-20.4,18.5-.9,2.9-1.6,5.8-1.6,6.5,0,1.6,5.3,3.6,15,5.6,7.5,1.5,10,1.6,21.6,.5,19.6-1.8,24.8-3.2,34.6-9,8.9-5.4,11-5.8,18.3-3.9,3.8,1,6.3,.9,15.3-.6,12.6-2.1,13.9-2.7,15.7-7,2.2-5.2,5.3-33.9,7.5-68.1,1.1-17.6,2.9-45.3,4-61.5s2.5-49.3,3.1-73.5c.9-38.9,1.3-45.7,3.5-58.6,1.3-8,2.7-21.1,3-29,.5-11.4,1.3-17.3,3.9-28.4,3.6-14.8,5.5-26.8,5.5-34.1,0-2.4,.4-4.4,.9-4.4,1,0,2.7,12.5,4.1,30.5,2.4,29.7,3.5,36.1,8.2,46.4,5.4,12.3,6.9,18.7,7.9,35.6,.5,8.8,1.4,19.6,1.9,24,1.1,8.9,.7,15.3-2,30-4.3,22.9-4.7,42.9-1.9,95,.6,10.4,1.2,32.1,1.4,48.1l.3,29.2,3.2,6.3c1.8,3.5,5.5,9.5,8.3,13.2,4.6,6.3,5.3,6.8,7.9,6.3,2.8-.5,2.9-.4,2.4,2.2-.3,1.5-1,6.1-1.6,10.2-2.5,16.4-1.5,17.2,22.7,17.4,20.1,.1,26.6-1,30.6-5.2,2.3-2.4,2.7-3.9,3.3-12.3,.5-7.7,.3-10.7-1-15.1-1.8-5.4-1.7-5.6,.8-13.9,4.9-15.9,5.7-30.4,4.1-68.7-1.8-41.9-4.1-110.3-5.6-162.2-.8-29.8-.8-45.9,.2-65.5,.9-19.8,.9-31,0-47.1-.6-11.7-.8-21.9-.5-22.8,1.1-2.8,3.5-1.4,8.1,4.4,9.2,11.7,8.3,11.2,25.1,15.4,8.4,2.2,15.5,3.7,15.8,3.4s-.6-7.7-2-16.4c-2.3-14.6-5.2-33.4-21.1-137.4-3.1-20.1-7.1-46.9-9.1-59.5-1.9-12.7-5.7-32.2-8.4-43.5-5.4-22.4-15-69.5-15-73.5,0-1.4,.3-2.5,.7-2.5,.3,0,3.7,2.7,7.4,6,11.4,10.1,21.3,13.8,34.4,12.6,8.1-.7,10.8-1.4,34.5-8.9,9.6-3.1,25.6-8.1,35.5-11.2s19.6-6.6,21.6-7.7c7.1-3.9,8-8.5,5.4-25.7-1.9-13-1.7-13.2,17.4-20.1,16.6-5.9,19.6-7.9,20.7-13.5,.4-2.1,1.4-3.7,2.9-4.3,6.1-2.8,6.6-8,1.7-18.2-2.5-5-3-5.5-6.4-5.8-3.3-.3-3.6-.6-3.5-2.9,.2-2.2-.4-2.8-3.2-3.7-2.2-.6-4.6-.6-7.2,.1-2.9,.7-4.3,.7-5.5-.2-1.5-1-1.3-1.4,1.9-3.4,5-3.1,6.4-8.6,3-12.3-2.4-2.7-6.4-2.2-16.1,1.8-15.7,6.4-24.6,14.4-27.7,24.7-1.9,6.3-3.1,7.7-6.7,7.7-1.6,0-9.3,2.8-17.1,6.1-7.8,3.4-17,7.2-20.5,8.5-7.4,2.8-15.6,3.1-20.5,.8-3-1.5-4-2.9-7.5-11.8-4.8-11.9-16.7-58-17.7-68.1-.3-3.9-1.7-11.7-3-17.5-1.4-5.8-2.7-12.1-3-14s-1.9-5.7-3.6-8.3c-2.5-4.1-4.2-5.4-10.4-8.3-8.8-4.1-50.4-17.9-68.9-23-7.2-1.9-13.7-3.7-14.4-4-1-.3-.8-1.1,.7-3.3,1.2-1.6,2.1-3.1,2.1-3.4,0-.2-3.7-.7-8.3-1-7.6-.5-17-2.8-19-4.7-.5-.4,.7-3,2.6-5.6,5-7.1,9.5-16,11.3-22.3,.8-3.1,2.2-7,3.1-8.7,1-2,1.4-4.2,.9-6.5-.7-3.9-.7-3.8,0-10.2,.4-3.4,.2-5.4-1-7.2-.9-1.3-1.6-3.5-1.6-4.8,0-3.8-2-8.9-5-12.7l-2.8-3.6,6.4-7.4c3.6-4.1,7.8-10.3,9.5-13.7,5.6-11.1,5-24.7-1.4-31.9-3.5-4.1-7.6-5-13.9-3.1l-4.7,1.5-4-7.2c-2.2-3.9-6-10-8.5-13.6l-4.6-6.5,.3-12.4c.4-14.1-.3-19.9-2.9-21.8-2.7-1.9-4.3-1.7-17.7,2.8h0Zm21.4,38.9c.9,.1,8.9,20.1,8.9,22.4,0,3-2.3,4-4.3,1.8-2-2.3-3.5-8.1-4.3-17-.4-3.9-.5-7.2-.3-7.2h0Zm-10.3,18.1c5.3,5.4,6.5,12.5,3.3,19.4-6.1,13.2-23,15.4-32.7,4.3-1.8-2-3.4-4.2-3.7-5-.3-1-.9-1-2.3-.2-1.5,.9-1.9,2.3-1.9,7.5,0,7.8-2.2,12.1-8.4,16.4-3.7,2.6-5.1,3-11,3s-7.4-.4-10.9-2.9c-7.1-4.9-10-14.3-6.8-21.9,2.7-6.5,11.2-11.7,19.1-11.7,3.7,0,10.4,3,12.8,5.8,1.8,2,2,2,5.3,.5,2.2-1.1,3.4-2.4,3.4-3.7,.1-3.1,3.4-9.8,6.1-12.3,1.3-1.2,4.1-2.9,6.1-3.8,7.7-3.1,15.7-1.5,21.6,4.6h0Zm22.1-1c1.3,3.8,1.3,3.9,.3,3.9-.5,0-1.3-1.6-1.9-3.5-1.4-4.4,.1-4.7,1.6-.4Zm-122.6,19.9c2.6,0,4.4,2.6,3.9,5.7-.4,2.6-2.2,3.2-2.2,.7,0-.8-.5-1.2-1.1-.8-1.3,.8-2.9-1.3-2.9-3.9,0-1.1,.8-1.7,2.3-1.7Zm-.4,25.3c2.4,2.7,3,5.7,.7,3.8-1-.8-1.6-.9-2.1-.1-1,1.6-2.5,.1-2.5-2.5,0-3.4,1.4-3.8,3.9-1.2h0Zm10.5,3.3c.9,2.3,.7,4.4-.3,4.4-1.2,0-6.2-5.2-5.6-5.8,.2-.3,1.1,.1,2,.8,1,.8,1.5,.9,1.5,.1,0-1.7,1.7-1.3,2.4,.5h0Z"/></g></g></g></g></svg>