<?xml version="1.0" encoding="UTF-8"?><svg xmlns="http://www.w3.org/2000/svg" viewBox="0 0 263.14 404.14"><defs><style>.g{fill:#4e4832;stroke:#2b2a29;stroke-miterlimit:10;stroke-width:.22px;}</style></defs><g id="a"/><g id="b"><g id="c"><g id="d"><g id="e"><g id="f"><path class="g" d="M29.44,323.88c6.34-2.66,13.1-5.26,20.74-8.93,4.61-2.23,9.58-4.68,14.4-7.27,3.89-2.16,7.7-4.32,11.16-6.48,3.74-2.45,6.91-4.75,9.65-7.13,2.81-2.45,5.18-4.9,7.42-7.63s4.25-5.69,5.98-8.57c1.8-2.81,3.31-5.47,4.46-7.63,.14-.22,.29-.5,.36-.72-1.15,1.3-2.3,2.52-3.38,3.67-2.59,2.74-5.33,5.47-8.28,8.28-2.95,2.88-6.12,5.76-9.22,8.5-3.1,2.66-6.05,5.11-8.64,7.06-11.38,8.71-21.46,12.89-1.73-2.23,2.45-1.87,5.4-4.32,8.5-6.98,3.02-2.66,6.19-5.54,9.14-8.35s5.62-5.54,8.14-8.21c1.37-1.37,2.59-2.74,3.82-4.03-.07,0-.14,.07-.14,.07-1.37,.58-2.88,1.15-4.39,1.73-1.51,.65-3.24,1.22-5.04,1.87-3.67,1.3-7.63,2.74-11.02,4.32-2.45,1.15-4.68,2.45-6.62,3.82-5.62,3.89-12.17,8.14-16.85,12.96-.5-1.37,4.54-8.86,10.8-14.54,2.45-2.23,5.11-4.46,7.99-6.41,4.75-3.38,9.86-5.98,14.47-8.28,1.37-.72,2.66-1.37,3.96-2.02,2.66-1.44,4.9-2.74,7.13-4.32,2.16-1.51,4.32-3.24,6.62-5.54,2.45-2.38,5.11-5.26,7.7-8.42,2.45-2.95,4.75-6.05,6.7-9.14,2.09-3.17,3.82-6.41,5.18-9.29,.43-.86,.79-1.66,1.15-2.45-2.16,2.02-4.39,3.96-6.77,6.05-2.81,2.38-5.83,4.75-9.29,7.06-3.46,2.38-7.34,4.68-11.52,6.98-4.03,2.23-8.42,4.46-12.89,6.62-1.22,.65-2.52,1.22-3.82,1.87-7.49,3.6-14.9,7.2-21.1,11.59-3.6,2.59-6.91,5.54-9.94,8.64-14.11,14.04-14.04,9.94-2.02-2.02,3.17-3.17,6.55-6.19,10.3-8.93,6.48-4.61,13.97-8.21,21.53-11.88,1.3-.58,2.52-1.22,3.82-1.8,4.39-2.16,8.64-4.39,12.74-6.62s7.92-4.54,11.3-6.77c3.38-2.3,6.34-4.61,9.07-6.91,5.4-4.61,9.79-7.7,12.17-13.75,0-.43-4.03,1.8-5.54,2.66-.86,.43-1.73,.86-2.66,1.37-3.53,1.8-7.63,3.74-12.17,5.9-1.08,.5-2.16,1.01-3.31,1.58-2.88,1.37-5.98,2.88-9,4.39s-5.9,3.17-8.57,4.75c-2.59,1.66-4.97,3.31-6.98,4.97-.72,.58-8.93,7.42-9.5,7.99-2.23,2.45-2.74,3.38-3.24,3.02-.94-.58,.07-3.96,1.73-6.62,1.08-1.73,2.45-3.82,4.03-5.9,1.22-1.58,2.59-3.24,4.1-4.82-3.17,1.44-6.19,2.95-9.07,4.39-12.38,6.19-13.46,7.56-17.64,9.86-1.01,.58,6.19-7.27,16.34-12.38,5.76-2.88,12.02-5.83,18.36-8.78,1.08-.79,2.23-1.51,3.53-2.3,4.9-2.95,10.94-5.62,16.78-8.28,2.74-1.15,5.4-2.38,7.85-3.53,3.89-1.87,7.27-3.67,10.3-5.54s5.69-3.82,8.14-5.83c2.45-2.09,4.75-4.25,6.84-6.62,2.02-2.3,3.96-4.82,5.76-7.56,1.66-2.52,3.24-5.18,4.61-7.85,1.66-3.1,3.02-6.19,4.25-9,1.15-2.74,2.09-5.18,2.88-7.49,.72-2.3,1.37-4.46,1.87-6.55,.5-2.02,.94-3.89,1.22-5.69s.43-3.53,.5-5.18,0-3.31-.22-4.46c-.07-.58,.43-.79,.22-.86-.22,0-.5,.86-1.37,2.38-.94,3.38-1.87,6.77-3.17,10.37s-2.88,7.42-5.11,11.52c-2.38,4.32-5.4,9.07-9,13.61-3.17,3.96-6.77,7.78-10.58,11.02-8.21,6.91-17.57,11.16-27,15.41-4.68,2.09-9.36,4.25-13.75,6.41-4.46,2.09-8.57,4.32-12.24,6.55-13.1,8.06-17.06,11.74-19.8,14.83-.79,.86,3.38-7.99,18.36-17.28,3.67-2.3,7.92-4.46,12.38-6.7,4.46-2.16,9.22-4.25,13.9-6.41,9.22-4.18,18.43-8.28,26.28-14.98,3.74-3.1,7.13-6.77,10.22-10.58,3.46-4.39,6.48-9,8.78-13.25,2.09-3.96,3.67-7.63,4.9-11.09l.43-1.3c-.94,1.3-1.94,2.66-3.1,4.1-2.38,3.02-5.11,6.26-8.35,9.43-3.17,3.17-6.84,6.34-10.51,9.36-3.74,2.95-7.34,5.76-10.51,8.06-20.09,14.9-24.91,14.9-1.66-2.3,.58-.36,1.15-.79,1.73-1.3-3.82,1.08-7.56,2.16-10.94,3.6-2.74,1.08-5.26,2.38-7.63,3.74-6.91,3.96-12.53,8.93-19.73,12.82-.79,.36,1.8-3.02,5.26-5.98,1.94-1.66,3.96-3.24,6.05-4.75,2.16-1.58,4.46-3.1,6.98-4.54s5.18-2.81,7.99-3.96c5.47-2.23,11.66-3.74,17.78-5.33,.94-.72,1.87-1.51,2.88-2.3,3.53-2.88,7.13-5.98,10.3-9.14s5.9-6.26,8.14-9.14c2.3-2.88,4.18-5.62,5.69-7.85,.72-1.01,1.3-1.94,1.87-2.81,2.16-3.38,3.46-5.33,5.11-4.97,1.08,.22,1.73,1.44,2.02,3.1,.22,1.37,.29,3.24,.22,5.11,0,.94-.07,1.87-.14,2.81,.43-.36,.94-.86,1.51-1.51,.79-1.01,1.73-2.45,2.59-4.1,.79-1.51,1.51-3.17,2.16-4.97,.43-1.3,.79-2.81,1.22-4.32,.72-2.81,1.44-5.62,2.66-7.92,.43-.72,.86-1.37,1.3-1.94-.36,.22-.79,.43-1.15,.72-4.97,2.81-11.95,4.82-19.3,6.98-1.58,.43-3.17,.94-5.04,1.51-4.54,1.37-9,2.81-13.39,4.32s-8.64,3.02-12.67,4.54c-4.18,1.51-7.92,2.88-11.52,4.25-4.18,1.58-9.29,3.53-12.46,4.75-3.53,5.33-12.38,20.45-10.22,15.12,6.7-16.78,19.44-35.06,31.68-53.42,6.91-10.37,14.04-20.66,21.1-30.09-31.97,35.35-52.2,67.89-74.81,110.73-4.46,8.57-8.78,17.21-12.96,26.06-10.66,22.61-19.8,42.48-25.56,66.89-8.78,37.29-17.71,96.98-8.21,113.4-4.03-29.38,3.67-108.36,16.13-124.27-2.59,7.99-4.82,16.78-6.7,26.06,1.58-1.37,2.45-1.94,4.39-3.02,4.03-2.38,9.79-3.89,8.93-3.46-1.8,.86-11.02,8.64-14.33,11.59-.5,2.88-1.01,5.76-1.44,8.71,2.45-2.23,6.41-4.25,11.38-2.81-.07,.07-.22,.07-.29,.07-3.46,1.15-8.71,3.96-11.81,7.2-.36,2.38-.72,4.82-1.01,7.2v-.02Zm-1.09,9c-1.3,11.66-2.23,23.4-2.81,34.85-.65,12.82,1.08,25.06,.14,36.14-6.19-7.34-8.35-18.36-9-28.73-.36-7.56,.72-22.25,2.95-39.24,.29-2.59,.65-5.18,1.01-7.92-.29,.07-.65,.14-.79,.22-3.89,1.66-6.34,2.74-9.36,8.28-1.15-4.18,1.66-7.56,4.61-9.22-.58,.07-1.22,.14-1.8,.14-13.03,1.08-10.44-1.94-.22-2.81,2.23-.22,4.54-.36,6.48-.94-15.55-7.99-11.3-8.93,2.09-2.23,.36-2.23,.65-4.39,1.08-6.62-.14,0-.22-.07-.29-.22-1.01-1.44-2.09-2.95-3.1-4.46-.14-.14-.07-.43,.14-.58,1.08-.79,2.23-1.51,3.31-2.3-.79-1.37-1.51-2.74-2.16-4.18-1.22,.43-2.52,.86-3.82,1.3-.22,.14-.43,0-.5-.22-.65-1.73-1.22-3.46-1.87-5.11-.07-.29,.07-.5,.29-.58,1.3-.5,2.59-.94,3.82-1.37-.43-1.51-.72-3.1-.94-4.61-1.37,.14-2.74,.22-4.03,.29-.29,.07-.5-.14-.5-.36l-.43-5.4c0-.29,.14-.5,.43-.5,1.3-.07,2.66-.22,4.03-.29,0-1.58,.07-3.17,.22-4.75-1.3-.22-2.66-.43-3.96-.72-.22,0-.43-.29-.36-.5,.36-1.8,.65-3.53,1.01-5.33,0-.29,.29-.43,.5-.36,1.3,.22,2.66,.5,3.96,.72,.43-1.51,.94-3.02,1.44-4.46-1.15-.58-2.38-1.15-3.6-1.73-.22-.14-.36-.36-.22-.58,.79-1.66,1.51-3.31,2.3-4.9,.14-.29,.36-.36,.65-.22,1.15,.58,2.38,1.15,3.6,1.73,.79-1.37,1.66-2.66,2.59-3.96-1.01-.86-2.09-1.73-3.1-2.59-.14-.22-.22-.5-.07-.65,1.22-1.37,2.38-2.74,3.53-4.1,.22-.22,.5-.22,.65-.07,1.01,.86,2.09,1.73,3.1,2.59l1.3-1.3c-.65-.79-1.37-1.58-2.02-2.38-2.02,.5-4.03,.65-6.12,.5-1.3,1.87-2.59,3.82-3.89,5.76-1.44-.5-2.95-1.01-4.39-1.51,.22-2.23,.36-4.54,.58-6.77-1.8-1.08-3.38-2.45-4.68-3.96-2.3,.43-4.61,.86-6.84,1.3-.72-1.37-1.37-2.74-2.02-4.1,1.73-1.51,3.46-2.95,5.18-4.46-.5-1.94-.72-4.03-.5-6.12l-5.83-3.89,1.51-4.32c2.3,.14,4.54,.36,6.84,.5,1.08-1.8,2.38-3.31,3.96-4.61-.43-2.3-.86-4.61-1.37-6.91,1.37-.65,2.81-1.3,4.18-2.02,1.44,1.73,2.95,3.46,4.39,5.18,2.02-.5,4.03-.65,6.12-.43,1.22-1.8,2.38-3.6,3.6-5.4-.43,.36-.79,.65-1.22,1.01-.36,.36-.79,.43-1.01,.14-1.37-1.44-.72-.72-2.02-2.16-.22-.29-.14-.72,.22-1.01,1.87-1.73,3.31-3.96,4.9-5.98-.07-.07-.07-.14-.14-.14-2.38,1.08-4.97,2.02-7.13,3.46-.36,.29-.86,.29-1.01,0-1.15-1.58-.58-.79-1.73-2.45-.14-.29,0-.72,.36-.94,2.09-1.51,3.82-3.46,5.69-5.26,0-.07-.07-.14-.07-.14-2.52,.79-5.18,1.3-7.56,2.45-.43,.22-.86,.14-1.01-.14-.94-1.8-.5-.94-1.37-2.66-.14-.29,.07-.72,.5-.94,2.3-1.15,4.25-2.88,6.34-4.39,0-.05-.02-.09-.07-.14-2.59,.43-5.33,.5-7.78,1.37-.43,.14-.94,0-1.01-.29-.65-1.87-.36-.94-1.01-2.81-.07-.36,.22-.72,.65-.86,2.45-.79,4.61-2.23,6.91-3.46,0-.07,0-.14-.07-.14-2.59,0-5.33-.22-7.92,.29-.43,.07-.86-.14-.94-.43-.36-1.94-.22-1.01-.58-2.95-.07-.36,.29-.65,.72-.72,2.52-.5,4.9-1.66,7.34-2.52v-.14c-2.66-.36-5.33-.94-7.92-.86-.5,.07-.86-.22-.86-.5-.14-2.02-.07-1.01-.14-3.02-.07-.29,.36-.58,.79-.65,2.59-.07,5.11-.86,7.63-1.37v-.22c-2.59-.65-5.11-1.66-7.7-1.87-.5-.07-.86-.36-.79-.72,.14-1.94,.07-1.01,.22-2.95,.07-.36,.43-.58,.94-.5,2.52,.22,5.11-.22,7.7-.36l.07-.14c-2.45-1.08-4.82-2.38-7.42-3.02-.43-.07-.72-.43-.65-.79,.43-1.87,.22-.94,.65-2.88,.07-.29,.5-.5,1.01-.36,2.45,.58,5.11,.5,7.7,.72v-.14c-2.23-1.37-4.46-3.02-6.84-4.03-.43-.14-.72-.5-.58-.86,.65-1.8,.36-.94,1.08-2.74,.07-.36,.58-.43,1.01-.29,2.38,.94,4.97,1.22,7.49,1.8l.07-.14c-2.09-1.66-3.96-3.6-6.26-4.9-.43-.22-.58-.65-.43-.94,.94-1.73,.5-.86,1.44-2.59,.14-.29,.65-.36,1.01-.14,2.23,1.3,4.82,1.94,7.2,2.81l.14-.14c-1.8-1.94-3.46-4.1-5.54-5.69-.36-.29-.5-.72-.29-1.01,1.15-1.51,.58-.79,1.8-2.38,.22-.22,.65-.22,1.01,.07,2.02,1.51,4.46,2.59,6.77,3.82l.07-.14c-1.51-2.16-2.81-4.61-4.68-6.41-.29-.36-.36-.79-.14-1.08l2.09-2.09c.29-.22,.72-.14,1.08,.22,1.8,1.8,4.03,3.17,6.12,4.68l.14-.14c-1.22-2.38-2.16-4.9-3.74-6.98-.29-.36-.29-.86-.07-1.01,1.58-1.22,.86-.65,2.45-1.8,.22-.22,.72-.07,.94,.29,1.08,1.44,2.45,2.66,3.74,3.89l.36-1.73c0-.14,.14-.29,.22-.36-1.01-1.3-1.87-2.81-2.52-4.39h-.29l-3.24-.86c-.58-.14-1.15-.22-1.22-.86l-.43-2.09c-.14-.58,.43-.94,.86-1.3l2.66-2.09c.14-.14,.22-.14,.36-.14,.07-1.66,.36-3.31,.94-4.97-.07-.07-.14-.07-.22-.22l-1.94-2.66c-.36-.5-.72-1.01-.43-1.51l1.08-1.87c.29-.58,.86-.43,1.51-.43l3.31,.07c.22,0,.29,.07,.43,.14,1.15-1.22,2.45-2.3,3.89-3.24-.07-.07-.07-.14-.07-.22l.29-3.38c.07-.58,.07-1.15,.65-1.37l2.02-.79c.58-.22,.94,.22,1.37,.65l2.59,2.23v.07l-.5-2.95c-.07-.22,.07-.5,.36-.5l3.96-.79c-.22-1.51-.29-3.1-.29-4.68l-4.03-.29c-.22,0-.43-.22-.43-.5l.43-5.4c0-.22,.22-.43,.43-.43l4.03,.29c.29-1.51,.58-3.02,1.01-4.61l-3.82-1.3c-.29-.07-.36-.36-.29-.58l1.8-5.11c.07-.22,.29-.36,.5-.29l3.89,1.37c.58-1.51,1.3-2.88,2.09-4.25l-3.38-2.23c-.14-.14-.22-.43-.07-.65l3.02-4.46c.14-.22,.43-.29,.65-.14l3.31,2.3c1.01-1.22,2.02-2.45,3.17-3.53l-2.66-3.1c-.14-.14-.14-.43,.07-.58l4.1-3.6c.14-.14,.43-.14,.58,.07l2.66,3.1c1.3-.94,2.59-1.8,3.96-2.59l-1.8-3.67c-.07-.22,0-.5,.22-.58l4.9-2.38c.22-.07,.5,0,.58,.22l1.8,3.67c1.44-.58,2.95-1.08,4.46-1.51l-.79-3.96c-.07-.29,.14-.5,.36-.5l5.33-1.08c.22,0,.5,.14,.5,.36l.79,4.03c1.51-.22,3.1-.29,4.68-.29l.29-4.03c0-.29,.22-.43,.5-.43l1.3,.07c.22-1.51,.72-3.24,1.58-5.33,7.99-18.58,32.76-19.66,42.55-3.1,1.01,1.58,1.73,3.24,2.3,4.9l3.1-.58c.58-1.8,1.44-3.46,2.59-5.04l-2.81-5.62,3.17-2.74,5.4,3.53c1.66-.86,3.53-1.44,5.33-1.66l2.02-5.98,4.18,.29,1.3,6.34c.94,.29,1.8,.65,2.74,1.15,.5-1.01,1.01-2.02,1.58-3.02l-3.67-2.45c-.29-.22-.29-.5-.14-.72l3.31-4.9c.14-.29,.5-.29,.72-.14l3.67,2.45c1.08-1.3,2.23-2.59,3.46-3.82l-2.95-3.38c-.14-.22-.14-.5,.07-.65l4.54-3.96c.14-.14,.5-.14,.65,.07l2.95,3.38c1.37-1.01,2.81-1.94,4.32-2.81l-1.94-4.03c-.14-.22-.07-.58,.22-.65l5.33-2.59c.29-.14,.58,0,.65,.22l1.94,4.03c1.66-.65,3.24-1.22,4.9-1.66l-.79-4.39c-.07-.22,.14-.5,.36-.58l5.9-1.08c.22-.07,.5,.14,.58,.36l.79,4.39c1.73-.22,3.46-.29,5.18-.29l.29-4.46c.07-.22,.29-.43,.58-.43l5.9,.43c.29,0,.5,.29,.43,.5l-.29,4.46c1.66,.22,3.38,.58,5.04,1.01l1.51-4.18c.07-.22,.36-.36,.58-.29l5.62,1.94c.29,.07,.43,.36,.36,.65l-1.51,4.18c1.58,.72,3.17,1.51,4.61,2.3l2.52-3.67c.14-.22,.43-.29,.72-.14l4.9,3.38c.22,.14,.29,.43,.14,.65l-.86,1.3c2.88-.72,5.47-1.37,7.78-1.8,4.18-.79,7.34-1.15,9.22-.94,.86,.07,1.51,.29,1.94,.65,.72,.5,1.08,1.15,.94,1.94,0,.58-.29,1.15-.79,1.73-.79,1.01-2.52,2.3-4.97,3.82-2.3,1.44-4.46,2.74-6.48,3.82-.94,1.51-1.94,3.1-3.02,4.61-1.22,1.66-2.59,3.31-4.18,4.82-1.51,1.51-3.24,2.81-5.04,4.18s-3.6,2.74-5.11,4.18c-1.08,1.08-2.16,2.3-3.24,3.6-1.87,2.23-3.89,4.61-7.06,7.27-3.46,2.81-8.14,5.9-12.53,8.78-2.02,1.3-3.96,2.59-5.76,3.82-3.6,2.45-6.34,4.61-8.71,6.48-1.22,.94-2.3,1.87-3.67,2.81-.43,.36-.86,.65-1.3,.94l1.94-.86c2.38-1.15,4.9-2.38,7.34-3.46,1.94-.79,3.82-1.51,5.54-2.23,2.66-1.08,4.97-1.94,6.7-2.95,1.22-.65,2.16-1.37,2.81-1.8,.86-.65,1.44-1.08,2.3-.72,.94,.43,1.15,1.15,.58,2.38-.36,.79-1.37,2.59-2.59,4.68-1.01,1.66-2.23,3.46-3.46,5.18-1.37,1.94-2.81,3.67-4.25,5.33-1.51,1.58-3.02,3.1-4.68,4.61-1.66,1.44-3.46,2.88-5.47,4.39s-4.25,3.02-6.77,4.68c-2.59,1.73-5.54,3.53-8.64,5.33-2.81,1.66-5.76,3.31-8.71,4.82-3.82,2.02-7.27,3.67-10.51,5.26-.72,.29-1.51,.65-2.23,1.01,.36-.07,.65-.22,.94-.29,3.67-1.15,7.13-2.23,10.3-3.38s5.98-2.3,8.42-3.6c3.38-1.8,6.05-3.74,7.78-5.04,.79-.58,1.44-1.01,1.87-1.3,1.15-.65,1.94-.5,2.52,.43,.43,.79,.07,1.73-.43,3.24-.29,.72-.58,1.58-.86,2.59-.29,.72-.58,1.73-.86,2.74-.94,3.46-2.16,7.56-3.82,10.58-1.15,2.16-2.52,3.67-3.89,5.18-1.15,1.3-2.23,2.52-3.02,4.03-1.08,1.94-1.8,4.61-2.45,7.27-.43,1.44-.79,2.95-1.3,4.54-.65,1.94-1.44,3.74-2.3,5.33-.94,1.87-2.02,3.38-2.95,4.61-1.58,1.94-2.95,2.74-4.25,3.38-.29,1.58-.65,3.24-1.08,4.97-.5,2.09-1.15,4.25-1.94,6.7s-1.8,4.97-2.95,7.7c-1.22,2.95-2.66,6.12-4.32,9.22-1.44,2.81-3.1,5.54-4.75,8.14-1.87,2.81-3.89,5.4-6.05,7.85s-4.54,4.75-7.13,6.91c-2.52,2.16-5.33,4.18-8.5,6.05-3.1,1.94-6.55,3.82-10.51,5.69-2.52,1.22-5.18,2.38-7.92,3.6-5.76,2.59-11.74,5.26-16.49,8.14-3.46,2.09-6.26,4.25-8.71,6.48-2.38,2.23-4.39,4.54-6.12,6.84-.07,.07-.14,.22-.22,.29,1.01-.94,2.09-1.8,3.24-2.74,2.09-1.73,4.54-3.46,7.2-5.11,2.74-1.66,5.69-3.31,8.78-4.9,3.02-1.58,6.12-3.02,9.07-4.46,1.15-.5,2.23-1.01,3.31-1.51,4.54-2.16,8.57-4.1,12.1-5.9,.86-.43,1.8-.94,2.59-1.37,3.31-1.8,5.9-3.17,7.49-3.1,1.87,.07,2.45,1.22,2.23,3.31-.22,1.22-.72,2.95-1.58,5.18s-1.94,4.97-3.38,7.99c-1.44,2.95-3.24,6.26-5.4,9.65-2.02,3.17-4.39,6.41-6.84,9.36-2.66,3.24-5.4,6.26-7.92,8.64-2.45,2.38-4.75,4.25-7.06,5.9-2.3,1.58-4.68,2.95-7.42,4.39-1.22,.72-2.59,1.37-4.03,2.09-4.46,2.3-9.43,4.82-14.11,8.06-.5,.36-.94,.72-1.44,1.08,1.08-.65,2.16-1.22,3.31-1.73,3.53-1.73,7.56-3.1,11.3-4.46,1.73-.65,3.46-1.22,4.97-1.8,1.73-.65,3.1-1.22,4.32-1.73,2.81-1.22,4.9-2.09,6.12-1.87,1.8,.22,2.23,1.44,1.44,3.67-.43,1.15-1.3,2.88-2.52,5.04-1.22,2.23-2.74,4.97-4.54,7.85-1.87,2.88-3.96,5.98-6.26,8.78-2.3,2.88-4.82,5.47-7.7,7.99-2.95,2.52-6.19,4.97-10.01,7.42-3.38,2.16-7.27,4.39-11.3,6.55-4.97,2.66-10.01,5.18-14.54,7.34-6.7,3.24-12.31,5.69-17.71,8.06,16.78,3.89,13.46,6.05-1.73,2.52,1.44,.86,2.88,1.87,4.25,2.95,9.79,7.27,6.26,8.14-1.66,2.3-1.8-1.37-3.96-2.81-5.83-3.53,2.3,.86,4.39,3.82,5.98,6.55,6.77,11.81,2.02,9.22-2.45,1.37-1.15-1.94-2.66-4.1-3.89-4.82h-.07Zm-3.17-31.9c3.38-17.57,7.56-34.2,12.17-45-5.04,3.67-9,8.57-11.66,14.04-4.1,8.64-4.9,18.79-1.51,28.44,.29,.86,.65,1.66,1.01,2.52h0Zm11.74-52.99c.36,.58,.72,1.08,1.15,1.66,.86-.5,1.73-1.01,2.66-1.44,.5-1.22,1.01-2.45,1.58-3.67-.86-.07-1.66-.14-2.52-.22-.79,1.37-1.8,2.59-2.88,3.67h0Zm7.99-9.65c2.16-4.97,4.32-9.86,6.55-14.76,.29-1.87,.36-3.89,.58-5.76-.07,0-.07-.07-.14-.07-1.44,2.23-3.17,4.32-4.25,6.77-.14,.43-.58,.65-.86,.5-.14,0-.22-.07-.36-.14,.22,.43,.36,.79,.58,1.15-1.73,1.51-3.46,2.95-5.18,4.46,.5,1.94,.72,4.03,.5,6.12l2.59,1.73h-.01Zm12.46-27.43c3.17-6.55,6.41-13.03,9.72-19.44-1.15,.07-2.38,0-3.6-.22-2.23,6.55-4.54,13.03-6.77,19.51,.22,.07,.43,.14,.65,.14h0Zm25.34-47.72c3.38-5.83,7.13-12.1,11.23-18.65-3.24-3.24-7.06-5.9-11.45-7.85l-6.77,19.51c2.95,1.66,5.33,4.1,6.98,6.98h0Zm20.38-32.75c11.95-18.07,25.92-36.79,40.82-52.56l-4.18,.36-15.84,13.97-3.74-4.25-.22,.07-3.1,.5c.14,2.59-.07,5.18-.72,7.78l6.26,2.09c.29,.07,.43,.36,.36,.65l-1.73,5.18c-.14,.29-.43,.43-.72,.29l-6.41-2.16c-1.15,2.3-2.66,4.46-4.46,6.41l4.39,4.9c.14,.22,.14,.58-.07,.79l-4.1,3.6c-.22,.14-.58,.14-.72-.07l-4.46-5.11c-2.23,1.51-4.61,2.59-7.06,3.31l1.3,6.41c.07,.36-.14,.65-.43,.65l-5.33,1.08c-.29,.07-.58-.14-.65-.43v-.14c-.07,.07-.07,.14-.14,.22-1.15,2.3-1.73,4.82-2.52,7.34l.14,.07c1.87-1.87,3.96-3.6,5.47-5.76,.29-.36,.72-.5,1.01-.36,1.58,1.15,.79,.65,2.45,1.73,.22,.22,.22,.72,0,1.08-1.51,2.09-2.45,4.54-3.6,6.84l.14,.14c2.16-1.66,4.46-3.02,6.26-4.9,.29-.36,.79-.43,1.01-.22s.43,.36,.58,.5h0Zm46.87-58.75c6.41-6.26,12.89-11.88,19.51-16.63-2.81,2.95-5.69,6.26-8.64,9.79,2.52-1.08,5.11-2.23,7.63-3.38,3.82-1.58,7.34-3.17,10.37-4.54,3.1-1.44,5.98-2.66,8.86-3.89,2.81-1.15,5.62-2.16,8.5-3.02,2.45-.79,5.04-1.44,7.78-2.09,3.31-.79,6.77-1.66,10.15-2.81,5.9-1.94,11.66-4.82,17.42-7.63,1.66-1.58,3.46-2.95,5.26-4.32,1.66-1.3,3.31-2.52,4.75-3.89,1.51-1.37,2.74-2.88,3.82-4.46,.14-.14,.22-.36,.36-.5-5.54,2.59-10.3,4.03-15.77,5.69-8.14,2.45-21.82,7.63-28.87,11.16,1.15-3.74,12.38-8.64,16.34-10.08,4.46-1.58,8.28-2.74,11.74-3.82,8.57-2.59,15.26-4.61,26.5-11.59,1.94-1.15,3.31-2.16,4.03-2.95-1.58-.14-4.46,.14-8.28,.86-3.6,.72-7.99,1.8-12.74,3.31-5.4,1.66-11.3,3.82-17.35,6.41-5.4,2.3-10.87,4.97-16.06,7.92-5.83,3.24-23.62,13.61-27.5,16.56-1.15,.79,3.17-4.75,10.08-8.78,5.11-3.6,10.37-7.13,15.98-10.22,5.33-3.02,10.94-5.69,16.42-8.06,4.32-1.87,8.57-3.46,12.6-4.9-2.09-1.22-4.39-2.23-6.84-3.1-10.58-3.67-21.74-2.74-31.17,1.8s-17.06,12.67-20.81,23.33c-1.37,4.03-2.09,8.14-2.23,12.17l-24.98,21.96,3.17-.29h-.03Zm-2.95,10.79c8.28-4.1,21.31-8.42,28.22-10.66,2.02-.65,3.46-1.15,4.1-1.37,4.82-1.8,9.22-3.6,13.46-5.4,4.25-1.87,8.21-3.67,12.17-5.54,1.22-.86,2.59-1.73,3.96-2.59,4.39-2.88,9-5.83,12.31-8.64,2.23-1.87,3.89-3.6,5.33-5.26-3.82,1.8-7.63,3.46-11.59,4.75-3.46,1.15-6.98,2.02-10.37,2.88-2.59,.65-5.11,1.3-7.63,2.02-2.81,.86-5.47,1.87-8.21,3.02-2.74,1.08-5.62,2.38-8.78,3.82-2.52,1.15-6.34,2.81-10.37,4.54-4.25,1.87-8.78,3.89-12.74,5.69-3.24,4.03-6.55,8.28-9.86,12.74h0Zm-15.12,21.46c11.16-7.56,22.68-11.09,37.51-15.7l2.16-.65c.36-.07,1.66-.5,2.95-.86,6.05-1.87,12.24-3.74,18.43-6.98,5.83-3.02,11.74-7.27,17.64-11.81-1.08,.5-2.3,.94-3.6,1.44-1.73,.72-3.53,1.44-5.47,2.23-5.98,2.59-16.2,5.47-21.53,9.58,2.02-5.47,6.41-7.85,10.73-11.02,.94-.72,2.09-1.58,3.31-2.59-.05,0-.07,.02-.07,.07-4.25,1.8-8.71,3.67-13.68,5.47-.72,.29-2.23,.72-4.1,1.37-9.86,3.24-32.47,10.66-33.84,14.54h-.07c-3.46,4.82-6.98,9.79-10.37,14.9h0Zm-26.14,39.97c3.38-1.3,6.62-2.52,8.93-3.38,3.74-1.44,7.49-2.81,11.45-4.25,4.03-1.51,8.28-3.02,12.74-4.54,4.39-1.51,8.93-3.02,13.54-4.39,1.51-.43,3.31-.94,5.04-1.51,7.2-2.09,14.04-4.03,18.65-6.7,2.81-1.66,4.82-3.53,6.48-5.47,1.66-2.02,2.95-4.18,4.32-6.41l1.08-3.67c.29-.94,.5-1.87,.79-2.81,.14-.36,.29-.79,.36-1.08-1.73,1.22-4.18,2.95-7.2,4.54-2.52,1.3-5.47,2.52-8.71,3.74-3.24,1.15-6.77,2.3-10.44,3.46-.72,.22-1.44,.43-2.23,.65-5.18,1.58-10.58,3.24-15.41,5.33-5.76,2.38-17.06,8.57-21.02,12.38-.36-.65,2.16-3.6,7.06-7.49,1.01-.72,12.74-7.49,12.74-7.49,4.03-2.23,8.06-4.54,12.74-6.84,1.66-.86,3.46-1.66,5.33-2.59,3.31-1.58,6.84-3.24,10.44-5.18,2.81-1.44,5.69-3.1,8.64-4.75,2.95-1.8,5.9-3.6,8.5-5.26,2.45-1.58,4.68-3.1,6.62-4.54,1.87-1.44,3.6-2.88,5.26-4.32,1.58-1.37,3.02-2.81,4.46-4.39,1.37-1.51,2.66-3.1,3.96-4.9-5.18,3.89-10.37,7.56-15.62,10.22-6.41,3.31-12.74,5.26-18.94,7.13-.72,.22-1.37,.43-2.95,.94-.72,.22-1.37,.43-2.09,.65-17.42,5.4-30.17,9.29-43.13,20.02-.07,.07-.14,.14-.14,.22-7.42,11.02-14.47,22.25-21.24,32.69h0Zm-2.88,19c3.31-1.8,7.06-3.6,11.09-5.4,4.25-1.94,8.71-3.82,13.18-5.62,34.05-13.61,39.89-12.89,1.08,2.59-4.46,1.8-8.93,3.67-13.03,5.54-3.96,1.8-7.7,3.6-10.94,5.4-26.21,13.97-22.68,8.86-1.37-2.52h0Zm2.59,9.66c-14.9,7.42-14.18,4.18-2.09-2.16,8.14-4.25,15.62-5.54,15.41-4.46-.07,.72-4.18,2.02-13.32,6.62h0Zm-35.21,35.71c-1.3,2.3-9.94,17.06-9.94,17.06-.22,.72,.36-4.03,3.1-9.86,1.37-2.88,2.81-5.76,4.39-8.57s3.31-5.54,5.04-8.21c3.53-5.26,7.2-8.28,6.77-7.7-2.02,2.88-6.98,13.1-9.36,17.28Zm-3.17,57.81c-4.25,2.88-6.55,3.89-7.63,4.18-1.58,.43,1.08-3.1,6.05-6.55,5.26-3.6,9.58-3.89,8.21-3.38-1.66,.65-2.38,2.81-6.62,5.76h0Zm24.19-7.35c-21.74,12.02-18.79,7.13-1.37-2.52,10.51-5.83,15.41-6.84,14.54-6.41-2.45,1.44-5.11,4.39-13.18,8.93h.01ZM58.31,92.19l3.96-.79c-.14-2.16,0-4.32,.43-6.41h-.36l-.5-5.54,18.43-1.3c-1.08-2.38,.58-1.94,.07-4.68-.14-.86-.29-1.58-.36-2.09-.43-2.95,3.89-2.88,4.61-4.9,.86-2.45,3.89-2.74,3.96-2.88,4.82-7.49,4.82,1.44,7.85-6.55,.36-1.01,.65-1.87,.79-2.66-6.26-.29-12.38,1.01-17.93,3.67-8.57,4.18-15.55,11.59-18.86,21.24-1.51,4.25-2.16,8.64-2.09,12.89Zm6.98,13.82l1.3-1.15c-1.44-2.23-2.52-4.61-3.24-7.06l-2.38,.43c.58,.22,.58,.86,.65,1.44l.5,3.31c.07,.14,0,.29-.07,.43,1.15,.72,2.23,1.58,3.24,2.59h0Zm7.85,13.83c.22-.65,.36-1.3,.5-1.94,.07-.43,.43-.79,.79-.72,1.15,.22,1.3,.29,1.58,.29l1.08-3.17c-2.02-1.01-3.89-2.3-5.62-3.82l-1.51,2.45c-.07,.14-.22,.22-.36,.22,.5,1.58,.79,3.31,.86,4.97,.07,.07,.22,.07,.29,.14l2.38,1.58h.01Zm6.48,3.02l-2.23-.72c-.07,1.44,0,2.88-.07,4.32h.14c.65-1.22,1.44-2.38,2.16-3.6Zm12.53,.14l-1.15-5.76c-2.59,.14-5.26-.07-7.78-.72l-.79,2.45c1.37,.5,.72,.29,2.45,.86,.29,.07,.43,.58,.29,1.01-.86,2.38-1.08,5.04-1.51,7.56l.14,.07c1.58-2.09,3.46-4.1,4.68-6.41,.14-.43,.58-.65,.86-.5,1.8,.86,.94,.43,2.66,1.37,.07,0,.07,.07,.14,.07h.01Zm38.09-43.92l-6.91,.65-1.3,1.08h.14c.29-.07,.65,.14,.65,.43l.79,3.74,6.62-5.9h.01Zm-7.34-6.41c-.86,.07-1.66,.07-2.52,.07-1.22,0-2.95-.22-4.82-.36l-3.1,2.66,.07,.07,8.42-.72,1.94-1.73h0Zm-17.28,8.72l-5.04,.43c-.36,.29-.86,.65-1.8,1.08-1.87,.86-2.3,4.82-5.26,3.82-.86-.29-2.02-.72-4.1-.58-1.73,.07-.86,.58-2.81-.65-.58-.43-1.22-1.01-1.94-1.73l-12.53,.72c-1.8,5.9-.65,12.53,3.74,17.5,6.62,7.56,18.14,8.28,25.7,1.66,3.1-2.66,5.04-6.19,5.76-9.86l-14.76,13.03-3.74-4.18,18.58-16.34c-.36-1.73-.94-3.31-1.8-4.9Zm-2.45-32.33l2.59-2.23c.36-.36,1.3,.14,2.16,1.08l4.54,5.11c.79-.72,1.66-1.51,2.52-2.23l-3.89-4.39c-.72-.79-.94-1.73-.58-2.09l2.66-2.38c.36-.29,1.22,.07,1.94,.94l4.03,4.54c1.08-.72,2.09-1.37,2.95-1.66l-2.66-2.95c-.43-.58-.58-1.3-.22-1.66l2.74-2.3c.36-.36,1.08-.14,1.51,.36l7.56,8.57c.43,.58,.58,1.3,.22,1.58l-2.74,2.38c-.36,.29-1.08,.14-1.51-.43l-3.17-3.53c-.43,.72-1.15,1.66-2.02,2.66l4.39,4.97c.72,.79,1.01,1.73,.65,2.09l-2.74,2.38c-.36,.29-1.22-.07-1.94-.94l-4.1-4.68c-.79,.79-1.66,1.58-2.52,2.38l4.9,5.54c.79,.86,1.15,1.94,.79,2.23l-2.3,2.02c1.87,.07,3.67,.07,5.33-.22,12.74-2.38,19.22-19.66,8.64-29.88-7.27-6.98-19.08-6.84-26.28,2.23-3.02,3.89-3.38,7.2-3.46,10.51h.01Zm.22,1.94c0,7.2-5.62,10.51-3.17,13.25,2.59-2.16,5.83-5.04,8.35-7.49l-4.68-5.33c-.29-.29-.22-.07-.5-.43Zm8.14,9.14c-3.31,2.95-6.48,5.62-8.5,7.34l1.01,1.15c2.16-.36,3.46-2.45,7.06-2.66,1.51-.07,3.67,.14,5.98,.29-.22-.14-.43-.36-.65-.58l-4.9-5.54Zm33.55-12.24c.07,1.87-.07,3.82-.5,5.62l2.52-2.16c-.29-1.01-.5-2.02-.65-3.02l-1.37-.43h0Zm-46.22,26.63c-.65-.58-1.94-1.87-3.17-3.24-1.15-1.3-2.23-2.59-2.52-3.1l-1.15,.72c.36,.58,1.51,1.94,2.74,3.31s2.59,2.74,3.24,3.31l.86-1.01h0Zm-4.1,3.83c-.65-.5-1.87-1.8-3.1-3.17-1.22-1.3-2.3-2.59-2.59-3.1l-1.15,.65c.36,.58,1.51,1.94,2.74,3.31,1.22,1.44,2.59,2.81,3.31,3.38l.79-1.08h0Zm50.76-18.13l-15.12,13.25,6.98-.58,14.83-13.1-4.9,2.45-1.8-2.02h0ZM48.95,137.19c-7.99,3.89-14.69,10.51-18.58,19.15l19.51,6.77c3.89-6.7,11.52-10.44,19.15-9.29l6.77-19.51c-2.74-.65-5.47-1.01-8.21-1.15l.07,.14c.14,.58,.36,1.15-.14,1.58l-1.58,1.37c-.5,.43-1.01,.14-1.58-.07l-3.17-1.22c-.14-.07-.22-.22-.29-.36-1.51,.79-3.1,1.44-4.75,1.73,0,.14,0,.22-.07,.29l-1.37,3.02c-.22,.58-.5,1.15-1.08,1.15h-2.16c-.58,0-.86-.5-1.15-1.08l-1.37-2.52h0Zm7.49-30.24c-1.73-.65-3.67,.36-4.32,2.09-.65,1.8,.29,3.74,2.09,4.32,1.8,.65,3.74-.29,4.32-2.09,.65-1.73-.29-3.67-2.09-4.32Zm-5.76,17.14c-1.8-.65-3.74,.29-4.32,2.09-.65,1.8,.29,3.74,2.09,4.32,1.8,.65,3.74-.29,4.32-2.09,.65-1.73-.29-3.67-2.09-4.32Zm12.6-5.62c-1.73-.65-3.67,.29-4.32,2.09-.58,1.8,.36,3.74,2.09,4.32,1.8,.65,3.74-.29,4.39-2.09,.58-1.8-.36-3.74-2.16-4.32Zm-18.07-6.12c-1.73-.65-3.67,.29-4.32,2.09-.58,1.73,.36,3.67,2.09,4.32,1.8,.65,3.74-.36,4.39-2.09,.58-1.8-.36-3.74-2.16-4.32Zm-15.34,98.71c.94,.36,1.87,.65,2.81,1.01,.72-1.3,1.44-2.66,2.16-3.96l-.07-.07c-1.66,1.01-3.31,1.94-4.9,3.02h0Zm3.74,6.62c-.07,.58-.07,1.08-.14,1.58,1.8,1.08,3.38,2.45,4.68,4.03,2.02-.43,3.96-.79,5.98-1.22,.79-2.09,1.22-4.46,1.73-6.7,0,0-.07,0-.14-.07-1.73,2.02-3.74,3.89-5.11,6.12-.22,.36-.65,.58-.94,.43-1.66-1.08-.86-.58-2.52-1.58-.29-.14-.36-.65-.07-1.01,1.3-2.23,2.09-4.75,3.02-7.13,0,0-.07-.07-.14-.07-1.94,1.73-4.25,3.24-5.9,5.33-.07,.14-.29,.29-.43,.29h-.02Zm-7.56,8.5c-.43-.14-.86,.07-.94,.43-.72,2.02-1.44,4.03-2.09,5.98-2.02-.65-4.03-1.37-6.05-2.09-.36-.07-.79,.07-.94,.5-.22,.65-.43,1.37-.72,2.09-.14,.36,.07,.79,.43,.94,2.02,.72,4.03,1.37,6.05,2.09-.72,2.02-1.44,3.96-2.09,5.98-.14,.36,.07,.79,.43,.94,.72,.29,1.44,.5,2.09,.72,.43,.14,.79-.07,.94-.43,.72-2.02,1.44-3.96,2.09-5.98,2.02,.65,4.03,1.37,6.05,2.09,.36,.14,.79-.07,.86-.43,.29-.72,.5-1.44,.79-2.16,.14-.36-.07-.79-.43-.94-2.02-.65-4.03-1.37-6.05-2.09,.72-2.02,1.44-3.96,2.09-5.98,.14-.36-.07-.79-.43-.94-.72-.22-1.44-.5-2.09-.72h0Zm42.33-59.61c-3.31-1.15-6.98,.58-8.14,3.89s.65,6.91,3.96,8.06,6.91-.58,8.06-3.89-.65-6.91-3.89-8.06h.01Zm-18.36,41.9l6.77-19.51c-6.7-3.89-10.37-11.52-9.22-19.15l-19.51-6.77c-4.68,18.43,4.61,37.58,21.96,45.43Z"/></g></g></g></g></g></svg>