<?xml version="1.0" encoding="UTF-8"?><svg xmlns="http://www.w3.org/2000/svg" viewBox="0 0 718.89 718.86"><g id="a"/><g id="b"><g id="c"><g><path d="M403.52,137.56c-3.91,.39-7.44,1.17-8.22,3.52-1.68,5.05,2.35,3.13,7.05,9.39,4.7,6.26,7.44,3.91,9.39,0,1.96-3.91-.78-4.31-.78-7.83-.01-3.52-3.53-5.47-7.44-5.08Z"/><path d="M201.96,575.77c-1.61-.96-5.14,3.21-9.95,9.63-4.82,6.42-6.74,10.6-5.46,13.48,1.28,2.89,2.89,.96,4.49-1.28,0,0,7.06-9.95,10.27-14.13,3.22-4.16,2.26-6.73,.65-7.7Z"/><path d="M127.16,493.9c-1.93-1.28-10.6,4.82-14.45,8.03-3.85,3.21-10.27,10.6-1.28,8.99,1.3-.23,13.16-9.95,15.09-11.56,1.92-1.6,2.56-4.17,.64-5.46Z"/><path d="M160.87,538.53c-.96-.64-7.71,5.46-9.63,7.38-1.93,1.93-4.82,2.89-3.53,5.14,.93,1.63,3.85,1.93,9.95-4.49,6.1-6.42,4.17-7.39,3.21-8.03Z"/><path d="M191.37,574.49c2.89-3.53,2.25-6.74-1.28-4.49,0,0-4.17,3.53-4.17,4.49-.01,.96,2.56,3.53,5.45,0Z"/><path d="M182.7,563.9s-4.17,3.53-4.17,4.49,2.57,3.53,5.46,0c2.88-3.53,2.24-6.74-1.29-4.49Z"/><path d="M174.35,556.83s-4.17,3.53-4.17,4.49,2.57,3.53,5.46,0c2.89-3.52,2.24-6.74-1.29-4.49Z"/><path d="M166.65,549.13s-4.17,3.53-4.17,4.49,2.57,3.53,5.46,0c2.88-3.53,2.24-6.74-1.29-4.49Z"/><path d="M149.3,532.97s-4.84,2.55-5.04,3.49c-.21,.94,1.75,4,5.33,1.18,3.58-2.83,3.64-6.11-.29-4.67Z"/><path d="M143.4,525.42s-4.84,2.55-5.04,3.49c-.21,.94,1.75,4,5.33,1.18,3.58-2.83,3.65-6.11-.29-4.67Z"/><path d="M136.77,516.72s-4.84,2.55-5.04,3.49c-.21,.94,1.75,4,5.33,1.18,3.58-2.83,3.65-6.1-.29-4.67Z"/><path d="M130.91,507.54s-4.84,2.55-5.04,3.49,1.75,4,5.33,1.18c3.58-2.83,3.64-6.11-.29-4.67Z"/><path d="M92.79,390c-1.25-1.95-11.64,.19-16.45,1.59-4.81,1.41-13.65,5.61-4.77,7.73,1.29,.31,16.04-3.87,18.45-4.57,2.41-.7,4.02-2.8,2.77-4.75Z"/><path d="M105.88,444.38c-.63-.97-9.24,1.93-11.78,2.93-2.54,1-5.57,.73-5.29,3.3,.2,1.86,2.76,3.3,10.92-.15,8.16-3.46,6.78-5.11,6.15-6.08Z"/><path d="M114.49,487.35c-.38,.88,.95,4.26,5,2.18,4.06-2.08,4.75-5.28,.62-4.63,0-.01-5.24,1.56-5.62,2.45Z"/><path d="M110.15,478.8c-.38,.88,.95,4.26,5,2.18,4.06-2.08,4.75-5.28,.62-4.63,0,0-5.23,1.57-5.62,2.45Z"/><path d="M110.32,471.17c4.06-2.08,4.75-5.28,.62-4.63,0,0-5.24,1.57-5.62,2.46-.39,.88,.94,4.26,5,2.17Z"/><path d="M106.95,456.4s-5.24,1.57-5.62,2.45c-.38,.88,.95,4.26,5,2.18s4.75-5.28,.62-4.63Z"/><path d="M91.47,435.84c-.57,.78,0,4.37,4.42,3.21,4.41-1.16,5.78-4.14,1.6-4.39,0,0-5.45,.4-6.02,1.18Z"/><path d="M93.5,429.78c4.41-1.16,5.78-4.14,1.6-4.39,0,0-5.45,.41-6.02,1.19-.56,.77,0,4.36,4.42,3.2Z"/><path d="M90.89,419.16c4.41-1.16,5.78-4.14,1.6-4.39,0,0-5.45,.41-6.02,1.19-.56,.77,0,4.36,4.42,3.2Z"/><path d="M89.18,408.39c4.41-1.16,5.78-4.14,1.6-4.39,0,0-5.45,.41-6.02,1.19-.56,.78,0,4.36,4.42,3.2Z"/><path d="M80.37,279.29c1.04,.82,16.2,3.16,18.68,3.53,2.48,.36,4.82-.87,4.49-3.16s-10.66-4.68-15.62-5.41c-4.96-.73-14.75-.58-7.55,5.04Z"/><path d="M90.91,312.78s-5.13-1.9-5.97-1.43c-.84,.47-1.82,3.97,2.68,4.75,4.5,.79,6.98-1.35,3.29-3.32Z"/><path d="M92.96,302.04s-5.13-1.9-5.97-1.43c-.84,.47-1.82,3.97,2.68,4.76,4.5,.78,6.98-1.36,3.29-3.33Z"/><path d="M95.89,291.55s-5.13-1.9-5.97-1.43c-.84,.47-1.82,3.97,2.68,4.75,4.5,.78,6.98-1.35,3.29-3.32Z"/><path d="M150.62,186.71c2.15,1.3,4.78,1.06,5.37-1.18,.58-2.24-8.02-8.44-12.31-11.03s-13.37-6.24-8.91,1.73c.64,1.16,13.71,9.18,15.85,10.48Z"/><path d="M116.22,231.58c8.06,3.66,8.34,1.53,8.64,.41,.29-1.12-7.68-5.49-10.13-6.68-2.45-1.19-4.31-3.61-6.01-1.66-1.24,1.41-.57,4.27,7.5,7.93Z"/><path d="M100.86,272.58c4.28,1.57,7.11-.08,3.83-2.68,0,0-4.7-2.79-5.61-2.47-.92,.31-2.51,3.57,1.78,5.15Z"/><path d="M104.2,263.6c4.28,1.57,7.11-.08,3.83-2.68,0,0-4.7-2.79-5.61-2.47-.91,.31-2.5,3.58,1.78,5.15Z"/><path d="M108.15,253.41c4.28,1.57,7.11-.08,3.83-2.68,0,0-4.7-2.79-5.61-2.47-.92,.3-2.51,3.57,1.78,5.15Z"/><path d="M116.73,240.92s-4.7-2.79-5.61-2.47-2.5,3.58,1.79,5.16c4.28,1.57,7.1-.09,3.82-2.69Z"/><path d="M122.01,221.03c3.84,2.46,6.96,1.45,4.32-1.8,0,0-3.99-3.74-4.95-3.62-.96,.11-3.21,2.96,.63,5.42Z"/><path d="M127.21,212.99c3.84,2.46,6.96,1.45,4.32-1.8,0,0-3.99-3.74-4.95-3.62-.96,.11-3.21,2.96,.63,5.42Z"/><path d="M133.26,203.88c3.84,2.46,6.96,1.45,4.32-1.8,0,0-3.99-3.74-4.95-3.62-.96,.11-3.21,2.96,.63,5.42Z"/><path d="M139.39,189.91c-.96,.11-3.21,2.96,.63,5.42,3.84,2.46,6.96,1.45,4.32-1.8,0,.01-3.99-3.73-4.95-3.62Z"/><path d="M236.21,115.25c1.47,2.03,3.99,2.85,5.4,1.01,1.41-1.83-4.08-10.9-7.02-14.96-2.94-4.06-9.87-10.98-8.88-1.9,.15,1.32,9.03,13.81,10.5,15.85Z"/><path d="M194.78,146.84c.71-.92-4.92-8.06-6.71-10.11-1.79-2.05-2.55-5-4.88-3.88-1.69,.82-2.19,3.71,3.8,10.24,5.99,6.52,7.09,4.66,7.79,3.75Z"/><path d="M161.39,173.83s-3.24-4.41-4.2-4.47c-.96-.07-3.7,2.32-.37,5.45s6.57,2.7,4.57-.98Z"/><path d="M167.99,166.88s-3.24-4.41-4.2-4.47c-.96-.07-3.7,2.32-.37,5.45,3.32,3.12,6.57,2.7,4.57-.98Z"/><path d="M175.6,159.04s-3.24-4.41-4.2-4.47c-.96-.07-3.7,2.32-.37,5.45,3.33,3.12,6.57,2.69,4.57-.98Z"/><path d="M183.82,151.88s-3.24-4.41-4.2-4.47-3.7,2.32-.37,5.45,6.57,2.69,4.57-.98Z"/><path d="M201.13,135.67s-2.21-5-3.14-5.27c-.92-.27-4.11,1.47-1.54,5.24,2.58,3.77,5.84,4.06,4.68,.03Z"/><path d="M209.06,130.31s-2.21-5-3.14-5.27c-.92-.27-4.11,1.47-1.54,5.24,2.58,3.76,5.84,4.05,4.68,.03Z"/><path d="M218.19,124.29s-2.21-5-3.14-5.27c-.92-.27-4.11,1.47-1.54,5.24,2.58,3.76,5.84,4.05,4.68,.03Z"/><path d="M227.76,119.07s-2.21-5-3.14-5.27c-.92-.27-4.11,1.47-1.54,5.24,2.58,3.76,5.84,4.05,4.68,.03Z"/><path d="M294.09,98.01c1.02-.55-1.23-9.36-2.04-11.96s-.31-5.61-2.9-5.52c-1.87,.06-3.5,2.51-.67,10.9,2.84,8.39,4.59,7.13,5.61,6.58Z"/><path d="M252.63,109.17s-1.18-5.34-2.03-5.79-4.32,.62-2.55,4.83c1.78,4.21,4.92,5.14,4.58,.96Z"/><path d="M261.47,105.49s-1.18-5.34-2.03-5.79-4.32,.62-2.55,4.83c1.78,4.2,4.92,5.13,4.58,.96Z"/><path d="M271.61,101.4s-1.18-5.34-2.03-5.79-4.32,.62-2.55,4.83c1.78,4.2,4.92,5.13,4.58,.96Z"/><path d="M282.02,98.18s-1.18-5.34-2.03-5.79-4.32,.62-2.55,4.83c1.78,4.2,4.92,5.13,4.58,.96Z"/><path d="M304.41,90.37s0-5.47-.73-6.09c-.74-.62-4.35-.32-3.53,4.17,.83,4.49,3.69,6.07,4.26,1.92Z"/><path d="M313.84,88.68s0-5.47-.73-6.09c-.74-.62-4.35-.32-3.53,4.17,.82,4.48,3.69,6.07,4.26,1.92Z"/><path d="M324.62,86.87s0-5.47-.73-6.09c-.73-.62-4.35-.32-3.53,4.17,.83,4.49,3.69,6.07,4.26,1.92Z"/><path d="M458.2,108.1c2.31-.16,5.44-10.29,6.53-15.18,1.09-4.9,1.66-14.67-4.48-7.9-.89,.98-4.34,15.92-4.88,18.37-.54,2.44,.52,4.87,2.83,4.71Z"/><path d="M404.24,93.37c1.15-.08,2.76-9.03,3.11-11.73,.35-2.7,2.05-5.23-.34-6.22-1.73-.72-4.23,.83-5.13,9.64-.91,8.81,1.21,8.39,2.36,8.31Z"/><path d="M393.19,88.52s1.15-5.35,.56-6.11-4.19-1.23-4.32,3.34c-.13,4.56,2.34,6.71,3.76,2.77Z"/><path d="M416.8,90.71s2.27-4.97,1.86-5.85c-.41-.87-3.83-2.1-4.94,2.33-1.1,4.42,.85,7.06,3.08,3.52Z"/><path d="M426.08,93.08s2.27-4.97,1.86-5.85c-.41-.87-3.83-2.1-4.94,2.33-1.1,4.43,.85,7.06,3.08,3.52Z"/><path d="M436.64,95.91s2.27-4.97,1.86-5.84c-.41-.87-3.83-2.1-4.94,2.33-1.1,4.42,.85,7.05,3.08,3.51Z"/><path d="M446.9,99.6s2.27-4.97,1.86-5.84-3.83-2.1-4.94,2.33c-1.11,4.42,.84,7.05,3.08,3.51Z"/><path d="M718.88,359.4c0-.28-.06-.53-.14-.77-1.43-6.83-18.21-10.69-22.86-13.14-4.86-2.56-6.9-8.94-6.9-8.94-.09-.03-.16,0-.24-.01-1.92-28.19-7.37-55.67-16.14-81.95,.02-.02,.05-.02,.07-.04,0,0-.56-6.69,2.95-10.9,3.36-4.04,17.4-14.04,16.09-20.89-.02-.26-.06-.51-.16-.76-.01-.02-.03-.04-.04-.07-.01-.02-.01-.05-.02-.07-.11-.26-.26-.47-.42-.66-3.93-5.76-20.92-2.9-26.15-3.39-5.46-.5-9.8-5.62-9.8-5.62-.03,0-.04,.02-.07,.02-12.38-24.79-27.95-48.08-46.51-69.38,.04-.06,.1-.1,.14-.17,0,0-3.07-5.96-1.45-11.2,1.56-5.02,10.7-19.63,6.87-25.46-.11-.23-.25-.45-.44-.64-.02-.02-.04-.03-.06-.05s-.03-.04-.05-.06c-.2-.2-.41-.33-.64-.45-5.84-3.82-20.44,5.32-25.45,6.88-5.24,1.63-11.2-1.45-11.2-1.45-.07,.03-.1,.1-.16,.14-21.29-18.58-44.58-34.16-69.38-46.54,0-.02,.02-.03,.02-.06,0,0-5.12-4.33-5.62-9.8-.48-5.23,2.38-22.23-3.39-26.15-.19-.17-.4-.32-.65-.42-.02-.01-.05-.01-.07-.02-.02-.01-.04-.03-.07-.04-.26-.11-.51-.15-.76-.17-6.85-1.3-16.84,12.74-20.88,16.09-4.22,3.51-10.9,2.95-10.9,2.95-.01,.02-.01,.03-.02,.05-26.29-8.78-53.77-14.24-81.96-16.16-.02-.07,0-.13-.02-.2,0,0-6.39-2.04-8.94-6.9-2.45-4.65-6.31-21.45-13.14-22.86-.24-.08-.49-.14-.76-.14-.03,0-.05,0-.08,0s-.05,0-.08,0c-.28,0-.53,.06-.77,.14-6.83,1.43-10.69,18.21-13.14,22.86-2.56,4.86-8.94,6.9-8.94,6.9-.02,.05,0,.09-.01,.14-4.56,.31-9.11,.69-13.62,1.18-23.42,2.58-46.29,7.71-68.32,15.09-.03-.04-.03-.07-.06-.11,0,0-6.68,.56-10.9-2.95-4.04-3.36-14.04-17.4-20.89-16.09-.26,.02-.51,.06-.76,.16-.02,.01-.04,.03-.07,.04-.02,.01-.05,.01-.07,.02-.26,.11-.47,.26-.66,.42-5.76,3.93-2.91,20.92-3.39,26.15-.5,5.46-5.62,9.8-5.62,9.8,0,.05,.03,.07,.04,.12-24.9,12.42-48.22,28.01-69.4,46.46-.06-.04-.09-.09-.16-.13,0,0-5.96,3.07-11.2,1.45-5.02-1.56-19.63-10.7-25.46-6.87-.23,.11-.45,.25-.64,.44-.02,.02-.03,.04-.05,.06s-.04,.03-.06,.05c-.2,.2-.33,.41-.44,.64-3.82,5.84,5.32,20.44,6.88,25.45,1.63,5.24-1.45,11.2-1.45,11.2,.04,.07,.1,.1,.14,.16-18.5,21.26-34.1,44.57-46.47,69.39-.05,0-.08-.03-.13-.04,0,0-4.33,5.12-9.8,5.62-5.23,.48-22.23-2.38-26.15,3.39-.17,.19-.32,.4-.42,.65,0,.02,0,.05-.02,.07,0,.02-.03,.04-.04,.07-.11,.26-.15,.51-.17,.76-1.3,6.85,12.74,16.84,16.09,20.88,3.51,4.22,2.95,10.9,2.95,10.9,.03,.03,.07,.03,.11,.05-8.81,26.34-14.23,53.86-16.18,81.92-.08,.02-.16,0-.25,.03,0,0-2.04,6.39-6.9,8.94-4.65,2.45-21.45,6.31-22.86,13.14-.08,.24-.14,.49-.14,.76,0,.03,0,.05,0,.08s0,.05,0,.08c0,.28,.06,.53,.14,.77,1.43,6.83,18.21,10.69,22.86,13.14,4.86,2.56,6.9,8.94,6.9,8.94,.09,.03,.16,0,.25,.01,1.93,28.18,7.38,55.66,16.16,81.94-.03,.03-.06,.02-.09,.05,0,0,.56,6.69-2.95,10.9-3.36,4.04-17.4,14.04-16.09,20.89,.02,.26,.06,.51,.16,.76,0,.02,.03,.04,.04,.07,0,.02,0,.05,.02,.07,.11,.26,.26,.47,.42,.66,3.93,5.76,20.92,2.9,26.15,3.39,5.46,.5,9.8,5.62,9.8,5.62,.04,0,.07-.03,.11-.04,12.38,24.78,27.95,48.06,46.51,69.34-.05,.08-.12,.12-.17,.21,0,0,3.07,5.96,1.45,11.2-1.56,5.02-10.7,19.63-6.87,25.46,.11,.23,.25,.45,.44,.64,.02,.02,.04,.03,.06,.05,.02,.02,.03,.04,.05,.06,.2,.2,.41,.33,.64,.45,5.84,3.82,20.44-5.32,25.45-6.88,5.24-1.63,11.2,1.45,11.2,1.45,.09-.04,.13-.13,.2-.18,21.28,18.56,44.56,34.13,69.35,46.51,0,.05-.03,.08-.04,.13,0,0,5.12,4.33,5.62,9.8,.48,5.23-2.38,22.23,3.39,26.15,.19,.17,.4,.32,.65,.42,.02,.01,.05,.01,.07,.02,.02,.01,.04,.03,.07,.04,.26,.11,.51,.15,.76,.17,6.85,1.3,16.84-12.74,20.88-16.09,4.22-3.51,10.9-2.95,10.9-2.95,.03-.04,.03-.08,.06-.12,26.27,8.77,53.74,14.22,81.91,16.15,.02,.1,0,.18,.03,.29,0,0,6.39,2.04,8.94,6.9,2.45,4.65,6.31,21.45,13.14,22.86,.24,.08,.49,.14,.76,.14,.03,0,.05-.01,.08-.01s.05,.01,.08,.01c.28,0,.53-.06,.77-.14,6.83-1.43,10.69-18.21,13.14-22.86,2.56-4.86,8.94-6.9,8.94-6.9,.04-.1,0-.19,.02-.28,28.18-1.92,55.65-7.37,81.92-16.14,.03,.04,.03,.08,.07,.12,0,0,6.69-.56,10.9,2.95,4.04,3.36,14.04,17.4,20.89,16.09,.26-.02,.51-.06,.76-.16,.02-.01,.04-.03,.07-.04,.02-.01,.05-.01,.07-.02,.26-.11,.47-.26,.66-.42,5.76-3.93,2.91-20.92,3.39-26.15,.5-5.46,5.62-9.8,5.62-9.8,0-.05-.04-.08-.04-.12,24.78-12.37,48.06-27.94,69.35-46.5,.08,.05,.12,.13,.22,.17,0,0,5.96-3.07,11.2-1.45,5.02,1.56,19.63,10.7,25.46,6.87,.23-.11,.45-.25,.64-.44,.02-.02,.03-.04,.05-.06,.02-.02,.04-.03,.06-.05,.2-.2,.33-.41,.44-.64,3.82-5.84-5.32-20.44-6.88-25.45-1.63-5.24,1.45-11.2,1.45-11.2-.04-.09-.12-.13-.18-.2,18.57-21.28,34.14-44.56,46.53-69.35,.04,0,.07,.03,.11,.03,0,0,4.33-5.12,9.8-5.62,5.23-.48,22.23,2.38,26.15-3.39,.17-.19,.32-.4,.42-.65,.01-.02,.01-.05,.02-.07s.03-.04,.04-.07c.11-.26,.15-.51,.17-.76,1.3-6.85-12.74-16.84-16.09-20.88-3.51-4.22-2.95-10.9-2.95-10.9-.03-.03-.06-.02-.1-.05,8.78-26.28,14.24-53.75,16.16-81.93,.09-.02,.16,0,.25-.03,0,0,2.04-6.39,6.9-8.94,4.65-2.45,21.45-6.31,22.86-13.14,.08-.24,.14-.49,.14-.76,0-.03-.01-.05-.01-.08,0,.01,0-.02,0-.05ZM487.04,75.19c-3.92,7.53-8.29,16.49-10.46,21.37-4.17,9.35-7.18,14.21-7.15,17.23s1.07,2.75,2.98,1.98c0,0,.65,2.9,9.38-15.75,4.79-10.22,8.51-17.29,11.18-22.17,1.99,.94,3.93,1.98,5.9,2.97-4.24,7.36-8.98,16.13-11.35,20.91-4.56,9.17-7.77,13.9-7.87,16.92s.95,2.79,2.89,2.1c0,0,.53,2.92,10.04-15.34,5.21-10,9.22-16.9,12.09-21.66,2.17,1.15,4.31,2.37,6.45,3.57-4.56,7.17-9.69,15.72-12.28,20.39-4.96,8.95-8.38,13.54-8.61,16.55-.23,3.01,.83,2.83,2.8,2.23,0,0,.4,2.94,10.71-14.88,5.64-9.74,9.95-16.45,13.03-21.08,16,9.4,31.2,20.31,45.49,32.61-5.89,6.11-12.61,13.45-16.07,17.51-6.65,7.78-10.91,11.59-11.74,14.5s.25,2.94,2.3,2.74c0,0-.2,2.96,13.46-12.45,7.49-8.46,13.03-14.13,16.97-18.05,1.63,1.47,3.23,2.99,4.84,4.5-6.15,5.86-13.17,12.92-16.8,16.83-6.97,7.5-11.39,11.12-12.34,14-.95,2.87,.12,2.95,2.18,2.83,0,0-.32,2.95,13.97-11.87,7.83-8.12,13.59-13.55,17.69-17.3,.98,.96,2,1.86,2.97,2.83,.77,.77,1.49,1.59,2.26,2.37-6.41,5.58-13.75,12.34-17.56,16.08-7.29,7.18-11.87,10.61-12.95,13.43-1.08,2.83-.01,2.95,2.05,2.93,0,0-.45,2.93,14.49-11.24,8.19-7.76,14.18-12.93,18.45-16.5,14.86,15.8,27.92,32.87,39.01,50.99-7.54,4.02-16.33,9-20.92,11.82-8.72,5.35-13.96,7.66-15.64,10.17s-.67,2.87,1.34,3.31c0,0-1.1,2.76,16.65-7.69,9.86-5.8,16.93-9.51,21.9-12.03,1.11,1.9,2.19,3.83,3.26,5.75-7.71,3.7-16.7,8.31-21.41,10.93-8.94,4.98-14.27,7.07-16.06,9.5s-.79,2.84,1.2,3.37c0,0-1.22,2.71,16.95-6.98,10.14-5.41,17.38-8.82,22.45-11.13,1.15,2.18,2.22,4.39,3.32,6.59-7.87,3.35-17.07,7.57-21.9,9.98-9.15,4.58-14.57,6.42-16.46,8.78s-.92,2.8,1.05,3.42c0,0-1.34,2.65,17.25-6.22,10.41-4.97,17.8-8.06,22.98-10.14,7.52,15.95,13.58,32.55,18.28,49.6-8.37,1.8-18.23,4.2-23.43,5.66-9.86,2.76-15.52,3.55-17.83,5.5s-1.43,2.58,.38,3.55c0,0-1.81,2.35,18.11-2.84,11.11-2.89,19.02-4.55,24.49-5.61,.54,2.14,.99,4.3,1.48,6.45-8.44,1.45-18.38,3.43-23.64,4.67-9.96,2.35-15.66,2.89-18.04,4.75-2.39,1.86-1.54,2.52,.23,3.57,0,0-1.91,2.27,18.22-2.08,11.19-2.42,19.15-3.74,24.65-4.57,.5,2.41,.96,4.82,1.4,7.25-8.49,1.07-18.51,2.61-23.82,3.61-10.06,1.9-15.77,2.19-18.24,3.94s-1.65,2.45,.07,3.57c0,0-2.01,2.19,18.29-1.26,11.26-1.91,19.26-2.88,24.8-3.46,1.85,11.39,3.13,22.92,3.71,34.59l-1.27,1.57h-18.15c0-4.88-2.17-7.54-6.77-8.83,2,2.14,3.21,5.23,3.21,7.71v.43c0,.17,0,.43-.09,.69h-21.97l-2.54-3.25c-4.17-63.95-31-123.52-76.73-169.25-45.96-45.96-106.66-72.58-170.98-76.53l-.11-37.97c0-6.14,3.34-8.28,7.22-9.26,36.6,2.63,71.91,11.55,104.71,26.29Zm-126.77,536.14v-14.94c1.41-.69,3.93-.89,6.4-1.65h24.99c-7.28,7.17-13.83,12.45-19.05,16.25-4.09,.22-8.21,.32-12.34,.34Zm8.97,12.02s-.05,.01-.07,.01c-.04,0-.08-.01-.12-.01h.19Zm-.95-392.64c-2.74-5.48-4.7-6.26-5.87-9.79-.62-1.85-1.24-3.89-2.14-5.04v-6.35c1.84-1.21,2.78-1.68,.97-3.48-.42-.42-.72-.91-.97-1.41v-5.54c.48-1.29,1.21-2.55,2.14-3.62,1.77-2.03,3.36-2.92,3.42-4.77h76.8c1.85,4.23,3.58,8.52,5.21,12.84-3.85-3.13-6.34-5.72-8.33-8.46-3.13-4.31-6.65,2.35-5.48,7.83,1.17,5.48,8.22,10.57,9,19.18s6.65,9,8.61,5.87c.9-1.43,2.37-1.59,3.92-.98,2.02,6.97,3.81,13.97,5.39,20.99-7.01,.31-16.4,2.82-12.05,14.05,4.7,12.13,3.13,6.65,4.31,14.48,.63,4.22,.59,8.98,1.58,11.89h-94.53v-50.77c1.28-.17,2.35-.42,2.93-.65,1.96-.79,7.83-.79,5.09-6.27Zm15.65-90.02c1.57-5.09,5.87-8.22,4.31-12.53-.31-.85-.46-1.6-.55-2.31h11.83c4.71,4.67,9.57,10.01,14.44,16.2,10.61,13.48,19.28,28.37,26.47,43.98h-76.3c-2.22-4.06-2.57-6.99-3.86-8.81v-42.23c.5,.91,.96,1.99,1.36,3.36,2.74,9.39,4.31,15.27,6.65,20.35,2.35,5.09,10.57,8.22,12.53,4.7s.39-9.39,2.35-13.31c1.95-3.92-.79-4.31,.77-9.4Zm50.28-14.84c2.92,1.58,5.87,3.25,8.85,5,.07,8.36,.63,13.46,3.51,18.85,3.13,5.87-.39,6.65,1.96,15.27,2.35,8.61,1.57,12.92,5.48,14.48,3.91,1.57,11.35-.39,9.79-5.09-1.57-4.7,4.31-3.91,7.83,.78,3.52,4.7,7.83,8.61,10.96,7.44s3.91-5.09-.39-10.96c-4.31-5.87-5.87-4.31-9.79-12.92-3.91-8.61-3.91-3.91-3.91-8.61,0-.65,.06-1.42,.16-2.24,6.32,4.73,12.61,9.82,18.76,15.42,6.26,5.69,12.14,11.63,17.66,17.8-1.23,1.23-2.72,2.46-4.54,4.96h-54.93c-7.5-16.65-16.67-32.52-27.96-46.87-3.88-4.92-7.74-9.32-11.53-13.3h28.09Zm-7.7-9.29c5.03,1.38,10.02,2.9,14.95,4.59h-6.05c-3.01-1.61-5.98-3.15-8.9-4.59Zm43.39,26.37c1.33-3.07,3.59-4.46,6.8,1.27,5.48,9.79,8.61,10.96,16.44,15.66,7.76,4.65,15.88,12.76,14.51,17.09-5.37-5.93-11.04-11.67-17.09-17.17-6.77-6.15-13.7-11.72-20.66-16.85Zm71.2,277.53h-68.47c.89-7.03,1.62-13.96,2.19-20.77,2.96,2.68,6.81,4.89,10.1,3.24,4.7-2.35,10.96-3.91,18.79-2.35,7.83,1.57,13.31,.39,17.61-.39,4.31-.78,18.4-1.96,19.96,4.7,1.01,4.26-.38,9.19-.18,15.57Zm.49,4.69c.38,2.33,.97,4.8,2.04,7.53,2.29,5.82,4.9,9.49,6.72,12.92-11.6,32.86-28.61,59.64-47.05,81.15h-59.58c15.09-32.97,23.68-68.19,28.28-101.59h69.59Zm-120.89,142.19c7.98-11.47,14.85-23.53,20.8-35.92h57.69c-11.5,12.8-23.43,23.62-34.84,32.63-13.06,10.31-26.18,18.9-38.49,25.98h-23.19c5.83-6.43,11.92-13.9,18.03-22.69Zm-24.45,22.7h-24.17c.19-.51,.41-.97,.5-1.58,1.17-7.83,5.48-9.39,8.61-11.74,3.13-2.35,6.65-4.31,6.65-8.61s1.96-12.53,6.26-15.66c4.31-3.13,21.14-9.79,20.75-15.66-.11-1.66,.16-3.49,.51-5.36h20.83c-5.56,11.35-11.85,22.42-19.15,32.95-7.04,10.16-14.12,18.64-20.79,25.66Zm69.43-342.41c-1.05-4.73-2.2-9.46-3.45-14.18,2.98,1.85,7.96,.52,10.56,5.07,2.66,4.66-1.49,8.16-7.11,9.11Zm2.28,40.75h-3.05c.99-.35,1.97-.66,2.94-.98,.04,.33,.07,.65,.11,.98Zm.13-90.56c-.78,6.26,3.52,14.09,.39,18.4-3.13,4.31-3.52-.39-12.53-6.65-.49-.34-.91-.65-1.37-.97-2.12-6.03-4.39-12.01-6.91-17.89h50.04c-.89,1.4-1.82,1.58-6.14,.86-7.05-1.17-11.74-.39-14.48,2.74-2.74,3.11-8.22-2.76-9,3.51Zm-66.59-76.68c-4.86-4.74-9.53-8.69-13.9-12.05,5.32,.59,10.6,1.36,15.85,2.28,6.82,2.74,14.13,5.98,21.75,9.77h-23.7Zm67.01,171.93c.08,.67,.16,1.35,.24,2.02-4.14,2.83-10.2,4.13-11.22,9.58-1.17,6.26-7.83,0-8.22,10.18s-.39,13.31-2.74,18.79c-2.23,5.21,1.5,10.07,.86,14.92h-87.16v-55.49h108.24Zm-22.76,60.17c-2.3,4.6-5.71,10.14-2.71,15.23,3.91,6.65,10.96,8.61,16.44,14.87,4.76,5.44,8.33,8.51,10.98,11.53-.62,8.34-1.49,16.88-2.6,25.57h-107.6v-67.21h85.49Zm21.52,71.91c-4.66,33.48-13.41,68.73-28.76,101.59h-22.28c.49-3.2,.52-6.29-1.36-8.74-3.91-5.09-.78-8.61,2.35-10.57s10.18-4.7,11.35-12.92,9-5.09,5.09-14.87c-3.91-9.79-12.13-12.92-16.83-12.13-4.7,.78-3.91-5.87-9.79-5.48-5.87,.39-7.44-1.57-11.35-5.09s-2.74,.78-9-2.74-9.79-9-15.27-14.48c-5.48-5.48-3.13-6.26-10.57-5.48-.21,.02-.38,.04-.58,.06v-9.15h107Zm-68.98,169.59h19.15c-12.25,6.59-23.39,11.62-32.5,15.32-1.21,.12-2.43,.19-3.64,.29,5.03-4.04,10.82-9.22,16.99-15.61Zm28.8,0h22.45c-15.3,5.85-31.18,10.2-47.49,12.96,7.7-3.6,16.15-7.89,25.04-12.96Zm7.97-4.69c10.41-6.32,21.25-13.67,32.06-22.19,12.57-9.91,25.75-21.99,38.33-36.42h37.94c-1.92,2.05-3.83,4.12-5.83,6.12-22.45,22.45-48.42,40.07-76.62,52.49h-25.88Zm74.39-63.3c16.68-20.03,32.03-44.39,43.17-73.65,.09,2.08-.23,4.44-1.15,7.38-3.91,12.53-8.61,18.4-4.31,25.44,4.31,7.05,7.44,14.48,5.48,22.7-1.96,8.22-.78,5.48-2.74,12.92-.3,1.13-.49,2.27-.64,3.42-.52,.6-1.02,1.2-1.55,1.8h-38.26Zm39.27-250.26c-7.05,9,1.17,5.87-7.05,9-3.33,1.27-6.05,2.32-8.36,2.89h-5.41c-.84-.35-1.6-.87-2.28-1.71-3.13-3.91-5.48-2.74-7.83-9-2.35-6.26-10.18-10.18-12.13-7.44-1.96,2.74-4.31,6.26-10.18,8.22s-10.57,1.17-13.7,5.48c-1.35,1.86-2.93,3.2-4.6,4.45h-4.52c-.11-.89-.2-1.76-.31-2.65,3.29-1.46,6.21-3.62,8.25-8.07,4.31-9.39,6.26-6.26,3.91-12.13-2.35-5.87,1.17-6.26,3.52-10.57,2.35-4.31-.39-4.31,3.52-7.44,3.91-3.13,9.79-4.31,14.09,1.57,4.31,5.87,12.53,4.31,14.48,8.22,1.96,3.91,5.87,12.92,9.79,7.83,3.91-5.09,.78-13.31,0-16.44s-3.52-6.26-5.87-6.26-3.52-3.52-8.61-6.65c-5.09-3.13-4.31-7.05-.39-9.39,3.91-2.35,9.39,3.52,14.09,7.83s7.83,4.31,7.83,7.83,1.96,6.65,7.83,9.79c1.59,.85,2.87,1.24,3.96,1.36,2.19,5.8,4.18,11.71,5.94,17.75-1.87,1.05-3.83,2.8-5.97,5.53Zm4.49-24.85c.49-.45,.94-.93,1.38-1.37,1.96-1.96,4.31-14.87-3.52-16.44-2.61-.52-4.58-1.1-6.24-1.83-2.72-5.62-5.7-11.08-8.84-16.44,.6-1.1,1.39-1.97,2.16-2.48,2.35-1.57,6.26,1.17,7.83-4.31s5.09-10.57,10.57-3.52c5.48,7.05,8.22,7.05,6.26,14.09-1.96,7.05-1.96,8.61-5.09,11.35-3.13,2.74-1.17,6.65,.78,13.7,1.96,7.05,6.26,9,6.26,14.87s7.44,5.48,8.22-1.57c.78-7.05,4.31-7.05,6.26-3.52,1.96,3.52-2.35,7.05-2.35,13.31s-1.17,5.48-8.61,3.52c-3.38-.89-6.28-1.69-9.09-1.46-1.77-6.09-3.77-12.05-5.98-17.9ZM378.37,108.28c4.88,3.32,10.38,7.54,16.23,12.88h-7.29c-.19-.91-.56-1.81-1.42-2.78-2.74-3.13-.39-5.87-6.65-8.22-3.48-1.3-6.32-1.66-8.39-2.37,2.52,.11,5.02,.31,7.52,.49Zm-23.88-60.17c.45,0,4.5-.17,4.94-.17,2.19,0,4.37,.11,6.55,.16,1.09,.92,1.84,1.92,2.37,3.2,.65,1.5,.89,1.83,.89,5.65v5.07l.06,25.65-17.79-37.17,2.98-2.39Zm-7.25,12.67l17.45,34.62c-1.75-.03-3.5-.13-5.26-.13-3.13,0-6.27,.15-9.41,.26-2.18-2.17-2.79-5.35-2.79-12.65v-22.1h.01Zm-1.33,65.07c3.98,2.86,7.16,3.8,9.67,4.97v42.7c-.51-.66-1.03-1.58-1.78-3.08-1.96-3.91-1.57-9.39-5.87-6.26-4.31,3.13-2.74,6.26-5.48,6.65-2.74,.39,1.17-1.57-3.91-7.83-5.09-6.26-4.31-7.44-10.18-10.57s-6.65-5.48-9-3.91c-2.35,1.57-4.7,5.09-3.52,7.83,1.17,2.74,0,7.44-2.35,9-2.35,1.57-3.91,1.17-5.48,5.87s-1.17,5.48-3.52,10.57c-.86,1.86-1.88,3.14-2.92,4.24h-15.93c-.2-.36-.44-.73-.72-1.1-1.71-2.27-2.94-3.82-3.9-5.15,4.75-9.61,10.14-18.87,16.21-27.67,.94-.1,1.81-.24,2.56-.45,5.87-1.57,9.39,1.96,7.83-4.31-.61-2.42-1.39-4.6-2.3-6.21,2.62-3.28,5.23-6.33,7.83-9.16,.39,.83,.45,1.86-.04,3.24-1.96,5.48-2.35,10.57,1.17,10.57s5.09-2.74,7.05-4.7c1.96-1.96,7.44,7.44,10.57,7.05s8.61-1.57,2.35-9.79c-6.25-8.2-7.43-5.88-8.22-12.49h19.88Zm-2.67,303.7c-7.21-5.05,.15,.5-8.73-4.39h21.08v9.44c-3.9-.02-6.72-1.11-12.35-5.05Zm12.34,171.65v10.05c-.41-.01-.83-.02-1.24-.03,.04-.8,0-1.6-.15-2.4-.57-3.11,.19-5.63,1.39-7.62Zm-28.32-180.74c-5.91-5.15-.86-7.48-7.11-8.14-7.44-.78-11.35-.39-17.61-1.96-6.26-1.57-7.44-.39-9.79,.39-2.35,.78-8.61-5.87-15.66-1.96-5.55,3.09-12.5,7.86-15.61,11.66h-10.83c-3.08-23.98-4.14-46.88-4.09-67.21h109.02v67.21h-28.32Zm-189.13-160c1.17,7.44,.78,9.39-1.96,11.74-2.74,2.35,1.57,8.22-.78,14.87-.14,.41-.31,.88-.46,1.32h-17.18c6.67-22.74,16.56-44.45,29.38-64.51-.99,4.46-2.03,10.04-4.3,15.43-3.13,7.45-5.87,13.72-4.7,21.15Zm-4.77,32.63c-2.01,6.32-3.92,14.03-3.06,19.82,1.17,7.83,3.52,11.74,6.65,4.7,3.1-6.97,1.99-20.81,3.86-24.52h3.03c1.19,2.01,1.87,6.49,.55,13.56-2.35,12.53-4.31,23.09-1.96,28.57,1.34,3.12,3.44,6.78,5.72,11.49,0,.62-.06,1.21-.06,1.83v.03h-40.33c.81-18.9,3.75-37.49,8.65-55.49h16.95Zm14.76,60.18c.09,24.47,2.9,46.83,7.75,67.21h-40.94c-4.89-19.73-7.42-40.19-7.42-61.04,0-2.06,.09-4.11,.14-6.17h40.47Zm105.87,152.62c5.87,5.09,8.61,5.87,13.31,15.27,1.12,2.25,2.32,4.09,3.53,5.61h-55.62c-22.14-25.81-42.22-59.21-53.34-101.59h60.12c1.54,5.65,3.89,11.09,11.64,11.44,8.4,.38,9.38-.69,13.78,3.62-.11,.8-.25,1.66-.47,2.64-1.57,7.05,0,2.35-2.74,9.39-2.74,7.05-1.96,2.74-5.48,9-3.52,6.26-1.57,8.61-2.74,13.31-1.17,4.7,3.13,5.87,0,10.96-3.13,5.09,7.44,9.79,10.96,9,3.53-.78,1.18,6.26,7.05,11.35Zm-2.75-80.72h7.96c-1.16,2.83-3.57,5.25-6.94,6.66-.34-2.22-.71-4.45-1.02-6.66Zm46.57,142.2c.93,1.34,1.86,2.56,2.78,3.84-.01,.01-.01,.03-.02,.04-3.79,5.86,3.64,11.42,7.08,18.81h-15.01c-12.26-7.06-25.33-15.61-38.34-25.87-11.46-9.03-23.43-19.89-34.98-32.74h57.32c.14,.06,.28,.06,.42,.11,5.93,12.36,12.79,24.38,20.75,35.81Zm-15.5-35.92h6.93c2.43,.93,4.53,2.59,5.08,4.97,1.17,5.09,0,7.83,2.74,16.44,1.8,5.67,4.57,8.96,5.06,12.45-.22-.31-.44-.59-.65-.9-7.32-10.54-13.6-21.61-19.16-32.96Zm26.95,63.31c.48,1.72,.96,3.43,1.51,5.03-3.15-1.57-6.39-3.23-9.72-5.03h8.21Zm-62.7-163.63c-1.57-4.7-1.17-5.87-4.7-4.7-2.23,.74-3.98,.38-5.47-1.26h10.11c.38,2.8,.79,5.6,1.23,8.42-.44-.72-.86-1.52-1.17-2.46Zm-12.75-10.65c-2.01-4.61-5.54-5.12-2.52-8.14s4.7-4.7,5.48-11.35-1.96-5.87-7.44-5.48c-5.48,.39-8.22-1.17-12.92-7.44-4.7-6.26-7.44-11.35-5.48-16.05,1.96-4.7,1.96-7.44,3.13-11.74,.94-3.44,5.6-4.38,5.66-7.01h22.12c-.05,20.34,.98,43.24,4.03,67.21h-12.06Zm8.07-71.92v.03h-63.56c-2.07-4.29-3.48-8.57-.65-12.18,4.31-5.48,4.7-7.44,3.91-11.74-.78-4.31,.39-6.65,3.52-12.53,3.13-5.87,6.65-10.96,10.57-13.7,3.91-2.74,11.74,.39,12.92-3.52,.25-.85,.88-1.42,1.66-1.82h6.47c1.4,.5,2.62,1.25,3.22,2.21,1.96,3.13,10.57,4.7,13.7,1.57s5.33-2.42,9.35-3.78h2.29c-2.23,19.62-3.22,38.47-3.4,55.46Zm-37.66,4.71c-2.62,1.98-5.46,5.2-9.33,6.23-5.87,1.57-10.57,1.96-13.31-4.31-.28-.63-.59-1.28-.91-1.92h23.55Zm13.37-196.92c-4.7,5.48-3.52,4.7-9,7.83s-3.91,11.35-8.61,15.27c-1.75,1.46-4.21,3.95-7.13,6.58h-16.07c15.04-15.84,31.9-29.54,50.17-40.86-2.52,4.28-5.7,6.91-9.36,11.18Zm-30.45,34.37c-3.67,2.69-7.71,4.93-11.82,5.56-3.68,.57-6.27,.67-8.45,.82,1.78-2.11,3.56-4.23,5.42-6.29l.08-.08h14.77Zm-15.74,185.6c2.74,.39,9.39,3.52,16.83,6.65s10.18,5.09,12.53,14.09,5.87,12.53,9.79,15.66c3.23,2.58,7.49,3.88,9.77,7.75h-59.61c-4.63-19.05-7.46-39.85-7.87-62.56,.19,.53,.38,1.03,.57,1.58,3.9,11.74,15.25,16.44,17.99,16.83Zm-14.4,48.84c10.82,42.08,30.34,75.5,52.07,101.59h-37.9c-26.27-29.48-44.9-64.15-54.96-101.59h40.79Zm56.06,106.28c12.59,14.43,25.77,26.51,38.33,36.42,10.8,8.52,21.65,15.87,32.06,22.19h-25.53c-28.2-12.43-54.17-30.05-76.62-52.49-2-2-3.9-4.07-5.83-6.12h37.59Zm78.36,63.31c7.74,4.42,15.15,8.24,22.02,11.53,.15,.32,.33,.61,.49,.93-15.3-2.78-30.21-6.95-44.6-12.46h22.09Zm-44.85-246.18c.18-16.98,1.18-35.86,3.43-55.49h1.52c1.27,.74,2.3,1.95,2.87,3.78,1.57,5.09,7.44,6.65,6.65,11.35-.78,4.7,.39,16.05,5.48,18.4s8.61-5.48,7.83-10.57-1.17-10.18,2.74-13.7c2.61-2.35,6.41-4.92,8.67-9.26h69.83v55.49h-109.02Zm52.83-218.45c1.86-1.49,2.92-3.22,3.77-4.27h2.59c.1,.13,.19,.2,.29,.36,.82,1.22,2.15,2.02,3.47,2.77-2.67,2.94-5.36,6.05-8.06,9.45-.42,.11-.84,.32-1.28,.7-3.13,2.74-10.96,4.7-10.57,.39,.39-4.31,5.87-6.27,9.79-9.4Zm-5.09-9.45c2.84-1.4,5.63-2.71,8.38-3.96-.4,1.72-.89,3.24-1.46,4.45h-6.49c-.16-.17-.29-.33-.43-.49Zm-2.95,31.7c-4.77,7.18-9.13,14.63-13.06,22.31-.28-.78-.55-1.64-.83-2.68-1.57-5.87-1.57-14.48,1.17-17.61,1.74-1.97,7.34-1.93,12.72-2.02Zm-5,38.34h10.98c-.24,.39-.48,.79-.69,1.25-1.96,4.31-2.74,7.44-3.91,9.79-1.17,2.35-8.61,1.17-9.39-2.74-.51-2.55,2.28-5.1,3.01-8.3Zm1.01,97.69c.18-1.02,.28-2.1,.28-3.28,0-9.79,4.7-16.05,9.79-19.57,5.09-3.52,9-4.31,14.48-8.61,5.48-4.31,5.48-6.65,10.96-10.57,5.48-3.91,13.7-6.65,15.27-11.74,1.57-5.09,1.57-7.05,5.48-5.09s3.13,2.35,6.65,5.87c1.36,1.36,3.31,2.01,5.3,2.26v50.72h-68.21Zm60.96-65.5c-3.91,1.17-3.91,4.7-6.26,3.91-2.35-.78-1.57-3.52-6.26-4.31-4.7-.78-9-4.31-6.65-7.05s5.48,1.17,8.61-2.35c3.13-3.52,8.22-5.87,9.79-2.35,1.37,3.08,4.84,4.97,8.04,2.77v3.66c-2.31,2.36-3.99,4.73-7.27,5.72Zm-27.44-112.43c3.33-.51,6.67-.96,10.02-1.34-2.31,1.78-4.7,3.72-7.17,5.87-.51-.95-1.14-1.99-2.02-3.27-.33-.46-.57-.85-.83-1.26Zm22.7-2.42c-.76,.63-1.53,1.22-2.31,1.72-4.4,2.83-5.17,6.44-.68,11.39h-15.04c-.05-.46-.1-.91-.16-1.33,5.28-4.69,10.24-8.46,14.7-11.49,1.17-.09,2.32-.21,3.49-.29Zm-215.56,42.88c51.26-56.85,121.2-92.75,196.93-101.09,4.59-.51,9.23-.88,13.88-1.19l2.66,2.2,.34,33.86c0,7.55-1.97,9.38-5.49,11.66-2.05,.18-4.11,.28-6.15,.51-64.23,7.07-123.54,37.52-167.01,85.73-27.58,30.59-47.33,66.82-58.2,105.8h-.27v1.04c-3.53,12.85-6.05,26-7.6,39.34l-4.75,4-27.67-8.44c-5.39-1.62-10.02-3.25-14.13-4.97,8.07-62.46,34.83-121.18,77.46-168.45Zm-32.61,202.34c-.03,1.41-.09,2.82-.1,4.24l-2.84,2.34-26.79-8.24,27.75-7.31,2.13,2.73c-.02,.52-.02,1.04-.04,1.56l-.11,4.68Zm-45.82-25.44c3.05,.66,7.14,1.8,12.66,3.57l21.71,6.24-35.78,8.71c.27-5.16,.89-13.41,1.41-18.52Zm-1.41,41.71c-.11-3.36-.25-6.72-.25-10.11,0-1.66,.09-3.31,.11-4.97l35.19,9.88-34.83,8.71-.22-3.51Zm314.08,301.32c-.95,.01-1.88,.07-2.83,.07-2.49,0-4.96-.12-7.45-.18-6.05-1.62-9.84-5.98-10.69-12.7l-.75-.17c-.68,2.59-3.21,8.07-5.56,12.02-20.39-1.57-40.38-5.11-59.76-10.52,2.75-8.05,5.73-17.61,7.15-22.77,2.71-9.87,4.96-15.13,4.47-18.11s-1.47-2.56-3.24-1.51c0,0-1.08-2.77-6.9,16.98-3.21,10.87-5.84,18.45-7.74,23.68-2.98-.9-5.91-1.92-8.86-2.91,3.16-7.9,6.62-17.3,8.3-22.38,3.21-9.72,5.72-14.86,5.39-17.86s-1.34-2.63-3.16-1.67c0,0-.94-2.82-7.76,16.61-3.75,10.69-6.76,18.12-8.93,23.24-10.06-3.61-19.9-7.77-29.53-12.41,4.11-7.45,8.7-16.35,10.99-21.18,4.39-9.25,7.51-14.04,7.55-17.06,.04-3.02-1.01-2.77-2.93-2.04,0,0-.58-2.91-9.75,15.53-5,10.06-8.88,17.02-11.66,21.84-2.83-1.44-5.66-2.89-8.44-4.42,4.48-7.22,9.5-15.84,12.04-20.54,4.85-9.01,8.22-13.63,8.42-16.65,.19-3.02-.86-2.82-2.82-2.19,0,0-.43-2.94-10.53,15.01-5.5,9.77-9.72,16.51-12.74,21.18-23.6-13.57-45.59-30.28-65.36-50.04-53.14-53.14-84.63-122.13-90.24-196.29l43.89-11.62,3,4.03c.92,15.18,3.13,30.11,6.56,44.67h-.4v4.69h1.52c9.91,38.85,28.65,74.91,55.14,105.82v.46h.4c4.35,5.05,8.84,10.01,13.6,14.77,19.6,19.6,41.77,35.69,65.71,48.06v.47h.93c32.33,16.55,67.9,26.28,104.91,28.37-4.33,2.49-6.96,6.83-6.96,12.27,0,3.73,1.16,6.8,3.4,9.37s5.39,3.98,11.12,5.06c7.3,1.58,9.54,2.16,12.19,3.65,3.32,1.91,5.39,5.14,5.39,8.71-.01,4.27-2.7,7.4-7.08,8.66Zm308.53-306.3c-.4,5.98-2.22,8.08-7.97,10.66l-1.48,.68c3.94,1.37,6.27,2.42,8.82,4.18-.06,.98-.07,2.23-.31,4.19-1.58,20.15-5.08,39.9-10.4,59.06-8.12-2.79-17.86-5.84-23.09-7.28-9.87-2.72-15.13-4.97-18.11-4.48-2.98,.48-2.56,1.47-1.51,3.24,0,0-2.77,1.08,16.98,6.91,11.09,3.28,18.76,5.96,24,7.88-.92,3.05-1.95,6.06-2.96,9.07-7.97-3.2-17.56-6.75-22.71-8.46-9.72-3.22-14.85-5.74-17.86-5.41-3,.33-2.63,1.34-1.67,3.16,0,0-2.82,.93,16.6,7.78,10.92,3.85,18.45,6.93,23.58,9.11-6.8,18.95-15.44,37.21-25.85,54.53-7.11-4.83-15.76-10.36-20.44-13.14-8.81-5.22-13.29-8.77-16.3-9.09s-2.85,.75-2.31,2.73c0,0-2.95,.31,14.57,11.13,9.78,6.04,16.45,10.62,21,13.84-1.69,2.69-3.37,5.39-5.15,8.04-6.85-5.19-15.17-11.13-19.69-14.14-8.53-5.66-12.82-9.44-15.81-9.91s-2.89,.6-2.44,2.61c0,0-2.97,.16,13.97,11.87,9.44,6.52,15.85,11.43,20.23,14.88-10.31,14.64-21.88,28.55-34.8,41.48-1.03,1.03-2.1,1.98-3.14,2.99-5.61-6.46-12.45-13.93-16.23-17.78-7.17-7.31-10.59-11.89-13.41-12.97-2.82-1.08-2.95-.01-2.93,2.05,0,0-2.93-.46,11.21,14.5,7.88,8.34,13.08,14.4,16.65,18.69-2.33,2.18-4.68,4.31-7.07,6.4-5.27-6.74-11.72-14.56-15.3-18.59-6.78-7.66-9.96-12.42-12.73-13.64-2.76-1.22-2.94-.16-3.03,1.89,0,0-2.91-.61,10.45,15.06,7.45,8.74,12.34,15.07,15.68,19.53-14.09,11.89-29.08,22.4-44.8,31.5-3.85-7.66-8.68-16.62-11.4-21.29-5.16-8.84-7.34-14.13-9.82-15.87-2.47-1.74-2.86-.73-3.34,1.26,0,0-2.73-1.16,7.31,16.81,5.63,10.08,9.19,17.26,11.6,22.29-2.79,1.54-5.6,3.01-8.43,4.46-3.46-7.85-7.81-17.05-10.29-21.85-4.69-9.1-6.61-14.49-8.99-16.35s-2.81-.88-3.4,1.09c0,0-2.67-1.3,6.44,17.17,5.11,10.36,8.3,17.73,10.44,22.87-14.1,6.84-28.69,12.61-43.68,17.23-2.07-8.32-4.79-18.13-6.41-23.29-3.07-9.76-4.04-15.4-6.07-17.64s-2.62-1.35-3.54,.49c0,0-2.41-1.74,3.41,18.01,3.23,10.96,5.13,18.79,6.37,24.23-3.06,.87-6.11,1.76-9.2,2.54-1.64-8.41-3.85-18.34-5.2-23.57-2.57-9.91-3.24-15.59-5.15-17.93-1.91-2.34-2.55-1.48-3.56,.31,0,0-2.31-1.86,2.48,18.17,2.65,11.08,4.15,18.99,5.1,24.47-17.68,4.06-35.79,6.66-54.21,7.59-1.43,.1-4.11,.11-5.23,.15,3.54-2.85,5.78-7.02,5.78-11.88,0-3.65-1.16-6.8-3.48-9.46-2.32-2.9-5.72-4.56-11.11-5.89-9.71-2.24-9.62-2.41-12.03-3.48-3.4-1.58-5.06-4.06-5.06-7.46,0-4.98,4.23-8.46,10.12-8.46,2.9,0,5.64,1,8.04,2.99,2.16,1.74,2.82,2.99,4.4,8.05l.25,.75c.42-.58,1.41-2.74,3.48-7.71,.74-1.81,1.59-3.34,2.61-4.87,65.36-3.35,126.33-30.38,172.95-77,42.91-42.91,69.18-97.99,75.71-157.45,.33-2.51,.42-3.86,.52-5.05,3.73-3.43,7-5.15,12.06-6.11l-.96-.6c-8.77-4.54-9.9-6.6-9.9-19.96v-3.6h23.79v11.31l-7.12,5.4h18.32l-7.55-5.4v-11.31h19.54c.23,2.73,.26,4.68,.26,6.98,0,1.37-.07,2.74-.09,4.11Z"/></g></g></g></svg>