<?xml version="1.0" encoding="UTF-8"?><svg xmlns="http://www.w3.org/2000/svg" viewBox="0 0 272 271"><g id="a"/><g id="b"><g id="c"><path d="M272,146v-21l-28-4c-1-10-4-19-7-28l23-17-11-18-27,11c-6-8-13-14-20-20l11-26-18-11-17,23c-9-4-18-6-28-7L146,0h-21l-4,28c-10,1-19,4-28,7l-17-23-18,11,11,26c-8,6-14,13-20,20l-26-11-11,18,23,17c-4,9-6,18-7,28L0,125v21l28,4c1,10,4,19,7,28l-23,17,11,18,26-11c6,8,13,14,20,20l-11,26,18,11,17-23c9,4,18,6,28,7l4,28h21l4-28c10-1,19-4,28-7l17,23,18-11-11-26c8-6,14-13,20-20l26,11,11-18-23-17c4-9,6-18,7-28l29-4Zm-137,63c-41,0-74-33-74-74S94,61,135,61s74,33,74,74c-1,41-34,74-74,74Z"/></g></g></svg>