<?xml version="1.0" encoding="UTF-8"?><svg xmlns="http://www.w3.org/2000/svg" viewBox="0 0 349 349"><g id="a"/><g id="b"><g id="c"><path d="M349,184v-21l-29-4c-1-10-3-19-6-28l25-14-8-19-28,7c-5-8-10-16-16-24l19-23-15-15-23,17c-7-6-15-11-24-16l7-28-19-8-14,25c-9-3-18-5-28-6L186,0h-21l-4,29c-10,1-19,3-28,6l-14-26-19,8,7,28c-8,5-16,10-24,16l-23-17-15,14,17,23c-6,7-11,15-16,24l-28-7-8,19,25,14c-3,9-5,18-6,28L0,163v21l29,4c1,10,3,19,6,28l-25,14,8,19,28-7c5,8,10,16,16,24l-17,23,15,15,23-17c7,6,15,11,24,16l-7,28,19,8,14-25c9,3,18,5,28,6l4,29h21l4-29c10-1,19-3,28-6l14,25,19-8-7-28c8-5,16-10,24-16l23,17,15-15-17-23c6-7,11-15,16-24l28,7,8-19-25-14c3-9,5-18,6-28l27-4Zm-174,100c-61,0-110-49-110-110s50-110,110-110,110,49,110,110-49,110-110,110Z"/></g></g></svg>