<?xml version="1.0" standalone="no"?>
<!DOCTYPE svg PUBLIC "-//W3C//DTD SVG 20010904//EN"
 "http://www.w3.org/TR/2001/REC-SVG-20010904/DTD/svg10.dtd">
<svg version="1.0" xmlns="http://www.w3.org/2000/svg"
 width="512.000000pt" height="512.000000pt" viewBox="0 0 512.000000 512.000000"
 preserveAspectRatio="xMidYMid meet">

<g transform="translate(0.000000,512.000000) scale(0.100000,-0.100000)"
fill="#000000" stroke="none">
<path d="M2463 5106 c-59 -19 -104 -49 -153 -102 -84 -91 -111 -217 -71 -329
30 -83 30 -90 1 -93 -32 -3 -218 -42 -234 -48 -9 -3 -22 15 -36 51 -33 82 -70
126 -131 160 -45 24 -65 29 -119 28 -76 0 -125 -19 -181 -70 -50 -45 -76 -94
-84 -160 -6 -39 -2 -64 19 -124 15 -40 28 -78 29 -82 1 -5 -31 -30 -71 -55
-40 -26 -97 -64 -127 -86 l-55 -38 -60 56 c-88 80 -165 101 -267 71 -108 -32
-185 -137 -185 -252 -1 -77 24 -131 90 -196 l49 -49 -84 -126 c-47 -70 -86
-129 -88 -131 -2 -2 -38 9 -79 24 -117 43 -209 27 -286 -48 -79 -77 -103 -204
-56 -302 31 -65 66 -97 149 -134 37 -17 67 -36 67 -43 0 -7 -5 -31 -11 -53 -7
-22 -19 -85 -29 -140 l-17 -100 -89 -5 c-74 -4 -97 -10 -136 -33 -88 -51 -135
-143 -125 -246 13 -148 121 -241 278 -241 l76 0 7 -58 c4 -31 16 -97 27 -145
12 -48 19 -93 16 -100 -3 -7 -32 -22 -65 -35 -66 -25 -133 -87 -158 -147 -8
-19 -14 -63 -14 -97 0 -120 74 -221 186 -254 65 -19 118 -15 187 15 25 11 53
21 60 23 9 2 47 -45 99 -123 l84 -126 -49 -54 c-63 -69 -89 -126 -90 -198 -1
-147 114 -261 262 -261 82 0 128 20 202 88 l56 51 54 -40 c30 -22 86 -61 126
-85 l72 -46 -21 -51 c-44 -110 -46 -136 -22 -216 31 -106 134 -181 249 -181
116 0 207 68 256 190 17 43 28 59 39 55 54 -15 146 -35 213 -46 l77 -12 0 -76
c0 -157 93 -265 240 -278 110 -10 206 43 254 139 22 43 26 66 26 134 l0 81 78
13 c42 6 111 20 154 29 l76 18 26 -62 c35 -82 75 -128 138 -159 131 -65 290
-7 354 129 32 68 31 131 -5 222 l-28 72 61 37 c33 21 92 60 129 87 l68 49 59
-56 c72 -69 110 -86 192 -86 193 0 322 197 241 367 -9 20 -40 61 -68 91 l-52
56 54 74 c30 42 68 99 86 129 23 38 36 51 47 47 84 -38 149 -54 198 -49 160
16 272 177 228 328 -26 88 -64 131 -156 174 -67 32 -80 41 -77 58 7 35 49 239
53 263 4 20 10 22 72 22 172 0 282 102 282 259 0 160 -105 260 -272 261 l-77
0 -6 38 c-10 56 -44 224 -51 249 -5 19 3 26 68 56 120 56 172 131 172 249 -1
40 -8 72 -28 112 -63 129 -202 178 -341 121 -33 -14 -64 -25 -70 -24 -5 0 -47
57 -92 126 l-83 125 49 57 c27 31 56 71 65 88 67 133 -18 314 -167 358 -101
29 -179 7 -274 -79 l-51 -46 -117 79 c-64 44 -122 82 -128 84 -7 2 -1 29 16
76 31 82 34 139 12 202 -32 90 -104 149 -206 171 -119 24 -245 -53 -296 -182
-12 -31 -27 -54 -35 -54 -26 3 -260 53 -264 57 -2 2 7 23 19 48 18 36 22 61
22 139 0 89 -2 99 -34 158 -60 110 -160 173 -286 179 -41 2 -87 -3 -112 -11z
m174 -177 c111 -54 125 -211 26 -286 -81 -62 -208 -32 -252 60 -34 71 -25 135
27 191 55 58 126 71 199 35z m-861 -351 c12 -10 28 -37 37 -59 l16 -40 -27
-11 c-15 -6 -51 -22 -81 -35 -29 -12 -56 -21 -60 -18 -4 2 -16 29 -26 59 -18
52 -18 55 -1 81 21 31 73 56 101 48 11 -3 30 -14 41 -25z m1669 16 c51 -24 63
-63 40 -131 -14 -41 -22 -52 -34 -48 -101 37 -151 62 -151 75 0 26 45 94 70
107 32 16 35 16 75 -3z m-590 -180 c323 -50 621 -176 884 -372 94 -70 264
-233 341 -327 226 -276 375 -619 426 -981 24 -176 15 -474 -20 -641 -65 -307
-195 -589 -382 -830 -305 -390 -756 -653 -1259 -730 -135 -21 -410 -23 -545
-4 -588 81 -1113 427 -1420 936 -282 467 -355 1052 -196 1577 232 763 905
1311 1706 1388 121 11 336 4 465 -16z m-1817 -298 c15 -8 39 -27 54 -43 l28
-29 -65 -64 -65 -64 -40 39 c-31 30 -40 47 -40 73 0 43 14 68 48 86 34 19 47
19 80 2z m3149 -19 c12 -12 25 -36 29 -54 5 -28 1 -37 -39 -79 l-45 -48 -62
64 -63 63 47 45 c42 39 51 43 79 38 18 -4 42 -17 54 -29z m-3614 -704 c26 -9
47 -21 47 -25 0 -17 -63 -158 -71 -158 -22 0 -99 41 -108 59 -20 37 -13 81 18
112 34 34 49 35 114 12z m4070 6 c46 -21 67 -98 36 -135 -14 -17 -85 -53 -105
-54 -9 0 -80 158 -73 164 11 9 87 35 101 35 9 1 28 -4 41 -10z m-4213 -929 l0
-90 -56 0 c-48 0 -59 4 -85 29 -33 33 -37 67 -14 111 18 35 26 38 98 39 l57 1
0 -90z m4405 65 c25 -24 33 -73 19 -110 -10 -25 -59 -45 -114 -45 l-50 0 0 90
0 90 60 0 c51 0 65 -4 85 -25z m-4241 -882 l35 -81 -53 -22 c-62 -25 -97 -20
-126 17 -27 35 -26 94 1 119 18 16 100 55 106 50 1 -1 18 -38 37 -83z m4018
68 c78 -34 102 -88 64 -146 -26 -40 -60 -49 -117 -30 -27 9 -51 21 -55 26 -4
8 55 169 62 169 1 0 22 -8 46 -19z m-3534 -858 c-52 -53 -99 -59 -142 -17 -41
42 -36 88 16 141 l42 43 63 -62 63 -62 -42 -43z m3096 127 c44 -49 52 -79 32
-119 -35 -66 -101 -70 -162 -10 l-41 40 61 63 c34 35 64 64 67 65 4 0 23 -17
43 -39z m-2431 -484 c43 -19 80 -36 83 -39 7 -7 -27 -78 -50 -104 -40 -46
-135 -19 -150 43 -5 18 0 45 15 80 12 30 22 54 23 54 1 0 36 -15 79 -34z
m1737 -12 c27 -63 25 -90 -9 -125 -21 -21 -39 -29 -64 -29 -45 0 -71 23 -97
83 -19 46 -19 49 -3 54 10 2 47 17 83 33 36 16 66 29 67 29 1 1 11 -20 23 -45z
m-830 -208 c0 -69 -6 -83 -41 -101 -43 -23 -77 -18 -110 14 -25 26 -29 37 -29
85 l0 56 90 0 90 0 0 -54z"/>
<path d="M2408 4259 c-301 -24 -633 -147 -888 -327 -111 -78 -312 -275 -391
-382 -405 -547 -471 -1261 -174 -1865 233 -473 666 -821 1180 -949 463 -115
962 -37 1365 213 429 267 720 689 822 1192 20 99 23 143 23 334 0 190 -3 236
-23 335 -183 907 -997 1524 -1914 1449z m377 -180 c328 -42 642 -194 890 -431
246 -235 403 -518 476 -858 31 -143 34 -453 5 -605 -25 -133 -83 -309 -141
-425 -158 -318 -437 -595 -751 -746 -374 -179 -820 -208 -1209 -79 -527 175
-928 605 -1065 1145 -168 660 105 1364 675 1742 334 222 713 309 1120 257z"/>
<path d="M2503 3898 c-13 -14 -25 -49 -32 -92 -15 -87 -52 -164 -106 -218 -74
-76 -82 -112 -36 -159 36 -36 65 -37 114 -4 l37 26 0 -149 0 -148 -72 -17
c-40 -9 -111 -35 -158 -58 -69 -34 -101 -58 -170 -128 -99 -100 -148 -187
-181 -321 -27 -105 -22 -249 10 -350 11 -36 21 -66 21 -66 0 -1 -19 -4 -42 -8
-175 -28 -300 -227 -253 -407 40 -160 167 -259 330 -259 95 0 167 30 236 99
53 53 99 141 99 187 0 10 6 14 15 10 192 -73 447 -47 609 62 26 18 50 32 54
32 4 0 30 -22 57 -50 l49 -50 -36 0 c-74 0 -115 -73 -74 -134 18 -28 31 -32
121 -40 83 -6 149 -28 227 -76 79 -47 118 -51 153 -15 34 33 31 67 -10 134
-51 83 -76 154 -85 251 -8 73 -13 88 -35 108 -33 28 -77 28 -111 -1 -21 -19
-26 -31 -26 -67 l1 -43 -54 53 -55 54 21 30 c79 121 119 251 119 391 0 316
-213 589 -519 662 l-71 17 0 149 0 149 31 -26 c39 -33 82 -34 114 -1 40 39 34
83 -19 145 -24 28 -58 77 -74 108 -27 51 -37 81 -57 175 -13 65 -99 92 -142
45z m-23 -1012 l0 -82 -55 -23 c-71 -29 -139 -96 -173 -169 -36 -76 -38 -201
-5 -274 30 -66 105 -143 172 -175 48 -24 68 -28 141 -28 65 1 96 6 131 22 l47
21 58 -59 c37 -37 55 -62 49 -68 -25 -24 -123 -64 -192 -78 -163 -33 -322 18
-449 145 -163 161 -199 383 -96 592 32 66 140 178 202 210 53 28 152 60 163
53 4 -2 7 -41 7 -87z m320 39 c116 -59 216 -184 255 -319 34 -117 10 -288 -56
-395 l-21 -34 -60 60 -60 60 22 62 c18 49 22 75 18 133 -9 127 -70 221 -183
279 l-65 34 0 87 0 86 48 -12 c26 -7 72 -25 102 -41z m-163 -301 c86 -41 119
-153 69 -238 -56 -96 -179 -114 -260 -38 -140 132 16 358 191 276z m-628 -584
c39 -11 86 -51 107 -92 22 -42 18 -119 -9 -159 -35 -52 -82 -79 -139 -79 -184
0 -240 245 -74 321 47 21 67 23 115 9z"/>
<path d="M1885 3659 c-77 -44 -50 -159 38 -159 68 0 109 93 61 140 -24 25 -73
34 -99 19z"/>
<path d="M3165 3659 c-77 -44 -50 -159 38 -159 68 0 109 93 61 140 -24 25 -73
34 -99 19z"/>
<path d="M1415 3188 c-76 -41 -50 -158 35 -158 40 0 90 47 90 85 0 33 -50 85
-82 85 -13 0 -32 -6 -43 -12z"/>
<path d="M3615 3177 c-38 -32 -38 -92 0 -124 55 -48 135 -14 135 58 0 78 -78
116 -135 66z"/>
<path d="M1225 2535 c-34 -33 -34 -87 0 -120 51 -52 139 -14 139 60 0 74 -88
112 -139 60z"/>
<path d="M3785 2535 c-52 -51 -16 -145 54 -145 46 0 85 39 85 85 0 74 -88 112
-139 60z"/>
<path d="M1415 1908 c-76 -41 -50 -158 35 -158 40 0 90 47 90 85 0 33 -50 85
-82 85 -13 0 -32 -6 -43 -12z"/>
<path d="M3615 1895 c-38 -37 -37 -88 1 -122 31 -29 73 -29 108 -2 57 45 19
149 -54 149 -19 0 -40 -9 -55 -25z"/>
<path d="M1865 1425 c-50 -49 -24 -130 46 -141 81 -13 128 89 65 142 -36 31
-80 31 -111 -1z"/>
<path d="M3145 1425 c-50 -49 -24 -130 46 -141 81 -13 128 89 65 142 -36 31
-80 31 -111 -1z"/>
<path d="M2505 1255 c-52 -51 -16 -145 54 -145 46 0 85 39 85 85 0 74 -88 112
-139 60z"/>
</g>
</svg>
