<svg xmlns="http://www.w3.org/2000/svg" viewBox="0 0 1024 1002.78"><g id="Layer_2" data-name="Layer 2"><g id="Layer_1-2" data-name="Layer 1"><path d="M774.4,804.38c0-44.8-12.8-89.6-38.4-121.6-44.8-51.2-96-76.8-160-76.8H460.8c-44.8,0-83.2,12.8-121.6,38.4-44.8,32-70.4,76.8-76.8,128C256,830,262.4,894,256,958c6.4,0,19.2,6.4,25.6,6.4,76.8,19.2,147.2,38.4,224,38.4,44.8,0,96,0,140.8-6.4,38.4-6.4,76.8-19.2,115.2-32,6.4,0,6.4-6.4,6.4-12.8C774.4,900.38,774.4,849.18,774.4,804.38Z"/><path d="M358.4,593.18c12.8-6.4,19.2-6.4,32-12.8-38.4-38.4-57.6-76.8-57.6-128H198.4c-25.6,0-51.2,6.4-70.4,12.8C57.6,490.78,0,561.18,0,638V798c0,6.4,0,6.4,6.4,12.8,51.2,12.8,102.4,25.6,153.6,32,19.2,0,44.8,6.4,64,6.4v-38.4c0-19.2,0-38.4,6.4-57.6C249.6,676.38,294.4,625.18,358.4,593.18Z"/><path d="M1024,650.78c0-25.6-6.4-57.6-19.2-83.2-38.4-76.8-96-115.2-179.2-115.2H704c0,51.2-19.2,96-57.6,128,6.4,0,12.8,6.4,12.8,6.4,32,12.8,64,32,89.6,57.6q57.6,67.2,57.6,153.6v44.8c32-6.4,57.6-6.4,89.6-12.8,38.4-6.4,83.2-19.2,121.6-38.4,6.4,0,6.4-6.4,6.4-12.8Z"/><path d="M915.2,292.38c0-47.92-23.38-89.43-57.86-116H673.47c-35.7,26.62-59.07,68.13-59.07,116,51.2,25.6,83.2,76.8,89.6,140.8,19.2,6.4,38.4,12.8,64,12.8C851.2,446,921.6,375.58,915.2,292.38Z"/><path d="M339.89,178.68H167.14C128.26,205,102.4,248.37,102.4,298.78c0,76.8,70.4,147.2,153.6,147.2,25.6,0,57.6-6.4,76.8-19.2,6.4-51.2,32-96,70.4-121.6v-6.4C403.2,248.37,377.34,205,339.89,178.68Z"/><path d="M950.89,156.29c25,25.81,18.67,73.08-55.65,88.91,0-32.57-57.18-45.2-129.87-45.2-77.93,0-133.2,12-133.2,46.1-74.57-15.38-78.85-67.73-48.92-93.91,36.43-31.87,51.29,21.11,181.56,21.11C883.5,173.3,911,115.1,950.89,156.29Z"/><path d="M765,154.74c58.88,0,124.07-29.24,124.07-29.24V103.12C889.1,51.86,856.75,0,765.12,0c-95.89,0-124,53.46-124,103.12v23.45S708.69,154.74,765,154.74Z"/><path d="M438.69,156.29c25,25.81,18.66,73.08-55.66,88.91,0-32.57-57.17-45.2-129.86-45.2C175.24,200,120,212,120,246.1c-74.57-15.38-78.85-67.73-48.92-93.91,36.42-31.87,51.29,21.11,181.56,21.11C371.3,173.3,398.75,115.1,438.69,156.29Z"/><path d="M252.83,154.74c58.88,0,124.07-29.24,124.07-29.24V103.12C376.9,51.86,344.55,0,252.92,0c-95.9,0-124,53.46-124,103.12v23.45S196.49,154.74,252.83,154.74Z"/><path d="M665.6,442.78c0-83.2-70.4-147.2-147.2-147.2-83.2,0-153.6,64-153.6,147.2,6.4,83.2,70.4,153.6,153.6,153.6S672,526,665.6,442.78Zm-44.49,75.69c-10,9.59-22.1,13.64-43.31,14.44-25.73.91-46.13-6.13-56.52-19.61-1.33-1.7-2.72-3.14-3-3.14s-1.07.69-1.54,1.49c-1.39,2.29-7.62,8.37-10.82,10.5-6.71,4.42-15.56,7.72-26,9.69-6.92,1.28-26.48,1.28-35.05,0-14.92-2.23-27.65-9.27-33.94-18.75a25,25,0,0,1-3.84-13.58c0-4.11.06-4.21,2.46-7.41,8-10.71,18-12.47,26.15-4.63,3,3,3.52,4.52,1.92,6.28-1.12,1.23-2.13,1.23-5.22-.16-3.36-1.49-7.25-1.6-8.74-.26a6.35,6.35,0,0,0-1.38,5.59c.48,1.54,3.83,4.74,6.28,6a16.48,16.48,0,0,0,5.92,1.38c8.2.53,20-4.74,32.07-14.44a56.22,56.22,0,0,1,16.73-8.89,35.61,35.61,0,0,1,18.91-.11,34,34,0,0,1,13.43,8.52l2.87,2.88,2.93-3.19c5-5.39,10.82-8.64,17.26-9.65a38.7,38.7,0,0,1,13.06.85c4.1,1,13.1,5.44,16.51,8.16a139.91,139.91,0,0,0,17,11.34c8.15,4.11,15.39,5.49,20.72,3.95,3.41-1,7-3.84,8.1-6.4.75-1.81.27-4.85-1.07-6.12-1.17-1.23-4.79-1-8.79.48-4.21,1.59-5.86,1.06-5.86-1.92,0-1.6.38-2.35,2.19-4.05,5.11-4.85,11.61-6.29,17.15-3.78,3,1.38,8.42,6.34,10.55,9.69,1.28,2,1.55,2.93,1.55,5.86C629.75,506.54,626.76,513,621.11,518.47Z"/></g></g></svg>