<?xml version="1.0" encoding="UTF-8"?><svg xmlns="http://www.w3.org/2000/svg" viewBox="0 0 334.08 150.6"><defs><style>.h{fill:#4e4832;}</style></defs><g id="a"/><g id="b"><g id="c"><g id="d"><g id="e"><g id="f"><g id="g"><path class="h" d="M8.88,48.8v41.39h-.9v1.7h3.5v17.26c.1,.59,.09,1.17-.02,1.76,0,1.07,.04,2.14,0,3.2,.24,.44,.4,.91,.49,1.39h.53v18.6h-2.3v1.7h2.2v1.4s-.6,.96-.68,2.07l.06,.09c.2,.35,.36,.71,.5,1.09,.39,.32,.72,.7,.98,1.12,.94,.63,2.31,.87,3.24,.53,.5-.2,.8-.6,1-1.1,1.7-.1,3.5,0,5.2,.2l.2-1.8c-1.7-.2-3.4-.2-5.1-.2-.1-.8-.2-1.5-.6-1.8l-.9-.6v-21.4s.6,0,1.7-.1c-.6,2.2-.9,4.5-.9,6.9,0,15.6,12.6,28.2,28.2,28.2,7.4,0,14.2-2.9,19.2-7.6h42.1c5,4.7,11.8,7.6,19.2,7.6,8.7,0,16.5-4,21.7-10.2h18.5l.6-5.6,2.8,.3,5.3-9.6h5v-1.9h9.6v-2.7l27.2-.1v7.4c-2.4-2.5-5.8-4-9.5-4-7.3,0-13.3,6-13.3,13.3s6,13.3,13.3,13.3,13.2-5.9,13.3-13.2c7.9,0,25.9,.1,29.4,0,.1,7.3,6,13.2,13.3,13.2s13.3-5.9,13.3-13.3c0-1.65-.32-3.23-.87-4.69l6.07,11.99h51.2l1.4-.6-48.3-33h-13.4l-19.5-18.1,.9-4.2h2.3v4.2h1.9v-14.4h-1.9v3.3h-2.3l-5.1-7.9,.9-5.1,10.7-1.9,7.4-5.6,5.1-.5-.3-2.9-3.7-.9v-16.7s-.5-2.4-2.8-3.3l-2.3-.9-1.4-5.1s-1.3-3.7-3.7-3.7-3.3,3.3-3.3,3.3l-.9,4.2-1.4,1.9h-4.2v26.9l-3.3,.9-2.3-3.7v-22.8l11.6-20.4h2.3v-2.8h-1.9l-7.9-12.5h2.8V0h-29.7l2.3,2.3-6.5,12.1h-3.7l.5,2.3h3.3l10.7,20.9,.9,21.4-3.3,6h-3.7v-2.3l-11.1,.5v-6.5h4.6l-.5-2.8s-1.9-2.3-2.8-4.6c-.9-2.3-1.5-6.8-2.8-7.4-.8-.3-1.8-.3-2.2,.1l-.1,.1-.7,.2c-5.5,1.9-10.8,3.6-15.9,2.8v-1.1h1.7v-1.9l-12.3-7-.2-2.6h-2.1v2.8l-12.5,6.7v1.9h1.7v2c-7,1.7-15.6,3.8-23.3,3.9v-.2l1.5-1.5v-1.1l-11.5-11.5v-1.9h-1.4v1.9l-11.7,11.7v1.5l1.4,1.4v1.8c-2.9,1-8.3,.7-10.9,.6-1.7,0-3.4-.3-5-.6l-2.1-.3-.4-.1c-1.3-.2-2.5-.4-3.8-.6-.3,0-.8-.1-1.3-.1-.3,0-.6-.1-.9-.1v-5l2-2v-1.2l-7.3-7.3v-3.3h-4.7l-2.7-2.7v-1.8h1.2v-6.7l-1.7-1.7v-2.7h-1.4v3l-1.5,1.5v6.5h1.2v1.7l-1.6,1.6h-22v8.1H8.84v10.1h.04Zm264.6,91.8l-7.1-2.8h7.6c0,.9-.2,1.9-.5,2.8Zm-7.7-5.3l5.4-5.4c.6,.7,1.1,1.4,1.6,2.3l-7,3.1h0Zm-1.2-.6l2.9-7.5c1,.4,2,1.1,2.8,1.8l-5.7,5.7h0Zm8.7-1.4c.4,1,.6,2.1,.7,3.2h-8l7.3-3.2Zm-1.9,11.2l-5.7-5.7,7.4,2.9c-.4,1-1,2-1.7,2.8h0Zm-.9,.9c-.7,.7-1.5,1.2-2.3,1.7l-3.1-7.1,5.4,5.4h0Zm-6.7-5.2l3.2,7.4c-1,.4-2.1,.7-3.2,.8v-8.2Zm-.3-13.9c1,0,1.9,.2,2.8,.5l-2.8,7.2v-7.7Zm-3.8,21.7l2.9-7.6v8c-1,0-2-.2-2.9-.4Zm1.4-13.4l-5.6-5.6c.7-.6,1.5-1.2,2.4-1.6l3.2,7.2h0Zm-.6,1.2l-7.7-3c.4-1.1,1.1-2,1.9-2.8l5.8,5.8Zm-1.5-8.9c1-.4,2.1-.6,3.3-.7v8.2l-3.3-7.5Zm-3.3,18.8l5.8-5.8-3,7.6c-1.1-.5-2-1.1-2.8-1.8Zm-1-.9c-.6-.7-1.2-1.5-1.6-2.3l7-3.1-5.4,5.4h0Zm-2.9-6.7h8.3l-7.5,3.3c-.4-1.1-.7-2.2-.8-3.3Zm0-1.3c0-1,.2-2,.5-2.9l7.4,2.9h-7.9Zm-1.6-17.1h18.7l5.21,10.29c-2.37-3.6-6.44-5.99-11.11-5.99-6,0-11,3.9-12.7,9.2,0-5.2-.1-13.5-.1-13.5Zm-50.6,26l5.8-5.8-3,7.6c-1-.5-2-1.1-2.8-1.8Zm-.9-.9c-.6-.7-1.2-1.5-1.6-2.3l7-3.1-5.4,5.4h0Zm-3-6.7h8.3l-7.5,3.3c-.4-1.1-.6-2.2-.8-3.3Zm.6-4.2l7.4,2.9h-7.9c0-1,.2-2,.5-2.9Zm2.3-3.9l5.8,5.8-7.7-3c.5-1.1,1.1-2,1.9-2.8Zm.8-1c.8-.6,1.6-1.2,2.4-1.6l3.2,7.2-5.6-5.6h0Zm6.9,5.4l-3.3-7.5c1-.4,2.1-.6,3.3-.7v8.2Zm.3,14c-1-.1-2-.2-2.9-.5l2.9-7.6v8.1Zm8.8-3.9l-5.7-5.7,7.4,2.9c-.5,1-1.1,2-1.7,2.8Zm-.9,.9c-.7,.7-1.5,1.2-2.3,1.7l-3.1-7.1,5.4,5.4h0Zm-6.7-5.2l3.2,7.4c-1,.4-2.1,.7-3.2,.8v-8.2Zm2.5-13.5l-2.8,7.2v-7.7c1,.1,1.9,.2,2.8,.5Zm4,2.3l-5.7,5.7,2.9-7.5c1,.4,1.9,1.1,2.8,1.8Zm2.1,3.4l-6.7,2.9,5.4-5.4c.5,.5,.9,1.1,1.3,1.8v.7Zm0,4.1h-6.5l6.5-2.8v2.8Zm1.6,1.3c-.1,.9-.2,1.9-.5,2.8l-7.1-2.8h7.6Zm-11.9-81.3v6.8h-14.4v-3l-2.2-2.2v-11.2c.9,.1,1.8,.2,2.7,.2,4.3,0,8.7-1.4,13-2.8-.1,.3-.1,.6-.2,.9-.3,1.4-.3,2.5-.9,4.1-.6,1.5-2.5,4.7-2.5,4.7l-.2,2.5h4.7Zm-17.2,52.3h27.2v5.9c.7,0-27.2,0-27.2,0v-5.9Zm-14.5,2.8l-2.8-2.8,13.9,.3v5.6h-4.6v-3.1h-6.5Zm-14.9,12.1v2.2h-2.5v-5s5.2-.2,5.1-.1v2.9h-2.6Zm-6.7,13s1.6-1.9,2.2-3.7c.6-1.8,1.2-3.7,1.2-3.7h4.3v1.2s1.2,.9,1.2,.3v5.9h-8.9Zm-10.4-85.2c7.7,0,16.3-2.1,23.3-3.8v9.9l-2.2,2.2v4.4h-19.5v-3.9l-1.6-1.6v-7.2Zm-5.4,91.3l-1.2-2.7h5.1c-1.2,1-2.5,1.9-3.9,2.7h0Zm-9.3-2.7h5.2l1.7,3.9c-2.2,.8-4.5,1.4-6.9,1.6v-5.5Zm-8.9,4.5l1.8-4.5h4.5v5.5c-2.2,0-4.3-.4-6.3-1Zm-8.2-4.5h7.2l-1.4,3.6c-2.1-.9-4.1-2.2-5.8-3.6Zm-14.3-87.7c.2,.1,.4,.1,.7,.1,.5,0,.9,.1,1.2,.1,1.3,.2,2.5,.4,3.8,.6l.4,.1,2.1,.3c1.7,.3,3.4,.6,5.1,.7,1.3,0,2.8,.1,4.4,.1,2.4,0,4.8-.2,6.8-.7v5l-1.4,1.4v3.9h-20.5v-3.8l-2.5-2.5h-.1v-5.3Zm-32.8-2.6c2.1,.4,4.3,.7,6.4,.9,1.3,.2,2.5,.3,3.7,.5v6.5l-2.4,2.4v3.9s-7.7,.2-7.7,0v-14.2Zm-3.4-17.4h18.6v4.4l-6.2,6.2v1.4l1.2,1.2v3.7c-1.2-.1-2.4-.3-3.6-.4-2.3-.2-4.5-.5-6.6-1v-1.1l4-4v-4.1h-7.4v-6.3Zm-9.4,82.3l-1.9,1.9,.8-2c.4,0,.8,.1,1.1,.1Zm2.7,2.3l-2.1,.9,2.1-2.1v1.2Zm0,3.5h-1.6l1.6-.7v.7Zm0,2.9l-.7-.3h.7v.3Zm0,4.1l-2.2-2.2,2.2,.9v1.3Zm0,8.2l-3.5-7.9,3.5,3.5v4.4h0Zm-6.2,9.9v-17.2l6.2,14v.4h.2l.5,1.2c-2.2,.8-4.5,1.4-6.9,1.6h0Zm-.6-31h.2l-.2,.5v-.5Zm-10.9,0l4.3,4.3-10.5-4.1c2.1-.1,4.2-.1,6.2-.2Zm5.7,1.8l-1.9-1.9h1l.9,1.9Zm2.6-.5l-.6-1.4h.6v1.4Zm-5.6,28.7l6.2-16v17c-2.2,0-4.3-.4-6.2-1Zm-8.5-4.8l12.3-12.3-6.3,16.2c-2.2-1-4.3-2.3-6-3.9Zm-1.9-1.8c-1.4-1.4-2.6-3.1-3.4-4.9l14.8-6.5-11.4,11.4h0Zm-6.2-14.2h17.5l-15.9,7c-.9-2.2-1.4-4.6-1.6-7Zm0-2.7c0-2.1,.4-4.2,1-6.1h.1l15.6,6.1H21.78Z"/><polygon class="h" points="14.03 119.85 1.19 119.85 1.19 121.35 0 121.35 0 111.35 1.1 111.35 1.1 113.25 13.94 113.25 14.03 119.85"/></g></g></g></g></g></g></svg>