<?xml version="1.0" encoding="UTF-8"?><svg xmlns="http://www.w3.org/2000/svg" viewBox="0 0 91.57 91.62"><g id="a"/><g id="b"><g id="c"><path d="M34.38,1.43C11.98,6.83-3.22,30.13,.58,53.03c6.2,36.8,51.2,51.5,77.3,25.3C110.78,45.33,79.68-9.57,34.38,1.43Zm21.9,3.9c31.2,8.1,41.8,47.3,19.1,70.1C51.28,99.43,10.28,86.13,4.48,52.43-.52,22.93,27.08-2.17,56.28,5.33Z"/><path d="M40.28,12.33c-1.6,1.5-2.5,3.6-2.5,5.5s.9,4,2.5,5.5c4.9,5,13.5,1.5,13.5-5.5,0-4.1-3.9-8-8-8-1.9,0-4,.9-5.5,2.5Zm8.5,3c2.6,3.2-1.3,8.1-4.7,5.9-3.5-2.2-2.3-7.4,1.7-7.4,1,0,2.3,.7,3,1.5Z"/><path d="M18.38,26.43c-1.9,1.9-2.1,5.8-.3,7.1,.6,.6,4.9,2.3,9.4,3.9l8.3,2.9v6.8c0,4-1,11-2.6,16.9-2.8,11.3-2.6,14.5,1.2,15.4,3.7,.9,5.7-1.5,8.4-10.1,1.3-4.1,2.6-7.5,3-7.5s1.7,3.4,3,7.5c2.7,8.6,4.7,11,8.4,10.1,3.8-.9,4-4.1,1.2-15.4-1.6-5.9-2.6-12.9-2.6-16.9v-6.8l8.3-2.9c9.9-3.5,10.7-4,10.7-7.7,0-2.2-.7-3.2-2.6-4.1-2.1-1-3.9-.7-10.8,1.5-11,3.6-20.4,3.7-30.6,.2-8.6-2.9-10.3-3.1-12.4-.9Zm11.4,4.9c10.3,3.5,21.6,3.5,32.3-.1,4.3-1.4,8.1-2.3,8.4-2,1,1-.3,1.7-9.4,5l-8.8,3.1-.3,8.2c-.2,6.1,.3,10.6,2.3,18.1,2.7,10.9,2.9,12.2,1.7,12.2-.4,0-2.6-5.4-4.7-12-2.8-8.7-4.3-12-5.5-12s-2.7,3.3-5.5,12c-2.1,6.6-4.3,12-4.7,12-1.2,0-1-1.3,1.7-12.2,2-7.5,2.5-12,2.3-18.1l-.3-8.1-5-1.8c-11.8-4.3-13.5-5-13.5-5.9,0-1.3,.9-1.2,9,1.6Z"/></g></g></svg>