<?xml version="1.0" encoding="UTF-8"?><svg xmlns="http://www.w3.org/2000/svg" viewBox="0 0 42 42"><g id="a"/><g id="b"><g id="c"><path d="M2.67,0C1.21,0,0,1.21,0,2.67V39.33c0,1.46,1.21,2.67,2.67,2.67H39.33c1.46,0,2.67-1.2,2.67-2.67V2.67c0-1.46-1.2-2.67-2.67-2.67H2.67Zm0,2H39.33c.37,0,.67,.3,.67,.67V39.33c0,.37-.3,.67-.67,.67H2.67c-.37,0-.67-.3-.67-.67V2.67c0-.37,.3-.67,.67-.67ZM19,19v12.57c0,1.93-.73,2.43-2,2.43s-2.25-.83-2.86-1.9l-3.14,1.9c.91,1.93,3.14,4,6.23,4,3.42,0,5.77-1.82,5.77-5.82v-13.18h-4Zm12.45,0c-3.41,0-5.59,2.18-5.59,5.04,0,3.11,1.83,4.57,4.59,5.75l.95,.41c1.74,.76,2.6,1.23,2.6,2.54,0,1.09-.83,1.88-2.41,1.88-1.88,0-2.77-1.28-3.59-2.61l-3,2c1.12,2.21,3.13,4,6.68,4s6.32-1.88,6.32-5.32c0-3.19-1.83-4.61-5.07-6l-.95-.41c-1.64-.71-2.35-1.17-2.35-2.32,0-.93,.71-1.64,1.83-1.64s1.8,.46,2.45,1.64l2.97-1.91c-1.25-2.21-3-3.06-5.43-3.06Z"/></g></g></svg>