<?xml version="1.0" encoding="UTF-8"?><svg xmlns="http://www.w3.org/2000/svg" viewBox="0 0 46.02 42.02"><defs><style>.d{fill-rule:evenodd;}</style></defs><g id="a"/><g id="b"><g id="c"><path class="d" d="M32.56,0c-.78-.03-1.6,.11-2.41,.38-1.64,.53-3.35,1.56-5.11,3-.69,.56-1.39,1.2-2.08,1.88-.68-.66-1.36-1.29-2.04-1.84-1.76-1.43-3.47-2.46-5.1-2.99-1.63-.53-3.26-.55-4.59,.22-1.33,.77-2.13,2.18-2.49,3.86-.36,1.68-.32,3.68,.04,5.92,.12,.78,.3,1.59,.51,2.42-.76,.23-1.5,.47-2.19,.74-2.07,.81-3.79,1.78-5.04,2.93-1.25,1.15-2.05,2.55-2.05,4.09s.81,2.93,2.05,4.08c1.25,1.15,2.96,2.12,5.04,2.93,.73,.29,1.53,.54,2.35,.79-.3,1.1-.53,2.17-.7,3.19-.36,2.24-.4,4.24-.04,5.92,.36,1.68,1.16,3.1,2.5,3.88,1.34,.77,2.97,.76,4.61,.22s3.35-1.56,5.11-2.99c.68-.56,1.37-1.19,2.07-1.86,.7,.68,1.39,1.31,2.08,1.87,1.76,1.43,3.47,2.46,5.1,2.99s3.26,.55,4.59-.22,2.13-2.18,2.49-3.86,.32-3.68-.04-5.91c-.16-1.02-.4-2.09-.7-3.2,.85-.25,1.67-.52,2.42-.81,2.07-.81,3.79-1.78,5.04-2.93s2.05-2.55,2.05-4.08-.81-2.93-2.05-4.09c-1.25-1.15-2.96-2.12-5.04-2.93-.7-.27-1.45-.52-2.22-.75,.2-.84,.39-1.66,.51-2.44,.36-2.24,.4-4.24,.04-5.92-.36-1.68-1.16-3.1-2.5-3.88-.67-.39-1.41-.58-2.19-.6Zm-.09,2.04c.49,.01,.91,.13,1.26,.34,.71,.41,1.24,1.21,1.52,2.54,.28,1.32,.27,3.1-.06,5.17-.11,.71-.28,1.46-.47,2.23-2.05-.49-4.29-.86-6.68-1.07-1.2-1.66-2.43-3.17-3.67-4.52,.66-.64,1.31-1.24,1.95-1.76,1.63-1.32,3.16-2.22,4.45-2.64,.64-.21,1.2-.3,1.69-.29Zm-18.98,0c.49-.01,1.06,.08,1.7,.29,1.29,.42,2.83,1.32,4.46,2.64,.62,.51,1.26,1.1,1.91,1.72-1.25,1.35-2.49,2.88-3.7,4.56-2.38,.22-4.61,.59-6.65,1.08-.19-.77-.35-1.51-.46-2.22-.33-2.07-.34-3.86-.06-5.18,.28-1.32,.81-2.13,1.54-2.55,.36-.21,.78-.33,1.27-.34Zm9.49,6.12c.81,.89,1.63,1.86,2.44,2.9-.79-.03-1.6-.05-2.41-.05s-1.65,.02-2.46,.05c.81-1.04,1.62-2.02,2.44-2.9Zm.02,4.87c1.36,0,2.69,.06,3.97,.15,.89,1.27,1.75,2.63,2.58,4.06,.73,1.26,1.38,2.51,1.98,3.75-.6,1.26-1.27,2.53-2.01,3.8-.65,1.12-1.32,2.19-2.01,3.21-1.46,.12-2.97,.19-4.52,.19s-3.13-.07-4.62-.2c-.68-1.01-1.34-2.06-1.98-3.17-.73-1.27-1.4-2.54-2-3.79,.61-1.26,1.27-2.54,2.01-3.82,.82-1.42,1.69-2.77,2.57-4.04,1.3-.1,2.64-.15,4.02-.15Zm6.55,.4c1.65,.21,3.2,.49,4.64,.83-.43,1.4-.95,2.86-1.59,4.38-.41-.8-.84-1.6-1.31-2.4-.56-.97-1.15-1.9-1.74-2.81Zm-13.21,.02c-.58,.89-1.15,1.8-1.7,2.75-.47,.81-.91,1.63-1.33,2.43-.63-1.5-1.16-2.96-1.58-4.35,1.43-.34,2.97-.63,4.61-.84Zm19.82,1.35c.71,.21,1.39,.44,2.02,.68,1.91,.75,3.42,1.63,4.4,2.53s1.4,1.77,1.4,2.6-.43,1.7-1.4,2.6-2.49,1.79-4.4,2.53c-.7,.27-1.46,.52-2.26,.75-.57-1.76-1.29-3.59-2.16-5.47,.99-2.15,1.8-4.25,2.4-6.24Zm-26.36,0c.6,1.97,1.39,4.05,2.37,6.18-.87,1.88-1.6,3.73-2.17,5.5-.77-.23-1.51-.47-2.19-.73-1.91-.75-3.42-1.63-4.4-2.53s-1.4-1.77-1.4-2.6,.43-1.7,1.4-2.6,2.49-1.79,4.4-2.53c.62-.24,1.29-.46,1.99-.67Zm13.2,1.21c-2.75,0-5,2.25-5,5s2.25,5,5,5,5-2.25,5-5-2.25-5-5-5Zm-9.66,7.37c.42,.81,.86,1.63,1.33,2.45,.37,.64,.75,1.26,1.13,1.87-1.34-.19-2.62-.42-3.82-.7,.38-1.17,.84-2.38,1.36-3.62Zm19.28,0c.52,1.24,.98,2.45,1.36,3.62-1.2,.28-2.48,.51-3.83,.7,.39-.62,.77-1.25,1.14-1.9,.47-.81,.9-1.62,1.32-2.43Zm-21.21,5.56c1.81,.43,3.77,.76,5.85,.97,1.39,2.01,2.84,3.81,4.29,5.39-.65,.63-1.3,1.23-1.93,1.74-1.63,1.32-3.17,2.22-4.45,2.64-1.28,.42-2.24,.36-2.96-.05-.71-.41-1.24-1.21-1.52-2.54-.28-1.32-.27-3.1,.06-5.17,.15-.94,.38-1.94,.66-2.99Zm23.15,0c.28,1.05,.51,2.06,.66,3,.33,2.07,.34,3.86,.06,5.18s-.81,2.13-1.53,2.55-1.69,.47-2.98,.05c-1.29-.42-2.83-1.32-4.46-2.64-.64-.52-1.29-1.12-1.94-1.76,1.47-1.58,2.92-3.4,4.32-5.42,2.09-.21,4.05-.54,5.87-.97Zm-14.69,1.17c1.03,.06,2.07,.09,3.13,.09s2.04-.04,3.03-.09c-1.02,1.37-2.05,2.62-3.08,3.74-1.03-1.12-2.07-2.37-3.08-3.75Z"/></g></g></svg>