<?xml version="1.0" encoding="UTF-8"?><svg xmlns="http://www.w3.org/2000/svg" viewBox="0 0 55.7 61.7"><defs><style>.d{stroke:#000;stroke-miterlimit:10;stroke-width:.7px;}</style></defs><g id="a"/><g id="b"><g id="c"><path class="d" d="M27.31,.35s-.02,0-.03,0c-.03,0-.05,0-.08,.01-.1,.01-.19,.04-.28,.09-.02,0-.03,0-.05,.01L.88,14.47c-.08,.05-.16,.1-.22,.17-.01,.01-.02,.03-.04,.04-.07,.07-.12,.15-.16,.24-.01,.03-.03,.06-.04,.09-.04,.11-.07,.22-.07,.34H.35v30c0,.09,.01,.18,.04,.26,.03,.11,.08,.21,.15,.31,.02,.02,.03,.04,.05,.06,.07,.09,.16,.17,.26,.23h0l25.99,15h.01s.09,.05,.14,.06c.03,.01,.07,.03,.1,.04h0c.09,.02,.17,.04,.26,.04h0c.08,0,.17-.01,.25-.03,.02,0,.03-.01,.05-.02,.06-.02,.12-.04,.18-.07l27-15h0s.02-.02,.03-.02c.09-.06,.17-.13,.24-.21,.02-.02,.03-.04,.05-.06,.06-.08,.11-.17,.14-.27,0-.01,.01-.02,.01-.04,.02-.09,.04-.17,.04-.27V15.35s0-.01,0-.02c0-.11-.03-.22-.06-.32-.01-.04-.03-.07-.04-.1-.04-.08-.09-.16-.15-.22-.02-.02-.02-.04-.04-.05-.07-.07-.15-.13-.23-.17L27.81,.46s-.09-.03-.13-.05c-.02,0-.05-.02-.07-.03-.1-.03-.2-.04-.29-.04Zm1.04,2.64l23.8,12.34-9.78,4.89-14.02-7.47V2.99Zm-2,.03V12.75l-13.99,7.46L3.45,15.35,26.35,3.02Zm1,11.46l12.88,6.87-12.88,6.87-12.88-6.87,12.88-6.87Zm26,2.48v26.76l-10-5V21.97l10-5Zm-51,.07l9,4.91v2.41c0,.55,.45,1,1,1s1-.45,1-1v-1.33l13,6.93v15.73l-13-6.93v-2.4c0-.55-.45-1-1-1s-1,.45-1,1v2.41l-9,4.91V17.03Zm39,5.98v16.33s.02,.09,.03,.14c.01,.07,.02,.14,.04,.21,.02,.06,.06,.11,.09,.16,.03,.06,.06,.11,.11,.16,.05,.05,.11,.09,.17,.13,.04,.03,.07,.07,.12,.09l10.3,5.15-23.86,13.25V29.95l13-6.93Zm-29,4.33c-.55,0-1,.45-1,1v4c0,.55,.45,1,1,1s1-.45,1-1v-4c0-.55-.45-1-1-1Zm26.11,11.9c-.13,.01-.26,.05-.38,.12-.49,.26-.67,.86-.41,1.35l.94,1.77c.18,.34,.53,.53,.88,.53,.16,0,.32-.04,.47-.12,.49-.26,.67-.87,.41-1.35l-.94-1.77c-.19-.36-.58-.56-.97-.53Zm-26.1,1.24l14,7.46v10.67L3.39,45.37l8.96-4.89Zm21.94,.98c-.13,.01-.26,.05-.38,.11-.49,.26-.67,.87-.41,1.35l.94,1.77c.18,.34,.53,.53,.88,.53,.16,0,.32-.04,.47-.12,.49-.26,.67-.87,.41-1.35l-.94-1.77c-.2-.36-.58-.56-.97-.53Zm-4.17,2.22c-.13,.01-.26,.05-.38,.12-.49,.26-.67,.87-.41,1.35l.94,1.76c.18,.34,.53,.53,.88,.53,.16,0,.32-.04,.47-.12,.49-.26,.67-.87,.41-1.35l-.94-1.77c-.19-.36-.58-.56-.97-.53Z"/></g></g></svg>