<?xml version="1.0" standalone="no"?>
<!DOCTYPE svg PUBLIC "-//W3C//DTD SVG 20010904//EN"
 "http://www.w3.org/TR/2001/REC-SVG-20010904/DTD/svg10.dtd">
<svg version="1.0" xmlns="http://www.w3.org/2000/svg"
 width="512.000000pt" height="512.000000pt" viewBox="0 0 512.000000 512.000000"
 preserveAspectRatio="xMidYMid meet">

<g transform="translate(0.000000,512.000000) scale(0.100000,-0.100000)"
fill="#000000" stroke="none">
<path d="M620 4504 c-125 -33 -237 -118 -304 -231 -75 -127 -71 17 -71 -2193
0 -2210 -4 -2066 71 -2193 50 -84 156 -176 243 -212 l76 -30 895 0 895 0 245
-245 c295 -295 325 -316 472 -316 158 0 283 78 356 223 l27 53 0 508 0 508
495 0 c544 0 541 0 670 60 169 79 285 229 320 416 13 67 15 318 15 1908 0
1590 -2 1841 -15 1908 -35 187 -151 337 -320 416 -129 60 -126 60 -1895 60
-1495 0 -1628 -2 -1675 -16z m3345 -329 c53 -26 91 -65 118 -118 l22 -42 0
-1840 0 -1840 -22 -42 c-27 -53 -65 -92 -118 -118 l-40 -20 -1845 0 -1845 0
-40 20 c-53 26 -91 65 -118 118 l-22 42 0 1840 0 1840 22 42 c27 53 65 92 118
118 l40 20 1845 0 1845 0 40 -20z"/>
<path d="M1357 3323 c-4 -3 -7 -79 -7 -168 l0 -161 153 -154 153 -154 0 238 1
237 39 39 39 39 728 1 727 0 0 85 0 85 -913 0 c-502 0 -917 -3 -920 -7z"/>
<path d="M1360 2485 l0 -85 305 0 305 0 0 85 0 85 -305 0 -305 0 0 -85z"/>
<path d="M2360 2485 l0 -85 610 0 610 0 0 85 0 85 -610 0 -610 0 0 -85z"/>
<path d="M1360 1730 l0 -90 1220 0 1220 0 0 90 0 90 -1220 0 -1220 0 0 -90z"/>
</g>
</svg>
