<?xml version="1.0" standalone="no"?>
<!DOCTYPE svg PUBLIC "-//W3C//DTD SVG 20010904//EN"
 "http://www.w3.org/TR/2001/REC-SVG-20010904/DTD/svg10.dtd">
<svg version="1.0" xmlns="http://www.w3.org/2000/svg"
 width="512.000000pt" height="512.000000pt" viewBox="0 0 512.000000 512.000000"
 preserveAspectRatio="xMidYMid meet">

<g transform="translate(0.000000,512.000000) scale(0.100000,-0.100000)"
fill="#000000" stroke="none">
<path d="M4336 5104 c-27 -9 -67 -27 -90 -41 -22 -14 -412 -396 -866 -849
l-825 -824 -825 824 c-517 516 -842 832 -870 848 -103 58 -215 61 -328 8 -57
-27 -93 -58 -264 -228 -173 -173 -201 -206 -230 -267 -29 -62 -33 -80 -32
-150 1 -153 -56 -87 883 -1027 l836 -838 -827 -827 c-884 -886 -869 -869 -888
-989 -11 -66 1 -150 31 -213 25 -51 371 -410 446 -462 93 -65 217 -79 328 -39
58 22 90 52 895 856 459 459 840 834 845 834 6 0 381 -372 835 -826 897 -898
870 -874 998 -890 62 -8 146 8 207 38 22 12 131 111 247 227 172 171 212 216
234 265 48 106 43 223 -14 326 -16 29 -322 343 -851 873 l-826 827 841 843
c945 947 887 879 888 1032 0 70 -4 89 -32 150 -29 60 -57 93 -225 261 -106
105 -212 204 -237 219 -85 53 -190 67 -284 39z"/>
</g>
</svg>
