<?xml version="1.0" encoding="UTF-8"?><svg xmlns="http://www.w3.org/2000/svg" viewBox="0 0 85.32 44.42"><defs><style>.i{fill:#c9c9c9;fill-rule:evenodd;}</style></defs><g id="a"/><g id="b"><g id="c"><g id="d"><g id="e"><g id="f"><g id="g"><path id="h" class="i" d="M48.33,40.23c2.31,1.63,5.33,2.2,8.23,1.27,2.09-.67,3.77-2,4.9-3.69,1.56,.35,3.45,.23,4.86-.22,1.42-.45,2.41-.91,3.31-1.68,4.89-2.25,10.54-1.52,15.69,2.17-3.44-5.69-8.37-8.66-12.53-10.86-.07-.42,.33,1.07-.45-1.35-.74-2.3-5.33-6.59-9.6-6.43-.88,1.3-2.48,2-4.11,1.67-.25-.05-.48-.12-.71-.21,1.7,.03,3.26-1.04,3.83-2.66-1.08-3.36-3.88-5.68-7.12-6.31,.06-1.1-.08-2.23-.43-3.34-1.57-4.9-6.82-7.6-11.72-6.03-.58,.19-1.13,.42-1.65,.71C38.48,.5,34.6-.74,30.91,.45c-2.32,.75-4.15,2.32-5.26,4.29,.03,.1,.07,.21,.11,.31,.71,1.82,2.62,2.82,4.47,2.46-.21,.13-.43,.24-.66,.33-2.05,.81-4.37-.21-5.18-2.26-.17-.43-.26-.87-.27-1.31-2.24-1.38-5.04-1.81-7.74-.95-1.37,.44-2.57,1.17-3.56,2.1-1.95-.79-4.18-.93-6.34-.24C1.57,6.76-1.12,12.01,.45,16.9c1.01,3.13,3.52,5.37,6.48,6.16,1.03-1.41,2.91-2.02,4.63-1.38,.23,.09,.46,.2,.66,.32-1.59-.28-3.2,.44-4.07,1.8,1.72,4.45,6.55,6.89,11.16,5.62-.03,1.02,.11,2.06,.44,3.09,1.57,4.9,6.82,7.6,11.72,6.03l.19-.06c1.77,4.56,6.81,7,11.52,5.49,1.6-.51,2.96-1.42,4.02-2.58-.04-.09-.09-.19-.12-.28-.81-2.05,.2-4.37,2.26-5.18,.23-.09,.47-.16,.71-.21-1.51,.94-2.23,2.79-1.71,4.52h0Zm17.91-11.3c.8-2.51-.34-5.17-2.57-6.37,.32,.04,.65,.11,.97,.21,2.83,.9,4.39,3.93,3.48,6.75-.9,2.83-3.93,4.39-6.75,3.48-.32-.1-.63-.23-.91-.39,2.52,.32,4.99-1.19,5.78-3.7h0v.02ZM5.76,13.32c-.85,2.49,.24,5.17,2.45,6.41-.32-.05-.64-.12-.96-.23-2.81-.96-4.31-4.01-3.36-6.82,.96-2.81,4.01-4.31,6.82-3.36,.32,.11,.62,.24,.91,.4-2.51-.36-5.01,1.1-5.85,3.59h0Zm20.23,19.41c1.68,2.03,4.53,2.51,6.75,1.27-.21,.25-.44,.48-.7,.7-2.29,1.89-5.67,1.57-7.57-.71-1.89-2.29-1.57-5.67,.71-7.57,.26-.22,.53-.4,.82-.56-1.63,1.95-1.69,4.84-.01,6.87h0ZM48.31,8.94c-1.68-2.03-4.53-2.51-6.75-1.27,.21-.25,.44-.48,.7-.7,2.29-1.89,5.67-1.57,7.57,.71,1.89,2.29,1.57,5.67-.71,7.57-.26,.22-.53,.4-.82,.56,1.63-1.95,1.69-4.84,0-6.87h0Z"/></g></g></g></g></g></g></svg>