<?xml version="1.0" encoding="UTF-8"?><svg xmlns="http://www.w3.org/2000/svg" viewBox="0 0 239.45 126.89"><defs><style>.j{fill:#4e4832;}</style></defs><g id="a"/><g id="b"><g id="c"><g id="d"><g id="e"><g id="f"><g id="g"><g id="h"><g id="i"><g><g><path class="j" d="M161.65,104c-3.7,0-6.7,3-6.7,6.7s3,6.7,6.7,6.7,6.7-3,6.7-6.7-3-6.7-6.7-6.7Zm0,8.1c-.8,0-1.4-.6-1.4-1.4s.6-1.4,1.4-1.4,1.4,.6,1.4,1.4-.6,1.4-1.4,1.4Z"/><path class="j" d="M78.8,104c-3.7,0-6.7,3-6.7,6.7s3,6.7,6.7,6.7,6.7-3,6.7-6.7-3-6.7-6.7-6.7Zm0,8.1c-.8,0-1.4-.6-1.4-1.4s.6-1.4,1.4-1.4,1.4,.6,1.4,1.4-.6,1.4-1.4,1.4Z"/></g><path class="j" d="M226.85,14.7h-1.9V4.8h-52.9l-.9-4.8h-3.9l-.9,4.8h-34.66V30.2h31.56V5.1h1.9V30.2h49.1v1.5h4.3v4h4.6v-4.3h1.5v-14.9h2.8v1.2h1.4v-5l-2,2h0Z"/><path class="j" d="M237.35,87.7v1.5h-2.9l-.2,1.9h-7.6l-.5-32.1c-1.57,.76-5.22,2.33-8.3,3.9-1.98,1.13-17.52-.91-18.7-3.4h-1.4v-18.1l15.6-9.3h-81.66V97.4h9.26v2.5h-9.26v1.8h9.46v9.9l2.8,2.8h2c3.4,16.31,27.84,16.79,31.8,.6v1.2h2.9l2.6-3.3v-11.2h41.4v-1.9h-41.4v-2.6h52.2v-1.1h2.3v2.6h1.7v-11h-2.1Zm-91.4,18.4h-2.8v-4.4h4.9c-1,1.4-1.7,2.8-2.1,4.4h0Zm4.1-7l-.7,.7h-6.3v-2.5h7v1.8Zm11.6,19c-9.61,.15-9.61-14.96,0-14.8,9.61-.15,9.61,14.96,0,14.8Zm19.3-20.8v2.6h-5.1v-2.6h5.1Zm.1,9h-3.6v.1c-.4-1.6-1.1-3.2-2-4.6,.09-.14,5.27-.09,5.6-.1v4.6Zm24.2-15.2h-7.4v-30.3c1.03,1.3,4.57,2.51,7.4,3.2v27.1Zm7.9,0h-6v-26.8c1.8,.3,4,.6,6,.7v26.1Zm1.9,0v-26.1c3.94,.2,5.76-1.77,9.3-3.1l.4,29.2h-9.7Z"/><path class="j" d="M154.27,97.8V32.1H25.7v-1.9h51.1V5.1h1.9V30.2h53.4V5.1h1.9V30.2h20.27V4.8h-32.27l-.9-4.8h-3.9l-.9,4.8h-41.9l-.9-4.8h-3.9l-.9,4.8H16.4v27.2h2.5v3.4h4.6v-3.1c2.16-1.26,18.12,9.32,20.1,10.2v16.7c-5.33,3.61-13.62,3.4-20.7,2.6l-7.3-5.6-.4,33.1H1.2v-1.9H0v10H1.3v-1.5H15.3c.61,3.94-1.11,9.53,2.3,13.2h-3v1.9H48.5v-1.9h-5.1v-7.4h9.3c.09,.2-.18,9.16,.1,9.3-.16,.41,4.55,5.83,8.3,4.3l-.2-.9h2c3.4,16.31,27.84,16.79,31.8,.6v1.2h2.9l2.6-3.3v-11.2h11.5v3.7h4.6l.2-3.7h15.99c.13-.65,.37-1.27,.72-1.82-6.74,.07-16.08,0-16.8,.02l.1-2.2h23.5v.1h14.26ZM35.4,64.2c2.36-.3,5.96-1.91,8-2.9v29.7h-8v-26.8Zm-6.9-.1c1.8,.1,3.6,.2,5.1,.2v26.8h-5.1v-27Zm13,33.6v2.2h-13.7c0-.8,0-1.5-.1-2.2h13.8ZM20.7,62.58l1.4,1.12c.68-.02,1.94,.19,4.6,.3v27.1h-6v-28.52Zm-3.4-2.58l1.4,1.1v30h-1.8l.4-31.1Zm7,47.7c-2.76,3.21-7.33-.67-7-2.8l-.1-3.2h7.1v6Zm0-7.8h-7.1l-.1-2.2h7.2v2.2Zm17.2,9.3h-15.3v-.8c1.5-1.81,1.57-4.29,1.6-6.7h13.7v7.5Zm11.1-9.3h-9.3v-2.2h9.3v2.2Zm1.9-2.2h3.6v2.2h-3.6v-2.2Zm0,12.6v-8.6h3.6v9.9l1.9,1.9c-2.9,.4-5-2.4-5.5-3.2Zm8.5-4.2h-2.8v-4.4h4.9c-.9,1.4-1.6,2.8-2.1,4.4Zm3.4-6.2h-6.2v-2.2h6.2v2.2Zm12.4,18.2c-9.61,.15-9.61-14.96,0-14.8,9.61-.15,9.61,14.96,0,14.8Zm14.9-20.4h4.4v2.2h-4.4v-2.2Zm4.4,8.6h-3.5v.1c-.4-1.4-1-2.8-1.7-4.1,.5,0,.8-.1,.8-.1v-.5h4.4v4.6Zm13.5-6.4h-11.5v-2.2h11.5v2.2Zm2.8,3.7h-1v-1.9h1.1l-.1,1.9Zm.2-3.7h-1.1v-2.2h1.2l-.1,2.2Z"/></g></g></g></g></g></g></g></g></g></svg>