<?xml version="1.0" encoding="UTF-8"?><svg xmlns="http://www.w3.org/2000/svg" viewBox="0 0 488.88 679.03"><defs><style>.f{fill:#4e4832;}</style></defs><g id="a"/><g id="b"><g id="c"><g id="d"><g id="e"><g><path class="f" d="M470.36,343.43c1.7-.87,3.38-1.29,5.35-.9,5.15,1.03,8.81-.99,10.82-5.8,2.76-6.58,.46-14.12-5.55-18.1-.93-.62-1.9-1.17-2.99-1.85,3.12-4.09,5.52-8.29,7.25-12.88,3.47-9.22,4.07-18.77,3.4-28.47-.99-14.49-7.07-26.28-18.73-35.04-1.41-1.06-1.54-1.74-.71-3.33,3.19-6.1,2.96-12.37-.18-18.38-4.46-8.53-15.32-9.72-21.07-2.21-1.62,2.12-3.28,2.64-5.55,2.6-1.39-.02-2.79,.03-4.17-.11-10.31-1.04-18.63-5.37-23.91-14.64-1.4-2.46-2.38-5.05-2.08-7.95,.21-2.08,.58-2.39,2.65-2.05,4.5,.73,9.02,.91,13.53,.4,9.78-1.09,17.77-5.33,22.73-14.11,7.15-12.65,1.24-27.83-12.4-32.25-10.5-3.4-20.31,1.89-22.67,12.23-.92,4.04-1.35,4.3-5.24,2.99-1.09-.37-2.17-.83-3.2-1.35-10.16-5.17-16.35-13.54-19.11-24.43-1.87-7.38-.68-14.51,2.89-21.24,.88-1.65,2.03-2.49,4.09-2.58,5.47-.24,9.59-3.77,10.93-9.1,1.48-5.86-.03-11.07-3.91-15.55-3.87-4.46-8.78-5.79-14.48-4.31-.97,.25-1.88,.86-3.04,.7-.8-1.72-.68-3.63-1.2-5.4-4.57-15.48-13.35-27.95-26.61-37.17-3.05-2.12-6.36-3.91-9.97-4.87-2.23-.59-3.1-1.66-3.55-3.95-.92-4.71-3.93-7.83-8.66-8.99-4.57-1.12-8.52,.09-11.54,3.75-.77,.93-1.48,1.26-2.63,1.14-5.26-.53-9.31,1.41-11.86,6.13-.6,1.1-1.19,1.44-2.47,1.02-4.65-1.54-9.37-1.58-14.02-.03-1.56,.52-2.05,0-2.3-1.47-.21-1.22-.1-2.21,.62-3.27,5.11-7.49,4.35-21.08-7.28-28.12-5.2-3.15-10.86-4.55-16.95-4.33-11.21,.41-19.35,6.63-22.6,17.35-.27,.9-.56,1.79-.88,2.79-.98-1.01-.91-2.13-1.23-3.1-2.34-7.1-6.57-12.7-13.71-15.25-10.23-3.66-19.98-2.19-28.57,4.59-7.18,5.67-9.52,15.41-5.78,23.57,1.05,2.29,.95,3.99-.15,6.1-.7,1.36-1.39,1.92-2.89,1.78-2.57-.24-5.14,.07-7.55,.94-1.78,.65-2.66,.2-3.57-1.41-2.43-4.27-6.34-6.02-11.13-5.58-1.48,.14-2.23-.21-3.17-1.33-3.02-3.62-7.87-4.8-12.32-3.24-4.47,1.56-7.08,4.77-7.85,9.36-.29,1.74-1.02,2.63-2.69,3.08-1.56,.42-3.12,.96-4.55,1.71-17.85,9.35-28.68,24.1-33.31,43.59-.2,.85,.02,1.89-1.02,2.47-2.65-.77-5.29-1.72-8.14-1.38-10.98,1.3-17.34,15.82-10.86,24.79,2.01,2.79,4.79,4.79,8.14,4.72,3.32-.07,4.55,1.73,5.63,4.13,.62,1.37,1.19,2.78,1.59,4.23,3.67,13.53-.88,24.64-10.33,34.16-3.47,3.5-7.65,6.04-12.45,7.38-3.31,.93-3.39,.84-4.09-2.49-2.27-10.71-11.53-16.25-22.1-13.21-16.37,4.71-21.52,24.37-9.76,37.21,5.93,6.48,13.53,9.13,22.05,9.62,3.6,.21,7.18-.16,10.76-.62,2.24-.29,2.62,.1,2.76,2.35,.17,2.77-.75,5.27-2.12,7.6-6.65,11.27-16.95,15.17-29.48,14.63-1.63-.07-2.68-.62-3.71-1.98-6.02-7.91-16.95-7.05-21.53,1.75-3.07,5.89-3.23,12.02-.34,18.1,1.08,2.27,1.11,2.25-.88,3.76-8.02,6.09-13.72,13.9-16.37,23.61-3.4,12.48-3.16,25.03,.63,37.44,1.67,5.48,4.36,10.46,7.88,14.93-.74,1.21-1.98,1.42-2.92,2.06-6.39,4.31-8.53,12.81-4.85,19.4,2.08,3.73,5.51,5.62,9.58,4.62,2.67-.66,4.82-.04,6.89,1.33,8.39,5.59,13.64,13.4,16.12,23.12,.23,.89,.19,1.84,.24,2.77,.37,6.07-1.44,11.68-3.55,17.25-.73,1.93-1.66,2.16-3.64,1.85-9.25-1.41-17,1.53-22.74,8.98-6.29,8.16-5.59,18.68,1.63,26.01,5.76,5.85,12.79,8.68,21.04,8.21,7.23-.41,13.34-3.59,19.06-7.76,.98-.71,1.72-1.91,3.16-1.94,.37,1.23,.12,2.36-.07,3.5-.74,4.28-2.39,8.22-4.34,12.07-2.58,5.09-5.92,9.7-9.1,14.42-3.44,5.1-6.94,10.16-9.63,15.72-3.87,7.98-6.06,16.36-5.24,25.26,1.36,14.79,8.18,25.67,22.74,30.7,1.45,.5,2.1,1.12,1.85,2.73-.2,1.25-.18,2.55-.09,3.82,.79,10.5,7.73,18.11,17.29,18.53,1.82,.08,2.36,.76,2.27,2.56-.59,11.37,3.75,21.08,10.35,29.96,2.79,3.76,6.17,6.94,10.25,9.3,2.1,1.22,4.76,1.83,6.33,3.51,1.69,1.8,1.36,4.79,1.99,7.24,3.6,14.06,22.65,32.72,42.45,34.35,3.93,.32,7.84,.87,11.77,1.2,1.86,.16,2.59,.77,2.31,2.82-.58,4.24,1.49,7.4,4.76,9.83,4.75,3.51,10.99,3.11,15.76-.84,.94-.78,1.52-2.06,2.85-2.33,8.59,9.2,18.51,10.14,29.6,4.74-.26,2.05-.47,3.76-.7,5.47-1.4,10.2,5.62,18.07,15.26,19.98,6.09,1.2,11.97-1.59,15.06-7.01,.71-1.24,1.52-2.26,2.63-3.15,3.08-2.47,4.45-5.85,4.76-9.71,.2-2.59-.2-5.1-1.16-7.51-.59-1.47,.36-2.12,1.29-2.84,.99-.77,1.36,.26,2,.63,1.69,.97,2.34,2.21,1.98,4.25-.3,1.68-.15,3.48,.03,5.2,.45,4.42,2.71,7.66,6.88,9.24,1.8,.68,2.72,1.74,3.53,3.42,2.25,4.67,6.2,7.17,11.28,7.62,11.74,1.03,21.32-9.77,19.09-21.33-.3-1.55-.95-3.07-.84-4.89,1.71,.53,3.2,1.11,4.75,1.46,6.81,1.55,13.15,.53,18.81-3.72,1.38-1.04,2.46-3.09,3.88-3.31,1.73-.27,2.71,2.17,4.29,3.12,4.33,2.6,8.74,3.12,13.17,.48,4.09-2.43,6.57-5.93,5.87-10.93-.25-1.82,.63-2.28,2.03-2.43,3-.33,6-.63,9.01-.88,7.37-.61,14.41-2.3,20.85-6.11,5.74-3.39,10.88-7.51,15.33-12.48,5.46-6.1,9.27-13.05,10.44-21.24,.25-1.74,1.06-2.6,2.61-3.25,7.2-3,12.68-8.06,16.91-14.53,5.38-8.24,8.89-17.08,8.3-27.15-.11-1.77,.46-2.3,2.28-2.48,8.81-.88,14.6-6.14,16.7-14.8,.58-2.4,.86-4.82,.52-7.25-.25-1.84,.34-2.58,2.15-3.16,9.31-2.96,15.65-9.29,19.49-18.14,3.75-8.64,3.85-17.58,1.72-26.63-1.7-7.21-5.02-13.71-9.05-19.86-3.68-5.63-7.55-11.15-11.14-16.84-3.24-5.12-5.85-10.56-6.91-16.61-.21-1.18-.5-2.38,.06-3.84,1.19,.89,2.11,1.57,3.02,2.26,3.54,2.68,7.34,4.91,11.57,6.3,10.85,3.57,20.39,1.2,28.5-6.72,3.7-3.61,5.81-8.08,5.88-13.36,.16-12.39-11.37-22.88-24.17-22.08-1.82,.11-3.87,1.48-5.37,.27-1.48-1.2-1.67-3.49-2.38-5.32-.33-.86-.57-1.76-.84-2.65-2.71-8.86-1.72-17.21,3.54-24.93,3.42-4.88,6.94-9.63,12.43-12.43h0Zm2.45-95.97c7.71,8.23,11.6,18.05,12.21,29.24,.09,1.74,.01,3.48,.01,5.22,.09,9.41-1.5,18.48-6.16,26.81-4.08,7.28-10,12.51-17.91,15.18-8.03,2.71-15.6,1.62-22.25-3.87-5.24-4.33-7.12-10.68-5.15-16.55,1.9-5.64,7.65-9.87,14.05-10.34,5.06-.37,9.36,2.42,11.1,7.21,1.58,4.37,.15,9.19-3.51,11.8-2.76,1.97-5.86,1.82-7.86-.42-1.07-1.19-1.71-2.61-1.06-4.15,.69-1.64,2.17-1.89,3.81-1.6,1.37,.24,3.07,.64,3.29-1.37,.2-1.85-1.51-2.12-2.86-2.4-2.58-.52-4.85,.18-6.64,2.13-1.83,2-2.06,4.33-1.2,6.83,1.67,4.84,7.04,7.41,11.87,5.49,2.05-.81,4.12-1.44,6.25-1.98,6.4-1.63,9.89-6.26,11.71-12.22,2.28-7.47,1.6-14.94-.97-22.23-2.8-7.94-7.53-14.63-13.82-20.17-1.49-1.31-2.08-2.57-1.7-4.49,.57-2.88,.35-5.8-.19-8.66-.29-1.56-.09-2.43,1.71-2.53,2.24-.12,4.33-.85,6.23-2.02,1.16-.71,2.14-.57,3.21,.15,2.13,1.43,4.07,3.07,5.83,4.94h0Zm-70.25,230.6c-2.23,5.84-4.37,11.7-7.09,17.33-.28-.03-.55-.06-.83-.09,.32-6.21,.72-12.42,.94-18.64,.38-10.51,2.73-20.66,5.19-30.81,.54-2.25,1.72-4.05,3.13-5.73,1.62-1.93,7.38-2.08,9.05-.35,.81,.84,.27,1.75,.07,2.61-2.85,12.07-6.03,24.06-10.46,35.68h0Zm4.47,30.31c3.03,5.38,7.14,9.69,12.46,12.83,3.34,1.96,6.91,3.29,10.75,3.81,1.39,.19,2.18,.73,1.95,1.99-.01,4.67-3.22,7.32-7.59,6.58-2.68-.46-5.05-1.67-7.42-2.9-5.03-2.63-9.96-5.51-15.6-6.73-1.03-.22-1.62-.68-1.54-1.88,.17-2.55,.14-5.11,.37-7.65,.24-2.64,1.42-4.88,3.52-6.57,1.72-1.39,2.03-1.38,3.1,.52h0Zm-24.84,47.48c-1.46-1.56-1.54-3.17-.24-4.84,.21-.27,.45-.5,.7-.78,1.19,.09,1.7,1.14,2.5,1.73,3.96,2.95,8.34,4.01,13.11,2.72,3.28-.88,5.84-2.96,7.1-6.15,.7-1.77,1.66-2.32,3.38-1.96,.79,.16,1.59,.32,2.38,.44,1.39,.21,1.91,.95,1.82,2.38-.24,3.97-.99,7.8-2.69,11.42-2.21,4.7-5.42,8.61-9.45,11.83-4.74,3.78-10.12,4.77-16.51,3.5,1.36-2.5,2.61-4.56,2.82-7.05,.41-5.2-1.44-9.52-4.92-13.24h0Zm-14.4-11.66c-.59,.87-1.19,1.73-2.19,2.18-6.97,3.14-13.82,6.59-21.47,7.95-7.4,1.31-14.55-.09-21.68-1.81-3.27-.79-6.49-1.77-9.72-2.68-1.25-.35-2.51-.48-3.79-.33-2.9,.35-4.89,2.19-4.72,5.06,.64,10.93-2.03,21.43-3.78,32.05-.57,3.43-.85,6.91-1.06,10.38-.09,1.51-.52,2.21-2.05,2.64-12.36,3.41-25.04,4.76-37.74,6.03-.46,.05-.93,.03-1.39-.03-.21-.02-.4-.21-.73-.39,.26-3.19,1.19-6.3,1.94-9.44,2.12-8.92,4.7-17.7,7.77-26.35,2.19-6.17,5.9-10.89,11.32-14.52,9.54-6.4,18.94-13,28.4-19.52,14.14-9.74,28.48-19.21,42.15-29.62,1.38-1.05,2.77-2.12,4.06-3.28,1.93-1.76,2.39-3.94,1.36-6.33-.64-1.49-1.36-2.96-2.19-4.34-5.94-9.86-12.47-19.29-20.34-27.75-2.41-2.59-4.89-5.15-6.9-8.49,1.64-.47,3.02-.32,4.35-.25,11.48,.56,22.96,.83,34.45,.58,1.39-.03,2.79,.07,4.15-.35,2.18-.68,3.02-1.95,2.6-4.19-.27-1.43-.94-2.72,.26-4.2,.68-.84-.22-1.9-1.21-2.01-1.66-.19-2.28-1.31-3.02-2.53-5.58-9.24-10.9-18.64-17.78-27.02-.29-.35-.56-.72-.37-1.36,2.08,.01,4.02,.83,5.97,1.47,5.95,1.95,11.78,4.25,17.56,6.67,6.43,2.69,13.06,4.81,19.66,7,3.25,1.08,6.13,2.65,8.18,5.58,1.08,1.55,1.36,2.81,.02,4.33-1.24,1.4-2.04,3.07-2.51,4.91-2.94,11.49-5.22,23.05-5.66,34.97-.29,7.77-.65,15.54-.77,23.32-.03,2.14-.55,4.07-1.49,6-6.14,12.53-13.87,24.11-21.64,35.67h0Zm-26,47.58c.68-2.07,2.36-3.43,4.24-4.43,2.56-1.36,5.19-2.57,7.75-3.92,.74-.39,1.27-.41,1.75,.31,.39,.58,.78,1.15,1.18,1.72,4.8,6.74,11.44,10.29,19.56,11.29,.89,.11,1.85-.1,2.68,.45,.33,1.01-.46,1.5-.98,2.04-6.14,6.38-13.8,9.29-22.51,9.21-7.68-.07-14.99-2.39-22.46-4.6,4.41-3.15,7.17-7.16,8.79-12.07h0Zm-38.38,5.5c-.3-4.12,.28-7.9,.93-11.66,.89-5.13,2.18-10.19,2.76-15.38,.24-2.17,.52-2.4,2.7-2.01,3.07,.55,6.09,1.4,9.15,2.01,7.85,1.55,15.74,2.77,23.86,2.08-3.02,6.48-28.58,22.68-39.4,24.96h0Zm-70.86-46.23c.71,3.12,.18,5.86-1.41,8.65-2.35,4.14-4.66,8.29-7.28,12.27-.56,.85-1.02,1.73-2.29,1.91-2.92,.41-4.32,2.7-4.25,5.18,.12,4.24-2.84,6.64-4.93,10.56-1.48-4.5-2.21-8.25-2.92-11.99-.38-2.01,.61-3.94,1.58-5.61,2.45-4.21,2.89-8.68,2.74-13.42-.19-6.16,.15-12.28,2.58-18.13,1.03-2.47,1.28-5.18,1.26-7.87-.02-2.9-.09-5.8-.16-8.71-.09-3.74,.15-7.36,1.78-10.87,1.81-3.88,1.64-8.2,1.7-12.34,.08-5.27,2.39-9.33,5.6-13.13,.39-.46,.76-.87,1.37-.96,3.02-.43,4.46-2.69,5.82-5.03,1.59-2.73,2.56-5.71,3.41-8.73,.72-2.57,1.37-5.16,2.16-7.71,.48-1.55,1.06-3.08,1.79-4.52,.55-1.08,.97-2.62,2.54-2.5,1.48,.11,1.43,1.69,1.8,2.69,1.97,5.34,3.81,10.72,3.66,16.55-.05,1.78-.27,3.52-1.37,4.95-3.28,4.3-3.95,9.31-4.14,14.47-.09,2.44-.27,4.86-.61,7.28-.48,3.41-1.59,6.55-3.68,9.28-1.78,2.32-2.6,4.89-2.52,7.78,.19,6.35-.7,12.47-3.37,18.31-1.7,3.75-1.76,7.71-.86,11.64h0Zm-65.95,34.93c0,.57,0,1.14,0,2.16-2.07-.61-3.26-1.74-4.58-2.62-1.16-.77-.98-2.02-.98-3.16,0-4.41-.26-8.85,.09-13.23,.73-9.31-2.74-16.46-10.16-21.95-4.66-3.45-9.2-7.07-13.79-10.62-4.69-3.63-4.89-4.18-2.3-9.52,1.67-3.44,3.51-6.81,5.45-10.1,7.06-12,14.21-23.95,21.3-35.94,1.48-2.49,2.99-4.98,4.26-7.58,1.81-3.72,1.3-6.17-1.65-9.12-1.98-1.98-4.31-3.52-6.59-5.12s-4.62-3.12-6.82-4.83c-.96-.74-2.73-1.33-1.52-3.24,1.16-1.81,1.77-2,3.99-1,.53,.24,1.03,.53,1.57,.76,.91,.4,1.84,.56,2.5-.38,.7-.99,.04-1.72-.64-2.41-.63-.64-1.66-.81-2.25-2.15,.9-.82,1.91-1.75,2.93-2.66,5.27-4.74,10.93-8.99,16.67-13.14,6.67-4.83,13.33-9.68,19.94-14.61,1.55-1.16,2.8-1.5,4.68-.48,3.04,1.65,6.31,2.86,9.4,4.23,0,.43,.09,.71,0,.87-13.65,20.84-22.02,43.86-28.12,67.84-4.98,19.58-9.07,39.34-11.47,59.42-1.52,12.81-2.19,25.67-1.9,38.58h0Zm-64.67-15.85c.1,2.77,1.17,5.16,2.98,7.62-4.77,1.46-9.15,1.06-13.03-1.15-9.79-5.58-15.06-14.14-15.74-25.47-.09-1.46,.48-2.17,1.85-2.39,.8-.13,1.6-.28,2.4-.44,1.52-.31,2.41-.03,3.19,1.66,2.62,5.67,8.04,8.08,14.12,6.67,3.52-.81,6.41-2.61,8.7-5.4,.51-.62,.81-1.43,1.74-1.82,.39,.34,.85,.68,1.23,1.1,2.54,2.8,2.49,2.88-.38,5.19-4.57,3.71-7.28,8.34-7.06,14.43h0Zm.05-57.74c-.9-1.75-1.23-3.29-.67-5.26,4.1-14.4,8.98-28.53,14.45-42.46,1.11-2.82,2.56-5.46,4.46-7.84,1.81-2.27,4.11-3.63,7.84-4.01-3.43,4.93-5.42,9.68-6.53,14.83-1.63,7.54-.74,15,.4,22.48,.96,6.3,2.31,12.56,2.27,18.98,0,1.04,.15,2.1-.25,3.1-1.96,4.92-2.25,10.16-3.04,15.31-.54,3.56-1.3,7.06-2.88,10.33-1.16-.21-1.4-1.21-1.88-1.93-5.11-7.6-9.97-15.36-14.17-23.53Zm19.48,27.64c2.23-5.77,3.35-11.81,3.96-17.95,.52-5.29,2.48-10.11,4.86-14.78,2.06-4.04,3.86-8.18,5.33-12.46,.47-1.36,1.45-2.89-.26-4.04-1.1-.74-1.83,.1-2.96,2.91-1.24,3.09-2.23,6.31-4,9.11-.75-.14-.83-.61-.89-1.04-.97-6.54-2.08-13.06-2.86-19.62-1.12-9.39,.54-18.25,5.78-26.29,1.61-2.46,3.47-4.69,5.92-6.29,5.63-3.69,11.42-7.09,17.65-9.71,.4-.17,.81-.51,1.62,.02-2.5,1.78-3.73,5.02-7.41,5.01-.92,0-1.61,.67-1.46,1.59,.24,1.43-.49,2.4-1.13,3.5-1.13,1.94-.79,3.79,.72,5.42,1.27,1.37,2.8,2.42,4.32,3.5,3.3,2.35,6.79,4.46,9.89,7.09s3.36,3.52,1.32,7.11c-3.44,6.04-7.09,11.98-10.62,17.97-5.53,9.39-11.06,18.79-16.55,28.21-1.75,3.01-3.3,6.12-4.59,9.36-1.38,3.47-.74,6.35,2.19,8.68,1.81,1.44,3.62,2.89,5.47,4.3,4.8,3.65,9.62,7.26,14.07,11.36,3.73,3.43,5.6,7.51,5.45,12.64-.16,5.18-.03,10.37-.03,16.37-5.92-4.13-10.51-8.36-14.87-12.83-7.22-7.4-13.84-15.31-19.9-23.7-1.29-1.75-1.84-3.32-1.02-5.44h0Zm12.72,45.5c3.78,6.06,9.47,8.81,16.34,9.87,4.83,.74,9.11,2.73,11.52,7.41,.2,.4,.32,.84,.53,1.41-8.27,2.26-16.4,4.56-24.78,5.68-7.97,1.07-15.44-.54-22.19-5.04-2.21-1.47-4.23-3.17-6.1-6.05,10.62-.65,18.82-4.71,24.13-13.51,.34,.15,.5,.16,.55,.23h0Zm30.02-357.86c-.48-.77-.87-1.66-1.05-2.55-.21-1.09,.23-1.84,1.55-1.54,.56,.13,1.13,.27,1.68,.42,7.4,2.01,14.88,3.53,22.54,4.07,.62,.04,1.54-.16,1.64,.81,.08,.77-.46,1.28-1.17,1.54-2.56,.95-3.47,3.48-5.12,5.31-.37,.41-.43,1.21-.85,1.46-2.93,1.73-1.76,4.78-2.24,7.22-.25,1.26,.59,3.17,1.24,4.11,1.47,2.13,1.8,5.26,4.72,6.3,.22,.08,.56,.12,.62,.28,1.23,2.92,4.3,3.07,6.59,3.62,2.17,.52,4.62,1.24,7.24,.05,2.02-.92,3.96-2.13,6.12-2.76,.85-.25,1.48-.66,1.77-1.49,.29-.83,.87-1.33,1.63-1.7,.54-.27,1.09-.53,1.6-.07,.56,.51,.75,1.18,.29,1.87-.64,.96-1.33,1.87-1.32,3.14,.03,2.78,0,2.84-2.76,2.96-1.97,.09-3.94,.02-5.91,.02-8.37-.04-16.65-.88-24.71-3.3-2.11-.63-4.19-1.35-6.1-2.48-1.98-1.17-3.17-2.82-2.75-5.15,.64-3.55-.23-6.39-3.26-8.51-1.02-.72-1.28-1.93-1.24-3.12,.05-1.39,.13-2.78,.35-4.15,.37-2.27,.15-4.37-1.1-6.36h0Zm156.88,.87c1.89-2.33,2.06-4.78,.75-7.44-.27-.55,.36-1,.75-1.44,3.73-4.26,3.86-4.71,1.37-9.4-.92-1.74-.2-3.17,.77-4.1,4.27-4.09,8.64-8.19,14.4-10.09,4.95-1.63,9.59,1.12,10,5.61,.15,1.66-.31,3.23-.97,4.73-4.64,10.68-11.04,20.05-20.04,27.62-13.27,11.18-28.23,19.45-44.1,26.23-6.08,2.6-12.1,5.34-18.48,7.17-.99,.29-1.99,.55-3.35,.91-.2-2.68-.55-4.79,1.71-6.6,1.86-1.49,1.42-3.69,.4-5.75-1.22-2.45-.76-3.52,1.81-4.35,2.65-.86,5.33-1.61,7.99-2.42,1.04-.32,1.97-.4,2.93,.37,2.89,2.32,5.8,1.98,8.57-.23,.99-.79,1.71-.69,2.79-.12,3.38,1.79,5.42,1.53,8.11-1.16,1.12-1.12,1.9-1.57,3.56-.91,3.77,1.51,5.86,.58,7.45-3.16,.56-1.31,1.2-1.63,2.56-1.68,3.49-.13,4.71-1.25,5.2-4.77,.19-1.36,.67-1.94,1.96-2.39,3.36-1.16,3.76-1.89,3.84-5.62,.02-.34-.15-.8,.02-1.01h0Zm-18.89,88.65h.14c.15-3.01,.28-6.02,.46-9.03,.06-1.04,.06-2.13,.4-3.09,1.69-4.84,4.61-9.04,7.23-13.39,.29-.47,.82-.82,1.28-1.16,1.65-1.2,2.69-1.01,3.62,.81,1.02,2.01,1.26,4.23,1.11,6.44-.39,5.72-1.73,11.24-4.08,16.45-1.62,3.59-3.58,7.02-5.41,10.5-.65,1.24-1.47,2.36-2.6,3.23-.47,.36-.98,.71-1.57,.48-.66-.26-.56-.94-.56-1.5-.02-3.25-.02-6.5-.02-9.74h0Zm-3.66,10.8c.17,14.99-6.21,29.21-17.01,39.86-1.12-.41-.61-1.35-.58-2.04,.56-10.85,3.23-21.29,6.16-31.68,2.74-9.72,5.37-19.45,6.26-29.56,.36-4.08,.32-8.12-1.41-11.94-.3-.67-.42-1.31-.32-2.01,.72-5.41-.26-10.39-3.99-14.74,2.57-1.79,5.22-2.88,7.71-4.22,1.52,1.5,1.08,3.19,1.08,4.76,0,6.13,.56,12.19,1.65,18.23,.88,4.91,1.09,9.95,.86,14.9-.3,6.16-.48,12.3-.41,18.44h0Zm17.17,67.86c-4.35,1.41-8.33,3.49-11.62,6.72-.92,.91-1.81,.75-2.8,.11-4.71-3.01-9.05-6.44-12.84-10.57-1.1-1.2-1.2-2.19-.55-3.7,3.02-6.99,6.38-13.67,12.97-18.08,.95-.63,1.58-1.56,.74-2.63-.82-1.04-1.88-.6-2.81-.02-.87,.55-1.7,1.15-2.91,1.98-1.08-4.17-.73-8.04-1.27-11.82-.08-.59,.06-1.23,.62-1.51,.64-.32,1.04,.24,1.41,.66,.23,.26,.47,.54,.59,.85,1.77,4.42,5.16,7.61,8.2,11.1,5.47,6.29,9.23,13.57,11.49,21.61,.22,.78,.34,1.58,.49,2.38,.29,1.47-.25,2.45-1.71,2.92h0Zm5.98-3.02c6.69,5.5,12.63,11.03,18.13,17.99-11.76,1.03-22.54-.13-33.29-5.18,2.22-2.27,4.23-3.76,6.61-4.75,.96-.4,1.91-.86,2.9-1.14,3.3-.91,5.4-2.88,5.65-6.92h0Zm-61.25,60.73c-2.28,.5-4.61,.63-6.92,.29-2.15-.32-2.41-.85-1.27-2.67,.85-1.35,1.09-3.62,3.47-2.9,1.3,.12,2.46,.29,3.61,.31,.72,.01,1.36-.32,1.52-1.15,.15-.79-.21-1.37-.87-1.72-1.15-.61-2.42-.76-3.69-.89-.56-.06-1.21-.09-1.38-.8-.21-.87,.38-1.28,1.06-1.52,2.73-.97,5.46-1.92,8.21-2.85,.55-.19,1.13-.24,1.69-.39,.98-.26,1.78-.8,1.62-1.91-.19-1.3-1.27-1.64-2.38-1.43-1.47,.27-2.93,.68-4.36,1.13-1.21,.38-2.36,.96-3.58,1.33-.78,.24-1.68,1.07-2.4-.2-.89-1.56-.78-2.66,.55-3.56,1.54-1.05,3.2-1.88,4.98-2.44,4.61-1.44,8.6-3.97,12.35-6.95,1.72-1.37,3.5-2.69,5.36-3.86,2.99-1.89,5.33-1.47,7.69,1.15,1.12,1.25,1.81,2.72,2.11,4.33,.56,3.01,1.64,5.81,3.26,8.38,1.75,2.79,2,5.61,.69,8.61-.28,.64-.45,1.32-.71,1.96-1.76,4.3-1.85,8.54,.26,12.78,.72,1.45,1.21,3.03,1.36,4.66,.09,1.01-.07,1.85-1.53,1.52-4.32-.97-8.58-2.01-12.1-4.95-1.33-1.11-2.8-2.06-4.16-3.14-4.31-3.4-9.15-4.28-14.44-3.12h0Zm11.53,16.7c-1.03-3.16-1.28-6.21-1.98-9.66,4.95,2.78,5.58,2.81,1.98,9.66Zm-22.45-8.55c-.28-.76-.67-1.49-.87-2.27-.21-.83-1.15-1.71-.25-2.54,.7-.65,1.52,0,2.28,.23,3.72,1.15,7.58,.95,11.39,1.09,3.69,.14,3.72,.15,4.38,3.88,.61,3.43,1.26,6.85,1.83,10.28,.31,1.92,.63,3.86,.1,5.76-1.4,.38-2.36-.45-3.42-.84-3.91-1.44-6.2-.87-9,2.24-.97,1.08-1.65,2.45-2.87,3.28-.81-.67-.55-1.4-.48-2.03,.67-6.65-.81-12.93-3.09-19.08h0Zm-25.59-77.46c-.03-1.15,0-2.3,0-3.96,18.8,16.04,36.3,12.97,53.3-3.58,1.15,5,2.18,9.28,4.64,13.01,.76,1.15,.08,1.96-.47,2.83-2.21,3.44-4.75,6.61-7.93,9.19-4.3,3.5-7.79,7.58-10.07,12.69-1.21,2.71-3.13,4.93-5.69,6.44-4.88,2.88-9.07,6.43-11.87,11.46-.21,.37-.65,.62-.91,.86-1.07-.03-1.17-.81-1.44-1.41-2.12-4.73-5.51-8.26-10.01-10.76-2.03-1.13-4.04-2.29-6.08-3.39-1.66-.89-2.62-2.16-2.8-4.1-.29-3.25-.87-6.44-2.28-9.42-.37-.78-.48-1.55-.13-2.35,2.47-5.64,1.88-11.6,1.74-17.51h0Zm59.98-13.48c2.62-2.2,4.67-5.09,7.48-8.26,.34,3.57,.62,6.42,.89,9.28,.06,.69,.14,1.41-.34,2-3.02,3.7-5.05,7.98-6.99,12.22-1.34-.03-1.4-1.01-1.65-1.67-.6-1.62-1.02-3.31-1.58-4.95-1.14-3.36-.82-6.1,2.19-8.62h0Zm-42.15,65.67c1.56,.03,2.58,.88,2.64,2.6,.04,1.25-.28,2.51-.47,3.76-.16,1.1-.18,2.21,1.1,2.55,1.32,.35,1.82-.68,2.16-1.71,.66-2.01,.83-4.06,.53-6.16-.08-.54-.24-1.21,.39-1.52,.76-.38,1.32,.13,1.78,.67,.77,.9,1.17,1.96,1.29,3.15,.52,5.2-1.77,9.44-4.74,13.37-1.06,1.41-3.45,1.24-5-.08-1.3-1.1-1.95-2.58-2.1-4.24-.15-1.61-.16-3.23-.26-5.54,.06-1.04,.11-2.77,.26-4.5,.13-1.42,.8-2.38,2.42-2.35h0Zm44.73-18.42c1.47-1.26,3.06-1.5,4.88-2.27-.14,2.11-.94,3.55-1.54,5.2-1.54-.8-2.24-1.99-3.34-2.93h0Zm-3.34-3.15c-4.47,1.7-8.64,3.84-12.3,6.99-3.62,3.11-7.65,5.6-12.29,6.98-1.89,.56-3.59,1.59-5.27,2.62-.64,.39-1.18,1.19-2.48,.66,.7-1.86,2.03-3.22,3.53-4.37,1.56-1.2,3.22-2.26,4.88-3.31,3.41-2.17,6.09-5.02,7.74-8.7,1.9-4.22,4.74-7.66,8.29-10.55,3.8-3.1,6.86-6.86,9.81-11.26,4.29,4.93,9.22,8.72,14.59,12.22-1.81,2.31-4.17,3.54-6.55,4.63-3.26,1.47-6.6,2.81-9.95,4.09Zm-21.65-119.5c-2.26-3.2-5.41-2.31-8.4-1.04-.9-3.64-.78-3.82,2.26-4.93,4.99-1.82,9.97-3.69,14.93-5.53,.77,.83,.18,1.56-.06,2.29-1.04,3.07-2.11,6.13-3.14,9.2-.26,.76-.47,1.55-.6,2.34-.14,.88,.18,1.65,1.05,1.98,.89,.34,1.64-.1,2.05-.85,.44-.8,.73-1.69,1.03-2.56,1.47-4.27,2.97-8.53,4.34-12.83,.58-1.81,1.6-3.01,3.38-3.64,.87-.3,1.7-.74,2.55-1.11,3.22-1.4,3.65-1.26,5.45,1.82,1.78,3.04,2.24,6.35,1.55,9.74-2.69,13.35-18.72,19.11-28.2,12.68,2.06-2.32,3.81-4.72,1.81-7.56h0Zm-45.97-52.18c.04,.57,.05,1.16-.02,1.72-.07,.5-.48,.79-.94,.89-.55,.13-.83-.24-1.02-.7-.13-.32-.43-.7-.36-.96,.7-2.5-1.49-4.46-1.25-6.87,.06-.6-.12-1.29-.6-1.57-2.08-1.23-1.95-4.53-4.88-5.03-.64-.11-1.26-1.14-.99-2.01,.25-.81,1.15-.6,1.79-.65,12.88-1.11,25.36-4.13,37.73-7.74,.77-.23,1.57-.5,2.36-.51,1.7-.02,2.37,1,1.92,2.72-1.36,5.23-.56,6.96,4.44,9.23,1.34,.61,2.61,1.11,1.66,3.22-1.53-.95-3.54-.96-4.76-1.69-2.68-1.6-5.23-3.02-8.42-3.18-.53-.03-.98-.93-1.53-1.36-1.5-1.18-3.2-1.5-4.86-.51-1.28,.76-2.42,1.06-3.9,.6-1.58-.49-3.04,.16-3.97,1.5-.91,1.31-1.81,2.18-3.59,2.2-2,.02-3.07,1.47-3.46,3.33-.25,1.19-.55,2.16-1.99,2.46-2.6,.56-3.53,2.38-3.36,4.91h0Zm-25.42-3.45c-.69-.03-1.46,.03-1.86-.66-.43-.73,.12-1.33,.5-1.88,1.14-1.65,2.56-3,4.39-3.85,1.5-.69,2.19-.27,2.31,1.32,.22,2.91-2.06,5.07-5.34,5.07Zm2.32,8.47c-.02,.23,0,.47-.07,.69-.36,1.2-.52,2.77-1.82,3.13-1.47,.41-2.08-1.15-2.78-2.12-.52-.73-.91-1.62-1.13-2.5-.29-1.19-.93-2.7,.35-3.49,1.14-.7,2.45,.12,3.52,.81,1.22,.81,1.85,2,1.93,3.48h0Zm4.63,2.2c.99-.42,2.03-.37,3.04,0,1.3,.47,2.27,1.48,2.26,2.77,0,1.6-1.62,1.27-2.66,1.51-.66,.15-1.37,.12-2.15,.18-1.02-.34-2.87,.57-3.08-1.14-.19-1.53,1.11-2.69,2.59-3.31h0Zm-1.44-7.02c-.07-1.48,.97-2.62,2.47-2.69,1.64-.08,2.99,1.07,3.03,2.58,.04,1.48-1.31,2.77-2.89,2.75-1.4,0-2.54-1.16-2.61-2.64Zm3.36-9.17c-.14-1.37,.36-2,1.79-1.58,1.93,.57,3.62,1.54,5,3,1.08,1.14,.9,1.91-.47,2.73-3.01,1.79-6.2-.3-6.32-4.15h0Zm8.73,7.41c.82-.27,1.36,.02,1.52,.85,.13,.67,.13,1.37,.16,1.77-.09,2.53-.6,4.62-2.08,6.38-.64,.75-1.3,.83-2.01,.04-2.26-2.49-.8-7.97,2.41-9.04h0Zm31.19,10.03c2.55,0,4.28,2,4.23,4.89-.04,2.61-1.81,4.51-4.24,4.55-2.45,.05-4.85-2.41-4.85-4.96,0-2.34,2.33-4.49,4.86-4.48h0Zm-18.12,1.73c4.19,.66,7.46,4.29,7.46,8.69,.04,2.03-.76,4-2.53,5.56-.8,.7-1.65,1.02-2.35-.03-2.63-3.95-4.17-8.27-4.24-13.04,0-1.03,.65-1.34,1.66-1.18Zm1.52-4.59c-1.74-.63-2.02-1.17-1.23-2.84,1.94-4.08,5.02-6.9,9.41-8.16,2.79-.8,3.48-.24,3.49,2.77,.03,6.53-5.54,10.46-11.67,8.23h0Zm7.82,20.97c2.81-2.91,6.21-3.3,9.91-2.39,2.16,.53,4.15,1.44,5.78,2.99,1.39,1.32,1.32,2.04-.37,2.84-2.75,1.31-5.69,1.86-7.84,1.9-3.01,.01-5.01-.47-6.92-1.38-2.59-1.22-2.64-1.81-.56-3.96h0Zm10.39-30.65c.08-1.16,.57-1.75,1.76-1.45,4.88,1.21,8.89,3.71,11.7,7.97,.67,1.02,.28,1.72-.78,2.15-1.31,.52-2.68,.65-3.79,.7-4.93,.04-9.22-4.65-8.89-9.37Zm7.09,19.76c.95-3.35,4.34-6.44,7.26-6.7,1.12-.1,1.79,.3,1.93,1.43,.08,.68,.09,1.38,.12,1.82-.13,3.92-1.22,7.28-3.14,10.39-.85,1.37-1.79,1.56-3.12,.57-2.65-1.97-3.83-4.76-3.05-7.51h0Zm39.26-41.01c-3.99-.06-6.59-2.89-6.47-7.03,.1-3.58,3.27-6.73,6.71-6.67,3.99,.07,7.46,3.53,7.36,7.33-.1,3.91-3.14,6.45-7.6,6.37h0Zm3.05,22.27c-.91,.11-1.84,.02-3.05,.02-5.22-.36-10.39-1.98-15.36-4.24-2.77-1.25-2.84-2.16-.79-4.32,6.36-6.69,16.3-5.74,20.99,2.02,.42,.69,.82,1.41,1.05,2.18,.78,2.55-.19,4.03-2.84,4.34h0Zm-15.8-42.43c-2.95-.02-5.76-.55-8.35-2.07-1.27-.75-1.59-1.62-.5-2.77,5.41-5.69,11.9-9.17,19.83-9.71,1.36-.09,2.2,.32,2.15,1.94-.22,7.17-5.91,12.65-13.13,12.61h0Zm-3.89,17.16c.9,5.4-2.05,9.32-5.87,12.63-1.5,1.3-2.1,1.14-3.35-.64-2.86-4.08-4.7-8.52-4.6-12.62,0-3.56,.38-6.08,1.28-8.49,.74-2,1.18-2.26,3.08-1.53,4.96,1.92,8.56,5.26,9.46,10.65h0Zm-2.29,32.3c-3.28,1.44-5.32,.76-6.36-1.97-.43-1.14-.45-2.46,.76-3.06,1.09-.54,2.31-.34,2.88,1.05,.57,1.41,1.54,2.56,2.72,3.98h0Zm46.44-33.03c-.92,8.62-3.82,16.18-11.39,21.2-2.67,1.77-3.19,1.57-4.18-1.34-.67-1.98-1.13-4-1.1-6.11-.02-2.02,.55-3.89,1.52-5.63,2.45-4.38,5.98-7.6,10.62-9.53,.84-.35,1.76-.57,2.66-.73,1.09-.2,1.79,.25,1.86,1.44,.01,.24,.03,.47,.01,.7h0Zm-4.27-11.37c-2,1-4.16,1.4-6.11,1.53-2.05,0-3.71-.4-5.2-1.44-4.56-3.19-6.84-10.71-4.8-15.92,.84-2.15,1.34-2.45,3.33-1.49,6.29,3.03,10.92,7.76,13.96,14.02,.9,1.84,.64,2.39-1.18,3.3Zm-9.9-36.49c-.27,1.7-.27,3.45-.43,5.68-3.37-1.34-6.41-1.6-9.42-.12-1.01,.5-1.75-.19-2.58-.58-4.47-2.14-7.49-1.63-10.91,2.04-.97,1.04-1.73,1.62-3.24,1.18-3.02-.86-5.28,.45-6.61,3.12-.76,1.53-1.68,2.21-3.4,2.39-2.76,.29-4.73,2.01-5.7,4.54-.67,1.74-1.67,2.45-3.46,2.86-4.47,1.01-6.16,3.39-5.82,8.02,.1,1.36-.33,2.07-1.29,2.92-2.84,2.49-3.33,5.05-1.45,8.36,.9,1.59,1.35,2.83,.04,4.36-.76,.89-1.14,2.09-.99,3.26,.24,1.86-.82,2.42-2.32,2.81-3.93,1.01-7.83,2.15-11.77,3.14-2.58,.65-2.7,.56-3.04-2.17-1.11-8.99-2.26-17.97-3.8-26.89-.47-2.74-1.09-5.46-1.62-8.2-.64-3.31-2.56-5.61-5.45-7.26-3.52-2-7.38-2.85-11.32-3.12-12.51-.85-24.78,.68-36.77,4.36-3.3,1.01-6.35,2.66-9.57,4.58-.88-3.43,.02-6.08,1.64-8.55,2.64-4,5.91-7.46,9.48-10.62,14.3-12.66,30.74-21.49,48.92-27.17,10.26-3.2,20.72-5.43,31.51-4.5,16.55,1.42,31.28,7.22,43.41,18.97,4.78,4.63,7.02,9.94,5.96,16.59h0Zm-139.48,18.82c2.45-1.57,4.91-3.13,7.67-4.05,12.7-4.2,25.71-5.94,39.07-4.51,2.08,.22,4.11,.76,6.05,1.55,2.98,1.21,4.9,3.21,5.56,6.55,1.34,6.72,2.4,13.47,3.46,20.23,.7,4.47,1.31,8.95,1.92,13.43,.45,3.33,.43,3.38-2.99,4.02-8.57,1.6-17.2,2.55-24.73,2.33-10.29-.13-19.23-1.26-28.04-3.54-1.99-.52-3.15-1.4-3.73-3.49-2.47-8.83-4.74-17.69-6.65-26.66-.57-2.68,.16-4.42,2.41-5.86h0Zm5.53,69.25c2.4,3.89,6.42,5.18,10.42,6.42,7.13,2.21,14.46,3.36,21.92,3.61,3.71,.12,7.42,.05,11.13-.05,1.7-.05,3.22-.13,3.97,1.86,.22,.59,.86,1.16,1.45,1.44,1.29,.61,1.9,1.45,1.99,2.93,.11,1.83,1.42,2.85,3.07,3.39,.93,.3,1.76,.62,1.83,1.78,.1,1.88,1.39,3.12,3.05,4.99-6.59,1.64-12.5,3.21-18.47,4.56-5.54,1.25-11.13,2.32-16.72,3.34-10.29,1.88-20.59,1.7-30.77-.59-10.07-2.26-16.51-8.53-19-18.65-.92-3.75-.52-7.33,1.54-10.72,2.08-3.42,4.86-5.35,8.99-5.63,4.54-.31,9.04,.26,13.56,.27,.87-.03,1.57,.29,2.04,1.05Zm20.47,43.73c1.51-.09,1.58,1.57,1.6,2.63,.06,3.2,.97,6.16,2.25,9.02,1.34,2.99,1.98,6.1,2.25,9.38,.29,3.64,1.06,7.24,1.7,11.39-2.7-1.82-4.65-3.82-5.11-6.4-1.38-7.72-3.81-15.29-3.74-23.23,.02-1-.66-2.69,1.05-2.79Zm7.46,.28c18.46-.09,36.75-.64,54.13-6.66,.96,.62,.71,1.38,.78,2.02,.06,.55,.23,1.14-.39,1.89-1.62-.28-3.41-.67-5.24-.62-3.48,.11-6.62,1.13-9.27,3.4-.69,.59-1.28,1.36-1.75,2.14-.56,.92-.91,2.01,.28,2.74,.97,.6,1.78,.09,2.38-.74,.75-1.05,1.62-1.97,2.79-2.56,3.52-1.78,7.11-2.05,10.7-.29,1.87,.92,3.66,2,5.17,3.48,9.95,9.81,25.4,7.25,33.51-2.81,.69-.86,1.04-2.04,2.45-2.63,.8,4.19-.03,8.15-.65,12.09-1.48,9.42-4.31,18.51-6.78,27.69-2.9,10.77-5.24,21.64-5.31,32.87-.01,1.1-.26,1.97-1.16,2.73-4.42,3.74-8.63,7.75-13.77,10.57-2.26,1.24-4.54,2.32-7.1,2.72-10.48,1.63-19.85-.49-27.41-8.35-4.04-4.2-8.5-7.89-13.35-11.1-7.27-4.8-10.8-11.94-12.49-20.15-2.62-12.72-5.31-25.42-6.22-38.42-.21-3.21-.81-6.4-1.3-10.01Zm21.79,74.37c2.98,1.75,4.42,4.15,4.36,7.63-.06,3.94,.14,7.89,.17,11.84,.02,1.95-.2,3.86-1.38,6.1-2.16-3.04-2.51-6.02-2.56-9.05-.06-3.37-.14-6.73-1.02-10.01-.21-.78-.39-1.58-.68-2.34-.27-.72-.85-1.08-1.64-.98-.82,.11-1.22,.68-1.27,1.42-.04,.68,0,1.4,.16,2.07,.89,3.53,.88,7.12,.91,10.72,.04,3.92,1,7.59,3.21,10.86,2.59,3.82,4.34,7.92,4.6,12.58,.2,3.59,2.05,6.01,5.22,7.63,2.48,1.26,4.9,2.65,7.25,4.14,2.85,1.81,5.08,4.21,6.33,7.37-1.08,.85-1.81,.38-2.49-.03-1.69-1.01-3.39-2.02-5.02-3.13-2.62-1.79-5.42-3.13-8.57-3.67-2.01-.35-3.67-1.28-5.05-2.82-4.02-4.5-8.83-7.81-14.6-9.73-1.64-.55-3.18-1.41-4.73-2.19-2.24-1.13-3.09-3.06-2.83-5.48,.14-1.27,.29-2.55,.66-3.77,2.15-7.11,4.26-14.23,6.94-21.15,1.24-3.2,3.15-5.95,5.99-7.96,2.33-1.66,3.56-1.5,6.04-.05h0Zm8.13,63.43c.46,1,1.39,1.53,2.28,2.06,2.3,1.35,4.71,2.48,7.28,3.25,.75,.23,1.77,.38,1.52,1.48-.24,1.09-1.26,.72-2.02,.74-1.39,.03-2.79-.07-4.15,.11-.96,.13-1.74,.76-1.54,1.93,.16,.97,.92,1.28,1.78,1.31,1.5,.06,3.01,.09,4.52,.08,1.1,0,1.84,.39,1.78,1.58-.06,1.19-1.05,1.07-1.82,1.06-2.9-.04-5.79-.09-8.68-.24-5.35-.27-10.02,1.21-13.98,4.95-2.34,2.2-5.04,3.93-8.45,4.5,.69-1.2,1.37-2.41,2.07-3.61,2.47-4.28,4.06-8.82,4.26-13.81,.05-1.27,.21-2.54,.31-3.81,.49-6.1,1.68-7.4,7.71-8.14,4.49-.55,8.77,0,12.59,2.73,1.79,1.27,3.71,2.36,5.57,3.53,.65,.41,1.01,.95,.68,1.74-.4,.98-1.15,.54-1.75,.35-2.11-.66-4.05-1.69-5.95-2.82-.7-.41-1.37-.87-2.1-1.21-.55-.26-1.14-.14-1.6,.31-.57,.58-.62,1.25-.31,1.93h0Zm2.97,20.79c1.35-.99,2.78-1.64,4.48-1.63,1.64,0,3.22-.43,4.76-.92,1.21-.39,1.61,.63,2.25,1.22,.66,.61,.37,1.24-.02,1.86-2.62,4.22-3.53,9.04-4.83,13.72-.94,3.36-1.93,6.7-3.9,9.63-1.49,2.22-2.29,2.42-3.96,.33-2.98-3.72-6.64-4.26-10.92-3.12-1.66,.44-3.35,.73-5.03,1.09-.16-.21-.33-.42-.49-.63,4.83-8.03,9.88-15.87,17.66-21.55h0Zm-26.63,19.37c.03-.81,.15-1.62,.13-2.43-.05-2.5,.82-3.87,3.57-4.41,3.13-.62,5.43-3,7.67-5.21,1.65-1.63,3.18-3.38,4.81-5.03,1.12-1.13,2.35-2.13,4.17-2.29-.32,1.21-1.18,1.67-1.81,2.31-5.16,5.26-9.29,11.27-12.91,17.65-.45,.8-.84,1.68-1.04,2.56-.49,2.22,.57,3.58,2.86,3.74,1.16,.08,2.3-.14,3.43-.43,2.02-.52,4.06-.97,6.1-1.4,1.53-.31,2.95-.19,4.24,.91,2.57,2.19,2.74,2.67,.57,5.26-2.94,3.51-4.6,7.46-4.74,12.06-.06,1.97-.31,3.93-.46,5.9-.16,2.09-.31,4.22-1.22,6.11-2.03,4.23-2.34,8.69-2.15,13.25,.09,2.09,.17,4.18,.2,6.26,.04,3.03-.08,6.07-1.24,8.91-1.97,4.82-2.56,9.85-2.51,15,.02,2.67,0,5.34,0,8.01,0,2.12-.56,4-2.29,5.99-1.18-4.09-1.61-7.85-2.24-11.56-4.57-26.89-6.18-53.94-5.15-81.16h0Zm35.59,67.34c.25-1.13,.57-2.27,1.06-3.3,2.84-6.03,3.62-12.44,3.49-18.99-.04-2.19,.45-4.09,1.79-5.84,2.99-3.91,4.26-8.44,4.57-13.29,.21-3.24,.41-6.48,.61-9.73,.09-1.39,.14-2.79,1.06-4.22,1.21,.08,2.11,1.72,3.62,1.07,1.59-.68,2.5-2.01,3.48-3.3,1.05-1.39,2.1-2.78,3.18-4.14,1.24-1.55,2.76-2,4.62-1.14,1.26,.58,2.54,1.09,4.17,1.78-9.03,22.9-19.42,44.82-31.45,66.76-.64-2.34-.57-4.01-.2-5.66Zm13.98,59.63c1.84-9.57,3.76-19.13,5.66-28.68,6.56-33.05,16.21-65.29,25.71-97.57,.16-.56,.33-1.11,.51-1.66,.54-1.65,.66-3.69,1.74-4.82,1.1-1.15,3.01,.27,4.6,.29,5.51,.06,8.48-3.11,7.8-8.57-.23-1.86-.78-3.63-1.56-5.33-1.44-3.15-1.37-6.28-.09-9.45,.61-1.5,1.07-3.06,1.6-4.6,.46-1.35,.75-2.84,.3-4.12-1-2.88-.11-5.44,.72-8.1,2.17-6.98,4.63-13.87,6.22-21.02,.07-.32,.3-.61,.44-.88,.67-.14,1.17,.18,1.68,.43,11,5.33,22.69,6.36,34.65,5.34,2.27-.19,3.58,.36,4.99,2.1,6.61,8.14,11.99,17.1,17.34,26.07,.45,.75,.98,1.3-.11,2.3-1.56,1.45-1.12,2.79,1,3.01,2.41,.25,3.14,1.49,3.32,3.52-.85,.72-1.81,.49-2.71,.53-9.4,.4-18.79,.22-28.19-.25-3.13-.16-6.26-.22-9.4-.2-1.94,.01-4.19-.27-5.22,1.9-1.08,2.27,.46,4.01,1.78,5.62,2.29,2.78,4.59,5.55,7.03,8.19,7.45,8.05,13.59,17.05,19.26,26.4,3.03,5.01,2.98,5.06-1.71,8.63-14.97,11.4-30.69,21.72-46.17,32.38-8.03,5.53-15.95,11.23-24.1,16.57-6.8,4.46-11.3,10.4-13.92,18.08-3.71,10.89-6.73,21.96-9.18,33.19-.1,.45-.13,.92-.25,1.37-.47,1.77-1.32,2.3-3,1.89-1.68-.42-.91-1.71-.74-2.56h0Zm109.99-189.59c4.44-.15,8.57,.53,11.46,4.33-3.82-1.44-7.64-2.89-11.46-4.33Zm51.83,21.84c-1.61-.39-3.23-.55-4.83-.3-1.68,.26-2.77-.07-3.67-1.67-2.22-3.95-5.84-6.18-10.03-7.6-3.96-1.33-7.92-2.65-11.88-3.96-1.22-.41-2.3-.85-2.99-2.15-3.91-7.35-10.54-10.08-18.41-10.5-3.24-.17-6.5-.09-9.72,.42-3.7,.59-6.66-.37-9.24-3.37-5.91-6.88-12.46-13.14-20.06-18.17-.95-.63-1.38-1.5-1.71-2.52-2.98-9.01-8.1-16.64-14.91-23.19-1.28-1.23-2.16-2.72-2.93-4.29-.72-1.46-1.38-3.03-2.68-4.03-1.46-1.12-1.55-2.17-.86-3.81,2.12-5.05,3.49-10.33,4.05-15.79,.12-1.16,.4-1.87,1.7-2.18,2.77-.66,4.61-2.62,6.02-4.96,4.82-8.01,8.8-16.34,10.14-25.73,.46-3.24,.55-6.46-.21-9.68-.5-2.11-1.36-4.04-3.27-5.14-1.63-.94-1.59-2.11-.98-3.52,.32-.74,.8-1.41,1.14-2.15,.39-.84,1.03-1.73,.98-2.57-.22-3.6,.95-7.17,.71-10.61-.27-3.87,1.27-7.29,1.34-10.98,.02-1.2,1.21-1.63,1.96-2.3,6.79-6.03,13.15-12.43,18.3-19.98,5.69-8.34,9.42-17.55,12.4-27.11,.14-.44,.26-.89,.36-1.35,.91-4.32,.72-8.53-2.89-11.53-3.87-3.22-8.45-3.61-13.12-1.75-2.38,.95-4.51,2.38-6.56,3.92-1.76,1.33-3.52,2.64-5.53,4.13-.62-.93-.96-1.53-1.38-2.07-1.18-1.53-1.91-4.07-1.79-5.96,.16-2.62-1.11-4.69-3.37-5.6-2.58-1.03-3.45-2.89-4.28-5.26-1.25-3.54-3.76-5.75-7.79-5.89-2.35-.08-2.41-.2-2.32-2.7,.13-3.48,.28-6.96,.55-10.43,.46-5.75-1.75-10.35-5.67-14.4-16.3-16.79-36.31-24.15-59.31-21.42-28.75,3.41-53.68,15.65-74.67,35.71-2.18,2.09-4.09,4.43-5.89,6.86-2.61,3.52-3.66,7.42-3.31,11.79,.29,3.57-.54,7.03-1.66,10.38-.44,1.32-.42,2.42,.73,3.03,1.92,1,1.73,2.87,2.19,4.48,.47,1.64,1.04,3.2-.44,4.85-.98,1.09-.25,2.32,1.03,3.16,2.29,1.5,3.29,4.46,2.12,6.71-.89,1.72-.69,2.91,1.02,3.7,1.44,.66,1.6,1.46,.71,2.7-1.85,2.57-1.64,5.28-.12,7.86,1.07,1.83,1.28,3.62,.9,5.67-.29,1.58-.28,3.23-.27,4.85,0,1.95,.81,3.59,2.28,4.9,.61,.54,1.26,1.05,1.76,1.67,.72,.9,.61,1.97,.25,2.99-.44,1.24-1.51,.88-2.37,.78-3.35-.39-6.73-.17-10.08-.39-13.31-.86-19.41,11.58-16.65,21.83,2.06,7.63,6.35,13.6,12.93,17.93,6,3.96,12.64,6.34,19.69,7.49,3.66,.6,7.3,1.38,11.03,1.42,1.32,.01,1.86,.54,1.81,1.89-.29,7.74,2.08,15.14,2.99,22.73,.51,4.25,2.93,7.5,5.9,10.39,.59,.57,1.26,1.24,2.06,1.22,2.45-.05,2.72,1.62,3.03,3.42,.94,5.37,1.86,10.75,3.61,15.94,1.81,5.38,4.52,10.17,8.92,13.88,.43,.37,.79,.82,1.37,1.43-6.16,3.35-9.05,8.95-11.08,15.15-1.65,5.07-3.35,10.13-4.92,15.23-1.14,3.68-2.05,7.41-.63,11.25,.33,.9,.04,1.56-.74,2.07-.49,.31-.95,.67-1.42,1.01-8.77,6.29-17.54,12.59-26.3,18.88-.94,.67-1.79,1.44-3.07,1.49-3.44,.13-6.58,1.41-9.62,2.82-7.07,3.27-13.85,7.06-20,11.89-.98,.77-1.88,1.03-3.15,.96-4.85-.25-8.8,1.62-11.81,5.46-2.68,3.41-4.54,7.28-6.08,11.3-4.32,11.27-8.21,22.69-11.76,34.22-.31,.99-.62,1.99-.97,3.15-1.46-.53-1.6-1.91-2.09-2.95-8.37-17.69-14.48-36.13-19.22-55.11-7.37-29.55-9.52-59.48-7.99-89.83,1.61-31.85,6.27-63.26,12.84-94.41,1.94-9.2,4.54-18.23,7.59-27.13,2.94-8.59,6.53-16.88,11.05-24.75,7.34-12.78,14.47-25.72,24.03-37.05,14.48-17.17,29.77-33.52,48.28-46.48,16.17-11.31,33.61-20.2,52.31-26.45,13.4-4.48,26.97-4.28,40.32,.41,31.65,11.12,59.23,28.56,82.12,53.26,4.97,5.36,10.11,10.58,14.73,16.25,23.19,28.47,39.23,60.32,46.3,96.6,4.25,21.78,7.73,43.67,10.03,65.7,2.26,21.72,2.99,43.55,1.53,65.39-.82,12.29-2.61,24.46-5.23,36.5-.6,2.6-.65,2.66-3.18,2.05h0Zm-320.14,88.1c.02,1.01-.38,1.46-1.37,1.57-6.86,.78-12.69,4.17-18.63,7.32-2.36,1.25-4.75,2.45-7.42,2.85-4.32,.65-7.52-2.25-7.41-6.58,.03-1.08,.36-1.73,1.51-1.92,1.26-.2,2.51-.45,3.74-.79,7.05-1.97,12.73-5.97,17.17-11.76,.77-1.01,1.52-2.03,2.4-3.21,1.73,.92,3.14,1.74,4.59,2.43,4.28,2.05,5.32,5.8,5.42,10.09h0Zm-35.23-183.21c1.28,3.67,1.68,7.47,.36,11.27-.07,.21-.22,.39-.48,.85-2.27-2.23-3.56-5.09-5.49-7.43-1.99-2.41-3.89-4.91-5.97-7.24-2.06-2.31-4.29-4.46-6.8-7.04,10.23-1.48,17.66-6.24,21.67-15.8,.8,1.9,.84,3.75,.13,5.59-.5,1.29-1.02,2.6-1.73,3.79-3.05,5.09-3.66,10.36-1.69,16.01h0Zm1.08-41.04c-1.3-.02-1.56-1.07-2.16-1.68-3.72-3.82-8.19-6.01-13.5-6.47-9.68-.85-17.2,7.3-15.67,17.01,.16,1.02,.44,2.01,.83,3.79-3.99-2.35-5.92-5.42-6.97-9.06-1.47-5.13-1.37-10.34-.2-15.51,2.11-9.38,7.14-16.99,14.18-23.56,1.38,1.11,1.64,2.67,2.36,3.92,5.29,9.19,16.55,12.67,25.19,7.78,1.09-.62,1.93-1.67,3.4-1.91,1.04,4.14,.65,8.06-1.48,11.71-2.59,4.42-4.94,8.93-5.98,13.98h0Zm6.83-31.32c-5.5,7.78-16.5,8.08-22.82,.55-5.96-7.1-7.92-21.07,1.07-29.95,4.39-4.34,9.62-7.24,15.48-9.04,3.21-.99,6.47-1.82,9.71-2.72,6.5-1.8,11.26-5.81,14.59-11.6,3.69-6.43,5.71-13.19,4.03-20.67-.19-.84-.36-1.63,.71-1.99,1.32-.45,1.57,.58,1.91,1.43,1.41,3.62,1.92,7.4,1.95,11.62-.11,9.67-3.92,18.4-9.46,26.49-3.1,4.52-6.82,8.52-10.94,12.13-2.36,2.07-2.39,2.03-4.72-.02-4.5-3.96-10.07-4.62-15.16-1.8-5.01,2.78-7.94,8.55-7.13,14.03,.79,5.35,6.04,8.48,10.85,6.47,2.74-1.14,4.35-4,3.78-6.73-.25-1.21-.76-2.31-2.22-2.2-1.34,.1-1.62,1.16-1.49,2.31,.18,1.59-.3,2.75-1.92,3.22-1.71,.5-3.62-.2-4.57-1.69-.51-.79-.75-1.68-.83-2.63-.32-3.79,2.31-8.1,6.01-9.8,3.73-1.71,7.61-1.03,10.52,2,3.6,3.74,4.36,8.31,3.62,13.26-.41,2.65-1.4,5.11-2.97,7.33h0Zm4.33,205.08c-.08,1.08-.31,1.8-1.59,1.66-4.98-.56-9.63,.55-14.04,3.07-1.46-2.99-.79-5.68,.02-8.32,1.62-5.24,4.56-9.81,7.58-14.84,2.15,3.23,4.03,6,5.86,8.8,1.91,2.93,2.43,6.18,2.17,9.63Zm23.76-283.16c4.26-2.43,7.87-5.67,11.54-8.88-1.64,5.38-4.9,9.16-10.13,11.13-.85,.32-1.54,.49-2.01-.51-.36-.79-.08-1.35,.6-1.74Zm32.32-76.4c-.91-8.92-.75-17.84-.18-26.77,.08-1.21,.39-2.4,.66-4.01,8.8,23.07,28.86,27.16,45.35,15.26,1.54,2.12,3.19,4.18,5.77,6.13-4.31,2.47-6.19,6.68-8.91,10.22-2.28,2.97-5.26,4.84-8.87,5.74-3.04,.76-6.05,1.58-8.91,2.9-4.08,1.88-7.04,4.83-8.75,9-.79,1.93-1.54,3.88-2.33,5.81-2.22,5.47-5.75,9.47-11.84,10.68-1.36,.27-2.67,.77-4.54,1.32,.58-2.41,1.04-4.3,1.48-6.2,2.34-9.94,2.1-20,1.07-30.08h0Zm99.24-32.15c-.82-.48-1.6-.2-2.12,.57-.75,1.11-1.59,2.01-3.06,1.92-.58-.03-1.17-.1-1.41-.77-.64-1.81,1.22-4.99,3.22-5.36,2.85-.54,5.32,.28,7.19,2.49,1.96,2.31,2.34,5,1.28,7.83-1.43,3.79-5.24,6.29-9.54,6.28-.46,0-.93,.04-1.39-.01-4.62-.43-5.13-1.43-3.02-5.53,.57-1.1,1.19-1.51,2.43-1.32,2,.3,3.94,.08,5.61-1.23,.83-.65,1.53-1.42,1.79-2.5,.25-1.01-.09-1.86-.98-2.37Zm37,2.64c.53,1.51,1.7,2.51,3.14,3.05,2.13,.79,4.31,.82,6.38-.29,.69-.37,1.31-.87,2.3-1.53,.53,1.15,.92,1.98,1.29,2.82,1.49,3.36,1.46,3.43-2.01,5.02-4.91,2.24-9.89,1.58-13.19-1.76-4.5-4.55-3.01-11.72,2.81-13.43,2.52-.74,4.83-.2,6.83,1.46,1,.83,1.81,1.88,.96,3.31-.73,1.23-2.63,1.61-4.02,.85-.64-.35-.97-.96-1.39-1.51-.65-.84-1.46-1.14-2.4-.47-.9,.61-1.02,1.55-.7,2.48h0Zm103.54,53.43c.09,.44,.05,.91,.12,2.34-3.94-3.65-8.07-4.24-12.47-4.31-3.86-.06-6.43-2.43-7.9-5.88-.72-1.7-1.17-3.51-1.69-5.29-1.06-3.68-3.09-6.74-5.95-9.23-2.92-2.54-6.4-4.04-10.25-3.47-6.2,.91-10.27-1.72-13.15-6.89-.44-.79-1.26-1.37-1.34-2.52,2.26-1.85,4.64-3.7,6.11-6.37,8.34,5.96,17.08,9.1,26.96,5.61,9.63-3.41,15.29-10.79,18.61-20.61,.72,2.02,.86,3.63,.95,5.24,.47,8.93,.52,17.84-.35,26.77-.79,8.19-1.25,16.43,.35,24.61h0Zm3.92,16.12c1.94,2,2.44,4.53,3.7,6.61,1.23,2.04,2.34,4.15,3.58,6.35-5.12-.73-7.98-5.81-7.28-12.96Zm22.98,31.68c2.17,.65,3.54,2.12,5.22,2.98,.77,.39,.82,1.04,.55,1.77-.69,1.82-1.37,3.64-2.11,5.59-4.07-2.52-3.37-6.4-3.66-10.34Zm32.63,274.82c1.99-1.64,3.21-3.92,4.53-6.37,3.95,6.95,9.44,13.29,7.76,22.53-4.31-2.34-8.47-3.6-12.97-3.44-.74,.03-1.28-.2-1.54-1.04-1.34-4.29-1.82-8.35,2.22-11.68Zm-.32-212.44c3.4-5.27,9.42-6.51,14.09-2.79,2.68,2.13,4.15,4.96,4.05,8.47-.05,1.57-.59,2.97-1.93,3.91-2.5,1.76-5.17,.55-5.37-2.5-.08-1.27-.12-2.45-1.71-2.44-1.45,0-1.87,1.16-2.06,2.38-.47,3.03,1.6,6.02,4.69,6.81,4.61,1.18,9.01-1.64,9.91-6.34,1.03-5.33-1.79-11.33-6.69-14.25-4.82-2.87-10.59-2.45-14.96,1.08-3.12,2.52-3.15,2.55-6.06-.14-8.78-8.11-15.51-17.54-18.5-29.31-1.36-5.36-1.56-10.79-.38-16.22,.27-1.24,.6-2.49,1.06-3.67,.34-.86,.37-2.34,1.94-1.86,1.5,.46,.81,1.61,.66,2.61-1.62,10.77,2.21,19.59,9.81,26.98,2.63,2.56,5.99,3.93,9.49,4.93,3.34,.95,6.72,1.8,10.04,2.84,4.93,1.54,9.33,4.08,13.26,7.45,10.24,8.78,8.72,22.63,3.16,30.31-2.98,4.11-7.12,6.18-12.2,6.34-3.68,.06-6.81-1.23-9.45-3.76-5.51-5.27-6.8-14.73-2.85-20.83h0Zm4.76,47.3c.37-1.96,1-3.83,1.89-5.58,2.13-4.22,2.79-8.57,1.16-13.58,11.35,1.31,18.66-3.56,22.9-13.3,.38,0,.67-.09,.79,.01,9.9,9.26,15.69,20.29,14.6,34.22-.37,4.65-1.94,8.82-5.54,12.01-.51,.45-.97,1.03-1.78,.99-.7-.63-.1-1.25,.04-1.86,2.66-11.27-6.41-20.57-17.73-18.1-6.2,1.35-11.07,4.63-14.01,10.43-.26,.51-.46,1.07-1.16,1.37-1.26-2.06-1.61-4.23-1.16-6.61h0Zm4.79,25c4.7,5.38,10.44,8.12,17.65,9.02-2.77,2.91-5.25,5.38-7.56,7.99-2.29,2.6-4.41,5.35-6.63,8.05-7.4-11.54-7.89-13.63-3.46-25.06h0Zm-13.93-104.17c5.79,4.45,12.44,6.59,19.7,6.9,1.27,.05,2.56,.11,3.82,0,1.61-.13,2.39,.23,2.81,2.07,.9,3.97,3.58,6.37,7.61,7.2,1.68,.35,3.25,.04,4.67-.85,2.58-1.63,2.72-5.33,.32-7.09-.78-.57-1.64-.94-2.51-.12-.72,.68-.62,1.41-.12,2.18,.35,.54,1.13,1.04,.54,1.79-.65,.82-1.59,.79-2.55,.56-3.55-.83-5.44-4.48-4.03-7.82,2.04-4.83,8.26-6.91,12.56-4,4.79,3.24,5.77,8.23,5.31,13.54-.44,5.13-3.29,8.54-8.27,10.07-3.82,1.17-4.94,.76-7.24-2.47-4.26-5.96-10.15-9.75-16.84-12.42-3.78-1.51-7.75-2.36-11.66-3.46-10.39-2.92-18.12-13.35-17.96-24.56,.05-.65,.09-1.7,.24-2.73s.24-2.18,1.83-1.87c1.32,.26,1.71,1.03,1.38,2.27-.63,2.33-.34,4.66,.4,6.86,1.93,5.62,5.26,10.32,9.99,13.94h0Zm-33.27-126.03c4.95-2.44,9.2-2.16,12.62,1.04,3.98,3.73,5.44,8.39,3.9,13.63-1.71,5.82-8.53,7.82-13.23,4.1-2.68-2.12-3.15-5.93-1.01-8.32,.47-.53,1.02-1.06,1.78-.78,.57,.21,.8,.8,.8,1.42,0,.23-.02,.46-.04,.69-.1,1.17,.2,2.22,1.5,2.29,1.35,.08,2.03-.88,2.27-2.17,.38-2.02-.62-4.48-2.24-5.51-1.68-1.06-4.08-.84-5.86,.54-3.99,3.08-4.42,10.09-.82,13.69,.65,.65,1.39,1.25,2.18,1.72,1.14,.67,1.29,1.33,.62,2.52-11.85,20.83,1.68,43.68,17.7,51.14,2.66,1.24,5.37,2.17,8.32,2.3,.56,.02,1.16-.08,1.58,.61-.35,1.36-1.61,1.42-2.69,1.65-2.67,.56-5.31,.26-7.91-.5-3.05-.88-5.86-2.3-8.28-4.32-11.03-9.24-19.43-20.23-22.49-34.65-1.92-9.08-2.49-18.15,.45-27.17,1.17-3.59,2.99-6.79,5.4-9.66,1.52-1.78,3.33-3.21,5.45-4.26h0Zm-42.39-47.89c.31-.92,.99-.79,1.7-.58,3.27,.93,6.3,2.46,9.05,4.38,12.86,8.93,21.51,20.93,25.78,36.03,.25,.89,.29,1.83,.51,2.73,.61,2.58-.15,4.4-2.11,6.38-6.07,6.15-8.54,13.99-9.01,22.44-1.22,21.85,7.26,39.56,23.53,53.76,4.73,4.13,10.17,6.9,16.65,7.05,2.21,.05,4.45,.03,6.48-.97,1.36-.67,2.25-.53,3.28,.67,2.01,2.34,4.62,3.86,7.63,4.59,6.9,1.68,14.01-4.08,13.63-11.02-.19-3.6-3.23-6.31-7.33-6.55-3.35-.19-5.9,1.75-6.51,5.02-.1,.56-.15,1.16-.05,1.71,.17,.86,.7,1.46,1.65,1.51,.77,.04,1.33-.33,1.65-1.03,.14-.31,.22-.66,.35-.98,.93-2.3,2.07-2.87,4.18-2.12,2.02,.72,2.73,2.25,2.08,4.47-1.29,4.36-5.61,6.54-9.91,5-4.83-1.72-7.8-6.25-7.45-11.37,.39-5.68,4.53-10.46,9.96-11.5,12.39-2.37,23.62,9.59,20.45,21.93-2.49,9.7-9.24,15.34-18.75,16.97-15.22,2.61-29.39-.57-40.58-11.58-15.27-15.03-23.71-33.3-23.25-57.54-.01-3.66,.86-9.65,1.17-15.67,.55-10.81,.31-21.58-2.3-32.17-1.97-8-6.03-14.77-11.81-20.56-2.87-2.88-5.89-5.6-9.13-8.06-.46-.35-.93-.69-1.39-1.04-.72-.58-.37-1.26-.15-1.9h0Zm.48,6.49c4.56,3.78,8.75,7.9,12.36,12.66,3.7,4.88,4.66,10.28,3.93,16.1-1.34,10.65-10.63,20.27-19.89,21.69-7.02,1.07-13.28-.87-18.87-5.15-1.07-.82-1.66-1.75-1.29-3.28,1.16-4.89,.48-9.66-1.2-14.34-.87-2.41-.4-3.42,1.83-4.35,2.68-1.11,6.67-.27,8.73,1.84,2.21,2.27,2.83,5.83,1.53,8.72-.49,1.1-1.17,2-2.31,2.46-1.07,.43-2.07,.38-2.78-.64-.61-.87-.46-1.78,.13-2.59,.26-.36,.65-.66,1.04-.9,1.04-.64,1.6-1.52,.76-2.56-.78-.96-1.92-.63-2.89-.17-2.96,1.42-3.89,6.02-1.62,8.71,1.05,1.24,1.95,2.56,2.93,3.84,3.06,4.04,7.33,5.15,12.09,4.32,9.86-1.73,16.52-10.82,15.31-20.84-1.1-9.07-5.53-16.34-12.37-22.26-.86-.75-1.99-1.19-2.6-2.22,.11-.23,.16-.47,.31-.64,2.19-2.55,2.23-2.59,4.87-.4h0Zm-31.94-10.52c1.36-2.35,3.21-3.93,6.02-4.17,2.82-.24,3.18-.09,4.27,2.66,1.08,2.73,3.09,4.32,5.88,4.89,2.61,.53,5.43-1.1,6.13-3.46,.31-1.04,.38-2.11-.76-2.75-1.02-.57-1.81-.1-2.36,.76-.51,.81-.95,1.66-2.03,1.67-.97,0-1.8-.39-2.48-1.1-1.52-1.58-1.49-4.03,.07-5.65,1.83-1.9,5.33-2.5,8.14-1.39,4.35,1.72,6.45,7.08,4.71,12.05-1.57,4.5-5.71,7.11-11.26,7.11-2.87,.05-5.56-.67-7.92-2.25-2.69-1.81-5.24-3.84-7.89-5.71-1.09-.78-1.15-1.57-.52-2.66h0Zm7.12,11.91c4.06,2.62,8.71,3.01,13.41,2.01,1.31-.28,2.44-.39,3.61,.43,8.96,6.25,14.22,14.56,13.7,25.75-.31,6.82-5.99,12.44-12.69,13.14-2.71,.28-5.3-.06-7.39-2.56,3.77-2.09,5.56-5.22,5.61-9.38,.14-10.36-10.69-13.89-16.92-10.41-1.83,1.03-2.71,1.1-4.21-.56-6.06-6.73-15.16-7.65-22.63-2.55-.64,.43-1.1,1.21-2.29,1.15-1.56-12.37,6.63-19.15,18.87-19.74,3.83-.19,7.51,.52,10.93,2.72h0Zm-23.81-9.35c4.83-1.13,9.33-.24,13.48,2.65-3.06,.39-6.01,.93-8.92,1.76-11.02,3.15-16.03,12.37-14.11,23.75,.34,2.01,.41,3.72-.25,5.69-2.5,7.5,.57,15.54,7.01,18.92,5.87,3.09,13.07,.94,16.2-4.89,2.26-4.22,1.79-8.34-.92-12.13-3.08-4.3-10.07-4.26-13.33-.06-2.72,3.5-.93,8.85,3.26,9.75,.96,.21,1.92,.2,2.42-.82,.52-1.05-.01-1.83-.98-2.23-1.5-.63-2.73-1.4-2.43-3.29,.23-1.45,1.32-2.12,2.59-2.53,1.87-.6,3.72-.72,5.13,.94,1.57,1.86,2.25,4.05,1.72,6.48-1.15,5.23-6.89,7.94-11.7,5.56-4.27-2.1-6.75-7-5.94-12.33,.78-5.07,3.51-8.86,8.45-10.58,4.82-1.68,9.4-1.06,13.34,2.43,2.39,2.12,4.05,4.77,5.09,7.79,1.31,3.81,1.46,7.77,.89,11.7-.44,3.04-1.84,5.78-4.15,7.87-3.85,3.49-8.27,5.9-13.48,6.79-4.18,.71-7.8-.36-11.06-2.94-13.64-10.8-17.88-32.25-9.24-47.35,3.81-6.65,9.38-11.17,16.93-12.93h0Zm-48.74-18.2c1.87-12.75,11.92-20.18,24.64-18.13,4.41,.71,8.53,2.2,12.08,4.99,6.06,4.77,8.17,12.92,5.12,19.7-2.46,5.49-8.74,8.32-14.15,6.42-2.48-.87-4.11-2.55-4.93-5.01-.73-2.21-.19-3.99,1.52-5.27,1.86-1.4,3.65-1.45,5.6,.03,.85,.65,1.6,1.02,2.43,.23,.8-.75,.62-1.7,.15-2.56-.65-1.19-1.71-1.88-3.03-2.11-3.32-.57-6.25,.24-8.56,2.73-2.29,2.47-2.46,5.4-1.42,8.46,2.1,6.15,8.74,9.24,15.69,7.27,1.22-.35,2.37-.91,3.55-1.41,.44-.18,.88-.41,1.27-.05,.48,.44,.42,1.04,.3,1.62-.14,.63-.67,.92-1.15,1.23-6.7,4.34-11.11,10.4-13.55,17.95-.1,.31-.38,.57-.7,1.05-6.78-5.47-14.19-10.12-19.46-17.23-4.39-5.93-6.49-12.48-5.4-19.91h0Zm-4.35,10.03c.05-.2,.27-.36,.39-.51,.25-.21,.42-.15,.49,.18,1.79,7.91,6.38,14.06,12.24,19.41,4.12,3.76,8.68,6.98,13.04,10.44,1.62,1.28,2.39,2.59,2.07,4.71-.44,2.86-.19,5.78-.09,8.59-.98,.83-1.62,.02-2.29-.23-5.7-2.14-10.97-.5-14.23,4.6-.73,1.14-1.11,2.1-2.87,1.38-6.06-2.49-12.11-2.98-17.75,.79-.69-.27-.87-.7-1.08-1.12-2.33-4.67-6.12-6.75-11.29-6.51-2.43,.11-2.47,.06-2.54-2.33-.07-2.44-.13-4.9-.83-7.25-.6-2.02,.14-3.21,1.73-4.37,3.08-2.27,6.09-4.65,9.02-7.11,6.61-5.55,11.94-12.01,13.99-20.67h0Zm-38.93-24c6.51-4.32,13.71-5.52,21.29-3.51,8.12,2.16,13.77,9.66,14.47,18.89,.47,6.25-1.13,11.95-4.62,17.12-.78,1.15-1.65,2.24-2.54,3.31-3.46,4.14-10.81,10.31-16.2,13.59-.71-1.41-1.27-2.68-1.95-3.89-3.58-6.37-8.62-11.13-15.42-13.96-2.19-.91-2.16-.98-.9-3.68,1.12,.18,1.94,1.04,2.92,1.54,4.03,2.04,8.2,2.54,12.44,.92,3.98-1.53,6.39-4.52,7.05-8.77,.94-6.03-5.14-11.1-10.95-9.17-1.39,.46-2.47,1.27-2.74,2.84-.12,.74,0,1.43,.62,1.86,.64,.44,1.28,.23,1.93-.16,2.76-1.68,4.61-1.61,6.4,.18,1.62,1.62,1.67,4.33,.09,6.74-1.6,2.43-3.98,3.46-6.77,3.66-6.18,.42-11.59-4.13-12.5-10.66-.99-7.1,1.41-12.89,7.38-16.85h0Zm-8.47,34.32c8.15,2.63,13.75,8.06,16.95,15.88,4.88,11.94,3.37,23.38-3.08,34.36-2.1,3.57-4.94,6.35-8.21,8.87-7.51,5.77-19.17,3.38-25.1-2.95-2.32-2.48-3.16-5.65-3.39-8.95-.47-6.85,.71-13.22,5.89-18.24,4.56-4.42,11.81-4.84,16.94-1.04,5.08,3.77,6.77,10.91,3.92,16.55-2.2,4.35-6.87,6.53-10.98,5.13-4.66-1.59-6.82-6.66-4.7-10.99,1.48-3.03,4.98-3.83,7.61-1.73,1.59,1.27,1.6,3.17,.03,4.43-.18,.14-.4,.24-.61,.34-1.06,.5-2.41,1-1.68,2.47,.74,1.48,2.19,1.01,3.37,.52,3.89-1.61,4.83-6.77,1.85-9.9-3.8-4-10.67-3.26-13.49,1.45-2.46,4.1-2.22,8.96,.63,12.76,2.89,3.84,7.9,5.67,12.34,4.52,6.61-1.72,10.93-7.87,10.77-15.27-.06-2.6-1.32-4.97-1.55-7.44-.23-2.44,.95-4.92,.91-7.52-.18-12.25-8.1-18.53-18.64-20.21-1.58-.25-3.18-.42-4.78-.63,4.76-3.26,9.71-4.12,15-2.41Zm-13.05,6.31c1.6,.04,3.19,.52,4.77,.88,7.86,1.83,14.11,8.03,12.69,18.64-.84,.56-1.24-.25-1.75-.61-7.91-5.61-16.98-4.76-23.44,2.41-1.32,1.46-2.12,1.34-3.66,.45-4.23-2.46-10.04-1.69-13.6,1.55-3.53,3.21-4.62,8.58-2.74,13.12,.92,2.23,2.64,3.71,4.81,4.98-2.43,2.63-5.22,2.99-8.15,2.5-6.57-1.11-11.82-6.75-12.03-13.45-.35-11.05,4.89-19.24,13.75-25.39,1.03-.71,2.09-.83,3.3-.53,5.36,1.32,10.35,.37,14.96-2.6,3.43-2.2,7.28-2.04,11.09-1.95h0Zm-28.99-17.41c2.66-1.46,5.33-1.39,7.92,.17,2.33,1.4,2.97,3.86,1.6,5.93-1.32,1.99-3.21,2.16-4.69,.28-.82-1.04-1.61-1.85-2.83-.93-1.1,.83-.85,2.05-.31,3.16,1.1,2.28,3.73,3.42,6.5,2.73,2.82-.7,4.74-2.53,5.43-5.31,.48-1.97,1.66-2.28,3.31-2.2,3.17,.16,5.45,1.67,6.93,4.47,.52,.99,.42,1.71-.52,2.37-2.83,2.02-5.5,4.27-8.46,6.06-3.85,2.33-8.06,2.73-12.36,1.19-4.34-1.55-6.9-5.21-6.89-10.84,.05-2.42,1.18-5.32,4.37-7.08h0Zm-2.74,19.89c-5.21,3.31-8.86,7.75-11.62,12.93-3.02,5.67-4.6,11.62-3.17,18.1,1.93,8.73,10.21,14.98,18.86,14.2,3.69-.33,6.67-1.92,8.6-5.15,.67-1.12,1.56-1.99,2.37-2.96,2.3-2.76,1.56-7.1-1.41-8.77-1.06-.6-2.24-1.06-3.1,.17-.79,1.12-.07,1.95,.93,2.54,.52,.3,.93,.68,1.19,1.22,.38,.8,.34,1.57-.18,2.3-.54,.76-1.33,.88-2.17,.72-1.1-.21-1.85-.92-2.44-1.82-1.76-2.67-1.33-6.88,.95-9.38,2.31-2.53,6.76-3.28,9.6-1.64,1.38,.8,2.02,1.79,1.36,3.44-1.98,4.97-2.64,10.07-1.36,15.33,.3,1.22-.38,1.96-1.18,2.69-1.82,1.67-3.94,2.82-6.24,3.69-15.22,5.72-31.39-4.55-32.81-20.87-.48-5.49,.49-10.53,3.89-15.11,3.56-4.8,7.74-8.93,12.32-12.69,2.69-2.23,2.52-2.92,5.61,1.06h0Zm-76.38,118.41c9.71-.58,16.64-6.09,22.36-13.21,5.98-7.44,9.37-15.98,8.59-25.79-.38-4.8-1.55-9.37-3.91-13.61-.39-.7-.96-1.32-1.01-2.34,.92-.72,1.97-1.44,2.91-2.28,3.95-3.53,3.82-10.56-.23-13.93-1.87-1.56-3.96-1.85-5.79-.81-1.74,.99-2.78,3.23-2.51,5.37,.16,1.26,.66,2.33,2.07,2.38,1.59,.05,1.84-1.08,1.73-2.38-.07-.84-.05-1.74,.96-1.94,.91-.18,1.47,.54,1.94,1.22,1.72,2.47,1.17,5.8-1.28,7.78-4.97,4.02-12.34,1.42-13.58-4.95-1.02-5.19,.56-9.66,4.62-13.11,2.92-2.49,6.33-2.74,9.84-1.56,7.18,2.4,10.78,8.1,13.13,14.78,2.64,7.53,2.43,15.28,1.32,23.05-2.23,15.64-10.52,27.77-22.14,37.91-3.46,3.02-7.46,5.11-12.06,5.85-2.44,.39-4.86,.36-7.17-.7-.43-.2-.83-.52-.79-1.02,.03-.53,.5-.68,1-.71h0Zm-2.47,22.9c-6.44,.83-12.74,.46-18.81-2.04-9.02-3.72-14.58-12.19-13.96-21.23,.74-10.85,12.5-19.06,22.51-15.72,4.79,1.6,8.29,6.48,8.39,11.71,.09,4.83-2.79,8.97-7.43,10.7-4.33,1.61-8.59-.49-9.95-4.9-.78-2.54,.37-4.39,3-4.8,1.4-.22,2.55,.13,3.05,1.62,.15,.44,.21,.91,.36,1.34,.33,.96,.91,1.73,2.02,1.48,1.2-.26,1.58-1.25,1.57-2.4-.02-2.7-2.08-5.24-4.76-5.69-2.93-.49-5.57,.25-7.63,2.44-2.09,2.22-1.94,4.9-1.04,7.53,2.31,6.72,9.35,9.49,15.9,6.45,2.48-1.15,4.03-4.14,6.36-4.54,2.34-.41,4.97,1.39,7.72,1.31,5.55-.17,10.55-1.98,14.8-5.38,12.43-9.91,21.41-22.16,24.57-38.07,1.64-8.26,2.15-16.56,.19-24.87-1.48-6.26-4.28-11.76-8.99-16.19-1.05-.98-1.35-1.93-1.24-3.35,.38-4.83,1.82-9.36,3.92-13.64,5.93-12.13,13.94-22.47,26.11-29,1.73-.93,3.59-1.61,5.42-2.35,.63-.26,1.38-.44,1.77,.44,.35,.78,.55,1.55-.32,2.17-.57,.41-1.12,.83-1.67,1.26-3.39,2.64-6.59,5.51-9.57,8.61-6.83,7.1-10.65,15.66-12.12,25.33-1.76,11.56-1.61,23.14-.45,34.73,.34,3.36,.47,6.72,.58,10.09,.31,21.96-8.42,40.1-23.68,55.36-7.29,7.27-16.62,10.3-26.62,11.6h0Zm-46.9,27.78c4.34-5.41,12.63-4.09,14.99,2.27,1.19,3.22-.79,6.84-4.13,7.49-.9,.17-1.91,.33-2.56-.55-.54-.74,.2-1.26,.55-1.81,.48-.77,.62-1.54-.17-2.17-.87-.69-1.74-.41-2.54,.19-2.49,1.89-2.1,5.72,.77,7.24,2.23,1.18,4.5,.88,6.7-.13,2.69-1.24,4.56-3.33,5.14-6.19,.4-1.95,1.26-2.31,3.04-2.24,5.38,.23,10.61-.65,15.65-2.62,7.36-2.88,12.71-7.95,16.29-14.91,1.61-3.14,2.57-6.46,1.82-10.06-.14-.67-.43-1.5,.18-1.96,.51-.39,1.31-.58,1.96-.54,.58,.04,.86,.73,.93,1.32,.16,1.38,.28,2.77,.35,3.47-.07,11.44-7.71,21.51-18.03,24.46-3.56,1.02-7.19,1.86-10.66,3.12-7.58,2.73-14.13,6.97-18.54,13.94-.95,1.51-2.15,1.95-3.78,1.83-5.39-.39-9.62-3.99-10.71-9.3-.97-4.68-.26-9.11,2.75-12.85Zm-14.38,89.97c-4.72-8.43-6.27-17.62-6.29-27.15-.15-12.67,3.24-24.08,11.94-33.6,1.81-1.98,3.81-3.73,6.02-5.26,1.12-.78,2.15-1.13,3.49-.29,1.98,1.25,4.22,1.95,6.57,2.09,1.53,.09,1.59,.86,1.37,2.08-.59,3.22-.78,6.47-.16,9.7,.31,1.63-.4,2.57-1.53,3.56-4.62,3.98-8.34,8.71-11.23,14.07-4.26,7.89-6.05,16.25-4.62,25.2,.72,4.47,2.43,8.46,5.69,11.68,.74,.73,1.5,1.5,2.39,2.01,4.16,2.38,8.84,3.45,13.42,4.33,4.56,.87,8.71-2.78,9.49-7.3,.47-2.67-.44-4.84-2.59-6.4-2.26-1.65-4.78-1.62-7.29-.65-.92,.35-1.48,1.15-1.12,2.24,.3,.93,1.06,1.18,1.93,1.12,.69-.04,1.38-.24,2.07-.24,2.7,.01,3.99,2.01,2.91,4.48-1.14,2.62-4.28,3.91-7.02,2.75-3.39-1.43-5.25-4.14-5.82-7.69-.98-6.09,3.82-11.9,9.99-12.18,6.55-.3,13.04,3.63,15.4,9.35,2.44,5.91,.69,12.82-4.64,17.29-6.46,5.42-13.85,6.79-21.85,4.23-8.2-2.62-14.32-7.92-18.52-15.42h0Zm25.11,81.38c.33-.87,.68-1.72,1.03-2.58,2.48-6.22,3.97-12.6,3.31-19.36-.19-1.98-.49-3.94-1.22-5.77-3.69-9.16-9.09-16.98-17.96-21.83-1.7-.93-1.78-1.7-.94-3.19,.76-1.35,.81-2.89,.64-4.41-.54-4.64-5.41-7.05-9.4-4.66-.71,.43-1.32,.97-1.65,1.74-.44,1.03-.54,2.1,.51,2.8,.96,.64,1.78,.22,2.33-.7,.83-1.37,2.06-1.49,3.31-.9,1.36,.64,1.51,1.97,1.34,3.3-.3,2.34-1.78,3.69-3.91,4.43-2.11,.73-3.98,.17-5.33-1.5-2.38-2.94-2.74-6.37-1.6-9.87,1.15-3.51,3.53-5.95,7.15-7.02,1.08-.32,2.02-.03,2.89,.71,2.04,1.74,4.3,3.15,6.68,4.38,1.07,.56,1.79,1.46,2.42,2.45,5.71,8.91,10.79,18.15,14.35,28.14,1.83,5.16,2.94,10.49,2.94,14.38-.07,7.05-1.32,12.21-3.51,17.14-.47,1.06-1.08,2.05-1.67,3.05-.31,.52-.8,.92-1.42,.53-.42-.27-.46-.8-.29-1.26h0Zm-2.99,37.81c-8.81,2.15-16.31-.63-22.41-7.08-5.09-5.38-5.66-12.57-1.91-18.97,4.36-7.42,13.83-11.19,21.97-8.76,7.72,2.31,11.68,10.29,8.61,17.35-1.71,3.93-5.72,6.38-10.04,6.15-4.08-.22-7.77-3.12-8.97-7.12-.55-1.83-.7-3.68,.57-5.32,.67-.87,1.62-1.3,2.73-1.29,1.23,.01,1.48,.81,1.57,1.85,.09,1.05,.67,1.75,1.81,1.69,1.26-.07,1.78-.97,1.98-2.08,.41-2.27-1.27-4.5-3.77-5.05-4.25-.94-8.18,1.82-8.85,6.21-1.05,6.9,4.57,13.97,11.71,14.72,11.01,1.16,18.32-8.58,15.31-19.49-.31-1.11-.63-2.38-1.38-3.16-2.41-2.51-1.45-4.56-.03-7.26,5.35-10.14,5.82-20.81,2.69-31.77-2.25-7.87-5.91-15.1-9.77-22.26-1.26-2.34-2.58-4.65-3.99-7.17,1.76-.47,2.51,.37,3.26,1.02,14.39,12.41,24.92,27.33,27.91,46.42,2.01,12.82,.05,25.27-7.58,36.27-5.29,7.62-12.35,12.89-21.42,15.1Zm-1.87,79.56c-4.67-8.43-5.27-17.4-3.14-26.67,1.58-6.88,4.66-13.09,8.49-18.95,3.17-4.86,6.51-9.61,9.67-14.47,4.2-6.46,7.68-13.24,8.92-20.98,.33-2.09,.5-4.17,.1-6.23-.25-1.28,.1-2.2,.86-3.19,1.41-1.83,2.71-3.75,4.33-6.04,6.31,6.14,8.19,13.3,6.54,21.47-1.34,6.61-4.87,12.25-8.31,17.9-2.53,4.17-5.08,8.32-7.05,12.79-2,4.55-3.23,9.24-1.64,14.18,.51,1.59-.46,2.33-1.3,3.27-3.7,4.13-5.86,8.88-5.64,14.54,.41,10.36,10.4,17.41,20.1,14.14,3.33-1.12,5.91-3.18,7.28-6.53,1.66-4.08,0-8.67-3.83-10.77-3.58-1.96-9.02-.69-11.28,2.64-.57,.84-.8,1.73-.04,2.53,.77,.82,1.67,.63,2.52,.06,.86-.58,1.68-1.26,2.59-1.75,2.09-1.13,3.86-.9,5.42,.59,1.64,1.56,1.97,3.61,.93,5.73-1.43,2.92-5.31,4.85-9.14,4.54-6.69-.54-11.58-6.59-10.77-13.31,1.18-9.71,11.06-17.48,20.56-16.17,9.77,1.35,16.46,10.58,15.06,20.8-1.55,11.4-10.97,21.4-22.2,23.56-11.97,2.32-23.03-2.84-29.03-13.68Zm32.58,37.95c-7.49-1.4-12.47-7.87-12.51-16.82,.03-.31,.08-1.24,.22-2.15,.14-.85,.78-1.05,1.55-.99,.67,.05,1.05,.43,1.12,1.08,.07,.69,.03,1.4,.13,2.08,.85,6.07,5.13,9.36,11.25,8.64,2.93-.35,5.57-1.55,8.16-2.86,3.62-1.83,7.13-3.88,10.91-5.38,3.28-1.29,6.64-2.05,10.19-1.61,7.35,.92,12.4,7.15,11.62,14.37-.68,6.34-7.33,11.05-13.35,9.47-1.99-.52-3.61-1.56-4.71-3.32-1.13-1.81-1.35-3.73-.29-5.61,1.12-1.99,3.02-2.86,5.24-2.85,2.47,.01,3.29,1.61,1.97,3.7-.37,.58-.93,1.04-1.29,1.63-.46,.75-.46,1.55,.2,2.23,.67,.7,1.43,.61,2.23,.21,1.93-.96,3.56-4.15,3.31-6.49-.27-2.51-2.05-4.35-4.72-4.88-3.89-.77-8.19,.93-10.1,4.54-.99,1.86-2.18,2.37-4.05,2.49-2.55,.16-4.99,1.01-7.44,1.71-3.17,.9-6.37,1.42-9.64,.81h0Zm14.4,30.42c-4.39-7.12-7.58-14.63-7.37-23.21,.02-.92,.09-1.86,.24-2.77,.14-.83,.88-1.07,1.58-1.01s.84,.68,.86,1.3c.09,2.45,.44,4.87,1.08,7.22,2.19,8.02,6.75,14.48,13.52,19.26,5.88,4.15,12.44,4.84,19.27,2.98,1.63-.44,3.05-.58,4.71-.1,2.48,.72,5.04,.63,7.52-.3,1.67-.63,3.09-1.58,4.22-2.97,2.54-3.12,2.73-7.37,.43-9.92-2.3-2.56-6.99-2.77-10.22-.43-.46,.33-.91,.74-1.22,1.2-.49,.72-.55,1.55,0,2.27,.59,.77,1.39,.75,2.19,.36,.93-.46,1.8-1.06,2.76-1.45,1.25-.51,2.54-.53,3.56,.52,1.15,1.18,.86,2.56,.29,3.9-.52,1.22-1.45,2.08-2.62,2.68-5.32,2.74-12.21-1.19-12.58-7.18-.47-7.52,7.71-15.24,15.19-14.28,3.32,.42,5.73,2.4,7.75,4.89,7.79,9.62,5.24,23.7-5.54,30.59-4.45,2.84-9.38,3.9-16.46,3.8-11.51-.36-22.05-5.81-29.17-17.35h.01Zm97.27,52.83c-2.54,3.61-3.67,7.59-2.21,11.84,.81,2.36-.15,3.76-1.62,5.18-4.86,4.72-11.96,3.74-14.59-2.01-1.52-3.31,.09-6.7,3.44-7.26,.82-.14,1.61-.06,2.39,.25,.82,.33,1.45,.81,1.25,1.8-.17,.84-.59,1.51-1.53,1.67-.11,.02-.23-.01-.34-.03-1.34-.23-2.41,.02-2.28,1.67,.09,1.24,1.69,2.11,3.25,1.92,1.9-.23,3.89-2.27,4.37-4.47,.49-2.25-.3-4.23-2.28-5.36-2.48-1.42-5.16-1.59-7.67-.31-1.59,.81-3.04,.7-4.67,.48-5.28-.71-10.58-1.27-15.87-1.94-5.86-.73-11.17-2.97-16.12-6.12-5.73-3.64-10.71-8.12-14.94-13.43-3.23-4.05-5.52-8.56-6.83-13.57-.26-.98-.78-1.95-.2-3,1.16,.1,1.05,1.1,1.28,1.81,5.97,18.02,27.86,34.91,52.12,30.22,4.55-.88,9.09-1.86,13.65-2.66,3.59-.63,7.13-.29,10.91,1.24-.7,.97-1.11,1.52-1.51,2.08h0Zm28.64,19.28c-8.07,5.25-18.53,3.94-24.34-2.97-5.62-6.68-3.83-14.75,4.13-18.3,2.78-1.24,5.7-2.03,8.79-1.19,3.15,.85,5.05,3.09,5.03,5.85,0,1.22-.38,2.28-1.25,3.14-1.64,1.61-3.54,1.26-4.43-.85-.22-.52-.18-1.17-.43-1.67-.7-1.35-2.23-1.37-3.03-.06-.5,.82-.6,1.7-.33,2.67,1.15,4.14,5.84,5.98,9.51,3.7,3.92-2.43,4.99-7.93,2.27-11.97-2.09-3.11-5.11-4.59-8.82-4.79-2.84-.15-5.57,.32-8.14,1.48-1.48,.67-2.75,.71-4.3,.13-5-1.89-10.16-2.16-15.4-1.08-4.43,.92-8.85,1.85-13.31,2.6-20.25,3.39-39.88-11.21-45.86-26.32-.16-.42-.41-.83-.11-1.37,1.29-.55,2.02,.12,2.75,1.2,7.4,10.86,18.03,14.81,30.69,13.9,7.78-.56,15.26-2.85,22.78-4.78,7.08-1.82,14.2-3.41,21.5-4.11,6.37-.61,12.55,.19,18.43,2.56,7.22,2.91,12.53,7.86,14.8,15.58,1.01,3.43,.98,6.87,.08,10.32-1.78,6.71-5.05,12.46-11.01,16.33h0Zm35.88-3.58c-1.24,1.06-2.37,.86-2.83-.71-.4-1.35-.7-2.58-2.47-2.03-1.24,.38-1.7,1.85-1.22,3.56,.43,1.54,1.29,2.8,2.83,3.29,1.43,.46,1.96,1.49,2.35,2.75,1.19,3.8,1.21,7.45-1.61,11.54-.89-3.61-2.56-5.83-4.78-7.85-3.81-3.48-4.34-9.79-1.46-13.67,2.11-2.85,6.04-3.73,8.62-1.95,1.82,1.26,2.1,3.75,.57,5.07h0Zm15.95,18.53c-2.68-.57-4.22-2.19-5.01-4.49-.68-1.98-.9-4.05-.67-6.16,.17-1.57,.63-2.79,2.27-3.54,2.18-.99,3.37-2.76,2.97-5.31-.18-1.12-.69-2.08-1.89-2.17-1.29-.1-1.65,.82-1.86,2-.38,2.18-1.21,2.72-2.88,2.2-1.65-.51-2.23-1.78-1.65-3.58,.56-1.71,1.91-2.74,3.98-2.77,4.11-.06,7.03,2.01,9,5.47,1.98,3.47,2.41,7.19-.05,10.47-1.83,2.42-3.36,4.91-4.21,7.88h0Zm28.05-.4c-1.52,7.41-10.15,12.64-17.01,10.6-5.38-1.6-8.41-6.9-6.62-11.54,1.81-4.69,7.69-6.37,11.52-3.3,1.62,1.3,1.98,2.72,.99,3.84-1.05,1.19-3.01,1.24-4.4,.09-.26-.22-.43-.54-.63-.83-.71-1.01-1.65-1.36-2.67-.58-.97,.75-.88,1.82-.4,2.84,1.34,2.87,5.97,4.08,9.18,2.39,3.22-1.69,4.28-5.62,2.21-8.63-1.98-2.87-4.88-4.17-8.3-4.42-1.76-.13-2.65-1.1-2.66-2.91-.05-7.81-5.8-14.31-12.94-14.7-3.1-.17-5.71,.72-7.97,3.49-2.02-2.34-4.08-3.9-6.95-4.11-6.39-.47-11.65,4.55-11.92,11.35-.09,2.22,.62,4.31,1.02,6.4-1.05,.75-2.16,.42-3.15,.71-2.52,.73-4.77,1.83-6.3,4.06-2.04,2.97-1.31,6.63,1.65,8.51,3.14,1.98,7.97,1,9.56-1.96,.6-1.12,.74-2.29-.43-3.1-1.07-.73-1.95-.23-2.62,.78-.25,.38-.56,.76-.93,1.02-1.29,.88-3.3,.6-4.11-.51-.78-1.08-.42-2.46,.96-3.63,2.42-2.05,6.37-2.14,9.06-.19,2.74,1.98,3.81,5.76,2.55,9.03-1.57,4.08-6.13,6.88-10.58,6.34-6.24-.75-13.8-5.48-13.45-15.03,.17-4.62,1.14-8.95,3.86-12.79,.87-1.23,1.64-2.53,2.38-3.84,2.8-4.91,4.71-10.09,4.49-15.85-.06-1.56,.03-2.61,2.12-2.61,2.61,.01,4.89-1.28,7.11-2.58,1.3-.76,2.59-1.56,3.98-2.13,3.96-1.64,7.67-1.35,11.01,1.63,1.29,1.16,2.67,2.24,4.12,3.18,4.26,2.77,8.69,2.96,13.18,.55,1.43-.77,2.8-1.64,4.18-2.49,1.8-1.11,3.7-1.87,5.71-2.03,.98,.73,.6,1.59,.52,2.33-.75,7.79,1.71,14.63,6.15,20.88,1.34,1.89,2.79,3.72,3.99,5.7,2.66,4.33,3.56,9.12,2.54,14.04h0Zm29.14-22.77c-3.07,6.85-11.42,10.95-19.18,9.43-4.57-.9-8.47-3.06-11.64-6.51-3.8-4.13-6.17-9-7.11-14.48-1.14-6.62,.86-12.43,5.29-17.35,3.4-3.78,7.67-6.13,12.58-7.69,10.21-3.24,20.2-1.58,30.22,.66,7.8,1.75,15.48,4.04,23.33,5.61,7.28,1.46,14.5,1.76,21.59-.92,6.45-2.44,12.04-5.98,15.65-12.09,.69-1.17,1.51-1.7,3.03-1-1.74,5.15-4.65,9.58-8.38,13.39-8.13,8.31-17.77,13.68-29.61,14.51-4.68,.33-9.24-.48-13.8-1.4-3.18-.64-6.37-1.27-9.55-1.89-4.57-.9-9.04-.32-13.33,1.29-1.79,.67-3.23,.51-4.93-.19-3.39-1.4-6.94-1.87-10.56-.92-5.65,1.48-8.97,7.25-7.03,12.36,1.06,2.79,3.09,4.63,6.16,4.98,2.49,.29,4.97-1.27,6.17-3.71,.41-.84,.77-1.72,.48-2.68-.27-.91-.65-1.79-1.77-1.9-1.16-.11-1.74,.61-1.89,1.62-.25,1.68-.9,2.95-2.81,2.85-1.68-.09-3.03-1.99-3.08-4.08-.06-2.84,2.16-5.51,5.34-5.92,5.73-.74,10.58,1.09,14.07,5.78,2.33,3.16,2.35,6.72,.76,10.25h0Zm78.57-43.3c-1.36,5.36-3.69,10.23-7.19,14.55-4.57,5.65-9.97,10.34-16.17,14.13-6.62,4.05-13.94,5.57-21.54,6.11-3.36,.24-6.71,.48-10,1.26-1.2,.28-2.24,.12-3.33-.46-2.16-1.16-4.49-1.16-6.77-.51-2.29,.65-3.67,2.39-3.75,4.5-.09,2.43,1.05,4.26,3.08,5.48,1.03,.62,2.24,.6,3.36,.13,.8-.33,1.35-.93,1.31-1.86-.04-.99-.65-1.43-1.59-1.46-.46-.02-.96,.1-1.37-.05-.85-.3-1.25-1-1.21-1.9,.04-.82,.64-1.19,1.31-1.44,3.35-1.23,6.67,1.48,6.32,5.14-.38,3.89-4.92,7.34-9.11,6.88-3.21-.35-5.59-2.1-7.45-4.64-.49-.67-.79-1.38-.47-2.27,2.01-5.59,.41-10.46-3.49-15.21,4.54-1.68,8.67-1.64,12.81-.89,4.56,.82,9.08,1.88,13.65,2.65,21.65,3.65,43.8-11.56,50.21-30.3,.24-.7,.07-1.71,1.2-1.97,.85,.63,.36,1.45,.19,2.13h0Zm27.43-38.05c-2.29,9.61-6.78,18.02-14.19,24.63-6.71,5.99-14.9,8.22-23.26,8.57-9.51-.16-16.89-3.39-21.97-11.23-6.2-9.58-1.18-21.22,4.86-25.64,3.78-2.77,7.89-3.18,12.07-.74,3.9,2.27,6.59,5.51,7.44,10.01,1.26,6.62-4.62,11.97-11.08,10.16-2.15-.6-3.72-1.86-4.28-4.13-.58-2.38,.7-3.85,3.15-3.66,1.33,.1,2.41,.75,3.48,1.47,.85,.57,1.82,.71,2.48-.19,.72-.98,.38-1.96-.41-2.82-2.14-2.32-6.99-3.01-9.68-1.35-2.75,1.69-3.69,5.19-2.33,8.63,1.7,4.31,6.76,7.12,11.74,5.95,2.72-.64,5.11-.36,7.74,.21,7.37,1.62,14.06-.04,19.81-4.97,7.17-6.15,11.49-13.85,12.37-23.37,.09-.98-.6-2.73,1.17-2.75,1.86-.02,1.49,1.75,1.56,2.94,.18,2.77-.02,5.55-.67,8.28h0Zm1.29-14.8c-4.08-.82-8.01-2.39-12.21-2.63-1.3-.07-1.68-.99-2.18-1.92-1.81-3.41-4.85-4.88-8.53-5.1-2.85-.17-5.37,1.38-6.23,3.58-.91,2.32-.04,5.47,2.01,7.28,.93,.81,2.01,1.45,3.09,.51,1.15-1,.53-2.07-.3-3.02-.38-.43-.77-.89-1.02-1.4-.78-1.58-.19-2.78,1.54-3.03,2.36-.33,4.4,.37,5.77,2.4,1.3,1.93,1.16,3.98-.07,5.89-1.64,2.55-4.1,3.67-7.08,3.65-7.74-.06-12.98-7.68-10.47-15.2,2.1-6.3,8.94-10.13,15.87-8.88,3.81,.69,7.29,2.25,10.71,3.99,2.58,1.31,5.13,2.68,7.74,3.95,1.77,.87,3.66,1.44,5.61,1.8,5.92,1.07,10.59-2.16,11.62-8.1,.14-.79,.14-1.61,.18-2.42,.05-.88,.58-1.18,1.37-1.2,.84-.02,1.3,.43,1.39,1.21,.11,.92,.13,1.85,.16,2.36-.53,12.23-9.3,18.22-18.97,16.28h0Zm25.93-95.01c3.91,5.76,8.01,11.39,11.28,17.56,4.03,7.62,6.44,15.64,6.06,24.35-.23,5.3-1.54,10.31-4.09,14.97-5.65,10.33-15.71,15.63-27.16,14.32-10.52-1.2-20.32-9.51-23.36-19.84-1.1-3.73-1.37-7.49-.47-11.34,2.72-11.62,15.43-17.18,25.71-11.13,5.27,3.1,8.74,7.57,9.51,13.8,1.08,8.81-7.52,15.71-15.57,12.51-1.89-.75-3.44-1.9-4.35-3.79-1.02-2.13-.68-4.17,.95-5.72,1.57-1.48,3.33-1.71,5.42-.58,.91,.49,1.72,1.17,2.57,1.77,.84,.59,1.69,.84,2.49-.01,.77-.81,.58-1.69,.03-2.54-1.58-2.45-6.36-4.25-9.31-3.51-3.45,.87-6.1,3.93-6.43,7.41-.38,3.99,1.84,7.71,5.86,9.84,8.35,4.43,18.79-.13,21.42-9.44,1.9-6.74-.03-12.67-4.51-17.74-1.57-1.78-2.03-3.23-1.39-5.51,.86-3.08,.24-6.22-.73-9.24-1.18-3.66-3-7.03-4.88-10.37-2.38-4.24-5.01-8.36-6.95-12.84-2.28-5.27-3.71-10.72-3.89-16.49-.18-5.78,2.18-10.53,5.99-15.21,.63,.93,.89,1.45,1.27,1.86,2.71,2.91,3.93,6.07,3.5,10.29-.43,4.15,1.24,8.2,2.84,12.08,2.16,5.18,5.06,9.92,8.19,14.54h0Zm11.9-56.59c10.13-4.4,23.07,2.15,25.59,12.92,1.24,5.29-.03,9.99-3.62,13.89-6.31,6.86-14.16,9.77-23.28,7.2-13.04-3.67-21.45-12.53-25.96-25.09-3.88-10.79-4.23-21.9-1.05-32.88,4.55-15.71,13.64-28.56,25.96-39.2,.99-.86,1.99-1.88,4.05-1.84-1.46,2.63-2.73,4.92-3.99,7.21-3.64,6.61-7.03,13.33-9.36,20.55-3.31,10.28-3.59,20.5,.53,30.65,.92,2.27,2.71,4.25,3.22,6.5,.53,2.35-2.12,4.08-2.89,6.38-3.2,9.48,2.1,18.83,11.64,20.22,7.89,1.15,15.47-5.44,15.34-13.35-.07-4.07-2.43-7.02-6.17-7.74-1.55-.3-3.02-.04-4.37,.72-1.69,.94-2.62,3.05-2.16,4.74,.26,.95,.79,1.74,1.84,1.85,1.12,.12,1.74-.58,1.88-1.61,.14-.96,.19-1.89,1.49-1.9,1.24-.01,2.29,.37,2.99,1.44,1.04,1.59,.92,3.32,.41,5.03-1.35,4.54-5.54,7.4-10.33,7.08-5.01-.33-8.83-3.94-9.55-9.02-.84-6,2.15-11.31,7.79-13.75h0Zm-7.41-15.01c.72,3.66,2.03,7.14,3.43,10.58,.29,.72,.91,1.65-.14,2.1-1.01,.43-1.34-.66-1.71-1.32-3.18-5.7-4.64-11.84-4.73-18.6,.17-6.21,1.68-12.39,4.09-18.34,3.4-8.41,7.73-16.35,12.53-24.04,1.13-1.81,2.52-3.23,4.47-4.23,1.84-.94,3.56-2.19,5.17-3.51,1.27-1.05,2.43-1.06,3.85-.54,6.05,2.22,8.85,10.21,5.46,15.67-1.41,2.27-3.48,3.14-5.93,2.5-2.25-.59-3.93-2.5-4.07-4.67-.09-1.35,.15-2.59,1.56-3.18,1.21-.51,2.26-.28,3.03,.87,.64,.96,1.4,1.65,2.55,.75,.95-.75,.94-2.26-.08-3.42-1.63-1.84-3.77-2.16-6.05-1.68-2.41,.5-3.83,2.1-4.38,4.43-.47,1.97-.32,3.95,.69,5.75,.63,1.13,.58,1.84-.69,2.45-7.23,3.48-11.74,9.65-15.76,16.25-4.21,6.92-4.82,14.41-3.29,22.18h0Z"/><path class="f" d="M303.91,526.85c.22-.05,.49-.03,.66-.15,1.99-1.36,4-2.69,5.93-4.13,.58-.43,.65-1.23,.2-1.88-.43-.63-1.15-.88-1.83-.6-2.35,.98-4.52,2.31-6.18,4.25-.84,.99-.01,2.48,1.22,2.51h0Z"/><path class="f" d="M266.76,552.74c.29-.1,.7-.13,.91-.35,1.58-1.64,3.16-3.29,4.67-5,.4-.45,.24-1.08-.15-1.58-.39-.5-.91-.67-1.51-.57-1.29,.21-5.15,4.15-5.39,5.52-.19,1.12,.39,1.71,1.47,1.98Z"/><path class="f" d="M331.6,504.18c-.8,.95-.37,2.24,.64,2.57,1.41,.46,6.86-4.09,6.74-5.62-.09-1.09-1.2-1.73-2.35-1.11-1.94,1.03-3.62,2.48-5.03,4.16h0Z"/><path class="f" d="M318.63,516.69c1.17,.03,5.64-3.45,5.93-4.68,.15-.63-.04-1.16-.51-1.53-.46-.37-1.09-.5-1.61-.19-1.77,1.04-3.49,2.18-4.95,3.63-.5,.5-.65,1.19-.33,1.9,.26,.6,.75,.81,1.47,.87Z"/><path class="f" d="M291.51,534.98c1.65-1.23,3.26-2.52,4.83-3.85,.31-.26,.39-.79,.56-1.17-.36-1.11-1.08-1.82-2.07-1.38-2.1,.94-3.94,2.33-5.35,4.18-.45,.58-.34,1.34,.17,1.9,.51,.57,1.24,.77,1.86,.32h0Z"/><path class="f" d="M315.31,459.31c.74-.16,1.22-.66,1.29-1.41,.07-.8,.02-1.6,.02-2.41h-.03c0-1.03,.06-2.07-.02-3.1-.05-.74-.5-1.27-1.3-1.36-.77-.08-1.42,.25-1.65,.96-.7,2.12-.68,4.29,.03,6.4,.21,.66,.87,1.09,1.66,.92h0Z"/><path class="f" d="M335.55,446.87c1.02,.14,2.06,.17,3.22,.27,.57,0,1.26,.01,1.95,0,.85-.02,1.67-.21,1.81-1.21,.16-1.1-.46-1.7-1.51-1.93-1.7-.37-3.42-.47-5.15-.45-1.01,.01-1.86,.35-1.97,1.5-.09,1.12,.63,1.67,1.65,1.82Z"/><path class="f" d="M320.61,448.04c1.63-.6,3.47-.9,5.03-1.9,.64-.41,.83-1.07,.57-1.8-.21-.6-.72-.92-1.32-.92-2-.01-3.8,.74-5.51,1.68-.77,.43-.99,1.25-.58,2.09,.34,.7,.99,.89,1.81,.85Z"/><path class="f" d="M340.31,495.99c.56,.68,1.39,.86,2.16,.37,.98-.62,.91-1.61,.38-2.41-.88-1.33-1.9-2.57-2.93-3.79-.27-.32-.76-.45-.97-.56-1.39-.03-2.16,1.31-1.47,2.54,.78,1.37,1.82,2.62,2.83,3.85Z"/><path class="f" d="M319.31,465.62c-.58,.53-.72,1.2-.4,1.86,.75,1.55,1.85,2.87,3.11,4.03,.56,.51,1.25,.56,1.88,.1,.49-.35,.7-.87,.64-1.87-.83-1.49-1.94-3.19-3.66-4.38-.5-.34-1.1-.17-1.57,.26Z"/><path class="f" d="M331.69,482.94c.43,.39,1.07,.39,1.63,.09,.57-.3,.75-.83,.78-1.66-.7-1.77-1.89-3.43-3.59-4.68-.49-.36-1.1-.16-1.58,.26-.5,.43-.62,1.04-.43,1.57,.61,1.79,1.83,3.18,3.19,4.42h0Z"/><path class="f" d="M350.08,447.19c1.35,.34,2.71,.49,4.09,.43,.74-.03,1.34-.4,1.5-1.17,.19-.92-.23-1.64-1.09-1.88-1.09-.31-2.24-.44-2.76-.53-.85-.07-1.07-.09-1.3-.1-.98-.05-1.98,.12-2.21,1.18-.28,1.29,.66,1.79,1.77,2.07h0Z"/><path class="f" d="M279.46,542.3c1.28,.12,5.15-3,5.22-4.19,.07-1.14-.56-1.74-1.68-1.69-1.16,.06-4.48,2.77-4.72,3.83s.14,1.8,1.18,2.05Z"/><path class="f" d="M214.96,343.94c2.01,1.8,4.37,3.05,7.07,3.52,6.95,1.21,13.43,.36,18.85-4.58,1.24-1.13,2.28-1.35,3.67-.46,.67,.43,1.48,.66,2.24,.94,10.26,3.75,19.71-1.04,23.85-7.71,1.33-2.14,2.1-4.39,1.49-6.94-.29-1.21-.63-2.42-2.05-2.82-2.41,4.63-5.19,6-9.21,4.59-.76-.26-1.46-.69-2.16-1.11-5.65-3.39-10.99-2.84-15.83,1.63-.48,.44-.75,1.23-1.6,1.11-7.2-5.02-14.51-3.82-19.61,3.21-.91,1.26-1.81,2.47-3.61,2.2-2.01-.3-2.56-1.73-2.7-3.49,0-.16-.27-.3-.41-.45-3.38,2.78-3.42,7.29,0,10.36h0Z"/><path class="f" d="M158.76,499.65c.97-.4,3.91-5.27,3.86-6.39-.03-.61-.31-1.1-.85-1.41-.71-.4-1.4-.22-1.86,.36-1.28,1.64-2.4,3.4-3.2,5.31-.46,1.09,.37,2.24,1.39,2.27,.22-.04,.45-.06,.66-.14h0Z"/><path class="f" d="M171.15,477.06c-.12-.62-.47-1.05-1.03-1.27-.59-.23-1.27-.05-1.53,.44-1.01,1.92-2,3.86-2.79,5.87-.4,1.02,.33,1.7,1.45,1.94,.27-.08,.62-.12,.91-.28,1.22-.67,3.26-5.32,2.99-6.7h0Z"/><path class="f" d="M146.34,532.55c-.56-.19-1.17,.1-1.5,.61-.4,.63-.38,1.4,.16,1.9,1.51,1.42,3.3,2.47,5.26,3.1,1.01,.32,1.75-.26,1.92-1.46-.09-.26-.11-.66-.32-.89-1.52-1.61-3.45-2.56-5.52-3.26h0Z"/><path class="f" d="M153.68,506.81c-.54-.32-1.16-.38-1.61,.01-1.58,1.38-2.68,3.11-3.29,5.11-.21,.69,.11,1.36,.81,1.72,.56,.29,1.19,.26,1.61-.16,1.46-1.48,2.43-3.28,3.15-4.87,.04-.95-.12-1.48-.67-1.81Z"/><path class="f" d="M167.79,457.33c-.91-1.84-2.56-2.93-4.37-3.68-1.07-.44-2.12,.56-1.96,1.65,.14,.9,4.03,4.42,4.96,4.49,1.19,.09,1.98-1.23,1.37-2.46Z"/><path class="f" d="M144.87,521.14c-.58-.28-1.16-.09-1.56,.34-1.27,1.34-2.15,2.95-2.7,4.7-.22,.7,.16,1.32,.84,1.7,.57,.31,1.19,.28,1.6-.12,1.42-1.38,2.13-3.18,2.78-4.62,.11-1.16-.3-1.68-.96-2h0Z"/><path class="f" d="M158.71,542.94c-.92-.06-1.54,.37-1.62,1.36-.1,1.27,2.74,4.64,4.19,4.79,.68-.12,1.34-.45,1.44-1.43,.12-1.32-2.65-4.62-4.01-4.72h0Z"/><path class="f" d="M170.94,468.2c.18,.99,.61,1.8,1.75,1.7,1.34-.13,1.49-1.2,1.56-2.58-.19-.82-.36-1.96-.73-3.02-.32-.92-1.09-1.56-2.13-1.3-1.11,.28-1.23,1.21-1.05,2.19,.19,1,.41,2,.6,3.01h0Z"/><path class="f" d="M181.74,186.89c1.33,.1,2.18-.69,2.29-1.99,.11-1.33-.69-2.08-1.98-2.31-1.34,.03-2.21,.69-2.3,2.01-.09,1.32,.67,2.19,1.99,2.29h0Z"/><path class="f" d="M196.88,185.41c1.2-.05,2.14-1.14,2.04-2.35-.1-1.19-1.25-2.18-2.4-1.97-1.16,.21-1.85,.94-1.88,2.16-.03,1.19,1.06,2.21,2.24,2.16Z"/><path class="f" d="M166.51,190.52c1.33,.04,2.16-.76,2.21-2.07,.05-1.33-.77-2.06-2.06-2.22-1.36,.07-2.19,.78-2.23,2.09-.04,1.32,.75,2.16,2.08,2.2h0Z"/><path class="f" d="M212.7,202.28c-.03,1.24,.98,2.21,2.2,2.16,1.21-.05,2.17-1.11,2.08-2.31-.09-1.19-1.2-2.15-2.4-1.97-1.17,.18-1.84,.9-1.88,2.12Z"/><path class="f" d="M214.93,217.73c0,1.22,1.02,2.17,2.25,2.11,1.23-.05,2.16-1.09,2.01-2.32-.15-1.19-.85-1.87-2.05-1.94-1.24-.07-2.22,.92-2.21,2.15h0Z"/><path class="f" d="M211.6,187.02c1.22,.04,2.23-.95,2.17-2.18-.06-1.19-.72-1.93-1.91-2.09-1.19-.15-2.31,.82-2.37,1.99-.07,1.19,.91,2.24,2.11,2.28h0Z"/><path class="f" d="M233.45,504c3.06-1.27,5.37-5.13,5.03-8.39-.35-3.3-2.8-5.13-6.06-4.53-3.83,.71-6.51,3.91-6.52,7.81,0,4.37,3.56,6.78,7.55,5.11h0Z"/><path class="f" d="M224.62,525.64c-1.92,1.85-2.76,4.2-2.82,6.43-.02,4.37,2.7,6.59,5.92,5.25,3.73-1.55,5.71-6.43,4.14-10.18-1.4-3.32-4.62-4.02-7.24-1.5h0Z"/><path class="f" d="M220.57,551.83c-2.15,2.16-3.14,4.89-2.67,7.93,.47,3.03,3.34,4.34,6.06,2.87,2.47-1.33,3.54-3.54,3.7-5.86,.05-1.82-.21-3.16-1.08-4.34-1.57-2.1-4.16-2.46-6.01-.6Z"/><path class="f" d="M276.36,293.39c.7,.04,1.29-.24,1.54-.74,1.35-2.69,2.25-5.54,2.87-8.47,.14-.67-.29-1.37-1.05-1.6-.9-.27-1.67,.08-1.98,.93-.95,2.59-1.88,5.2-2.68,7.84-.29,1.01,.31,1.77,1.3,2.04Z"/></g></g></g></g></g></svg>